<svg id="Layer_8" data-name="Layer 8" xmlns="http://www.w3.org/2000/svg" viewBox="0 0 1920 1080">
  <title>scenebaggrund</title>
  <path d="M960.08,736.33l-9.76-5.73c-3.94-.79-5.75.48-10.51,0-3.6-.37-5-1.34-10.52-3.51-8-3.15-7.2-2-18.79-6.05-6.09-2.16-8.06-3.11-13.7-4.78a91.4,91.4,0,0,0-8.92-2.23,55.52,55.52,0,0,0-9.88-1.28c-4.58-.1-5.19.61-8.28,0a20.45,20.45,0,0,1-7-2.86,21.19,21.19,0,0,1-6.37-5.74,38.39,38.39,0,0,1-3.19-5.41c-.91-2-1.11-2.91-2.23-3.83-1.3-1.06-2-.57-3.85-1.66a14.83,14.83,0,0,1-3.56-3.36,41.84,41.84,0,0,1-3.18-4.12c-1.06-1.54-1-1.62-2.5-4-1-1.55-1.88-2.93-3.18-4.62a21.07,21.07,0,0,0-3.12-3.43,6.66,6.66,0,0,0-3-1.81,6,6,0,0,0-3.31.37,9.11,9.11,0,0,0-2.93,1.88,25.71,25.71,0,0,0-3.18,3.3c-2.43,2.78-2.12,2.64-3,3.5-1.53,1.49-1.78,1.27-4,3.24-2,1.74-2,2.06-3.31,2.93a7.44,7.44,0,0,1-4,1.62,7,7,0,0,1-4.37-1.62c-1.42-1.13-1.38-2-2.62-2.37a4.48,4.48,0,0,0-3,.31,5.06,5.06,0,0,0-1.75,1.31c-1.24,1.41-2.44,1.63-13.1,10.11-5.34,4.24-6.85,5.63-11.66,9.23-1.33,1-2.4,1.77-2.62,1.93-12.6,9.12-43.43,13.26-52.08,8.34a34.64,34.64,0,0,0-3.34-1.67c-6.21-2.86-8.2-2.44-8.8-2.28-1.35.36-1.36.9-3.18,2-3.43,2-6.37,1.87-8.8,2.28-5.43.92-6.18,4.34-11.08,6.83-3.83,1.94-5.38.86-26.7-1.37-8.44-.88-7-.6-15.77-1.52-5.71-.6-8.16-.91-12.44-1.06-4.66-.16-8.54,0-11.23.15-4.67.29-8.13.78-9.1.91-64.48,9-179,24.83-239,3.59,0,0-2.49-.88-38.83-14-8.28-3.46-12.1-2.67-14-1.08-1.6,1.32-1.72,3-4.1,4.64a11.8,11.8,0,0,1-7.65,1.64c-4.78-.46-5.08-3.12-12.71-5.87-3.42-1.24-5.55-1.49-7.65-1.1a12,12,0,0,0-4.64,2.05c-2.47,1.66-6.87,2.77-15.58,4.92-6,1.5-11.83,2.93-20.36,4.38-22.82,3.86-25.14,1-37.84,3.82-3.46.77-6.75,1.75-10.8.55-3.56-1.06-5.21-3.06-9-3-3.31,0-3.37,1.58-5.87,1.5-5.53-.16-6.84-7.72-13.94-9.83-1.05-.32-.78-.08-6.83-.14-16.13-.17-16.6-1.86-21-.27-1.86.66-4.14,1.81-7.1,1.23a9.23,9.23,0,0,1-4.24-2c-3.48-3.07-1.35-6.51-4.1-9.29-3.09-3.13-7.55-.59-10.93-4.24a9.51,9.51,0,0,1-2-4.23c-2.93-9.85-12.14-18.68-20-22.14-4.4-1.95-6.75-1.48-7.65-1.23-2.27.63-2.6,1.86-5.46,2.87-1.34.47-4.55,1.61-7.25.41-3.24-1.44-2.52-4.84-5.87-7.79s-7.7-2.91-8.88-2.87c-6.67.23-12.49,5.84-15.17,10.66-1.39,2.51-1.75,4.47-4.1,6.29a12.49,12.49,0,0,1-7.1,2.32L2.25,695.34v381.82l952.78,3.6Z" style="fill: #c3deee"/>
  <path d="M960.08,829.33V765.18s-5.15,3.56-14.54,10.13c-5.13,3.58-22.67,15.51-44.32,14.35-8.28-.45-17.05-.92-23.63-7.18s-6.32-13.84-15.62-21.1c-3.78-3-6.91-4.11-10.13-5.49-30.65-13.14-37.13-32.75-58.24-33.34-4.74-.13-8.3.74-12.66-1.69-5.84-3.26-6.8-8.93-15.2-13.08-2-1-1.45-.44-4.34-1.74-7.95-3.58-9.24-6.5-16.06-9.57-4.16-1.88-6.41-2.89-9.42-2.4-5,.82-8.39,5.15-9.88,7-2.22,2.79-1.71,3.46-4.71,7.57-1.64,2.23-2.43,2.91-5.33,6.25-3.76,4.32-4.41,5.47-6.49,7.88a56.46,56.46,0,0,1-15,12.81c-5.39,3-7.52,2.77-11.66,6.41-1.73,1.53-4.57,4.41-5.63,5.48-3,3.06-4.18,4.44-6.57,5.79a21.79,21.79,0,0,1-5,1.93,38.21,38.21,0,0,1-11.19,2.17,28.64,28.64,0,0,1-10.66-1.63c-3.14-1.13-5.13-2.53-9.11-5.32-2.17-1.53-2.79-2.11-8.18-6.49-8-6.52-8.13-6.41-10.5-8.57a61.91,61.91,0,0,1-8-8.34c-2.42-3.1-2.05-3.34-4.87-7-3.19-4.17-4.17-4.53-7-8.27-2.18-2.93-2-3.23-4.71-7.41a85.66,85.66,0,0,0-8.18-10.89,67.56,67.56,0,0,0-19.46-15.13c-6.19-3.25-6.56-2.31-10.19-4.71a36.65,36.65,0,0,1-9.81-10c-2.25-3.2-1.73-3.36-4.4-7.25-2.46-3.6-4.27-6.25-7.56-9-1.8-1.48-6-4.92-10.2-5.72a10.34,10.34,0,0,1-2.93-.92,11.18,11.18,0,0,1-3.71-3c-2.1-2.54-3.39-2.33-10.73-8.34-3.8-3.11-8-5.8-11.58-9.11a6.17,6.17,0,0,0-3-1.62,6.07,6.07,0,0,0-4.09.69,7.76,7.76,0,0,0-3.17,4.48c-1.58,4.81-5.09,8.78-7.26,13.36-2.48,5.23-5.23,9.2-10.73,17.14-2.57,3.7-6.53,8.59-14.44,18.37-23.52,29.08-19,20.9-19.61,21.93-.36.64-2.05,3.71-4.48,3.94a3.47,3.47,0,0,1-2-.39c-1-.57-1.24-1.49-1.77-2.23-.91-1.27-2.14-1.15-5.72-2.09s-5.32-1.39-7.1-2.7c-1.58-1.16-1.39-1.64-3.35-3.1-1.69-1.25-2.95-2.18-4.74-2.43-3.59-.49-6.52,2.13-7.24,2.77a14.67,14.67,0,0,0-2.46,3.11c-2.32,3.35-2.52,3-7.62,9.32-1.86,2.32-3.13,4-5.08,6.56-3.59,4.72-5.39,7.09-6.21,8.45-.18.29-1.22,2-2.77,4.09a14.85,14.85,0,0,1-.95,1.21c-1.45,1.58-2.54,1.7-3.52,3.11a5.9,5.9,0,0,0-.72,1.48c-1,2.6-3.71,4.86-5.42,6.18a116.69,116.69,0,0,1-13.41,8.29c-5.81,3.3-8.71,5-11.87,7.36-4,3-6.92,5.28-9.81,8.94a23,23,0,0,1-2.84,3.22c-2.31,2.11-4.41,3-7.36,4.36-6.5,2.92-9.79,4.41-11.59,5.46-2.53,1.47-2,1.44-6.82,4.54-3,2-4.42,2.72-8.8,5.35-4,2.38-7.14,4.29-10.87,6.67-6.06,3.86-9.08,5.79-11.64,8s-3.84,3.6-7.35,6.17a30.76,30.76,0,0,1-6.17,3.87,24,24,0,0,1-9.18,2.08,23.78,23.78,0,0,1-8.11-1.4c-3.14-1-3.54-1.75-9.24-4.59-1.59-.78-4.56-2.26-8.19-3.71a68.43,68.43,0,0,0-10.15-3.37,64.78,64.78,0,0,0-14.1-1.59c-4.78,0-5.67.41-10.46.6-5.91.24-10.15-.24-16.75-1-10.81-1.28-11-2.24-22.13-3.56a97.73,97.73,0,0,0-15.39-.91,58.17,58.17,0,0,0-13.19,1.59,74.84,74.84,0,0,0-13.68,5.08,48.36,48.36,0,0,1-4.92,2.31,26.62,26.62,0,0,1-9.52,2.16,23.57,23.57,0,0,1-10-2c-1.49-.66-1.66-.93-2.92-1.55-4.24-2.09-8.16-1.94-11.9-1.94a155.22,155.22,0,0,1-15.73-.87c-8.89-.8-12.16-1.77-13.49-2.2a23.73,23.73,0,0,0-3.48-1c-1.35-.24-6.35-1.15-10.84,1.29a22.87,22.87,0,0,0-4.21,3,15.69,15.69,0,0,1-1.74,1.59,10,10,0,0,1-5,1.52,19.46,19.46,0,0,1-4.29-.12c-4.8,0,.16,285.25.16,285.25H960.08Z" style="fill: #92c8e5"/>
  <path d="M960.08,829.78a112.43,112.43,0,0,1-13.68-8.51c-5-3.64-6.15-5.12-10.13-7.14-4.35-2.21-6.61-2.27-12.89-4.15-8.16-2.43-9.18-3.74-14.74-5.52-12.1-3.87-14.21.16-28.55-2.76a80.73,80.73,0,0,1-20.49-7.37c-9.12-4.5-13.68-6.75-16.58-11.28-1.93-3-2.9-6.3-6.91-9.9-3.59-3.23-6-3.48-7.13-3.46-2.25,0-3.59,1.14-5.53,2.3-1.15.69-9.05,5.42-15.89,4.38-4.87-.74-4.48-3.69-10.36-4.84-1.87-.36-7.06-1.37-11.05,1.38-1.88,1.31-3.51,3.46-6.75,7.77a10.56,10.56,0,0,1-3.21,3.21,9.77,9.77,0,0,1-5.59,1.19c-.71-.05-2.75-.28-7.73-3.71-3.94-2.71-3.9-3.41-7.36-5.65-2.52-1.64-2.61-1.31-6.59-3.59-5-2.87-4.88-3.39-8.3-5.15-3.81-2-6.25-3.21-9.74-3.2-1.38,0-5.52,0-8.42,2.51a54.28,54.28,0,0,0-4.78,4.34,3.53,3.53,0,0,1-1.13.94,3.37,3.37,0,0,1-2.7.12,3.64,3.64,0,0,1-1.13-1,5.71,5.71,0,0,0-4.59-1.51c-1.3.21-2.15,1.13-3.46,2.83-4,5.2-4.2,7.18-7,10.12a37.3,37.3,0,0,1-4.4,3.52,63.14,63.14,0,0,1-7.85,5,21.35,21.35,0,0,1-5.41,2.39,12.67,12.67,0,0,1-7.66-.38,17.79,17.79,0,0,1-5.41-4c-1.58-1.48-2-2.23-3.58-3.07-.86-.47-2.72-1.45-4.53-.82-.67.23-.62.44-1.38.82a7.36,7.36,0,0,1-5.34.12,10,10,0,0,1-4.08-3c-1.23-1.3-1.17-1.72-2.27-2.57a5.72,5.72,0,0,0-3.83-1.51,5.65,5.65,0,0,0-3.58,2c-1.56,1.53-1.92,2.87-2.83,4.59s-2.05,3-4.4,5.59c-2.7,3-5.07,5-9.62,8.67-6.91,5.62-10.37,8.43-11.5,9.24-7.34,5.31-7.87,4.51-13.19,8.68-3.34,2.61-6.08,5.38-11.57,10.93-6.25,6.33-7,7.71-10.93,10.68-4.58,3.51-7.32,5.6-11,5.83a7.55,7.55,0,0,0-3.62.83c-2.67,1.52-3.42,4.69-3.62,5.3-3.43,10.16-90.13-3.36-90.78-8.6a5.54,5.54,0,0,0-.23-1.07c-.55-1.71-1.88-2.83-3.8-4.07a53.07,53.07,0,0,0-5.34-2.87,38.4,38.4,0,0,1-4.81-2.6c-1.76-1.31-2.16-2.23-4.13-4.61a89.47,89.47,0,0,0-6.68-6.8c-3-2.87-5.33-4.94-5.94-5.48-1.92-1.68-4.82-4.12-10.94-8.67-3.5-2.61-3-2.16-13.35-9.55-6.7-4.79-10.07-7.21-11.14-8.2-1.39-1.29-2.95-2.48-6.07-4.87-2.14-1.64-3.27-2.42-5-2.74a8.85,8.85,0,0,0-7.34,2c-2.83,2.3-5.1,3-7.74,4.61s-5.17,3.76-13.28,12.27c-6.12,6.43-6,6.51-9.41,10.08a167,167,0,0,1-18.62,17c-6.48,5-9.83,7.56-15,9.47a48.42,48.42,0,0,1-14.15,2.81c-3.47.15-3.42-.25-8.81-.27-6.74,0-10.12,0-14.28,1.13a38.64,38.64,0,0,0-10.88,5.28c-4.07,2.63-3.37,3-8,6.14-7.11,4.8-11.52,5.78-12.61,6-2.53.52-2.23.07-5.67.6-4.29.67-5.42,1.47-13,3.87-6.47,2.06-9.78,3.08-12.74,3.14a22.18,22.18,0,0,0-4.34.33,18,18,0,0,0-7.27,3.07,19.17,19.17,0,0,0-3.47,3.61c-3.33,3.67-8.89,4.05-13.28,4.2-42.36,1.46-63.55,2.18-73-10.59-3.31-4.45-3.63-8-10.58-17.41-4.68-6.35-7.84-10.56-13.45-13.89-5.18-3.08-6.16-1.67-17-5.74-6.67-2.5-6.1-3-15.87-7-6.91-2.89-7.71-2.87-17.64-6.84C31,811,30.72,810.61,26.43,809c-9.46-3.55-24.18-6.17-24.18-6.17v277.93H960.08Z" style="fill: #7bb7df"/>
  <path d="M960.08,849.53s-14-2.55-20,1.75a24,24,0,0,0-4.44,4.2c-2,2.57-2.23,4.22-3.47,6.23-2,3.29-5,4.8-8,6.36-8.46,4.31-17.65,3.5-24.69,2.87a114.27,114.27,0,0,1-18.22-3.35c-4.48-1.15-6-1.81-10.31-2.64a104.35,104.35,0,0,0-14.5-1.56c-3.12-.23-9.31-1.23-21.7-3.24-19.31-3.12-18.38-3.27-21.93-3.47-8.92-.52-15.88.38-22.89,1.32-5.89.78-6.63,1.2-21.7,4.31-24.67,5.1-25.51,4.58-30.56,7.07-11.56,5.71-17.5,9.47-17.5,9.47a32.07,32.07,0,0,1-7.55,4c-2.18.73-9.27,3.12-14,1a6.19,6.19,0,0,0-2.87-.72c-1.51,0-2.59.67-4.32,1.68-1.55.89-3.17,1.67-4.67,2.63-3.8,2.43-9.64,2-13.55,1.8-8.87-.48-17.41-.39-22.53-.12-9.57.51-9,1.75-17.26,1.8-5.73,0-11.86,0-18.94-2.76-4.27-1.67-7.09-3.64-10.79-6.23-8.48-5.94-8-7.89-14.38-12.47-11.24-8-15.34-3.86-22.05-10.9-2-2.09-5.95-7-11-7.55a10.56,10.56,0,0,1-2.88-.6c-3.52-1.35-5.24-4.55-5.87-5.64-4.61-7.89-12.42-7.43-21.34-18.1-1.55-1.85-3.83-3.67-8.39-7.31a7.7,7.7,0,0,0-3.47-1.68,6.38,6.38,0,0,0-5.75,1.68c-.58.67-.47,1-1.08,2a11.92,11.92,0,0,1-3.72,3.84,61.24,61.24,0,0,1-11.15,6.11c-6.24,2.53-8.17,2.47-11.74,5.15-2.21,1.66-1.67,1.83-3.24,2.76-5.41,3.2-10.95.57-12.34,3.12-.59,1.06.34,1.61-.12,3.83a9.6,9.6,0,0,1-3,4.92c-2.12,2-4.2,2.31-10.31,3.71-7.62,1.74-6.23,1.65-9,2.16-7.95,1.47-13,1.05-21.09,1.2-9.38.17-7.56.82-19.42,1.32-8.89.37-10.5,0-27.69.24-13.87.16-15.65.42-17.62.83a62.7,62.7,0,0,0-19.77,8c-3.25,2.06-2.8,2.22-5.88,4.08-6.53,3.94-11.52,5-17,6.71-8.36,2.63-6.73,3.34-19.29,8.27-10.51,4.12-9.72,2.87-21.94,7.43-11.75,4.39-17.62,6.58-23.25,9.35a57.93,57.93,0,0,1-11.39,4.44,64.89,64.89,0,0,1-9.59,1.68C211.62,912,2.25,921.06,2.25,921.06v159.7H960.08Z" style="fill: #70acdb"/>
  <path d="M362.34,937a13.14,13.14,0,0,0-7.39-2c-3.16.33-4.3,2.11-7.4,3.13-2.74.91-5.41.69-10.53-.67-8.87-2.36-13.23-5-21.95-8.51-7.39-3-11.08-4.46-15.24-5.16-7.82-1.32-9.79.32-20.61-1.34-4.44-.68-5.64-1.19-8.51-.9-5.58.58-6.61,3.07-12.55,4.48-2.42.58-8,1.9-13.22-.44-.86-.39-2-1-9.19-8.29-5.16-5.24-5-5.3-7.39-7.62-4.8-4.58-6.46-5.17-11.65-9.64-5.5-4.73-4.51-4.83-10.31-10.08a91.68,91.68,0,0,0-16.35-12.32c-2.22-1.28-4.92-2.57-10.31-5.16-9.26-4.43-10.29-4.41-13.44-6.72-3.83-2.79-6.9-5-9.19-9.18-1.73-3.15-2-5.62-4.48-6.72-1.51-.69-2.77-.37-6.27.22-7.33,1.22-6.33.54-9.86,1.34-5.87,1.35-10.7,2.45-14.56,6.28-2.89,2.85-2.74,4.75-6.73,8.06-2.64,2.2-3.25,1.82-5.6,3.59-5.12,3.86-4.45,7.39-10.3,15.23-2.57,3.44-4,5.38-6.73,7.17-3.8,2.52-7.36,2.93-13.66,3.59-13,1.35-19.46,2-20.62,2a145.86,145.86,0,0,1-24.42-2.46c-4.5-.91-7.47-1.78-11.87-1.12-2.86.43-7.36,1.1-11.43,3.58a14.29,14.29,0,0,1-3.81,1.8,14.37,14.37,0,0,1-5.6.45l1.08,181.13,433.13-2S367.79,940.24,362.34,937Z" style="fill: #036b98"/>
  <path d="M960.08,891s-20.81,1.71-61.21.89c-6.47-.13-12.1-.33-20.78,0-16.57.64-20.12,2.3-39.19,3.57-17.91,1.19-16.12-.19-27,1.18-12.22,1.55-17.28,3.63-24,1.79a18.69,18.69,0,0,0-8.91-.6,18.1,18.1,0,0,0-6.82,3c-3.59,2.36-9.12,3.65-20.19,6.23-23.68,5.53-22.51,1.77-31.47,5.94-6.1,2.84-10.67,6.46-18.7,6.53-3.49,0-4.44-.63-8.31-.89-4.15-.27-10,0-20.19,3.86-11.43,4.28-12.14,6.91-30.58,16.63-10.6,5.58-11.48,5.3-17.52,9.2-8.42,5.44-9.8,8-16.62,11.28a54.69,54.69,0,0,1-18.41,5.05c-11.56,1.07-13.79-2.57-27-2.08-10.62.4-9.7,2.76-17.22,2.37-3.5-.18-7.74-.9-28.2-11-12.89-6.35-14.09-7.48-19.3-8.91-8.22-2.24-11.06-1-21.08-1.78-16.61-1.29-18.16-5.43-42.75-9.79-9.53-1.7-14.3-2.55-20.18-2.38-14.93.42-15.39,5.33-28.5,5.05-9.49-.21-20.7-3-23.46,1.48a9.86,9.86,0,0,1-2.37,3.27,10.48,10.48,0,0,1-6.53,2.08c-6.23.22-5.62,2.29-16,3.86-9.94,1.49-14.91,2.24-19.6-.3-2.83-1.53-4-3.32-7.42-3.86-3.58-.57-5.86.82-8.91,1.78-7.74,2.45-15.23.5-22.86-1.48-6.47-1.69-8.08-3.29-13.36-3.27a28,28,0,0,0-9.49,1.78c-10.5,3.59-14.36,1.5-29.69,4.45-9.13,1.76-17.37,4.54-33.85,10.1-5.37,1.81-10.27,3.57-17.51,4.45-8.74,1.07-8.94-.6-15.44.6-7.8,1.43-9.33,4.17-22.26,9.2-6.15,2.39-10.32,3.53-11.29,3.86-17,5.84-16.87,106.67-16.87,106.67H960.08Z" style="fill: #0a4266"/>
  <path d="M960.08,987.85s-9.74-2.57-17.22-2-8.84,2.67-19.86,5a119.56,119.56,0,0,1-19.85,2.32c-10.41.51-12.86-.49-19.86-.33-10.29.23-15.09,2.62-30.78,7.28A350.71,350.71,0,0,1,817.1,1009c-13.37,2.48-26.77,5-43.68,3-11.9-1.4-20.39-4.41-34.09-9.26-7.74-2.75-23.66-8.83-39.71-15.22-8.16-3.25-13-5.25-20.19-5.3s-10.91,2-21.84,5c-8.55,2.34-7.91,1.52-26.47,5.3-28,5.71-25.32,6.72-34.42,7.61-13.62,1.33-13-1.6-38.39-2.65-16.35-.67-25.49-1-38.06,1-11.87,1.92-14.91,4.08-27.46,5.29-11.9,1.15-13.88-.33-25.49,0-11.94.34-24.45,3.32-49,9.27-23.52,5.7-21.44,6.2-28.46,7-15.68,1.66-16.9-1.8-42.36-1.66-18,.1-27.07.15-31.77,1.66-5.29,1.69-11.63,4.61-18.2,2-3.77-1.51-4.42-3.58-8.93-5.29-5.78-2.2-10-.82-14.56-.66-8.62.28-12.52-4-24.82-10.26-7.27-3.7-14.78-6.22-29.79-11.26-19.47-6.53-29.21-9.79-38.06-10.25-13.34-.7-21,2.15-29.45-2.32a53.42,53.42,0,0,0-13.24-5.3c-3.14-.77-4.67-.82-7.61-1.32A77,77,0,0,1,113.86,970c-17.57-7-23.64-5.25-50.3-14.9-11.42-4.13-17.28-7-25.15-5-5.39,1.39-7.12,3.88-13.24,4-7.06.11-13.9-3.07-16.54-4.3a51.13,51.13,0,0,1-6.38-3.31v134.28H960.08Z" style="fill: #0e233f"/>
  <path d="M959.92,736.19l9.76-5.74c3.94-.78,5.75.48,10.51,0,3.6-.36,5-1.33,10.52-3.5,8-3.16,7.2-2,18.79-6.06,6.09-2.15,8.06-3.1,13.7-4.78a91.4,91.4,0,0,1,8.92-2.23,54.61,54.61,0,0,1,9.88-1.27c4.58-.1,5.19.6,8.28,0a20.42,20.42,0,0,0,7-2.87,21,21,0,0,0,6.37-5.73,38.81,38.81,0,0,0,3.19-5.42c.91-2,1.11-2.9,2.23-3.82,1.3-1.06,2-.58,3.85-1.66a15.13,15.13,0,0,0,3.56-3.37,39.32,39.32,0,0,0,3.18-4.12c1.06-1.54,1-1.61,2.5-4,1-1.55,1.88-2.93,3.18-4.61a21.31,21.31,0,0,1,3.12-3.44,6.63,6.63,0,0,1,3-1.8,6,6,0,0,1,3.31.37,9.25,9.25,0,0,1,2.93,1.87,26.84,26.84,0,0,1,3.18,3.31c2.43,2.78,2.12,2.63,3,3.49,1.53,1.5,1.78,1.27,4,3.24,2,1.74,2,2.07,3.31,2.94a7.52,7.52,0,0,0,4,1.62,7.11,7.11,0,0,0,4.37-1.62c1.42-1.14,1.38-2,2.62-2.37a4.36,4.36,0,0,1,3,.31,5.06,5.06,0,0,1,1.75,1.31c1.24,1.41,2.44,1.62,13.1,10.1,5.34,4.25,6.85,5.63,11.66,9.24,1.33,1,2.4,1.77,2.62,1.93,12.6,9.12,43.43,13.26,52.08,8.33a37.1,37.1,0,0,1,3.34-1.67c6.21-2.85,8.2-2.43,8.8-2.27,1.35.35,1.36.89,3.18,2,3.43,2,6.37,1.86,8.8,2.27,5.43.93,6.18,4.35,11.08,6.83,3.83,1.94,5.38.87,26.7-1.36,8.44-.89,7-.6,15.77-1.52,5.71-.6,8.16-.92,12.44-1.06,4.66-.16,8.54,0,11.23.15,4.67.28,8.13.77,9.1.91,64.48,8.94,179,24.83,239,3.58,0,0,2.49-.88,38.83-14,8.28-3.46,12.1-2.66,14-1.08,1.6,1.33,1.72,3,4.1,4.65a11.87,11.87,0,0,0,7.65,1.64c4.78-.47,5.08-3.12,12.71-5.88,3.42-1.23,5.55-1.49,7.65-1.09a12,12,0,0,1,4.64,2.05c2.47,1.65,6.87,2.76,15.58,4.92,6,1.49,11.83,2.93,20.36,4.37,22.82,3.86,25.14,1,37.84,3.83,3.46.76,6.75,1.74,10.8.54,3.56-1.05,5.21-3.05,9-3,3.31,0,3.37,1.57,5.87,1.5,5.53-.16,6.84-7.73,13.94-9.84,1-.31.78-.07,6.83-.13,16.13-.17,16.6-1.87,21-.28,1.86.67,4.14,1.81,7.1,1.23a9,9,0,0,0,4.24-2.05c3.48-3.07,1.35-6.51,4.1-9.29,3.09-3.13,7.55-.58,10.93-4.23a9.54,9.54,0,0,0,2-4.24c2.93-9.84,12.14-18.67,20-22.13,4.4-2,6.75-1.48,7.65-1.23,2.27.63,2.6,1.86,5.46,2.87,1.34.47,4.55,1.6,7.25.41,3.24-1.44,2.52-4.84,5.87-7.79s7.7-2.91,8.88-2.87c6.67.23,12.49,5.83,15.17,10.66,1.39,2.51,1.75,4.47,4.1,6.28a12.41,12.41,0,0,0,7.1,2.32l21.08,13.39V1077L965,1080.61Z" style="fill: #c3deee"/>
  <path d="M959.92,829.18V765s5.15,3.56,14.54,10.13c5.13,3.59,22.67,15.52,44.32,14.35,8.28-.45,17-.92,23.63-7.17s6.32-13.85,15.62-21.11a39.32,39.32,0,0,1,10.13-5.48c30.65-13.14,37.13-32.75,58.24-33.35,4.74-.13,8.3.75,12.66-1.68,5.84-3.26,6.8-8.93,15.2-13.09,2-1,1.45-.43,4.34-1.73,8-3.59,9.24-6.5,16.06-9.58,4.16-1.87,6.41-2.89,9.42-2.39,5,.82,8.39,5.14,9.88,7,2.22,2.8,1.71,3.47,4.71,7.57,1.64,2.24,2.43,2.91,5.33,6.25,3.76,4.33,4.41,5.48,6.49,7.88a56.45,56.45,0,0,0,15,12.82c5.39,3,7.52,2.77,11.66,6.41,1.73,1.53,4.57,4.4,5.63,5.48,3,3.06,4.18,4.44,6.57,5.79a22.74,22.74,0,0,0,5,1.93,38.55,38.55,0,0,0,11.19,2.16,28.57,28.57,0,0,0,10.66-1.62c3.14-1.14,5.13-2.54,9.11-5.33,2.17-1.52,2.79-2.11,8.18-6.48,8-6.52,8.13-6.41,10.5-8.57a62.51,62.51,0,0,0,8-8.34c2.42-3.1,2-3.34,4.87-7,3.19-4.17,4.17-4.53,6.95-8.26,2.18-2.94,2-3.24,4.71-7.41a85.66,85.66,0,0,1,8.18-10.89,69.18,69.18,0,0,1,9.58-8.88,71,71,0,0,1,9.88-6.25c6.19-3.26,6.56-2.32,10.19-4.71a36.79,36.79,0,0,0,9.81-10c2.25-3.21,1.73-3.36,4.4-7.26,2.46-3.6,4.27-6.24,7.56-9,1.8-1.48,6-4.92,10.2-5.71a10.56,10.56,0,0,0,6.64-3.94c2.1-2.53,3.39-2.33,10.73-8.34,3.8-3.11,8-5.79,11.58-9.11a6.34,6.34,0,0,1,3-1.62,6.12,6.12,0,0,1,4.09.7,7.72,7.72,0,0,1,3.17,4.47c1.58,4.82,5.09,8.78,7.26,13.36,2.48,5.24,5.23,9.21,10.73,17.14,2.57,3.7,6.53,8.6,14.44,18.38,23.52,29.07,19,20.89,19.61,21.93.36.63,2.05,3.71,4.48,3.94a3.66,3.66,0,0,0,2-.39c1-.58,1.24-1.49,1.77-2.24.91-1.27,2.14-1.15,5.72-2.08s5.32-1.4,7.1-2.71c1.58-1.16,1.39-1.64,3.35-3.1,1.69-1.25,3-2.18,4.74-2.42,3.59-.49,6.52,2.13,7.24,2.77a14.59,14.59,0,0,1,2.46,3.1c2.32,3.36,2.52,3,7.62,9.33,1.86,2.32,3.13,4,5.08,6.55,3.59,4.73,5.39,7.09,6.21,8.45.18.3,1.22,2,2.77,4.1.48.64.72,1,.95,1.21,1.45,1.58,2.54,1.7,3.52,3.11a5.86,5.86,0,0,1,.72,1.47c1,2.61,3.71,4.87,5.42,6.18a118.24,118.24,0,0,0,13.41,8.3c5.81,3.3,8.71,5,11.87,7.35,4,3,6.92,5.28,9.81,9a24.19,24.19,0,0,0,2.84,3.22c2.31,2.11,4.41,3,7.36,4.35,6.5,2.93,9.79,4.41,11.59,5.46,2.53,1.47,2,1.45,6.82,4.55,3,2,4.42,2.72,8.8,5.34,4,2.38,7.14,4.29,10.87,6.67,6.06,3.87,9.08,5.8,11.64,8s3.84,3.61,7.35,6.18a30.68,30.68,0,0,0,6.17,3.86,22.49,22.49,0,0,0,17.29.69c3.14-1,3.54-1.75,9.24-4.59,1.59-.79,4.56-2.26,8.19-3.71a67.16,67.16,0,0,1,10.15-3.38,65.48,65.48,0,0,1,14.1-1.59c4.78-.05,5.67.42,10.46.61,5.91.23,10.15-.25,16.75-1,10.81-1.27,11-2.24,22.13-3.56a100.52,100.52,0,0,1,15.39-.91,58.17,58.17,0,0,1,13.19,1.59,74.84,74.84,0,0,1,13.68,5.08,46.3,46.3,0,0,0,4.92,2.31,26.41,26.41,0,0,0,9.52,2.16,23.51,23.51,0,0,0,10-2c1.49-.67,1.66-.94,2.92-1.56,4.24-2.09,8.16-1.93,11.9-1.93,6.08,0,10.61-.41,15.73-.87,8.89-.81,12.16-1.78,13.49-2.2a23.75,23.75,0,0,1,3.48-1c1.35-.24,6.35-1.14,10.84,1.29a23.37,23.37,0,0,1,4.21,3,17.12,17.12,0,0,0,1.74,1.6,10.06,10.06,0,0,0,5,1.51,19.83,19.83,0,0,0,4.29-.11c4.8,0-.16,285.24-.16,285.24H959.92Z" style="fill: #92c8e5"/>
  <path d="M959.92,829.64a111.82,111.82,0,0,0,13.68-8.52c5-3.64,6.15-5.12,10.13-7.14,4.35-2.2,6.61-2.27,12.89-4.14,8.16-2.43,9.18-3.75,14.74-5.53,12.1-3.86,14.21.17,28.55-2.76a80.35,80.35,0,0,0,20.49-7.37c9.12-4.49,13.68-6.74,16.58-11.28,1.93-3,2.9-6.29,6.91-9.9,3.59-3.23,6-3.47,7.13-3.45,2.25,0,3.59,1.14,5.53,2.3,1.15.69,9,5.42,15.89,4.37,4.87-.74,4.48-3.69,10.36-4.83,1.87-.37,7.06-1.38,11,1.38,1.88,1.3,3.51,3.46,6.75,7.77a10.53,10.53,0,0,0,3.21,3.2,9.72,9.72,0,0,0,5.59,1.2c.71-.06,2.75-.29,7.73-3.71,3.94-2.71,3.9-3.42,7.36-5.66,2.52-1.63,2.61-1.3,6.59-3.58,5-2.87,4.88-3.4,8.3-5.15,3.81-2,6.25-3.22,9.74-3.21,1.38,0,5.52,0,8.42,2.51a57,57,0,0,1,4.78,4.34,3.28,3.28,0,0,0,1.13.94,3.35,3.35,0,0,0,2.7.13,3.55,3.55,0,0,0,1.13-1,5.73,5.73,0,0,1,4.59-1.5c1.3.21,2.15,1.12,3.46,2.82,4,5.2,4.2,7.18,7,10.12a35.3,35.3,0,0,0,4.4,3.52,62.41,62.41,0,0,0,7.85,5,21.72,21.72,0,0,0,5.41,2.39,12.75,12.75,0,0,0,7.66-.38,18,18,0,0,0,5.41-4c1.58-1.48,2-2.23,3.58-3.08.86-.46,2.72-1.44,4.53-.82.67.24.62.45,1.38.82a7.38,7.38,0,0,0,5.34.13,10.15,10.15,0,0,0,4.08-3c1.23-1.31,1.17-1.72,2.27-2.58a5.77,5.77,0,0,1,3.83-1.51,5.66,5.66,0,0,1,3.58,2c1.56,1.53,1.92,2.87,2.83,4.58s2,3,4.4,5.6a75.51,75.51,0,0,0,9.62,8.67c6.91,5.61,10.37,8.42,11.5,9.24,7.34,5.3,7.87,4.51,13.19,8.67,3.34,2.61,6.08,5.39,11.57,10.94,6.25,6.32,7,7.7,10.93,10.68,4.58,3.5,7.32,5.6,11,5.82a7.58,7.58,0,0,1,3.62.84c2.67,1.52,3.42,4.69,3.62,5.29,3.43,10.16,90.13-3.35,90.78-8.6a5.7,5.7,0,0,1,.23-1.07c.55-1.7,1.88-2.83,3.8-4.07a57.69,57.69,0,0,1,5.34-2.87,38.4,38.4,0,0,0,4.81-2.6c1.76-1.31,2.16-2.22,4.13-4.6a87.28,87.28,0,0,1,6.68-6.81c3-2.87,5.33-4.94,5.94-5.47,1.92-1.68,4.82-4.12,10.94-8.68,3.5-2.6,3-2.15,13.35-9.54,6.7-4.8,10.07-7.21,11.14-8.21,1.39-1.28,2.95-2.48,6.07-4.87,2.14-1.63,3.27-2.42,5-2.74a8.79,8.79,0,0,1,7.34,2c2.83,2.29,5.1,3,7.74,4.6s5.17,3.76,13.28,12.28c6.12,6.43,6,6.51,9.41,10.08a166.13,166.13,0,0,0,18.62,17c6.48,5,9.83,7.57,15,9.48a48.64,48.64,0,0,0,14.15,2.8c3.47.15,3.42-.24,8.81-.26,6.74,0,10.12,0,14.28,1.13a38.38,38.38,0,0,1,10.88,5.27c4.07,2.64,3.37,3,8,6.14,7.11,4.8,11.52,5.78,12.61,6,2.53.52,2.23.07,5.67.6,4.29.66,5.42,1.46,13,3.87,6.47,2,9.78,3.08,12.74,3.14a22.18,22.18,0,0,1,4.34.33,18,18,0,0,1,7.27,3.07,19.17,19.17,0,0,1,3.47,3.6c3.33,3.68,8.89,4.06,13.28,4.21,42.36,1.45,63.55,2.18,73-10.59,3.31-4.46,3.63-8,10.58-17.42,4.68-6.34,7.84-10.56,13.45-13.89,5.18-3.07,6.16-1.67,17-5.73,6.67-2.51,6.1-3,15.87-7.06,6.91-2.89,7.71-2.87,17.64-6.83,9.33-3.72,9.6-4.12,13.89-5.73,9.46-3.56,24.18-6.18,24.18-6.18v277.93H959.92Z" style="fill: #7bb7df"/>
  <path d="M959.92,849.38s14-2.54,20,1.76a24,24,0,0,1,4.44,4.2c2,2.57,2.23,4.21,3.47,6.23,2,3.28,5,4.8,8,6.35,8.46,4.31,17.65,3.5,24.69,2.88a115.18,115.18,0,0,0,18.22-3.36c4.48-1.15,6-1.8,10.31-2.64,6-1.17,9.61-1.18,14.5-1.55,3.12-.24,9.31-1.24,21.7-3.24,19.31-3.12,18.38-3.27,21.93-3.48,8.92-.51,15.88.38,22.89,1.32,5.89.79,6.63,1.2,21.7,4.32,24.67,5.1,25.51,4.57,30.56,7.07,11.56,5.7,17.5,9.47,17.5,9.47a31.68,31.68,0,0,0,7.55,3.95c2.18.73,9.27,3.12,14,1a6.32,6.32,0,0,1,2.87-.72c1.51,0,2.59.68,4.32,1.68,1.55.9,3.17,1.67,4.67,2.64,3.8,2.43,9.64,2,13.55,1.8,8.87-.48,17.41-.39,22.53-.12,9.57.5,9,1.74,17.26,1.79,5.73,0,11.86,0,18.94-2.75a48.46,48.46,0,0,0,10.79-6.24c8.48-5.93,8-7.88,14.38-12.46,11.24-8,15.34-3.86,22-10.91,2-2.08,6-7,11-7.55a10.19,10.19,0,0,0,2.88-.6c3.52-1.34,5.24-4.55,5.87-5.63,4.61-7.9,12.42-7.44,21.34-18.1,1.55-1.86,3.83-3.68,8.39-7.31a7.59,7.59,0,0,1,3.47-1.68,6.35,6.35,0,0,1,5.75,1.68c.58.66.47,1,1.08,2a12,12,0,0,0,3.72,3.83,60.54,60.54,0,0,0,11.15,6.11c6.24,2.54,8.17,2.48,11.74,5.16,2.21,1.65,1.67,1.83,3.24,2.75,5.41,3.2,11,.58,12.34,3.12.59,1.07-.34,1.62.12,3.84a9.56,9.56,0,0,0,3,4.91c2.12,2,4.2,2.32,10.31,3.72,7.62,1.74,6.23,1.64,9,2.15,8,1.48,13,1.05,21.09,1.2,9.38.17,7.56.83,19.42,1.32,8.89.37,10.5,0,27.69.24,13.87.17,15.65.43,17.62.84a62.45,62.45,0,0,1,19.77,8c3.25,2.05,2.8,2.22,5.88,4.08,6.53,3.94,11.52,5,17,6.71,8.36,2.63,6.73,3.34,19.29,8.27,10.51,4.12,9.72,2.87,21.94,7.43,11.75,4.39,17.62,6.58,23.25,9.35a58.72,58.72,0,0,0,11.39,4.43,63.41,63.41,0,0,0,9.59,1.68c17.17,1.5,226.54,10.57,226.54,10.57v159.69H959.92Z" style="fill: #70acdb"/>
  <path d="M1557.81,936.9a13.21,13.21,0,0,1,7.39-2c3.16.33,4.3,2.11,7.4,3.14,2.74.9,5.41.69,10.53-.68,8.87-2.36,13.23-5,21.95-8.51,7.39-3,11.08-4.45,15.24-5.15,7.83-1.32,9.8.31,20.61-1.35,4.44-.68,5.64-1.19,8.52-.89,5.57.57,6.6,3.06,12.54,4.48,2.42.57,8,1.89,13.22-.45.86-.38,2-1,9.19-8.29,5.16-5.23,5-5.29,7.39-7.62,4.8-4.58,6.47-5.17,11.65-9.63,5.5-4.73,4.51-4.83,10.31-10.08a91.9,91.9,0,0,1,16.36-12.33c2.21-1.28,4.91-2.57,10.3-5.15,9.26-4.43,10.29-4.42,13.44-6.72,3.83-2.8,6.9-5,9.19-9.19,1.74-3.14,2-5.61,4.48-6.72,1.52-.69,2.77-.36,6.28.22,7.32,1.23,6.32.54,9.85,1.35,5.88,1.34,10.7,2.44,14.57,6.27,2.88,2.86,2.73,4.76,6.72,8.07,2.65,2.2,3.26,1.82,5.6,3.58,5.12,3.86,4.45,7.39,10.31,15.24,2.56,3.44,4,5.38,6.72,7.17,3.8,2.51,7.36,2.93,13.66,3.58,13,1.35,19.46,2,20.62,2a147.1,147.1,0,0,0,24.42-2.46c4.5-.91,7.47-1.78,11.87-1.13,2.87.43,7.36,1.1,11.43,3.59a14.67,14.67,0,0,0,3.81,1.79,14.37,14.37,0,0,0,5.6.45l-1.08,181.13-433.12-2S1552.36,940.1,1557.81,936.9Z" style="fill: #036b98"/>
  <polygon points="969.53 989.07 952.2 986.32 952.2 891.42 969.53 891.42 969.53 989.07" style="fill: #0a4266"/>
  <path d="M959.92,890.82s20.81,1.71,61.21.89c6.47-.13,12.1-.33,20.78,0,16.57.64,20.12,2.3,39.19,3.56,17.91,1.19,16.12-.19,27,1.19,12.22,1.54,17.28,3.63,24.05,1.78a18.73,18.73,0,0,1,8.91-.59,17.94,17.94,0,0,1,6.82,3c3.59,2.36,9.12,3.65,20.19,6.23,23.68,5.53,22.51,1.76,31.47,5.94,6.1,2.84,10.67,6.46,18.7,6.53,3.49,0,4.44-.64,8.31-.89,4.15-.27,10,0,20.19,3.86,11.43,4.28,12.14,6.91,30.58,16.62,10.6,5.59,11.48,5.31,17.52,9.2,8.42,5.45,9.8,8,16.62,11.29a55,55,0,0,0,18.41,5c11.56,1.07,13.79-2.57,27-2.08,10.62.4,9.7,2.77,17.22,2.38,3.5-.18,7.74-.9,28.2-11,12.89-6.35,14.09-7.49,19.3-8.91,8.22-2.24,11.06-1,21.08-1.78,16.61-1.29,18.16-5.43,42.75-9.8,9.53-1.69,14.3-2.54,20.18-2.37,14.93.42,15.39,5.32,28.5,5,9.49-.2,20.7-3,23.46,1.49a9.85,9.85,0,0,0,2.37,3.26,10.42,10.42,0,0,0,6.53,2.08c6.23.22,5.62,2.29,16,3.86,9.94,1.49,14.91,2.24,19.6-.3,2.83-1.53,4-3.31,7.42-3.86,3.58-.57,5.86.82,8.91,1.79,7.74,2.44,15.23.49,22.86-1.49,6.47-1.68,8.08-3.29,13.36-3.26a27.74,27.74,0,0,1,9.49,1.78c10.5,3.59,14.36,1.49,29.69,4.45,9.13,1.76,17.37,4.54,33.85,10.09,5.37,1.82,10.27,3.57,17.51,4.46,8.74,1.06,8.94-.6,15.44.59,7.8,1.44,9.33,4.17,22.26,9.2,6.15,2.39,10.32,3.53,11.29,3.86,17,5.85,16.87,106.67,16.87,106.67H959.92Z" style="fill: #0a4266"/>
  <path d="M959.92,987.7s9.74-2.57,17.22-2,8.84,2.67,19.86,5a121.76,121.76,0,0,0,19.85,2.32c10.41.51,12.86-.49,19.86-.33,10.29.23,15.09,2.62,30.78,7.28a348.43,348.43,0,0,0,35.41,8.93c13.37,2.48,26.77,5,43.68,3,11.9-1.4,20.39-4.41,34.09-9.27,7.74-2.74,23.66-8.83,39.71-15.22,8.16-3.25,13-5.25,20.19-5.29,7.33-.05,10.91,2,21.84,5,8.55,2.33,7.91,1.52,26.47,5.29,28,5.71,25.32,6.73,34.42,7.62,13.62,1.32,13-1.61,38.39-2.65,16.35-.67,25.49-1,38.06,1,11.87,1.93,14.91,4.08,27.46,5.3,11.9,1.15,13.88-.33,25.49,0,11.94.33,24.45,3.31,49,9.26,23.52,5.71,21.44,6.21,28.46,6.95,15.68,1.67,16.9-1.79,42.36-1.65,18,.1,27.07.15,31.77,1.65,5.29,1.69,11.63,4.62,18.2,2,3.77-1.52,4.42-3.58,8.93-5.3,5.78-2.19,10-.81,14.56-.66,8.62.29,12.52-4,24.82-10.26,7.27-3.7,14.78-6.22,29.79-11.25,19.47-6.53,29.21-9.8,38.06-10.26,13.34-.69,21,2.16,29.45-2.32a53.54,53.54,0,0,1,13.24-5.29c3.14-.77,4.67-.83,7.61-1.32a76.93,76.93,0,0,0,17.21-5.3c17.57-7,23.64-5.24,50.3-14.89,11.42-4.14,17.28-7,25.15-5,5.39,1.39,7.12,3.88,13.24,4,7.06.1,13.9-3.08,16.54-4.31a51.13,51.13,0,0,0,6.38-3.31v134.28H959.92Z" style="fill: #0e233f"/>
  <polygon points="965.17 1080.76 953.2 1080.76 953.2 986.47 964.26 988.76 965.17 1080.76" style="fill: #0e233f"/>
  <polygon points="955.45 765.53 964.1 765.53 963.54 737.29 955.45 735.09 955.45 765.53" style="fill: #c3deee"/>
</svg>
