<svg xmlns="http://www.w3.org/2000/svg" viewBox="0 0 1920 1080" id="el_XXLIlNn5I"><style>@-webkit-keyframes kf_el_ODgoYeyWDq_an_hDPyGJvyy{0%{-webkit-transform: translate(1098.9000244140625px, 584.5394897460938px) rotate(5deg) translate(-1098.9000244140625px, -584.5394897460938px);transform: translate(1098.9000244140625px, 584.5394897460938px) rotate(5deg) translate(-1098.9000244140625px, -584.5394897460938px);}20%{-webkit-transform: translate(1098.9000244140625px, 584.5394897460938px) rotate(0deg) translate(-1098.9000244140625px, -584.5394897460938px);transform: translate(1098.9000244140625px, 584.5394897460938px) rotate(0deg) translate(-1098.9000244140625px, -584.5394897460938px);}38.89%{-webkit-transform: translate(1098.9000244140625px, 584.5394897460938px) rotate(5deg) translate(-1098.9000244140625px, -584.5394897460938px);transform: translate(1098.9000244140625px, 584.5394897460938px) rotate(5deg) translate(-1098.9000244140625px, -584.5394897460938px);}100%{-webkit-transform: translate(1098.9000244140625px, 584.5394897460938px) rotate(5deg) translate(-1098.9000244140625px, -584.5394897460938px);transform: translate(1098.9000244140625px, 584.5394897460938px) rotate(5deg) translate(-1098.9000244140625px, -584.5394897460938px);}}@keyframes kf_el_ODgoYeyWDq_an_hDPyGJvyy{0%{-webkit-transform: translate(1098.9000244140625px, 584.5394897460938px) rotate(5deg) translate(-1098.9000244140625px, -584.5394897460938px);transform: translate(1098.9000244140625px, 584.5394897460938px) rotate(5deg) translate(-1098.9000244140625px, -584.5394897460938px);}20%{-webkit-transform: translate(1098.9000244140625px, 584.5394897460938px) rotate(0deg) translate(-1098.9000244140625px, -584.5394897460938px);transform: translate(1098.9000244140625px, 584.5394897460938px) rotate(0deg) translate(-1098.9000244140625px, -584.5394897460938px);}38.89%{-webkit-transform: translate(1098.9000244140625px, 584.5394897460938px) rotate(5deg) translate(-1098.9000244140625px, -584.5394897460938px);transform: translate(1098.9000244140625px, 584.5394897460938px) rotate(5deg) translate(-1098.9000244140625px, -584.5394897460938px);}100%{-webkit-transform: translate(1098.9000244140625px, 584.5394897460938px) rotate(5deg) translate(-1098.9000244140625px, -584.5394897460938px);transform: translate(1098.9000244140625px, 584.5394897460938px) rotate(5deg) translate(-1098.9000244140625px, -584.5394897460938px);}}@-webkit-keyframes kf_el__7YFdttYjP_an_T4rufYAfZ{0%{-webkit-transform: translate(1145.764892578125px, 701.0382690429688px) rotate(15deg) translate(-1145.764892578125px, -701.0382690429688px);transform: translate(1145.764892578125px, 701.0382690429688px) rotate(15deg) translate(-1145.764892578125px, -701.0382690429688px);}20%{-webkit-transform: translate(1145.764892578125px, 701.0382690429688px) rotate(0deg) translate(-1145.764892578125px, -701.0382690429688px);transform: translate(1145.764892578125px, 701.0382690429688px) rotate(0deg) translate(-1145.764892578125px, -701.0382690429688px);}38.89%{-webkit-transform: translate(1145.764892578125px, 701.0382690429688px) rotate(15deg) translate(-1145.764892578125px, -701.0382690429688px);transform: translate(1145.764892578125px, 701.0382690429688px) rotate(15deg) translate(-1145.764892578125px, -701.0382690429688px);}100%{-webkit-transform: translate(1145.764892578125px, 701.0382690429688px) rotate(15deg) translate(-1145.764892578125px, -701.0382690429688px);transform: translate(1145.764892578125px, 701.0382690429688px) rotate(15deg) translate(-1145.764892578125px, -701.0382690429688px);}}@keyframes kf_el__7YFdttYjP_an_T4rufYAfZ{0%{-webkit-transform: translate(1145.764892578125px, 701.0382690429688px) rotate(15deg) translate(-1145.764892578125px, -701.0382690429688px);transform: translate(1145.764892578125px, 701.0382690429688px) rotate(15deg) translate(-1145.764892578125px, -701.0382690429688px);}20%{-webkit-transform: translate(1145.764892578125px, 701.0382690429688px) rotate(0deg) translate(-1145.764892578125px, -701.0382690429688px);transform: translate(1145.764892578125px, 701.0382690429688px) rotate(0deg) translate(-1145.764892578125px, -701.0382690429688px);}38.89%{-webkit-transform: translate(1145.764892578125px, 701.0382690429688px) rotate(15deg) translate(-1145.764892578125px, -701.0382690429688px);transform: translate(1145.764892578125px, 701.0382690429688px) rotate(15deg) translate(-1145.764892578125px, -701.0382690429688px);}100%{-webkit-transform: translate(1145.764892578125px, 701.0382690429688px) rotate(15deg) translate(-1145.764892578125px, -701.0382690429688px);transform: translate(1145.764892578125px, 701.0382690429688px) rotate(15deg) translate(-1145.764892578125px, -701.0382690429688px);}}@-webkit-keyframes kf_el_wiVWQwGao_n_an_DlghbPvkB{0%{-webkit-transform: translate(1170.127685546875px, 504.3503723144531px) rotate(0deg) translate(-1170.127685546875px, -504.3503723144531px);transform: translate(1170.127685546875px, 504.3503723144531px) rotate(0deg) translate(-1170.127685546875px, -504.3503723144531px);}20%{-webkit-transform: translate(1170.127685546875px, 504.3503723144531px) rotate(5deg) translate(-1170.127685546875px, -504.3503723144531px);transform: translate(1170.127685546875px, 504.3503723144531px) rotate(5deg) translate(-1170.127685546875px, -504.3503723144531px);}38.89%{-webkit-transform: translate(1170.127685546875px, 504.3503723144531px) rotate(0deg) translate(-1170.127685546875px, -504.3503723144531px);transform: translate(1170.127685546875px, 504.3503723144531px) rotate(0deg) translate(-1170.127685546875px, -504.3503723144531px);}100%{-webkit-transform: translate(1170.127685546875px, 504.3503723144531px) rotate(0deg) translate(-1170.127685546875px, -504.3503723144531px);transform: translate(1170.127685546875px, 504.3503723144531px) rotate(0deg) translate(-1170.127685546875px, -504.3503723144531px);}}@keyframes kf_el_wiVWQwGao_n_an_DlghbPvkB{0%{-webkit-transform: translate(1170.127685546875px, 504.3503723144531px) rotate(0deg) translate(-1170.127685546875px, -504.3503723144531px);transform: translate(1170.127685546875px, 504.3503723144531px) rotate(0deg) translate(-1170.127685546875px, -504.3503723144531px);}20%{-webkit-transform: translate(1170.127685546875px, 504.3503723144531px) rotate(5deg) translate(-1170.127685546875px, -504.3503723144531px);transform: translate(1170.127685546875px, 504.3503723144531px) rotate(5deg) translate(-1170.127685546875px, -504.3503723144531px);}38.89%{-webkit-transform: translate(1170.127685546875px, 504.3503723144531px) rotate(0deg) translate(-1170.127685546875px, -504.3503723144531px);transform: translate(1170.127685546875px, 504.3503723144531px) rotate(0deg) translate(-1170.127685546875px, -504.3503723144531px);}100%{-webkit-transform: translate(1170.127685546875px, 504.3503723144531px) rotate(0deg) translate(-1170.127685546875px, -504.3503723144531px);transform: translate(1170.127685546875px, 504.3503723144531px) rotate(0deg) translate(-1170.127685546875px, -504.3503723144531px);}}@-webkit-keyframes kf_el_SQUQ7s1SdKX_an_bX-tmeDGW{0%{-webkit-transform: translate(1272.286865234375px, 690.6439819335938px) rotate(0deg) translate(-1272.286865234375px, -690.6439819335938px);transform: translate(1272.286865234375px, 690.6439819335938px) rotate(0deg) translate(-1272.286865234375px, -690.6439819335938px);}20%{-webkit-transform: translate(1272.286865234375px, 690.6439819335938px) rotate(15deg) translate(-1272.286865234375px, -690.6439819335938px);transform: translate(1272.286865234375px, 690.6439819335938px) rotate(15deg) translate(-1272.286865234375px, -690.6439819335938px);}38.89%{-webkit-transform: translate(1272.286865234375px, 690.6439819335938px) rotate(0deg) translate(-1272.286865234375px, -690.6439819335938px);transform: translate(1272.286865234375px, 690.6439819335938px) rotate(0deg) translate(-1272.286865234375px, -690.6439819335938px);}100%{-webkit-transform: translate(1272.286865234375px, 690.6439819335938px) rotate(0deg) translate(-1272.286865234375px, -690.6439819335938px);transform: translate(1272.286865234375px, 690.6439819335938px) rotate(0deg) translate(-1272.286865234375px, -690.6439819335938px);}}@keyframes kf_el_SQUQ7s1SdKX_an_bX-tmeDGW{0%{-webkit-transform: translate(1272.286865234375px, 690.6439819335938px) rotate(0deg) translate(-1272.286865234375px, -690.6439819335938px);transform: translate(1272.286865234375px, 690.6439819335938px) rotate(0deg) translate(-1272.286865234375px, -690.6439819335938px);}20%{-webkit-transform: translate(1272.286865234375px, 690.6439819335938px) rotate(15deg) translate(-1272.286865234375px, -690.6439819335938px);transform: translate(1272.286865234375px, 690.6439819335938px) rotate(15deg) translate(-1272.286865234375px, -690.6439819335938px);}38.89%{-webkit-transform: translate(1272.286865234375px, 690.6439819335938px) rotate(0deg) translate(-1272.286865234375px, -690.6439819335938px);transform: translate(1272.286865234375px, 690.6439819335938px) rotate(0deg) translate(-1272.286865234375px, -690.6439819335938px);}100%{-webkit-transform: translate(1272.286865234375px, 690.6439819335938px) rotate(0deg) translate(-1272.286865234375px, -690.6439819335938px);transform: translate(1272.286865234375px, 690.6439819335938px) rotate(0deg) translate(-1272.286865234375px, -690.6439819335938px);}}#el_XXLIlNn5I *{-webkit-animation-duration: 3s;animation-duration: 3s;-webkit-animation-iteration-count: 1;animation-iteration-count: 1;-webkit-animation-timing-function: cubic-bezier(0, 0, 1, 1);animation-timing-function: cubic-bezier(0, 0, 1, 1);}#el__7YFdttYjP{fill: #8e826f;}#el_ODgoYeyWDq{fill: #8e826f;}#el_ZRPRnQX-1f{fill: #ddd9d7;}#el_IVsCqcznPV{fill: #bdab89;}#el_iEaGMMiPsN{fill: #9b8c75;}#el_bpomT1sWZi{fill: #bca180;}#el_CSzRD_qlPf{fill: #8e826f;}#el_7aMQP4jydD{fill: #6e4345;}#el_2wfzM11-ne{fill: #ddd9d7;}#el_8fwKhz468O{fill: #ddd9d7;}#el_CH3LhF-pV7{fill: #ddd9d7;}#el_XNjjYvuZth{fill: #ddd9d7;}#el_xmiPURp-MJ{fill: #ddd9d7;}#el_8e6GFOpEU4G{fill: #ddd9d7;}#el_FogSehLiJKm{fill: #ddd9d7;}#el_eklorEGB5Lw{fill: #ddd9d7;}#el_IoHc4nggYpO{fill: #ddd9d7;}#el_Bsjubv00mn-{fill: #ddd9d7;}#el_m_1WF5DD9XY{fill: #1d2021;}#el_6HGZyTdCsP7{fill: #9b8c75;}#el_O6zk_o5Tvg1{fill: #899690;}#el_2xU_9QNEXPz{fill: #ffc377;}#el_KGLIv-oROaJ{fill: #030907;}#el_wiVWQwGao_n{fill: #a0988b;}#el_SQUQ7s1SdKX{fill: #a0988b;}#el_SQUQ7s1SdKX_an_bX-tmeDGW{-webkit-animation-fill-mode: backwards;animation-fill-mode: backwards;-webkit-transform: translate(1272.286865234375px, 690.6439819335938px) rotate(0deg) translate(-1272.286865234375px, -690.6439819335938px);transform: translate(1272.286865234375px, 690.6439819335938px) rotate(0deg) translate(-1272.286865234375px, -690.6439819335938px);-webkit-animation-name: kf_el_SQUQ7s1SdKX_an_bX-tmeDGW;animation-name: kf_el_SQUQ7s1SdKX_an_bX-tmeDGW;-webkit-animation-timing-function: cubic-bezier(0, 0, 1, 1);animation-timing-function: cubic-bezier(0, 0, 1, 1);}#el_wiVWQwGao_n_an_DlghbPvkB{-webkit-animation-fill-mode: backwards;animation-fill-mode: backwards;-webkit-transform: translate(1170.127685546875px, 504.3503723144531px) rotate(0deg) translate(-1170.127685546875px, -504.3503723144531px);transform: translate(1170.127685546875px, 504.3503723144531px) rotate(0deg) translate(-1170.127685546875px, -504.3503723144531px);-webkit-animation-name: kf_el_wiVWQwGao_n_an_DlghbPvkB;animation-name: kf_el_wiVWQwGao_n_an_DlghbPvkB;-webkit-animation-timing-function: cubic-bezier(0, 0, 1, 1);animation-timing-function: cubic-bezier(0, 0, 1, 1);}#el__7YFdttYjP_an_T4rufYAfZ{-webkit-animation-fill-mode: backwards;animation-fill-mode: backwards;-webkit-transform: translate(1145.764892578125px, 701.0382690429688px) rotate(15deg) translate(-1145.764892578125px, -701.0382690429688px);transform: translate(1145.764892578125px, 701.0382690429688px) rotate(15deg) translate(-1145.764892578125px, -701.0382690429688px);-webkit-animation-name: kf_el__7YFdttYjP_an_T4rufYAfZ;animation-name: kf_el__7YFdttYjP_an_T4rufYAfZ;-webkit-animation-timing-function: cubic-bezier(0, 0, 1, 1);animation-timing-function: cubic-bezier(0, 0, 1, 1);}#el_ODgoYeyWDq_an_hDPyGJvyy{-webkit-animation-fill-mode: backwards;animation-fill-mode: backwards;-webkit-transform: translate(1098.9000244140625px, 584.5394897460938px) rotate(5deg) translate(-1098.9000244140625px, -584.5394897460938px);transform: translate(1098.9000244140625px, 584.5394897460938px) rotate(5deg) translate(-1098.9000244140625px, -584.5394897460938px);-webkit-animation-name: kf_el_ODgoYeyWDq_an_hDPyGJvyy;animation-name: kf_el_ODgoYeyWDq_an_hDPyGJvyy;-webkit-animation-timing-function: cubic-bezier(0, 0, 1, 1);animation-timing-function: cubic-bezier(0, 0, 1, 1);}</style><defs/><title>Artboard 1</title><g id="el_sd6HdXxoFM"><g id="el__7YFdttYjP_an_T4rufYAfZ" data-animator-group="true" data-animator-type="1"><path d="M1209.4,720.5c5.7,6.4,9.6,14.2,12.8,22.2,10.2,25.2,14.6,53.6,31.8,74.6,9.1,11.2,22.1,20.9,24,35.2.8,5.7-.4,11.5-1.5,17.2-2.8,14.5-5,29.6-1,43.8s15.6,28.8,17.6,44.8c-2.1-2-5.5-.8-8.4-1.1-5.5-.6-8.5-6.7-10.4-12a55.2,55.2,0,0,1-4.6,18.7l.6-5c4.5,7.9,1.7,19-5.3,24.8-1.9,1.6-4.2,2.9-5.5,5a16.7,16.7,0,0,1-1.2,1.6l-1.6.7-5.6,1.6c-.9-1.8-2.6-3-3.7-4.6s-1.9-6-1.9-9.2c-3.6,2.6-7.5,5.3-11.9,5.4a19.4,19.4,0,0,1-6.6-1.3l-14.5-4.4c-3.3-1-7.2-2-10.2-.1a11,11,0,0,1-3.8-7.8,26.9,26.9,0,0,1-13.1-3.1c-1.4-.7-2.7-1.6-4.2-1.6-3.1,0-5.5,3.3-8.5,3.1-.1-2.3,1.3-4.3,2.6-6.2s4.6-6.2,7.7-8.5c7.7-5.5,17.9-4.5,27.3-5.4,3.8-.4,7.9-1.5,10-4.7a25.2,25.2,0,0,0,1.7-4.1,26.1,26.1,0,0,1,9.5-11.8c2.1-1.5,4.5-2.9,6.1-5a13.7,13.7,0,0,0,2.2-5.6,24.8,24.8,0,0,0,.2-8.6l-.8,2.4c.9-11.1.2-21.9-1-32.9a64.7,64.7,0,0,0-3.4-15.7c-1.2-3.2-2.9-6.3-3.9-9.5s-1.2-9.1-2.2-13.6c-3.6-16.1-19.1-26-32.4-35.7s-25.3-20.2-34.2-33.6c-4-6-7.3-12.6-12.3-17.7s-3.8-12.9-4-19.4.4-11.8,3.3-16.9,7.8-8.4,13-10.8a50.4,50.4,0,0,1,26.3-4.4c5.9.7,11.9,2.5,16.3,6.6S1211.9,715,1209.4,720.5Z" id="el__7YFdttYjP"/></g><g id="el_ODgoYeyWDq_an_hDPyGJvyy" data-animator-group="true" data-animator-type="1"><path d="M1192.4,668.6c.5-4.8,1-9.6.1-14.3-1.8-9.6,3.2-61.4-4.9-66.6-22-14.1-66,22.8-88.7,35.6,6.4,18.8,14,44,20.4,62.7,2.6,7.5,5.1,15,8.6,22.1,2.5,5.2,5.5,10.1,7.3,15.6,5.2,3.9,9.1,9.3,12.7,14.7s4.7,8.3,7.5,12.1a39.2,39.2,0,0,0,13.1,11.2,23.4,23.4,0,0,0,13.1,3.2c6.5-.5,12.3-4.7,15.9-10s5.4-11.9,6.3-18.3a84.5,84.5,0,0,0-6.1-45C1193.8,682.6,1191.4,678.3,1192.4,668.6Z" id="el_ODgoYeyWDq"/></g></g><g id="el_Ylk3bw1jrI"><path d="M194,193.4a27,27,0,0,0,9.1,11.5l-3.5-12.5a73.2,73.2,0,0,1,14.1,13.7,86,86,0,0,1-4.3-13.3l10.1,10.8-1.6-10.7,10,13.7a41.6,41.6,0,0,0-4.2-12.9,27.1,27.1,0,0,0,8,7.1l-2-8.3A54.1,54.1,0,0,0,244,206.4a54.1,54.1,0,0,0-5.2-11.5l9.1,12.6a30,30,0,0,0-3.1-13.1,52,52,0,0,1,8.8,9.9,11.7,11.7,0,0,0,.2-6.7l6,7.6-.6-5.2a24.7,24.7,0,0,0,8.9,9.8l-4-16.4,9.2,13.1-1.4-9.1,6.1,7.5a32.1,32.1,0,0,0,1.1-11.1,50.3,50.3,0,0,0,8.5,17.2v-6.5a6,6,0,0,0,2.1,4.5l-3.1-12.8a69.6,69.6,0,0,0,5.8,13.8l.6-5.6,1.9,2a29,29,0,0,1-2.6-11.9,17.5,17.5,0,0,1,5.3,8.3l1-2.4a24.7,24.7,0,0,0,7.8,8.9l.5-6a36.9,36.9,0,0,0,3.5,7.2,63.5,63.5,0,0,0-2.4-16.2l8.5,14.5v-5.7c-.4.8,1.1,1.5,1.7.8s.5-1.8.3-2.7a45.6,45.6,0,0,0-2-5.9l6.2,10.6a38.3,38.3,0,0,0-2.6-11.6c1.6-.7,2.8,1.5,3.3,3.2a31.2,31.2,0,0,0,8,13.4l.5-16.6,5.9,9.7-.8-5.8,3,3.7-1.6-8.7a19.2,19.2,0,0,0,4.6,7.6l.6-7.5,10.7,13-2-13.8a47.8,47.8,0,0,0,8.7,8.7l-2.2-8.9,3.1,3.5a10.3,10.3,0,0,1,.7-4.6l3.3,5.5.5-5.4,8.2,10.2a48.4,48.4,0,0,0-1.5-10.7,12.4,12.4,0,0,0,3.2,6.1l2.4-5.7,1.9,2.9c1-3.6-2.2-7.3-5.8-8.4s-7.5-.4-11.2.3c-51.6,9.6-104.7,4.4-157.1,1.9-3.7-.2-15.1-2-17.6,1.6s2.9,9.6,5.5,11.9A43,43,0,0,1,194,193.4Z" id="el_ZRPRnQX-1f"/><path d="M550.3,231.2c12,0,24.3.1,35.3,4.8,8.2,3.4,15.2,9.2,22,14.9,12.6,10.4,25.5,21.3,32.7,35.9a119.8,119.8,0,0,1,4.6,11.2c3.4,8.9,7.1,17.8,11.1,26.5,7.8,17.2,16.7,33.9,25.5,50.6,5.7,10.8,11.5,21.6,18.6,31.5,14.7,20.5,36.1,36.1,54.1,53.7A100.4,100.4,0,0,1,775.8,491c4.9,10.8,7.8,22.6,13.4,33.2,14,26.5,42.4,42.3,70.9,51.7s58.5,14.3,85.9,26.6c7,3.1,13.8,6.8,21.1,9.1,5.4,1.6,11,2.5,16.5,3.6,29.2,5.9,57.5,18.4,82.2,35.1-.5-1.7,2.5-1.7,3.9-.5,4.3,3.4,7.7,7.8,12.2,10.9s10.7,4.8,15.3,1.9c1.6-1,2.9-2.4,4.6-3.2s5.6-1,8.4-.8c8.8.4,18.7-1.5,23.9-8.7,1.2-1.8,2.3-3.9,4.1-5.1s4.9-1.3,7.5-1.6c10.2-.9,18.8-7.8,27.3-13.6a173.9,173.9,0,0,1,90.7-30.8c8.1-.4,16.4-.3,24.3-2.5s13.5-5.9,20.2-9.3c13.2-6.6,27.3-10.9,41.1-16.1,24.9-9.7,47.5-25.9,70.6-39.3,25.4-14.8,40.7-41.8,54.3-67.8s27.6-53.5,51.7-70.1,53.3-20,81.7-22.8a277.5,277.5,0,0,1,31.5-2c35,.3,68.6,12.6,101.4,24.8-35.6-21.3-74.1-40.6-115.6-42.8a234,234,0,0,0-33.5,1.1c-41.2,4-90,4.9-118.7,34.6l-34.5,35.8c-21.1,21.8-43.7,44.6-72.9,52.9a166.3,166.3,0,0,1-23.4,4.3q-41.9,5.3-84,6.7c-18,.6-36.7.5-52.8-7.6-9.2-4.7-17.1-11.8-26.2-16.9-24.3-13.8-54.7-12.1-80.6-22.9-59.9-24.9-121.6-50.3-186.6-52-36.7-.9-76.2,5.1-108-13.2-11.8-6.8-21.6-16.6-29.8-27.5s-15.9-25-22.8-38.1c-15.2-29.4-29.8-59.2-48.7-86.3s-45-47.7-72.1-66.6c-13.8-9.5-27.6-19.1-42.6-26.6-41.4-20.5-85.9-41.1-131.9-36.3-5.5.5-11.1,1.5-16.7,1.2s-11.4-2-17.2-2.8c-20.3-3.2-40.8,3.3-60.3,9.7L234.3,142.1c-11.5,3.7-23.2,7.6-33,14.7a59.5,59.5,0,0,0-21.7,30.4A490.7,490.7,0,0,0,235,193c45.4,2.2,90.8-1.9,136-6.1,14.5-1.3,29-2.7,43.1-5.9,16.9-3.8,33.6-10.3,50.8-8.9-4.6,7.7-12.1,12.7-19.6,17.7s-18.4,9.4-24,17.7c-6.8,10-5.1,23.3-8.2,34.9-1.8,7-5.4,13.5-8.9,19.8q-33.6,59.6-72.3,116.1c-6.5,9.6-13.7,19.6-24.4,24.2-4,1.8-9.4,4.6-8,8.7s4.1,3.5,6.8,3.5c11.6.2,21.2-9,28.9-17.8,41.3-47.1,72.7-104,123-141.4,7.8-5.7,16.5-11.7,19-21C500.4,229,526.5,231.1,550.3,231.2Z" id="el_IVsCqcznPV"/><path d="M374.3,234.5a558.9,558.9,0,0,1-75.3,158c-2.2,3.1-4.4,6.5-4.3,10.2s4.3,7.5,7.6,5.8c1-.5,13.7-8.2,14.4-9,31-35.2,43.6-70.2,74-106,9.6-11.3,15.8-23.8,21.3-37.6,7.1-17.7,5.4-39.7,18.8-53.2,5.9-6.1,15.1-10.8,22.9-14.2s18.5-19.3,14-20c-.9-.1-19.1,4.9-20,5-12,1-26.1,5.9-37,8a150.3,150.3,0,0,1-30,3c-8.8,0-2,10.9-1.7,19.1C379.5,214.3,377.2,224.4,374.3,234.5Z" id="el_iEaGMMiPsN"/><path d="M923.2,461c3.5,2.8,5.4.5,9.9.9,6.9.7,12.4,5.9,17.8,10.4,19.1,15.8,44.3,24.8,58.6,45,4.6,6.6,7.9,15,5.1,22.5-1.7,4.4-5.1,7.7-8.4,10.9-8.3,8.1-16.8,16.4-27.6,20.7-7.5,3-16.8,4.8-19.8,12.2-2.1,5-.3,10.7.5,16.1s-.3,12.1-5.4,14.1l-5.8-3A278.4,278.4,0,0,0,928,672.5a9.7,9.7,0,0,1-1.6,4.2c-2.7,3.3-8.5,1.2-10.1-2.7s-.6-8.2.6-12.3c4.2-14.9,8.4-29.8,12.7-44.7-1.7-.9-4,.3-4.9,2s-1.2,3.7-1.8,5.6c-1.5,4.5-5.2,7.9-7.8,11.9-4,6.2-5.1,13.8-7.1,21s-5.6,14.6-12.3,17.7c-4.4-3.5-5-10-3.4-15.4s4.7-10.1,6.6-15.3c3.3-8.9,3.3-19.2,9.1-26.7,1.7-2.2,3.9-4,5.2-6.5s1.3-5.9-1-7.6-3.9-1.1-5.8-.4-6.2,3.6-8.8,6a197.4,197.4,0,0,0-16.1,16.9c-2.2-5-1.2-11,1.3-15.9s6.4-8.8,10.3-12.8a42.1,42.1,0,0,1,8.1-7.1c3.6-2.4,7.9-3.6,11.5-6.1,6.1-4.3,9.2-11.5,13.2-17.8,8.8-13.6,22.9-23.3,30.5-37.6-4-7.3-14.2-7.1-22.2-9.4s-14.4-7.3-22.1-6.2c-2.8.3-5.5,1.6-8.4,1.7-7.6.2-12.8-7.4-15.5-14.4-3.4-9.2-4.7-20.3.9-28.3,4.2-6.2,11.6-9.4,18.6-12.1,4.6-1.8,10.4-3.4,14-.1Z" id="el_bpomT1sWZi"/><path d="M809.8,575.8c-9.6,3.5-19.6,5.2-29.6,6.9l-27.4,4.6a53.7,53.7,0,0,1-10.6,1.1c-3.4-.2-7-1-10.4-.2s-7.9,4.7-12,7c-7.2,4.1-16,3.7-24.3,5.1s-17.2,6-18.5,14.3a5.3,5.3,0,0,0,.1,2.5c1,3,5.5,3.2,7.3,5.8a8.9,8.9,0,0,1,11.9-11.1c-.6,4.5-5.8,6.7-10.2,7.7s-9.7,2.4-11.2,6.7c-.5,1.5-.5,3.3-1.5,4.6s-3.9,1.7-5.8,2.8c-3.5,2.1-3.6,7.2-3.3,11.3s.8,8.1,3.5,11,8.3,3.2,9.9-.4c-4.9-4.8-2.3-13.5,2.8-18.1s12-6.5,17.8-10.1c1.7,2.7-1.3,6-4.2,7.2s-6.5,2-7.8,4.9-.5,3.3-1,4.9c-1.5,4.8-8.6,6.5-9.4,11.6-.3,2,.5,4,.4,6s-.8,3.2-1,4.9c-.7,5.5,5.3,10.7,10.6,9.2a57.2,57.2,0,0,1-.3-11.7,5.6,5.6,0,0,1,1.2-3.6,24.8,24.8,0,0,1,2.6-1.9c2.2-1.8,2.1-5.1,3.5-7.6a18,18,0,0,1,2.6-2.9,190.3,190.3,0,0,1,20.8-16.2l3.2,8.6c6.3-8.2,13-16.2,20.1-23.8a8.7,8.7,0,0,1,4.3-3,12.8,12.8,0,0,1,4.3.6,60.1,60.1,0,0,0,9.5,1.1c14.2,1.2,28,5.8,42.3,6.6s30-2.9,38.2-14.5c3.5-4.9,5.3-10.7,6.7-16.4,2-7.8,3.4-15.6,4.8-23.5-.1,1.1-29.9-13.3-32.4-14.6C806.8,547.9,807.2,570.2,809.8,575.8Z" id="el_CSzRD_qlPf"/><path d="M388.3,226.6c-3.8,12.2-5.9,25.2-11.6,36.7-4.9,9.8-12.3,18-18.4,27.1s-11,19.6-10.1,30.5a8,8,0,0,0,1.3,4.3c2.2,3,7.2,2.3,10-.2s4.1-6.3,5.8-9.6c3.5-6.5,8.9-11.6,13.9-17,20.3-21.6,36-49.7,38.6-79.7.6-7.6,3.2-32.1-7.4-28S391,217.7,388.3,226.6Z" id="el_7aMQP4jydD"/><path d="M408.2,256.3l-5.1-6.4,1.7,13.7c.1,1.5-.9,3.7-2.1,2.8a4.3,4.3,0,0,0-3-3.9,16.1,16.1,0,0,1-1.3,11.4l-6-13.4a91.9,91.9,0,0,0,3.9,18.6,24.5,24.5,0,0,1-7.7-12.5,24.3,24.3,0,0,0,4.1,16.1,4.4,4.4,0,0,1-2.8,2.2,21.3,21.3,0,0,0-5.5-5.3,14.7,14.7,0,0,0,3.2,9.2l-2.8,3.1a34.1,34.1,0,0,1-7.5-9.7,28.8,28.8,0,0,0,4.4,14.9,48.7,48.7,0,0,0-7.8-10.8,19.1,19.1,0,0,0,5.2,15.8,16.1,16.1,0,0,0-7.4-4.2l3.6,10.2a11.3,11.3,0,0,0-7.1-6.6,28,28,0,0,0,3.4,11.2,18.5,18.5,0,0,0-6.9-7,16.4,16.4,0,0,0,3.4,12.6,22.6,22.6,0,0,0-7.2-8.7,7.5,7.5,0,0,0-.9,6.8c.6,1.6,1.8,2.9,2.4,4.5a8.1,8.1,0,0,1-4.1,10.3,26.2,26.2,0,0,1-4.4-7.8,21.5,21.5,0,0,0,1.6,13.2,13.2,13.2,0,0,0-7.4-8.6,39.8,39.8,0,0,0,4.9,13.2l-2.5,3.1-5.2-7.6a24.8,24.8,0,0,0,2.9,12.8,21.9,21.9,0,0,0-5.7-8.8l1.7,12.2a12.6,12.6,0,0,0-6.5-4.6c-.7,3,1,5.9,1.9,8.8s.5,7-2.4,8a30.3,30.3,0,0,1-4.2-6.9,15.8,15.8,0,0,0,1.1,11.5l-2.9-3.3a19,19,0,0,0,.7,7.5l-4.4-2.1v5.9c-2.1-1.2-4.5,2.5-2.6,3.9l-4.2-3.9a16.8,16.8,0,0,1-2.1,14.9,12.2,12.2,0,0,1-3.8-6.2l.2,8.6c.6-.4-.8-1.1-1-.4s.4,1.3.9,1.8.7,1.5,0,1.8a13.2,13.2,0,0,0-3.6-4.2l-.5,6.5a7.2,7.2,0,0,0-3.3-3.8c-1.8.8-.4,4.1,1.7,4.2s3.7-1.7,5-3.3c25.6-30.6,43.7-66.8,67.7-98.7,6.6-8.8,13.8-17.4,19.9-26.6,3-4.6,6.3-9.4,8.3-14.5s.7-7.6-1.7-12.7A30.1,30.1,0,0,0,408.2,256.3Z" id="el_2wfzM11-ne"/><path d="M299.9,392.4a28.2,28.2,0,0,0,5.7,5.2,30.6,30.6,0,0,1-6-12.1c3.9.2,5.7,6.3,9.6,6.1l-1.6-7.4c0-.3-.1-.6.1-.9s1.5-.1,2,.7a27.2,27.2,0,0,1,3.3,6.6,3.6,3.6,0,0,1,.4,2,5,5,0,0,1-.8,2c-2.2,3.8-5.1,8.2-8.7,10.5-1.1-2-2.8-3.6-3.6-5.8S300.3,392.9,299.9,392.4Z" id="el_8fwKhz468O"/><path d="M315,386.2a15.3,15.3,0,0,1-3.3-10.3,18,18,0,0,1,7,6.7,3.2,3.2,0,0,1,.5,2.8,2.4,2.4,0,0,1-2.9,1.2,5.8,5.8,0,0,1-2.7-2" id="el_CH3LhF-pV7"/><path d="M318.1,378.6a14.6,14.6,0,0,1-4.2-12.8l5.1,5.5a11.2,11.2,0,0,1,2.4,3.3,4.3,4.3,0,0,1-.3,4c-.9,1-2.8,1.3-3.7.2" id="el_XNjjYvuZth"/><path d="M322.2,356.5l5.3,6.8c2.5,3.4-1.4,5-3.7,2.6a7.8,7.8,0,0,1-1.5-3.5C322.1,361.3,322.6,357,322.2,356.5Z" id="el_xmiPURp-MJ"/><path d="M324.9,346c2.4,1.7,4.1,4.3,5.6,6.8a13,13,0,0,1,1.3,3,3.4,3.4,0,0,1-.8,3.1C325.9,364.2,324.9,347.9,324.9,346Z" id="el_8e6GFOpEU4G"/><path d="M330.3,344.7a7.1,7.1,0,0,1,4.4,3.1,15.5,15.5,0,0,1-1.6-8.2c0-.4.2-.9.5-.9s.6.2.8.4l3,3.4c.3-1.8-.6-3.5-1.2-5.1a37.9,37.9,0,0,1-1.7-10.6,11,11,0,0,0,7.3,6.5,21.8,21.8,0,0,1-.3-9.5,30.4,30.4,0,0,1,4.7,5.4,9.1,9.1,0,0,1,1.1,2.2,4.3,4.3,0,0,1-4.7,5.1,4.1,4.1,0,0,1-4.6,4.2c.4,2.3.6,4.9-1,6.6s-.7.5-.9.9a2.8,2.8,0,0,0-.1.9,12.2,12.2,0,0,1,0,2.7,2.3,2.3,0,0,1-1.5,1.9C332.1,354.4,330.7,346.4,330.3,344.7Z" id="el_FogSehLiJKm"/><path d="M343.2,303.7c2.6.2,4.1,3.2,6.7,3.5a43.4,43.4,0,0,1-1.6-6.2,3.4,3.4,0,0,1,3,1,3.3,3.3,0,0,1,.4,3.2c-.8,1.7-3.1,9.2-5.5,8.3S343.1,303.7,343.2,303.7Z" id="el_eklorEGB5Lw"/><path d="M356.8,285.2a13.4,13.4,0,0,0,3.7,2.5,15.5,15.5,0,0,1-1.4-8.7l2.9,1.4a9.3,9.3,0,0,1,1.5,1.3,4.1,4.1,0,0,1,0,4A19.1,19.1,0,0,1,361,289a9.9,9.9,0,0,0-2.1,3.2C357.3,290.8,356.9,287.2,356.8,285.2Z" id="el_IoHc4nggYpO"/><path d="M366.3,264.9c1.6,1.8,3.3,3.7,5,5.4,1.4-2.4.6-5.4-.3-8.1a12.6,12.6,0,0,1,3.7,3.2,10.5,10.5,0,0,0-2.2-8.4c2-.1,4.2.8,4.8,2.7s-.4,3.5-1.3,5c-2.5,4.3-4.7,9.5-7.9,13.4C365.7,275.1,365.9,268.5,366.3,264.9Z" id="el_Bsjubv00mn-"/><path d="M226.5,159.7c.4.2.9.5,1.3.4a2,2,0,0,0,1.3-1.1c1.3-1.9,3.8-3.2,5.9-2.3s3.1,4.1,1.2,5.5-4.9-.1-7.3.6a10.6,10.6,0,0,0-3.3,2.2C219.3,169.5,220.2,157.1,226.5,159.7Z" id="el_m_1WF5DD9XY"/><path d="M402.2,100.4c6.5-3.9,15.2-4.1,21.6.1,4.2,2.8,7,7.3,9.5,11.7s4.5,8.9,5.1,13.8,0,8.7-.7,13-1,5.8-2.5,8.3a14.8,14.8,0,0,1-4.8,4.5c-12.9,8.3-32.1,3-38.4-11.3S389.4,108,402.2,100.4Z" id="el_6HGZyTdCsP7"/><path d="M397,125.9c.4,6.5,1.9,13.6,6.7,18.1a25.5,25.5,0,0,0,4.3,3,12,12,0,0,0,4.7,1.9c3.9.4,7.4-2.3,9.5-5.5a20.2,20.2,0,0,0,1.1-19.9,37.1,37.1,0,0,0-5.5-7.5,13.8,13.8,0,0,0-3.3-3.1c-3.4-2.2-7.8-1.3-11.7-.4C397.4,113.7,396.7,121.3,397,125.9Z" id="el_O6zk_o5Tvg1"/><path d="M401.7,131.3a14,14,0,0,0,4.9,6.6,9.4,9.4,0,0,0,7.8,1.4,5.8,5.8,0,0,0,2.3-1.3,8.4,8.4,0,0,0,2.3-4.7,14.5,14.5,0,0,0-2.9-11.4C407.9,112.5,397.2,120.4,401.7,131.3Z" id="el_2xU_9QNEXPz"/><path d="M406.9,124.7c-1.2-.8-2.9.3-3.1,1.7a4,4,0,0,0,1.9,3.5c1.3,1.1,3.5,1.6,4.6.3a2.8,2.8,0,0,0-.4-3.5,7.6,7.6,0,0,0-3.3-1.8" id="el_KGLIv-oROaJ"/></g><g id="el_bIPdvD3BM-F"><g id="el_wiVWQwGao_n_an_DlghbPvkB" data-animator-group="true" data-animator-type="1"><path d="M1315.5,679.1c-3.4-3.3-5.5-7.7-8.2-11.6-5.5-8.3-12.6-15.7-21.7-19.8,5.3-15.3,2.5-32.3-2.8-47.5s-13.1-29.6-17.9-45.1c-1.5-5.1-2.8-10.3-4.9-15.2-9.4-22.4-34.6-35.1-58.9-35.5a8.2,8.2,0,0,0-4.1.6c-1.9.9-2.9,3-3.8,4.9l-17.5,37.4c-3.6,7.8-7.3,16.6-4.7,24.8,2.1,6.4,7.6,10.9,11.4,16.4,11.8,17,6.8,41.2,17.3,59-1.6,0,2.3,1.5.7,1.4a260,260,0,0,0,9.5,50.2c1.2,4,2.6,8.1,5.1,11.4s7.2,6.6,11.5,8.8c25.2,13,55.5,10.1,83.9,9.3,7-.2,14.4-.5,20.2-4.4,8.3-5.6,10.6-17.7,6.4-26.8S1325.3,680.9,1315.5,679.1Z" id="el_wiVWQwGao_n"/></g><g id="el_SQUQ7s1SdKX_an_bX-tmeDGW" data-animator-group="true" data-animator-type="1"><path d="M1346.5,693.2c3.6,1.1,7.3,2.1,10.1,4.6,5.3,4.8,5.1,12.9,5.1,20.1,0,24.8,6.7,49,13.4,72.9,2.1,7.7,4.3,15.5,7.6,22.8s8.5,15.6,13,23.3c6.4,11.3,11.7,23,17.1,34.8l11.9,26.4c3,6.5,6,13.2,6.9,20.3s-.5,14.9-5.4,20.1c.7-4.2-4.4-6.7-7.9-9.2-14.5-10-10.8-36.1-26.4-44.3a70.8,70.8,0,0,0,9.1,28.3c7.1,12.2,18.4,24.4,15.2,38.1a9.5,9.5,0,0,0-5.5,10.5,44.4,44.4,0,0,1-21.6-14.7c-13.1-16.6-12.8-40-22-59-.9-1.7-1.9-3.5-3.7-4.2-5.9,13.9,6.5,29,5.8,44.1-.4,8.2-4.6,16.5-2.1,24.3a72.6,72.6,0,0,0-14.7-13l-2.1,4.3c-8.7-19-13.7-39.4-18.7-59.7-1.8-7.6-3.7-15.2-3.8-23-.2-6.3.8-12.6,1.6-18.8a229.9,229.9,0,0,0-4.4-79.7c-2.9-12.9-20-19-31.9-24.7-6.9-3.2-14.2-6.5-18.2-12.9a18.7,18.7,0,0,1,1.8-21.6c5.3-5.9,13.6-7.8,21.4-9.3C1313.7,690.9,1331.2,688.7,1346.5,693.2Z" id="el_SQUQ7s1SdKX"/></g></g></svg>