<svg xmlns="http://www.w3.org/2000/svg" viewBox="0 0 1920 1080" id="el_DQl03KCY4"><style>@-webkit-keyframes kf_el_Eq_n3fDsFfA_an_Y-1n8lncy{0%{-webkit-transform: translate(573.1729125976562px, 499.37115478515625px) rotate(0deg) translate(-573.1729125976562px, -499.37115478515625px);transform: translate(573.1729125976562px, 499.37115478515625px) rotate(0deg) translate(-573.1729125976562px, -499.37115478515625px);}23.33%{-webkit-transform: translate(573.1729125976562px, 499.37115478515625px) rotate(5deg) translate(-573.1729125976562px, -499.37115478515625px);transform: translate(573.1729125976562px, 499.37115478515625px) rotate(5deg) translate(-573.1729125976562px, -499.37115478515625px);}41.67%{-webkit-transform: translate(573.1729125976562px, 499.37115478515625px) rotate(0deg) translate(-573.1729125976562px, -499.37115478515625px);transform: translate(573.1729125976562px, 499.37115478515625px) rotate(0deg) translate(-573.1729125976562px, -499.37115478515625px);}68.33%{-webkit-transform: translate(573.1729125976562px, 499.37115478515625px) rotate(5deg) translate(-573.1729125976562px, -499.37115478515625px);transform: translate(573.1729125976562px, 499.37115478515625px) rotate(5deg) translate(-573.1729125976562px, -499.37115478515625px);}100%{-webkit-transform: translate(573.1729125976562px, 499.37115478515625px) rotate(0deg) translate(-573.1729125976562px, -499.37115478515625px);transform: translate(573.1729125976562px, 499.37115478515625px) rotate(0deg) translate(-573.1729125976562px, -499.37115478515625px);}}@keyframes kf_el_Eq_n3fDsFfA_an_Y-1n8lncy{0%{-webkit-transform: translate(573.1729125976562px, 499.37115478515625px) rotate(0deg) translate(-573.1729125976562px, -499.37115478515625px);transform: translate(573.1729125976562px, 499.37115478515625px) rotate(0deg) translate(-573.1729125976562px, -499.37115478515625px);}23.33%{-webkit-transform: translate(573.1729125976562px, 499.37115478515625px) rotate(5deg) translate(-573.1729125976562px, -499.37115478515625px);transform: translate(573.1729125976562px, 499.37115478515625px) rotate(5deg) translate(-573.1729125976562px, -499.37115478515625px);}41.67%{-webkit-transform: translate(573.1729125976562px, 499.37115478515625px) rotate(0deg) translate(-573.1729125976562px, -499.37115478515625px);transform: translate(573.1729125976562px, 499.37115478515625px) rotate(0deg) translate(-573.1729125976562px, -499.37115478515625px);}68.33%{-webkit-transform: translate(573.1729125976562px, 499.37115478515625px) rotate(5deg) translate(-573.1729125976562px, -499.37115478515625px);transform: translate(573.1729125976562px, 499.37115478515625px) rotate(5deg) translate(-573.1729125976562px, -499.37115478515625px);}100%{-webkit-transform: translate(573.1729125976562px, 499.37115478515625px) rotate(0deg) translate(-573.1729125976562px, -499.37115478515625px);transform: translate(573.1729125976562px, 499.37115478515625px) rotate(0deg) translate(-573.1729125976562px, -499.37115478515625px);}}@-webkit-keyframes kf_el_CY7eAGI7xQD_an_EY4PrL4iC{0%{-webkit-transform: translate(507.8271942138672px, 689.1981201171875px) rotate(0deg) translate(-507.8271942138672px, -689.1981201171875px);transform: translate(507.8271942138672px, 689.1981201171875px) rotate(0deg) translate(-507.8271942138672px, -689.1981201171875px);}23.33%{-webkit-transform: translate(507.8271942138672px, 689.1981201171875px) rotate(-15deg) translate(-507.8271942138672px, -689.1981201171875px);transform: translate(507.8271942138672px, 689.1981201171875px) rotate(-15deg) translate(-507.8271942138672px, -689.1981201171875px);}41.67%{-webkit-transform: translate(507.8271942138672px, 689.1981201171875px) rotate(0deg) translate(-507.8271942138672px, -689.1981201171875px);transform: translate(507.8271942138672px, 689.1981201171875px) rotate(0deg) translate(-507.8271942138672px, -689.1981201171875px);}68.33%{-webkit-transform: translate(507.8271942138672px, 689.1981201171875px) rotate(-15deg) translate(-507.8271942138672px, -689.1981201171875px);transform: translate(507.8271942138672px, 689.1981201171875px) rotate(-15deg) translate(-507.8271942138672px, -689.1981201171875px);}100%{-webkit-transform: translate(507.8271942138672px, 689.1981201171875px) rotate(0deg) translate(-507.8271942138672px, -689.1981201171875px);transform: translate(507.8271942138672px, 689.1981201171875px) rotate(0deg) translate(-507.8271942138672px, -689.1981201171875px);}}@keyframes kf_el_CY7eAGI7xQD_an_EY4PrL4iC{0%{-webkit-transform: translate(507.8271942138672px, 689.1981201171875px) rotate(0deg) translate(-507.8271942138672px, -689.1981201171875px);transform: translate(507.8271942138672px, 689.1981201171875px) rotate(0deg) translate(-507.8271942138672px, -689.1981201171875px);}23.33%{-webkit-transform: translate(507.8271942138672px, 689.1981201171875px) rotate(-15deg) translate(-507.8271942138672px, -689.1981201171875px);transform: translate(507.8271942138672px, 689.1981201171875px) rotate(-15deg) translate(-507.8271942138672px, -689.1981201171875px);}41.67%{-webkit-transform: translate(507.8271942138672px, 689.1981201171875px) rotate(0deg) translate(-507.8271942138672px, -689.1981201171875px);transform: translate(507.8271942138672px, 689.1981201171875px) rotate(0deg) translate(-507.8271942138672px, -689.1981201171875px);}68.33%{-webkit-transform: translate(507.8271942138672px, 689.1981201171875px) rotate(-15deg) translate(-507.8271942138672px, -689.1981201171875px);transform: translate(507.8271942138672px, 689.1981201171875px) rotate(-15deg) translate(-507.8271942138672px, -689.1981201171875px);}100%{-webkit-transform: translate(507.8271942138672px, 689.1981201171875px) rotate(0deg) translate(-507.8271942138672px, -689.1981201171875px);transform: translate(507.8271942138672px, 689.1981201171875px) rotate(0deg) translate(-507.8271942138672px, -689.1981201171875px);}}@-webkit-keyframes kf_el_VyhSEXxvJW2_an_ieJDNjlnY{0%{-webkit-transform: translate(838.6732177734375px, 468.9453125px) rotate(0deg) translate(-838.6732177734375px, -468.9453125px);transform: translate(838.6732177734375px, 468.9453125px) rotate(0deg) translate(-838.6732177734375px, -468.9453125px);}23.33%{-webkit-transform: translate(838.6732177734375px, 468.9453125px) rotate(5deg) translate(-838.6732177734375px, -468.9453125px);transform: translate(838.6732177734375px, 468.9453125px) rotate(5deg) translate(-838.6732177734375px, -468.9453125px);}41.67%{-webkit-transform: translate(838.6732177734375px, 468.9453125px) rotate(0deg) translate(-838.6732177734375px, -468.9453125px);transform: translate(838.6732177734375px, 468.9453125px) rotate(0deg) translate(-838.6732177734375px, -468.9453125px);}68.33%{-webkit-transform: translate(838.6732177734375px, 468.9453125px) rotate(5deg) translate(-838.6732177734375px, -468.9453125px);transform: translate(838.6732177734375px, 468.9453125px) rotate(5deg) translate(-838.6732177734375px, -468.9453125px);}100%{-webkit-transform: translate(838.6732177734375px, 468.9453125px) rotate(0deg) translate(-838.6732177734375px, -468.9453125px);transform: translate(838.6732177734375px, 468.9453125px) rotate(0deg) translate(-838.6732177734375px, -468.9453125px);}}@keyframes kf_el_VyhSEXxvJW2_an_ieJDNjlnY{0%{-webkit-transform: translate(838.6732177734375px, 468.9453125px) rotate(0deg) translate(-838.6732177734375px, -468.9453125px);transform: translate(838.6732177734375px, 468.9453125px) rotate(0deg) translate(-838.6732177734375px, -468.9453125px);}23.33%{-webkit-transform: translate(838.6732177734375px, 468.9453125px) rotate(5deg) translate(-838.6732177734375px, -468.9453125px);transform: translate(838.6732177734375px, 468.9453125px) rotate(5deg) translate(-838.6732177734375px, -468.9453125px);}41.67%{-webkit-transform: translate(838.6732177734375px, 468.9453125px) rotate(0deg) translate(-838.6732177734375px, -468.9453125px);transform: translate(838.6732177734375px, 468.9453125px) rotate(0deg) translate(-838.6732177734375px, -468.9453125px);}68.33%{-webkit-transform: translate(838.6732177734375px, 468.9453125px) rotate(5deg) translate(-838.6732177734375px, -468.9453125px);transform: translate(838.6732177734375px, 468.9453125px) rotate(5deg) translate(-838.6732177734375px, -468.9453125px);}100%{-webkit-transform: translate(838.6732177734375px, 468.9453125px) rotate(0deg) translate(-838.6732177734375px, -468.9453125px);transform: translate(838.6732177734375px, 468.9453125px) rotate(0deg) translate(-838.6732177734375px, -468.9453125px);}}@-webkit-keyframes kf_el_zyvOtF-cdlr_an_135kMlcDf{0%{-webkit-transform: translate(837.9352416992188px, 637.8773803710938px) rotate(0deg) translate(-837.9352416992188px, -637.8773803710938px);transform: translate(837.9352416992188px, 637.8773803710938px) rotate(0deg) translate(-837.9352416992188px, -637.8773803710938px);}23.33%{-webkit-transform: translate(837.9352416992188px, 637.8773803710938px) rotate(5deg) translate(-837.9352416992188px, -637.8773803710938px);transform: translate(837.9352416992188px, 637.8773803710938px) rotate(5deg) translate(-837.9352416992188px, -637.8773803710938px);}41.67%{-webkit-transform: translate(837.9352416992188px, 637.8773803710938px) rotate(0deg) translate(-837.9352416992188px, -637.8773803710938px);transform: translate(837.9352416992188px, 637.8773803710938px) rotate(0deg) translate(-837.9352416992188px, -637.8773803710938px);}68.33%{-webkit-transform: translate(837.9352416992188px, 637.8773803710938px) rotate(5deg) translate(-837.9352416992188px, -637.8773803710938px);transform: translate(837.9352416992188px, 637.8773803710938px) rotate(5deg) translate(-837.9352416992188px, -637.8773803710938px);}100%{-webkit-transform: translate(837.9352416992188px, 637.8773803710938px) rotate(0deg) translate(-837.9352416992188px, -637.8773803710938px);transform: translate(837.9352416992188px, 637.8773803710938px) rotate(0deg) translate(-837.9352416992188px, -637.8773803710938px);}}@keyframes kf_el_zyvOtF-cdlr_an_135kMlcDf{0%{-webkit-transform: translate(837.9352416992188px, 637.8773803710938px) rotate(0deg) translate(-837.9352416992188px, -637.8773803710938px);transform: translate(837.9352416992188px, 637.8773803710938px) rotate(0deg) translate(-837.9352416992188px, -637.8773803710938px);}23.33%{-webkit-transform: translate(837.9352416992188px, 637.8773803710938px) rotate(5deg) translate(-837.9352416992188px, -637.8773803710938px);transform: translate(837.9352416992188px, 637.8773803710938px) rotate(5deg) translate(-837.9352416992188px, -637.8773803710938px);}41.67%{-webkit-transform: translate(837.9352416992188px, 637.8773803710938px) rotate(0deg) translate(-837.9352416992188px, -637.8773803710938px);transform: translate(837.9352416992188px, 637.8773803710938px) rotate(0deg) translate(-837.9352416992188px, -637.8773803710938px);}68.33%{-webkit-transform: translate(837.9352416992188px, 637.8773803710938px) rotate(5deg) translate(-837.9352416992188px, -637.8773803710938px);transform: translate(837.9352416992188px, 637.8773803710938px) rotate(5deg) translate(-837.9352416992188px, -637.8773803710938px);}100%{-webkit-transform: translate(837.9352416992188px, 637.8773803710938px) rotate(0deg) translate(-837.9352416992188px, -637.8773803710938px);transform: translate(837.9352416992188px, 637.8773803710938px) rotate(0deg) translate(-837.9352416992188px, -637.8773803710938px);}}@-webkit-keyframes kf_el_zgGZszE8csZ_an_QPVSZ9BTX{0%{-webkit-transform: translate(378.2328186035156px, 392.4860534667969px) rotate(20deg) translate(-378.2328186035156px, -392.4860534667969px);transform: translate(378.2328186035156px, 392.4860534667969px) rotate(20deg) translate(-378.2328186035156px, -392.4860534667969px);}10%{-webkit-transform: translate(378.2328186035156px, 392.4860534667969px) rotate(20deg) translate(-378.2328186035156px, -392.4860534667969px);transform: translate(378.2328186035156px, 392.4860534667969px) rotate(20deg) translate(-378.2328186035156px, -392.4860534667969px);}30%{-webkit-transform: translate(378.2328186035156px, 392.4860534667969px) rotate(-10deg) translate(-378.2328186035156px, -392.4860534667969px);transform: translate(378.2328186035156px, 392.4860534667969px) rotate(-10deg) translate(-378.2328186035156px, -392.4860534667969px);}41.67%{-webkit-transform: translate(378.2328186035156px, 392.4860534667969px) rotate(20deg) translate(-378.2328186035156px, -392.4860534667969px);transform: translate(378.2328186035156px, 392.4860534667969px) rotate(20deg) translate(-378.2328186035156px, -392.4860534667969px);}68.33%{-webkit-transform: translate(378.2328186035156px, 392.4860534667969px) rotate(-10deg) translate(-378.2328186035156px, -392.4860534667969px);transform: translate(378.2328186035156px, 392.4860534667969px) rotate(-10deg) translate(-378.2328186035156px, -392.4860534667969px);}100%{-webkit-transform: translate(378.2328186035156px, 392.4860534667969px) rotate(20deg) translate(-378.2328186035156px, -392.4860534667969px);transform: translate(378.2328186035156px, 392.4860534667969px) rotate(20deg) translate(-378.2328186035156px, -392.4860534667969px);}}@keyframes kf_el_zgGZszE8csZ_an_QPVSZ9BTX{0%{-webkit-transform: translate(378.2328186035156px, 392.4860534667969px) rotate(20deg) translate(-378.2328186035156px, -392.4860534667969px);transform: translate(378.2328186035156px, 392.4860534667969px) rotate(20deg) translate(-378.2328186035156px, -392.4860534667969px);}10%{-webkit-transform: translate(378.2328186035156px, 392.4860534667969px) rotate(20deg) translate(-378.2328186035156px, -392.4860534667969px);transform: translate(378.2328186035156px, 392.4860534667969px) rotate(20deg) translate(-378.2328186035156px, -392.4860534667969px);}30%{-webkit-transform: translate(378.2328186035156px, 392.4860534667969px) rotate(-10deg) translate(-378.2328186035156px, -392.4860534667969px);transform: translate(378.2328186035156px, 392.4860534667969px) rotate(-10deg) translate(-378.2328186035156px, -392.4860534667969px);}41.67%{-webkit-transform: translate(378.2328186035156px, 392.4860534667969px) rotate(20deg) translate(-378.2328186035156px, -392.4860534667969px);transform: translate(378.2328186035156px, 392.4860534667969px) rotate(20deg) translate(-378.2328186035156px, -392.4860534667969px);}68.33%{-webkit-transform: translate(378.2328186035156px, 392.4860534667969px) rotate(-10deg) translate(-378.2328186035156px, -392.4860534667969px);transform: translate(378.2328186035156px, 392.4860534667969px) rotate(-10deg) translate(-378.2328186035156px, -392.4860534667969px);}100%{-webkit-transform: translate(378.2328186035156px, 392.4860534667969px) rotate(20deg) translate(-378.2328186035156px, -392.4860534667969px);transform: translate(378.2328186035156px, 392.4860534667969px) rotate(20deg) translate(-378.2328186035156px, -392.4860534667969px);}}@-webkit-keyframes kf_el_oXwMpBKyBJ_an_lpcMj4uHl{0%{-webkit-transform: translate(558.9032592773438px, 702.7249755859375px) rotate(5deg) translate(-558.9032592773438px, -702.7249755859375px);transform: translate(558.9032592773438px, 702.7249755859375px) rotate(5deg) translate(-558.9032592773438px, -702.7249755859375px);}23.33%{-webkit-transform: translate(558.9032592773438px, 702.7249755859375px) rotate(0deg) translate(-558.9032592773438px, -702.7249755859375px);transform: translate(558.9032592773438px, 702.7249755859375px) rotate(0deg) translate(-558.9032592773438px, -702.7249755859375px);}41.67%{-webkit-transform: translate(558.9032592773438px, 702.7249755859375px) rotate(5deg) translate(-558.9032592773438px, -702.7249755859375px);transform: translate(558.9032592773438px, 702.7249755859375px) rotate(5deg) translate(-558.9032592773438px, -702.7249755859375px);}68.33%{-webkit-transform: translate(558.9032592773438px, 702.7249755859375px) rotate(0deg) translate(-558.9032592773438px, -702.7249755859375px);transform: translate(558.9032592773438px, 702.7249755859375px) rotate(0deg) translate(-558.9032592773438px, -702.7249755859375px);}100%{-webkit-transform: translate(558.9032592773438px, 702.7249755859375px) rotate(5deg) translate(-558.9032592773438px, -702.7249755859375px);transform: translate(558.9032592773438px, 702.7249755859375px) rotate(5deg) translate(-558.9032592773438px, -702.7249755859375px);}}@keyframes kf_el_oXwMpBKyBJ_an_lpcMj4uHl{0%{-webkit-transform: translate(558.9032592773438px, 702.7249755859375px) rotate(5deg) translate(-558.9032592773438px, -702.7249755859375px);transform: translate(558.9032592773438px, 702.7249755859375px) rotate(5deg) translate(-558.9032592773438px, -702.7249755859375px);}23.33%{-webkit-transform: translate(558.9032592773438px, 702.7249755859375px) rotate(0deg) translate(-558.9032592773438px, -702.7249755859375px);transform: translate(558.9032592773438px, 702.7249755859375px) rotate(0deg) translate(-558.9032592773438px, -702.7249755859375px);}41.67%{-webkit-transform: translate(558.9032592773438px, 702.7249755859375px) rotate(5deg) translate(-558.9032592773438px, -702.7249755859375px);transform: translate(558.9032592773438px, 702.7249755859375px) rotate(5deg) translate(-558.9032592773438px, -702.7249755859375px);}68.33%{-webkit-transform: translate(558.9032592773438px, 702.7249755859375px) rotate(0deg) translate(-558.9032592773438px, -702.7249755859375px);transform: translate(558.9032592773438px, 702.7249755859375px) rotate(0deg) translate(-558.9032592773438px, -702.7249755859375px);}100%{-webkit-transform: translate(558.9032592773438px, 702.7249755859375px) rotate(5deg) translate(-558.9032592773438px, -702.7249755859375px);transform: translate(558.9032592773438px, 702.7249755859375px) rotate(5deg) translate(-558.9032592773438px, -702.7249755859375px);}}@-webkit-keyframes kf_el_FRPs6uLWaM_an_4EXCVrPG9{0%{-webkit-transform: translate(523.963134765625px, 774.2884521484375px) translate(-523.963134765625px, -774.2884521484375px) translate(0px, -5px);transform: translate(523.963134765625px, 774.2884521484375px) translate(-523.963134765625px, -774.2884521484375px) translate(0px, -5px);}100%{-webkit-transform: translate(523.963134765625px, 774.2884521484375px) translate(-523.963134765625px, -774.2884521484375px) translate(0px, -5px);transform: translate(523.963134765625px, 774.2884521484375px) translate(-523.963134765625px, -774.2884521484375px) translate(0px, -5px);}}@keyframes kf_el_FRPs6uLWaM_an_4EXCVrPG9{0%{-webkit-transform: translate(523.963134765625px, 774.2884521484375px) translate(-523.963134765625px, -774.2884521484375px) translate(0px, -5px);transform: translate(523.963134765625px, 774.2884521484375px) translate(-523.963134765625px, -774.2884521484375px) translate(0px, -5px);}100%{-webkit-transform: translate(523.963134765625px, 774.2884521484375px) translate(-523.963134765625px, -774.2884521484375px) translate(0px, -5px);transform: translate(523.963134765625px, 774.2884521484375px) translate(-523.963134765625px, -774.2884521484375px) translate(0px, -5px);}}@-webkit-keyframes kf_el_FRPs6uLWaM_an_QjnsvXago{0%{-webkit-transform: translate(523.963134765625px, 774.2884521484375px) rotate(15deg) translate(-523.963134765625px, -774.2884521484375px);transform: translate(523.963134765625px, 774.2884521484375px) rotate(15deg) translate(-523.963134765625px, -774.2884521484375px);}23.33%{-webkit-transform: translate(523.963134765625px, 774.2884521484375px) rotate(0deg) translate(-523.963134765625px, -774.2884521484375px);transform: translate(523.963134765625px, 774.2884521484375px) rotate(0deg) translate(-523.963134765625px, -774.2884521484375px);}41.67%{-webkit-transform: translate(523.963134765625px, 774.2884521484375px) rotate(15deg) translate(-523.963134765625px, -774.2884521484375px);transform: translate(523.963134765625px, 774.2884521484375px) rotate(15deg) translate(-523.963134765625px, -774.2884521484375px);}68.33%{-webkit-transform: translate(523.963134765625px, 774.2884521484375px) rotate(0deg) translate(-523.963134765625px, -774.2884521484375px);transform: translate(523.963134765625px, 774.2884521484375px) rotate(0deg) translate(-523.963134765625px, -774.2884521484375px);}100%{-webkit-transform: translate(523.963134765625px, 774.2884521484375px) rotate(15deg) translate(-523.963134765625px, -774.2884521484375px);transform: translate(523.963134765625px, 774.2884521484375px) rotate(15deg) translate(-523.963134765625px, -774.2884521484375px);}}@keyframes kf_el_FRPs6uLWaM_an_QjnsvXago{0%{-webkit-transform: translate(523.963134765625px, 774.2884521484375px) rotate(15deg) translate(-523.963134765625px, -774.2884521484375px);transform: translate(523.963134765625px, 774.2884521484375px) rotate(15deg) translate(-523.963134765625px, -774.2884521484375px);}23.33%{-webkit-transform: translate(523.963134765625px, 774.2884521484375px) rotate(0deg) translate(-523.963134765625px, -774.2884521484375px);transform: translate(523.963134765625px, 774.2884521484375px) rotate(0deg) translate(-523.963134765625px, -774.2884521484375px);}41.67%{-webkit-transform: translate(523.963134765625px, 774.2884521484375px) rotate(15deg) translate(-523.963134765625px, -774.2884521484375px);transform: translate(523.963134765625px, 774.2884521484375px) rotate(15deg) translate(-523.963134765625px, -774.2884521484375px);}68.33%{-webkit-transform: translate(523.963134765625px, 774.2884521484375px) rotate(0deg) translate(-523.963134765625px, -774.2884521484375px);transform: translate(523.963134765625px, 774.2884521484375px) rotate(0deg) translate(-523.963134765625px, -774.2884521484375px);}100%{-webkit-transform: translate(523.963134765625px, 774.2884521484375px) rotate(15deg) translate(-523.963134765625px, -774.2884521484375px);transform: translate(523.963134765625px, 774.2884521484375px) rotate(15deg) translate(-523.963134765625px, -774.2884521484375px);}}@-webkit-keyframes kf_el_JBGkyaexIT_an_V4_eLJFOQ{0%{-webkit-transform: translate(1017.3128051757812px, 768.013671875px) rotate(15deg) translate(-1017.3128051757812px, -768.013671875px);transform: translate(1017.3128051757812px, 768.013671875px) rotate(15deg) translate(-1017.3128051757812px, -768.013671875px);}23.33%{-webkit-transform: translate(1017.3128051757812px, 768.013671875px) rotate(0deg) translate(-1017.3128051757812px, -768.013671875px);transform: translate(1017.3128051757812px, 768.013671875px) rotate(0deg) translate(-1017.3128051757812px, -768.013671875px);}41.67%{-webkit-transform: translate(1017.3128051757812px, 768.013671875px) rotate(15deg) translate(-1017.3128051757812px, -768.013671875px);transform: translate(1017.3128051757812px, 768.013671875px) rotate(15deg) translate(-1017.3128051757812px, -768.013671875px);}68.33%{-webkit-transform: translate(1017.3128051757812px, 768.013671875px) rotate(0deg) translate(-1017.3128051757812px, -768.013671875px);transform: translate(1017.3128051757812px, 768.013671875px) rotate(0deg) translate(-1017.3128051757812px, -768.013671875px);}100%{-webkit-transform: translate(1017.3128051757812px, 768.013671875px) rotate(15deg) translate(-1017.3128051757812px, -768.013671875px);transform: translate(1017.3128051757812px, 768.013671875px) rotate(15deg) translate(-1017.3128051757812px, -768.013671875px);}}@keyframes kf_el_JBGkyaexIT_an_V4_eLJFOQ{0%{-webkit-transform: translate(1017.3128051757812px, 768.013671875px) rotate(15deg) translate(-1017.3128051757812px, -768.013671875px);transform: translate(1017.3128051757812px, 768.013671875px) rotate(15deg) translate(-1017.3128051757812px, -768.013671875px);}23.33%{-webkit-transform: translate(1017.3128051757812px, 768.013671875px) rotate(0deg) translate(-1017.3128051757812px, -768.013671875px);transform: translate(1017.3128051757812px, 768.013671875px) rotate(0deg) translate(-1017.3128051757812px, -768.013671875px);}41.67%{-webkit-transform: translate(1017.3128051757812px, 768.013671875px) rotate(15deg) translate(-1017.3128051757812px, -768.013671875px);transform: translate(1017.3128051757812px, 768.013671875px) rotate(15deg) translate(-1017.3128051757812px, -768.013671875px);}68.33%{-webkit-transform: translate(1017.3128051757812px, 768.013671875px) rotate(0deg) translate(-1017.3128051757812px, -768.013671875px);transform: translate(1017.3128051757812px, 768.013671875px) rotate(0deg) translate(-1017.3128051757812px, -768.013671875px);}100%{-webkit-transform: translate(1017.3128051757812px, 768.013671875px) rotate(15deg) translate(-1017.3128051757812px, -768.013671875px);transform: translate(1017.3128051757812px, 768.013671875px) rotate(15deg) translate(-1017.3128051757812px, -768.013671875px);}}#el_DQl03KCY4 *{-webkit-animation-duration: 2s;animation-duration: 2s;-webkit-animation-iteration-count: 1;animation-iteration-count: 1;-webkit-animation-timing-function: cubic-bezier(0, 0, 1, 1);animation-timing-function: cubic-bezier(0, 0, 1, 1);}#el_sFSGDfi76x{fill: #a89d94;}#el_JBGkyaexIT{fill: #a89d94;}#el_dZvui4NBB3{fill: #a89d94;}#el_bBsJyP9b3J{fill: #39220d;}#el_ZRl4oHTAXa{fill: #39220d;}#el_SJkJwe_OqC{fill: #39220d;}#el_slw9ss7BV3{fill: #a89d94;}#el_gXXO0Mjsat{fill: #592910;}#el_ro_csIrhXo{fill: #dbcec3;}#el_SKrkJwNkSq{fill: #646158;}#el_J4Ra-RgkFs{fill: #dbcec3;}#el_7_j_UCZMZVP{fill: #7f7055;}#el_bSxJ1cq5VmQ{fill: #fff3d7;}#el_k-NfD-URD71{fill: #1b0900;}#el_xzYYobxKH7s{fill: #dbcec3;}#el_ATEiBFu8lvR{fill: #100000;}#el_Uk_uY3jMwlz{fill: #dbcec3;}#el_LAcgaUMOsl_{fill: #d0c4b9;}#el_cQaQlYNsk4u{fill: #39220d;}#el_T-Qlsrmdfyv{fill: #39220d;}#el_VyhSEXxvJW2{fill: #d0c4b9;}#el_Y51an2SYMwE{fill: #d0c4b9;}#el_aZIISc-dnpU{fill: #39220d;}#el_21m7sRrnsbA{fill: #39220d;}#el_85iI9zcC_ET{fill: #d0c4b9;}#el_JBGkyaexIT_an_V4_eLJFOQ{-webkit-animation-fill-mode: backwards;animation-fill-mode: backwards;-webkit-transform: translate(1017.3128051757812px, 768.013671875px) rotate(15deg) translate(-1017.3128051757812px, -768.013671875px);transform: translate(1017.3128051757812px, 768.013671875px) rotate(15deg) translate(-1017.3128051757812px, -768.013671875px);-webkit-animation-name: kf_el_JBGkyaexIT_an_V4_eLJFOQ;animation-name: kf_el_JBGkyaexIT_an_V4_eLJFOQ;-webkit-animation-timing-function: cubic-bezier(0, 0, 1, 1);animation-timing-function: cubic-bezier(0, 0, 1, 1);}#el_FRPs6uLWaM_an_QjnsvXago{-webkit-animation-fill-mode: backwards;animation-fill-mode: backwards;-webkit-transform: translate(523.963134765625px, 774.2884521484375px) rotate(15deg) translate(-523.963134765625px, -774.2884521484375px);transform: translate(523.963134765625px, 774.2884521484375px) rotate(15deg) translate(-523.963134765625px, -774.2884521484375px);-webkit-animation-name: kf_el_FRPs6uLWaM_an_QjnsvXago;animation-name: kf_el_FRPs6uLWaM_an_QjnsvXago;-webkit-animation-timing-function: cubic-bezier(0, 0, 1, 1);animation-timing-function: cubic-bezier(0, 0, 1, 1);}#el_FRPs6uLWaM_an_4EXCVrPG9{-webkit-animation-fill-mode: backwards;animation-fill-mode: backwards;-webkit-transform: translate(523.963134765625px, 774.2884521484375px) translate(-523.963134765625px, -774.2884521484375px) translate(0px, -5px);transform: translate(523.963134765625px, 774.2884521484375px) translate(-523.963134765625px, -774.2884521484375px) translate(0px, -5px);-webkit-animation-name: kf_el_FRPs6uLWaM_an_4EXCVrPG9;animation-name: kf_el_FRPs6uLWaM_an_4EXCVrPG9;-webkit-animation-timing-function: cubic-bezier(0, 0, 1, 1);animation-timing-function: cubic-bezier(0, 0, 1, 1);}#el_oXwMpBKyBJ_an_lpcMj4uHl{-webkit-animation-fill-mode: backwards;animation-fill-mode: backwards;-webkit-transform: translate(558.9032592773438px, 702.7249755859375px) rotate(5deg) translate(-558.9032592773438px, -702.7249755859375px);transform: translate(558.9032592773438px, 702.7249755859375px) rotate(5deg) translate(-558.9032592773438px, -702.7249755859375px);-webkit-animation-name: kf_el_oXwMpBKyBJ_an_lpcMj4uHl;animation-name: kf_el_oXwMpBKyBJ_an_lpcMj4uHl;-webkit-animation-timing-function: cubic-bezier(0, 0, 1, 1);animation-timing-function: cubic-bezier(0, 0, 1, 1);}#el_zgGZszE8csZ_an_QPVSZ9BTX{-webkit-animation-fill-mode: backwards;animation-fill-mode: backwards;-webkit-transform: translate(378.2328186035156px, 392.4860534667969px) rotate(20deg) translate(-378.2328186035156px, -392.4860534667969px);transform: translate(378.2328186035156px, 392.4860534667969px) rotate(20deg) translate(-378.2328186035156px, -392.4860534667969px);-webkit-animation-name: kf_el_zgGZszE8csZ_an_QPVSZ9BTX;animation-name: kf_el_zgGZszE8csZ_an_QPVSZ9BTX;-webkit-animation-timing-function: cubic-bezier(0, 0, 1, 1);animation-timing-function: cubic-bezier(0, 0, 1, 1);}#el_zyvOtF-cdlr_an_135kMlcDf{-webkit-animation-fill-mode: backwards;animation-fill-mode: backwards;-webkit-transform: translate(837.9352416992188px, 637.8773803710938px) rotate(0deg) translate(-837.9352416992188px, -637.8773803710938px);transform: translate(837.9352416992188px, 637.8773803710938px) rotate(0deg) translate(-837.9352416992188px, -637.8773803710938px);-webkit-animation-name: kf_el_zyvOtF-cdlr_an_135kMlcDf;animation-name: kf_el_zyvOtF-cdlr_an_135kMlcDf;-webkit-animation-timing-function: cubic-bezier(0.42, 0, 1, 1);animation-timing-function: cubic-bezier(0.42, 0, 1, 1);}#el_VyhSEXxvJW2_an_ieJDNjlnY{-webkit-animation-fill-mode: backwards;animation-fill-mode: backwards;-webkit-transform: translate(838.6732177734375px, 468.9453125px) rotate(0deg) translate(-838.6732177734375px, -468.9453125px);transform: translate(838.6732177734375px, 468.9453125px) rotate(0deg) translate(-838.6732177734375px, -468.9453125px);-webkit-animation-name: kf_el_VyhSEXxvJW2_an_ieJDNjlnY;animation-name: kf_el_VyhSEXxvJW2_an_ieJDNjlnY;-webkit-animation-timing-function: cubic-bezier(0.42, 0, 1, 1);animation-timing-function: cubic-bezier(0.42, 0, 1, 1);}#el_CY7eAGI7xQD_an_EY4PrL4iC{-webkit-animation-fill-mode: backwards;animation-fill-mode: backwards;-webkit-transform: translate(507.8271942138672px, 689.1981201171875px) rotate(0deg) translate(-507.8271942138672px, -689.1981201171875px);transform: translate(507.8271942138672px, 689.1981201171875px) rotate(0deg) translate(-507.8271942138672px, -689.1981201171875px);-webkit-animation-name: kf_el_CY7eAGI7xQD_an_EY4PrL4iC;animation-name: kf_el_CY7eAGI7xQD_an_EY4PrL4iC;-webkit-animation-timing-function: cubic-bezier(0, 0, 1, 1);animation-timing-function: cubic-bezier(0, 0, 1, 1);}#el_Eq_n3fDsFfA_an_Y-1n8lncy{-webkit-animation-fill-mode: backwards;animation-fill-mode: backwards;-webkit-transform: translate(573.1729125976562px, 499.37115478515625px) rotate(0deg) translate(-573.1729125976562px, -499.37115478515625px);transform: translate(573.1729125976562px, 499.37115478515625px) rotate(0deg) translate(-573.1729125976562px, -499.37115478515625px);-webkit-animation-name: kf_el_Eq_n3fDsFfA_an_Y-1n8lncy;animation-name: kf_el_Eq_n3fDsFfA_an_Y-1n8lncy;-webkit-animation-timing-function: cubic-bezier(0, 0, 1, 1);animation-timing-function: cubic-bezier(0, 0, 1, 1);}</style><defs/><title></title><g id="el_TPrQkXndJs"><path d="M1083.2,761.2c-5.1-5.8-9.1-13.2-14.1-19.1-12.5-14.7-30.4-18.1-46.2-12.5-13.4,4.8-31.3,6-40.9,20.4-3.4,5.2-.1,15.2,2.9,21,1.9,3.7,4.9,6.7,7.5,9.2,5.4,5.2,11.6,8.8,17.7,12s7.1,9.7,12.6,13.5c12.3,8.4,29,7.4,43,2.4,5.5-1.9,10.9-4.5,14.9-8.6s6.3-8.7,8.7-13.5a26.6,26.6,0,0,0,2.7-7.1C1092.9,772.1,1087.7,766.3,1083.2,761.2Z" id="el_sFSGDfi76x"/><g id="el_JBGkyaexIT_an_V4_eLJFOQ" data-animator-group="true" data-animator-type="1"><path d="M1112.2,796.6c1.2,5.7.9,11.8.9,17.7a173.9,173.9,0,0,0,4.5,40.9,12.9,12.9,0,0,0,1.9,5.1c.7.8,1.7,1.4,2.1,2.7s-.1,2.3-.1,3.5c0,4.7,4.3,6.4,6.9,9.2s4.2,10.2,3.3,15.8-3.2,10.7-5.4,15.5c-1.1,2.4-2.3,4.8-4.1,6.1s-2.8,1-4.2,1.6c-9.7,3.5-13.2,22.8-23,26-1.6.5-3.4.5-5,1.4a24.8,24.8,0,0,0-3.7,2.9,15.4,15.4,0,0,1-20.1.5c-1.9-1.6-3.9-3.6-6.1-3.2s-2.7,1.7-4,2.7c-4.8,3.5-10.6,1.2-15.8-1.2l-14.9-6.9c-2.8-1.3-5.9-2.9-7.4-6.5s-.4-10.7,1.9-15,7.7-.4,9.1-5.4-3.9-15.7,1-17c2.1-.6,8.1,3.3,10,2s.2-5.4,2-7,7-1.2,9,1,7.6,4,10,5c5.1,2.1,14-13.5,14-21s-6-18.8-9-25-8.6-15.1-12-22-10.3-8.4-16.2-11.7-9.5-4.9-11.7-9.5a14.4,14.4,0,0,1-1.1-6.8c.6-10.2,8.7-18.5,17.5-23.7a42.2,42.2,0,0,1,15.2-5.9c13.5-2.1,26.7,4.7,38.2,12.2C1103.7,785.7,1110.3,787.4,1112.2,796.6Z" id="el_JBGkyaexIT"/></g></g><g id="el_FRPs6uLWaM_an_4EXCVrPG9" data-animator-group="true" data-animator-type="0"><g id="el_FRPs6uLWaM_an_QjnsvXago" data-animator-group="true" data-animator-type="1"><g id="el_FRPs6uLWaM"><path d="M622,794c-1-8-6-7.3-9.2-13.3s-14.4-8-22.2-5.1-16.7,10-22.5,17.9-9.7,16.8-13.3,25.8c-2.3,5.8-6,13.2-7,19.4-2.3,14.5,1.7,29.3,3,44a24.2,24.2,0,0,1-.5,9.3c-1.2,3.5-3.5,8.2-.3,10.2a7.8,7.8,0,0,0-6,6.7,6.1,6.1,0,0,0-7,1.4,6,6,0,0,0-.6,7.1c-4.4,1.5-9,3.7-11.1,7.9s-.3,10.4,4.2,11.2,7.8-1,9.1,2c.6,1.2.2,2.8.9,4a5,5,0,0,0,3.3,1.6,80.4,80.4,0,0,0,25.9-.3,20,20,0,0,0,5.4-1.7c3.1-1.8,5-5.2,6.7-8.4,2.6-5,5.3-10.3,4.7-15.9-.3-2.7-1.4-5.4-1.5-8.2a22.2,22.2,0,0,1,1.4-7.6,127.8,127.8,0,0,1,7-17.1,48.7,48.7,0,0,0,4.1-9.4,20.4,20.4,0,0,0-2.9-16.6c-1.3-1.9-2.9-3.6-3.8-5.7-2.2-4.8-.2-10.4,2.3-15a22.4,22.4,0,0,1,3.5-4.6c4.1-5,8.2-10,11.1-15.7S622.8,800.4,622,794Z" id="el_dZvui4NBB3"/><path d="M561,870.1c1.1,5.4,4.4,10,7.6,14.5l7.9,11c.6.8,1.5,1.7,2.4,1.3a1.9,1.9,0,0,0,.9-1.1c2.5-5.2,3.7-10.9,4.9-16.6.8-3.8,1.7-7.7,1.1-11.5s-2.9-7.7-6.5-9C571,855.8,559,860.2,561,870.1Z" id="el_bBsJyP9b3J"/><path d="M542,928.6a12.2,12.2,0,0,0-.7,4.7v9.3a.9.9,0,0,0,0,.7c.2.4.8.5,1.3.6l7.2,1a4.3,4.3,0,0,0,1.6-.1,2.9,2.9,0,0,0,1.2-.7,9.2,9.2,0,0,0,2.2-6C555,932.1,546.6,917,542,928.6Z" id="el_ZRl4oHTAXa"/><path d="M527.2,922.6a10.8,10.8,0,0,0-3.2,8.6c.5,3.2,3.2,6.1,6.4,6s4-1.2,6.1-.9a3.1,3.1,0,0,0,1.9,0,2.1,2.1,0,0,0,.7-1.3c1.2-5.6,2.6-14.2-2.1-18A19.7,19.7,0,0,0,527.2,922.6Z" id="el_SJkJwe_OqC"/></g></g></g><g id="el_oXwMpBKyBJ_an_lpcMj4uHl" data-animator-group="true" data-animator-type="1"><g id="el_oXwMpBKyBJ"><path d="M577,768.2c7.1-20.4,22.6-36.2,36.2-53.1,2.7-3.4,5.6-6.9,9.5-8.9a32.7,32.7,0,0,1,9.3-2.4c7.1-1.1,14.7-2.1,21.1,1s14.3,13.5,10.4,21.1c-1.5,3-3,6-4.4,9-7.2,15.6-17.2,31.3-26.3,45.8-7.5,11.9-15.9,23.6-27.3,31.7s-26.4,12.5-39.8,8.3c-2.3-.7-4.5-1.7-5.9-3.7s-1-7.2.1-10.7C564.5,792.8,572.3,781.7,577,768.2Z" id="el_slw9ss7BV3"/></g></g><g id="el_w4nEjIL5hi"><path d="M361,402a20.4,20.4,0,0,0,7-7c.9-1.8-10.8-1.4-10.7-3.3s-.1-5.6-1.6-7.8a10.1,10.1,0,0,0-3.6-3.2,22.9,22.9,0,0,0-6.6-2.9,56.3,56.3,0,0,1-5.9-1.4,18.8,18.8,0,0,1-3.8-1.8,63.1,63.1,0,0,0-11.8-4c-2.3-.6-4.7-1.2-7-.7s-6.3,3.1-4.8,6.1,4.9,4.4,7.7,5.7l3.6,1.7a14.8,14.8,0,0,0,2.7,1c3.6,1,7.7,0,10.7,2s2.9,3,3.9,4.9c2.2,3.9,13,7.8,15.2,11.7" id="el_gXXO0Mjsat"/><path d="M349.6,383.8c-2-.9-4.2-1-6.3-1.6a75.9,75.9,0,0,1-7.8-3.3,72,72,0,0,0-10.8-3.6c-4.7-1.3-10-2.5-14.3-.2a11.6,11.6,0,0,1-1.3-13.9c4.9-7.3,12.2-12.5,20.4-15.7,4.6-1.8,9.7-2.3,14.6-2.7l22.1-2.2c10.2-.9,21-1.8,30.2,2.7,2.7,1.3,5.1,3,7.7,4.4s7,3,10.6,4.4a108.4,108.4,0,0,1,21.9,12c1.9,1.5,4.8-.9,7-1.9a19,19,0,0,1,18.4,2.1c2.2,1.7,4.1,3.8,6.3,5.3,4.6,3.1,10.3,3.7,15.6,4.8a75.3,75.3,0,0,1,21.1,7.7c4.2,2.4,10.2.7,15,1.1s9.8,2.5,14.1,5.1a101.2,101.2,0,0,1,36.3,35.5c7.7,12.7,14,25.5,20.9,38.6s15.1,25.9,27.3,34.1c4.9,3.3,10.6,5.8,16.5,5.7,9.3-.2,17.1-6.6,24-12.7l24.2-21.3c21.1-18.6,52.8-21.8,81-22.5,4.8-.1,9.8-1.4,14.6-1.7a140.1,140.1,0,0,1,14.5.1l64.3,2.5a110.1,110.1,0,0,0,15.2-.1,59.5,59.5,0,0,0,22.5-6.5c26-13.5,57.8-6.3,87-5,6.3.3,12.6.7,18.7-.5,13.1-2.5,26.6-.5,39.9-.5a144.7,144.7,0,0,1,17.4.7c4.4.5,8.8,1.3,13.2,2.1a453.8,453.8,0,0,0,58,6.7c25.7,1.3,51.6,4.3,77.1,7.6q31.3,4,62.8,5.4c26.5,1.2,53,8.2,79.5,10.4,9.5.8,19.1,1.5,28.4,3.7,5.8,1.3,11.5,3.3,17.5,3.4,23.1.2,45.1,12.4,67.4,18.5q8,2.1,15.9,4.5c12.2,3.7,24.1,8.4,35.9,13l13.6,5.3c18.8,7.3,39.9,6.9,59.8,9.6,5.1.6,10.1,1.3,15.2,1.5,6.8.3,13.6-.2,20.4-.4,12.5-.4,24.9.4,37.4,1.2,1.9.1,4.5,1.2,3.9,3s-1.4,1.4-2.4,1.7l-31.4,9.3c-8.5,2.5-16.9,5-25.7,5.9-5.4.7-10.8.7-16.2,1.1a106.7,106.7,0,0,0-16,2.6c-26.2,6.2-54.3,13.2-81.1,15.6-33.3-3.2-69.1,9.8-102.4,6.4-22.7,1.7-46.8,4.9-69.3,8.7l-17.3,3.2-48.6,9c-20.2-1.3-39,5.2-55.7,16.6-9.9,6.7-18.5,15.4-29.2,20.6-12.9,6.2-21.7,18.6-29.3,30.7s-11.6,26.1-22.1,35.2c-14.3,12.3-20.9,31.9-35.1,44.3-7.8,6.9-20.5,7.9-30.5,10.7a102.6,102.6,0,0,1-17.2,3.4,140.6,140.6,0,0,1-15.9-.1L979.1,753c-13.8-.7-25.8-10.6-39.5-12.7s-27.4-2.6-41.1-3.8a58,58,0,0,0-10.2-.4,46.6,46.6,0,0,0-10.3,2.4c-14.9,4.4-29.8,8.8-44.4,14.1-21.2,7.6-45.5,7.8-68,5.4-27.5-2.8-56.1-11.9-80.7-24.7-6.3-3.3-12.7-6.9-19.8-7.8-2.7-.4-5.3-.3-8-.7-8.5-1-16-5.9-23.2-10.7-15.5-10.4-22.9-31.2-36.2-44.3-3.9-3.9-8.2-7.9-9.4-13.3s.4-8.9.5-13.4a24.6,24.6,0,0,0-6-16.8c.5-2.9-1.2-6.3-3.2-8.4s-4.4-3.8-6.7-5.6c-10.9-8.6-17.3-21.8-27.2-31.5-2.3-2.2-4.8-4.3-6.6-7s-3.3-8.4-4.4-12.8a76.5,76.5,0,0,0-9-21.2A103,103,0,0,0,495.5,508l-11.3-7.6c-2.7-1.8-5.4-3.6-8.5-4.3s-6.2-.4-9.3,0l-10,1.1a6.1,6.1,0,0,1-3-.1,7,7,0,0,1-3.2-2.5L437,479c-2.5.1-5.2-1.1-7.7-.9a7.4,7.4,0,0,1-2.1-.1,6,6,0,0,1-2.1-1.4,79.1,79.1,0,0,1-9.1-9.2c-1.3-1.5-2.6-3.2-4.5-3.9a15.2,15.2,0,0,0-4.2-.6,25.4,25.4,0,0,1-10.8-3.1c-6.1-3.4-15.1-4.2-21.1-7.6a120.4,120.4,0,0,1-13.7-8.5" id="el_ro_csIrhXo"/><path d="M394,342c7.3,3.5,18.1,7.8,25,12,2.5,1.6,13,6,18,10a21,21,0,0,0,5-1c8-4,16.3-2.9,22,3a29.8,29.8,0,0,0,4,3c2.2,1.6,4.2,3.2,7,3.6a87,87,0,0,1,28.8,9.4c.4.2,1,.5,1.4.3a1.6,1.6,0,0,0,.6-.8c1-2,2.5-4.3,4.6-4.1s3.3,1.9,5.1,3.2c1.1-1.6,2.6-3.4,4.5-3.1s2.8,2.6,3.4,4.5c1.2-1.4,2.5-2.9,4.3-3.5s4.2.1,4.6,2-.8,4.1.7,5.2a8.2,8.2,0,0,1,3.3-3.6,4.1,4.1,0,0,1,4.6.4c1.6,1.6,1,4.5,2,6.5a1.2,1.2,0,0,0,.7.7c.4.1.7-.2,1-.5a8.7,8.7,0,0,1,5.8-2.2,4.3,4.3,0,0,1,.9,3.4,8.7,8.7,0,0,0,.1,3.6c.4,1.1,1.7,2.1,2.8,1.6a5.4,5.4,0,0,0,1.2-.9,5.6,5.6,0,0,1,4.3-1.3,18.2,18.2,0,0,1,1.2,9.8l5.5-.7a2.2,2.2,0,0,1,1.4.1c1.2.5,1,2.2.4,3.2s-1.7,1.8-2,3a3.7,3.7,0,0,0,1.9,3.7,11.3,11.3,0,0,0,4.1,1.1c1.6.1,3.6.6,3.8,2.2s-.8,2-1.6,2.9-1.4,2.1-.7,3a3,3,0,0,0,2.6.6,7.7,7.7,0,0,1,3.7.1,3,3,0,0,1,2,2.8,5.1,5.1,0,0,1-.7,1.7c-1.2,1.8-2.3,4.7-3.4,6.5,1.9.7,4,1.6,5,3.4s.4,4.1-.2,6.2a8.6,8.6,0,0,1,6.9,9.2,6.1,6.1,0,0,0,0,1.9,7.6,7.6,0,0,0,.8,1.1c1.8,1.7,4.4,3.3,4.7,5.8a8,8,0,0,0,.3,1.5,3.8,3.8,0,0,0,1.4,1.1,7.8,7.8,0,0,1,3.2,5.1,3.1,3.1,0,0,0,.5,1.7c.5.6,1.4.6,2.1.8a6.4,6.4,0,0,1,5.1,6.5c-.1.7-.3,1.6.2,2.2a1.9,1.9,0,0,0,1,.5c1.1.4,1.7,1.8,2.9,2.3a34.3,34.3,0,0,0,2.3,5.2c1.8-1.3,4.3.1,5.9,1.7s3,3.7,5.2,3.9a11,11,0,0,1,2.6.2,4.6,4.6,0,0,1,1.8,1.6c1.7,2.1,4.2,3.8,6.9,3.6a10.5,10.5,0,0,0,3.8-1.2,65.3,65.3,0,0,0,8.2-4.5c2.6-1.7,4.4-3.6,4.9-6.6a3.8,3.8,0,0,1-.5-4.4,3.7,3.7,0,0,1,4.2-1.5c1.1.4,2.3,1.3,3.3.7s.4-2.7.4-4.1,2-3.9,4.1-4.3a13.7,13.7,0,0,1,6.3,1,39.2,39.2,0,0,1,1.3-9.1,2.6,2.6,0,0,1,1.2-1.9c2.4-1.1,3.5,4.7,6,3.8a17.4,17.4,0,0,1,2.2-10.9,19.6,19.6,0,0,0,6.1,4.6,49.6,49.6,0,0,1,1.3-8.6,2.5,2.5,0,0,1,.8-1.6c1.3-1.3,3.4.4,4.4,2.1s2.8,3.5,4.4,2.5a67.1,67.1,0,0,1,.9-11c.2-1.3,1.2-3.1,2.4-2.6a2.7,2.7,0,0,1,1.1,1l4.5,6.3c-.5-2.9-.9-6,.3-8.7s4.6-4.6,7.1-3.1,2.8,5.1,5.3,6.4c.2-3.6,1.2-8.2,4.8-8.8s6,3.2,7.4,6.5a18.7,18.7,0,0,1,3.4-7.6c.4-.4.8-.9,1.3-.9a1.6,1.6,0,0,1,1.2.8l6.2,6.7c-.1-2.9,3.7-5.2,6.2-3.7a25.6,25.6,0,0,1,2.6,2c4,2.7,10.2-1.3,14.7.4a115.7,115.7,0,0,1,45.4-1c5.4,1,10.8,2.3,16.3,2.6,3.1.2,6.2,0,9.2-.1l26.2-1.4c3-.2,6.1-.4,9-.8l7.3-1.4c5.3-1,11.2-2.6,16.6-2.5a4.6,4.6,0,0,1,1.6-5.1,4.7,4.7,0,0,1,5.3-.1c1.2.8,2,2.2,3.1,3.2s3,1.6,4.1.5a3.9,3.9,0,0,0,.8-2.1,26,26,0,0,1,.7-5.6,4.8,4.8,0,0,1,4-3.5,80.6,80.6,0,0,0,5.2,6.4c.9,1,1.9,2,3.1,2s3-2.4,3.4-4.4,1.1-4.3,3.1-4.7,3.6,1.8,4.5,3.8,2.1,4.2,4.2,4.1,3.3-2.4,3.7-4.4.7-4.5,2.5-5.6a4.1,4.1,0,0,1,4.6.4,7.6,7.6,0,0,1,2.7,4.1,21.5,21.5,0,0,0,1.5,3.8c.8,1.2,2.2,2.1,3.5,1.7s2.3-2.8,2.2-4.7-.4-3.9.7-5.3,4.8-1.3,7-.2,7.9,5.1,8,8.8c.6-2.5,1.2-5.1,2.9-6.9s4.9-2.7,6.8-1.1,1.9,3.3,2.7,5.1,3.1,3.3,4.7,2.1,1-2.1,1.4-3.2c1.3-3.6,6.7-4.8,9.3-2.1s1.9,3.4,3.2,4.8a2.3,2.3,0,0,0,1.4,1c1.3.2,2.4-1,2.8-2.2a10.9,10.9,0,0,1,1.4-3.7c1.4-1.7,4.3-1.4,6,0s2.2,3,3,5.1a10.4,10.4,0,0,1,4.8-5.3c2.3-1,5.3-.3,6.5,1.8s.6,3.7,1.8,5,3.7,1,5.1-.3,2.1-3.1,2.7-4.9l4.3,4.9c1.1,1.2,2.5,2.5,4.1,2s2.1-4.9,4.5-5.8,3.2.5,4.4,1.6,4,4,5.9,6.2c.8-3.8,5.2-7.1,8.5-5.1s3,6.3,6,7.5c1.7-.6,2.2-2.7,2.9-4.4s2.4-3.5,4-2.7a3.2,3.2,0,0,1,1.2,1.1l5.8,7.3a9.8,9.8,0,0,1,16.7.8c3.4-4.1,10.9-3.4,13.4,1.2a11.1,11.1,0,0,1,15.2,2.7c1.7-2.4,5.1-3.3,8-2.8s5.5,2.1,8,3.8c1-2.4,4.1-3.4,6.7-2.9a16,16,0,0,1,6.8,4.1c1-2.4,4.3-3.2,6.8-2.2s4.2,3.1,5.9,5.2c3.5-5.3,12.4-5.9,16.7-1.1,4.3-3.1,10.9-2.2,14.4,1.7,1.4-2.2,4.7-2.5,7.1-1.6s4.5,2.7,6.8,4.1a3.2,3.2,0,0,0,.9.3c.7.1,1.2-.4,1.8-.8a10.1,10.1,0,0,1,13.9,2.2,11.7,11.7,0,0,1,15.3,2.5c1.8-2.6,5.4-3.4,8.5-2.6s5.7,2.7,8.1,4.7c1.7-2.5,5.2-3.4,8.2-2.8a13.6,13.6,0,0,1,7,3.9,14.3,14.3,0,0,1,16.4,2.1c2.5-2.4,6.5-2.7,9.8-1.5s6,3.5,8.6,5.8c2.6-3.4,8.7-3,10.9.6,1.2-2.2,4.4-2.9,6.8-2s4.4,2.7,6.2,4.5a5.7,5.7,0,0,1,5.7-2.4,9.6,9.6,0,0,1,5.5,3.1,2.4,2.4,0,0,0,1.3.9c.8.1,1.4-.7,2-1.2,2.8-2.8,8.3-1.2,9.3,2.6,4.1-3.4,13.2-3.1,15.9,1.5.8-2.4,4.4-2,6.5-.4s4,3.7,6.5,3.2c.9-.1,1.7-.6,2.5-.7,3.7-.5,5.9,5.2,9.6,4.7a10.2,10.2,0,0,0,2.7-1.1,7.9,7.9,0,0,1,8.8,2.1c.8.9,1.8,2.2,3,1.8s.9-.6,1.5-.9,2.9.3,4,1.4,1.9,2.4,3.4,2.8,4.9-1.3,6.7.1,2,4.2,3.8,3.8,1.1-.7,1.7-1.2a3.5,3.5,0,0,1,4.8.8,8.9,8.9,0,0,0,1.3,2.3c1.2,1.1,3.1.6,4.8.3s4-.7,4.5.9,2.7,2.4,4.6,2.3,3.8-.4,5.5.5a22.3,22.3,0,0,1,2.4,1.9c1.8,1,4.1.8,6.1,1s4.4,1.7,4.2,3.8a8.2,8.2,0,0,1,7.6.3c1.5.9,2.8,2.3,4.6,2.6s3.6-.6,5.3-.1,2.3,1.6,3.5,2.5a8.2,8.2,0,0,0,8,1c-.8,1.8,1.4,3.6,3.3,3.8s4.1-.4,5.9.5,2.6,2.4,4.2,2.4a8.8,8.8,0,0,0,2.7-.6c.9-.3,1.6.3,2,1.2l14.3,3,9.2,1.9a118.5,118.5,0,0,0,14.3,2.4c3.9.3,7.7.2,11.5.7,6.8.8,12.8,3.6,19.6,4.4l35.1-.4c1.5,0,3.6.5,3.5,2.1-7.7,2.3-15.9,1.8-24,1.4l-24.3-1.5c-4.8-.3-9.7-.6-14.5-1.2-15.8-2-32.4-.7-47.3-6.3q-34.4-12.7-69.4-23.1l-25.4-7.3c-17.8-5-34.6-11.9-53-14.6l-18.9-2.8c-34.1-5.1-68.1-10.1-102.3-13.8-16.6-1.8-33.1-4-49.8-4.1s-32.7-3.5-49.1-6.1-35.1-2-53-4c-22.1-2.5-44.7-7.5-66.8-8.8C1026,433,1007.5,437,987,436c-7.5-.4-17.5-1.7-25-2a190.5,190.5,0,0,0-23.9.1c-21.5,2-42.9,9.2-64.1,12.9-26.9,4.6-51.7-1-79-1-33,0-63-2-96.1,12.7-5,2.2-9.1,6-13.6,9-7.1,4.7-11.7,11-18.3,16.3s-9.8,9.2-17,15c-1.6,1.3-9.8,4.2-11.8,4.5a12,12,0,0,1-4.2-.4c-12.6-3.1-24.1-9.1-31-20.1-2.1-3.3-4.6-6.9-7-10s-3.9-7.5-6-10.3a58.3,58.3,0,0,1-5.5-10.5c-4.8-10.8-11.4-20-17-30.4A50.8,50.8,0,0,0,560,411c-2.6-2.8-4.3-5.5-7-8s-7.6-7.3-12.4-9c-8.6-3-17.4-4.5-26.5-3.2a27.4,27.4,0,0,1-2,13.5,15.7,15.7,0,0,1-4.4,6.1,18.2,18.2,0,0,1-5.6,2.7,148,148,0,0,1-25.1,6.8,24.5,24.5,0,0,1-8.9.6,20.7,20.7,0,0,1-7.1-2.8,64.5,64.5,0,0,1-5.4-3.7l-7.8-5.7c-5.1-3.7-10.3-7.5-14.5-12.3s-7.4-10.8-7.7-17.1c-15.1,3.6-29.2-11.4-44.7-10.5-3.5.2-7,1.2-10.6,1.6s-7.4-.1-10.1-2.5l-8.3,4.7a2.4,2.4,0,0,1-1.6.5c-.8-.2-1.3-1.1-1.6-1.8a17.9,17.9,0,0,0-16.5-10.4c-1.6,0-3.2.3-4.6-.3s-3.5-3.5-3.2-5.9a10.1,10.1,0,0,1,3.6-6.2,14.3,14.3,0,0,1,4.4-3A89.4,89.4,0,0,1,370,340c3,.3,7-.4,10,0C385.5,340.8,389,339.6,394,342Z" id="el_SKrkJwNkSq"/><path d="M438.8,380.3a13.1,13.1,0,0,0,.8,4.8,14.4,14.4,0,0,0,4,5.9,9,9,0,0,0,6.6,2.4,12.4,12.4,0,0,0,6.3-2.5c2.8-1.9,5.3-4.5,5.5-7.8a3.9,3.9,0,0,0-.7-2.6,5.9,5.9,0,0,0-3-1.4,17.9,17.9,0,0,1-6.5-4.4c-1-1-2.3-2.2-3.8-2l-1.4.5C443.4,374.7,438.8,375.9,438.8,380.3Z" id="el_J4Ra-RgkFs"/><path d="M445.6,381.8l1.5.2c1.1,0,2.1.2,3.2.3a5.4,5.4,0,0,0,3-.8,2.6,2.6,0,0,0,1.1-2.7c-.2-1-1.3-1.7-2.2-2.2l-3-1.4a2.1,2.1,0,0,0-1-.4,3.2,3.2,0,0,0-1.9.5c-1.2.6-3.5,1.7-3.6,3.2S444.3,381.5,445.6,381.8Z" id="el_7_j_UCZMZVP"/><path d="M445.9,376.1a3,3,0,0,0-1.7,1.2,2,2,0,0,0,0,2,2.2,2.2,0,0,0,1.1,1,6.7,6.7,0,0,0,4.2.3,4.4,4.4,0,0,0,2.5-1.1l.3-.5v-.6a3.8,3.8,0,0,0-.3-1,2.2,2.2,0,0,0-1.3-1.2,6.1,6.1,0,0,0-1.8-.5h-1a4.7,4.7,0,0,0-1.7.3,1.9,1.9,0,0,0-.9.4" id="el_bSxJ1cq5VmQ"/><path d="M446.7,376.3a1.1,1.1,0,0,0-.6,1.3,2.2,2.2,0,0,0,.6,1.3,2.5,2.5,0,0,0,2.3.7,2.8,2.8,0,0,0,2-1.3,1.4,1.4,0,0,0,.2-.7c0-.5-.5-.9-1-1.1a5.3,5.3,0,0,0-3.5-.4" id="el_k-NfD-URD71"/><path d="M339.4,348a2.9,2.9,0,0,0-.6,3.4,3.5,3.5,0,0,0,2.7,1.4h3.3a10.2,10.2,0,0,0,3,.3l1.1-.4c1.1-.4,2.4-.1,3.5-.5l1.4-.8a27.2,27.2,0,0,1,3.4-1.1,3.8,3.8,0,0,0,2.5-2.4,3,3,0,0,0-1.8-3.1,8.1,8.1,0,0,0-3.8-.7,39.6,39.6,0,0,0-9.1.9A10.4,10.4,0,0,0,339.4,348Z" id="el_xzYYobxKH7s"/><path d="M345.9,346.3a1.4,1.4,0,0,0-1,1c-.1.6.5,1.2,1.1,1.5a3.6,3.6,0,0,0,2.7.3l1.1-.4a19.8,19.8,0,0,1,2.6-.6.7.7,0,0,0,.6-.3.7.7,0,0,0-.1-.5,2.2,2.2,0,0,0-1.2-.9h-1.5A20.6,20.6,0,0,0,345.9,346.3Z" id="el_ATEiBFu8lvR"/></g><g id="el_zgGZszE8csZ_an_QPVSZ9BTX" data-animator-group="true" data-animator-type="1"><g id="el_zgGZszE8csZ"><path d="M357.5,395.8c-5,3.4-10,8.3-16,7.6s-8.9-2.4-13.3-3.8a69.8,69.8,0,0,0-18.6-3.2,5.4,5.4,0,0,0-3.6.6c-1.9,1.2-2.1,3.8-1.9,5.9.7,6.5,3.4,12.5,6,18.4a26.1,26.1,0,0,0,2.8,5.2c2.7,3.6,7.1,5.6,11.2,7.3a51.1,51.1,0,0,0,19.2,4.3c6.2.2,10.4,4.4,16.4,6.1a20,20,0,0,0,8,.9c5-.9,8.7-5.5,9.9-10.4s.5-10.1-.5-15c-1.5-8.3-3.5-16.7-8.4-23.5-1.2-1.8-2.8-3.5-4.9-3.7S359.6,394.3,357.5,395.8Z" id="el_Uk_uY3jMwlz"/></g></g><g id="el_zyvOtF-cdlr_an_135kMlcDf" data-animator-group="true" data-animator-type="1"><g id="el_zyvOtF-cdlr"><path d="M951.4,712.7c2.2,1.5,5.1,1.7,7.7,2.6,5.6,1.9,9.6,6.9,12.8,12,6.5,10.6,11.1,23.2,8.6,35.4-.9,4.8-3,9.5-3,14.4,0,7.4,4.7,13.9,9.1,19.9,5.7,7.7,9.9,16.8,17.1,23.1,9.5,8.2,15.3,22.2,9.9,33.6-3,6.5-9.1,11-14.9,15.2l-22.4,16.4a5.7,5.7,0,0,0-2.3,2.3c-.7,1.7.1,3.5.4,5.3,1.3,6-2.5,11.8-6.1,16.8s-7.4,9.6-13,9.4a17,17,0,0,0-4.5-.2c-4,1-4.4,6.6-7.1,9.7s-4.1,2.9-5.4,5-1,3.6-1,5.5c-.2,7.8-.9,16.2-5.7,22.2a10.4,10.4,0,0,1-5.7,4,5.5,5.5,0,0,1-6-2.6c-.4-1-.5-2.1-1.2-2.8a3.7,3.7,0,0,0-2.3-1c-5.8-.6-10.8,3.8-15.5,7.2-3,2.3-8,3.8-9.8.6-.7-1.2-.6-2.8-.8-4.2-.6-5.3-4.9-9.4-6.5-14.4s-.9-8.2-.4-12.3a16.6,16.6,0,0,1,1.4-6.3c.9-1.5,2.1-2.8,3-4.3,1.7-3.1,1.2-6.9,1.4-10.4.3-7.3,3.2-14.2,6-20.9s4.7-10.8,9.3-14.2,15.8-5,17.7-12.2a26.9,26.9,0,0,0,11.5-26,41.8,41.8,0,0,0-4.7-12.6c-15.2-28.1-44.8-45.4-64.5-70.6-7.1-9.1-13.5-18.1-20.5-27.2-13.6-17.5-1.9-45.8,11.3-63.5a75,75,0,0,1,56.9-29.7c8-.2,16.2.9,23.5,4.3,12.1,5.8,20.7,18,23.3,31.2S958.4,701.2,951.4,712.7Z" id="el_LAcgaUMOsl_"/><path d="M879.6,951.4a21,21,0,0,0,.5,14.2c1.1,2.9,3.1,5.7,6.1,6.3a12.2,12.2,0,0,0,4.6-.6c3.4-.8,6.9-1.8,9.1-4.5a23.6,23.6,0,0,1-13.8-15.7,15.3,15.3,0,0,0-1.3-4.3,3.7,3.7,0,0,0-3-2C881,946.9,880.4,949.2,879.6,951.4Z" id="el_cQaQlYNsk4u"/><path d="M906.3,950.5a16.8,16.8,0,0,0,3,15.3,8.5,8.5,0,0,0,5.3,3.2c3,.3,5.7-1.9,7.9-4a2.2,2.2,0,0,0,.9-1.2,2.5,2.5,0,0,0-.5-1.6l-5.8-10.1C914.3,947.2,908.8,942.8,906.3,950.5Z" id="el_T-Qlsrmdfyv"/></g></g><g id="el_TpRJYVwP7LG"><g id="el_VyhSEXxvJW2_an_ieJDNjlnY" data-animator-group="true" data-animator-type="1"><path d="M952.5,705a182.8,182.8,0,0,0,42.2-15.5,212.6,212.6,0,0,0,38-24.9,179.5,179.5,0,0,0,13.6-12.6c13.1-13.6,23.7-30,28.9-48.2s6.7-35.8,3-53.7c-1.6-7.8-4-15.6-8.5-22.2a76.9,76.9,0,0,0-9.1-10.7c-6.7-7-13.4-14-21.2-19.8-4.8-3.6-9.9-6.6-15-9.7l-17.7-10.6a62,62,0,0,0-12.1-6,54.8,54.8,0,0,0-13.4-1.8c-10-.4-19.9-.5-29.9-.1a58.5,58.5,0,0,0-13.8,1.6c-12.1,3.1-19.9,8.8-27.3,18.9a29.7,29.7,0,0,0-3.2,29.2c1.9,4.1,4.7,8.1,4.6,12.6-.2,2.8-1.4,5.4-1.7,8.1s1.4,7.6,1.1,11.4a20.6,20.6,0,0,1-1.7,6c-4.5,11.8-9.4,23.6-16.3,34.1-12.7,19.3-32.5,34.3-40,56.2-2.2,6.6-3.2,13.6-6,19.9.3-.8-.7,1-1.4,1.5a3.4,3.4,0,0,0-1.4,2.1c-2.6,9-5.2,18-5.5,27.3s1.9,19.1,8,26.1a38,38,0,0,0,13.5,9.5c16.3,7.2,35.6,6.7,52.2.1S942.1,719.5,952.5,705Z" id="el_VyhSEXxvJW2"/></g></g><g id="el_CY7eAGI7xQD_an_EY4PrL4iC" data-animator-group="true" data-animator-type="1"><g id="el_CY7eAGI7xQD"><path d="M611.6,789.8c-11.6,4.5-22,10.6-33.7,15-36.5,13.7-77.7-6.2-115.9,1.7,2.8,4.7-7.3,9.8-4.7,14.6-2.1-1-4.7.7-5.8,2.9s-1.3,4.6-2.2,6.8-4.2,5.5-5.4,8.6c-2.8,7.5,4.3,16.8,0,23.5a3.9,3.9,0,0,1-2,1.6c-1.7.4-3.2-1.1-4.2-2.6a40.9,40.9,0,0,1-6.8-27.9,100.2,100.2,0,0,0-13.7,32.1c-.7,3-1.4,6.2-3.5,8.3s-3.8,2.5-5.1,4.3a29.1,29.1,0,0,0-1.7,3c-2.2,3.3-7.2,3.8-10.6,1.7s-5.2-6-5.7-9.9-.2-5.6-1.4-8-4.4-4.2-6.7-2.6-2,3.5-3.9,4.2-3.2-.6-4.3-1.8c-4.6-5-5-12.7-.1-17.5-1.7-2.3-.8-5.6.9-7.9s4.1-3.8,6-5.9a40.3,40.3,0,0,0,4.6-7c6.2-10.9,13.8-20.8,21.5-30.7l15.2-19.6c2.9-3.8,5.9-7.7,9.6-10.8,7.8-6.4,18.1-9.1,28.1-10.3s20.2-1.1,30.2-3.1c15.3-3,29.3-10.7,43.6-17.1s21.6-17.5,32.4-27.6,21.5-19.7,35.2-18.5c10.4.9,19,8.4,25.8,16.3,3.9,4.6,7.6,9.6,9.9,15.3C642.1,733.3,650,750,644,762S624.1,785,611.6,789.8Z" id="el_Y51an2SYMwE"/><path d="M369.6,858.6a6.8,6.8,0,0,0,.6,4.2,7.2,7.2,0,0,0,1.7,1.8l3,2.5a3.8,3.8,0,0,0,2.8,1.1c1.1-.2,1.7-1.3,2.4-2.3a8.7,8.7,0,0,1,5.8-3.4,1.5,1.5,0,0,0,1.1-.4c.7-.6,0-1.7-.7-2.4-2.9-2.8-8.2-10.1-12.1-11.3-2.3-.7-2.5.1-3.5,2.9A30,30,0,0,0,369.6,858.6Z" id="el_aZIISc-dnpU"/><path d="M394.6,882.2a11.7,11.7,0,0,0,10.3,2.5,1.9,1.9,0,0,0,1.2-.7,2.3,2.3,0,0,0,.4-1c.5-2.1.8-4.7-.9-6.1a7.6,7.6,0,0,0-3-1,34.4,34.4,0,0,1-9.8-3.3C388,870.2,392.9,880.7,394.6,882.2Z" id="el_21m7sRrnsbA"/></g></g><g id="el_Eq_n3fDsFfA_an_Y-1n8lncy" data-animator-group="true" data-animator-type="1"><g id="el_Eq_n3fDsFfA"><path d="M644.5,757.3a148.5,148.5,0,0,1,7.2-15.7l15.4-30.2c2.9-5.6,5.8-11.3,9.8-16.2,6.2-7.5,14.8-12.7,23.5-17.2a213,213,0,0,1,27.9-11.6c2.9-1,6.2-2.3,7-5.3,3-10.9,6.4-23.8.3-33.3-3.7-5.7-9.3-9.9-13.6-15.1s-7.5-12.5-4.9-18.8c1.1-2.8,3.3-5.1,5.5-7.3,9.5-9.4,20.3-17.4,28.4-28s13.1-24.8,8.7-37.4a35,35,0,0,0-9.5-13.6,31,31,0,0,0-11.3-7c-7.5-2.4-15.9-1.1-23.1,2.3s-13.3,8.5-19.1,13.8c-24.3,22.2-53.1,38.8-72.2,65.7-9.3,13-18.6,26.2-25.2,40.7s-7.4,30.7-8,46.7c-3.8,4.3-6.3,7.2-8.3,12.7-6.5,17.3-12.1,35.9-8.9,54.1s18.2,35.6,36.7,35.6C622.9,772.2,635,764.8,644.5,757.3Z" id="el_85iI9zcC_ET"/></g></g></svg>