<svg xmlns="http://www.w3.org/2000/svg" viewBox="0 0 1920 1080" id="el_DVI1BmBbl"><style>@-webkit-keyframes kf_el_kBDHOdV-ibe_an_OY7kMKEUr{0%{-webkit-transform: translate(847.7813110351562px, 682.157470703125px) rotate(0deg) translate(-847.7813110351562px, -682.157470703125px);transform: translate(847.7813110351562px, 682.157470703125px) rotate(0deg) translate(-847.7813110351562px, -682.157470703125px);}25%{-webkit-transform: translate(847.7813110351562px, 682.157470703125px) rotate(20deg) translate(-847.7813110351562px, -682.157470703125px);transform: translate(847.7813110351562px, 682.157470703125px) rotate(20deg) translate(-847.7813110351562px, -682.157470703125px);}50%{-webkit-transform: translate(847.7813110351562px, 682.157470703125px) rotate(0deg) translate(-847.7813110351562px, -682.157470703125px);transform: translate(847.7813110351562px, 682.157470703125px) rotate(0deg) translate(-847.7813110351562px, -682.157470703125px);}75%{-webkit-transform: translate(847.7813110351562px, 682.157470703125px) rotate(20deg) translate(-847.7813110351562px, -682.157470703125px);transform: translate(847.7813110351562px, 682.157470703125px) rotate(20deg) translate(-847.7813110351562px, -682.157470703125px);}100%{-webkit-transform: translate(847.7813110351562px, 682.157470703125px) rotate(0deg) translate(-847.7813110351562px, -682.157470703125px);transform: translate(847.7813110351562px, 682.157470703125px) rotate(0deg) translate(-847.7813110351562px, -682.157470703125px);}}@keyframes kf_el_kBDHOdV-ibe_an_OY7kMKEUr{0%{-webkit-transform: translate(847.7813110351562px, 682.157470703125px) rotate(0deg) translate(-847.7813110351562px, -682.157470703125px);transform: translate(847.7813110351562px, 682.157470703125px) rotate(0deg) translate(-847.7813110351562px, -682.157470703125px);}25%{-webkit-transform: translate(847.7813110351562px, 682.157470703125px) rotate(20deg) translate(-847.7813110351562px, -682.157470703125px);transform: translate(847.7813110351562px, 682.157470703125px) rotate(20deg) translate(-847.7813110351562px, -682.157470703125px);}50%{-webkit-transform: translate(847.7813110351562px, 682.157470703125px) rotate(0deg) translate(-847.7813110351562px, -682.157470703125px);transform: translate(847.7813110351562px, 682.157470703125px) rotate(0deg) translate(-847.7813110351562px, -682.157470703125px);}75%{-webkit-transform: translate(847.7813110351562px, 682.157470703125px) rotate(20deg) translate(-847.7813110351562px, -682.157470703125px);transform: translate(847.7813110351562px, 682.157470703125px) rotate(20deg) translate(-847.7813110351562px, -682.157470703125px);}100%{-webkit-transform: translate(847.7813110351562px, 682.157470703125px) rotate(0deg) translate(-847.7813110351562px, -682.157470703125px);transform: translate(847.7813110351562px, 682.157470703125px) rotate(0deg) translate(-847.7813110351562px, -682.157470703125px);}}@-webkit-keyframes kf_el_Wh1drdcOv91_an_0wT0IbYNd{0%{-webkit-transform: translate(810.5335083007812px, 547.1807861328125px) rotate(0deg) translate(-810.5335083007812px, -547.1807861328125px);transform: translate(810.5335083007812px, 547.1807861328125px) rotate(0deg) translate(-810.5335083007812px, -547.1807861328125px);}25%{-webkit-transform: translate(810.5335083007812px, 547.1807861328125px) rotate(5deg) translate(-810.5335083007812px, -547.1807861328125px);transform: translate(810.5335083007812px, 547.1807861328125px) rotate(5deg) translate(-810.5335083007812px, -547.1807861328125px);}50%{-webkit-transform: translate(810.5335083007812px, 547.1807861328125px) rotate(0deg) translate(-810.5335083007812px, -547.1807861328125px);transform: translate(810.5335083007812px, 547.1807861328125px) rotate(0deg) translate(-810.5335083007812px, -547.1807861328125px);}75%{-webkit-transform: translate(810.5335083007812px, 547.1807861328125px) rotate(5deg) translate(-810.5335083007812px, -547.1807861328125px);transform: translate(810.5335083007812px, 547.1807861328125px) rotate(5deg) translate(-810.5335083007812px, -547.1807861328125px);}100%{-webkit-transform: translate(810.5335083007812px, 547.1807861328125px) rotate(0deg) translate(-810.5335083007812px, -547.1807861328125px);transform: translate(810.5335083007812px, 547.1807861328125px) rotate(0deg) translate(-810.5335083007812px, -547.1807861328125px);}}@keyframes kf_el_Wh1drdcOv91_an_0wT0IbYNd{0%{-webkit-transform: translate(810.5335083007812px, 547.1807861328125px) rotate(0deg) translate(-810.5335083007812px, -547.1807861328125px);transform: translate(810.5335083007812px, 547.1807861328125px) rotate(0deg) translate(-810.5335083007812px, -547.1807861328125px);}25%{-webkit-transform: translate(810.5335083007812px, 547.1807861328125px) rotate(5deg) translate(-810.5335083007812px, -547.1807861328125px);transform: translate(810.5335083007812px, 547.1807861328125px) rotate(5deg) translate(-810.5335083007812px, -547.1807861328125px);}50%{-webkit-transform: translate(810.5335083007812px, 547.1807861328125px) rotate(0deg) translate(-810.5335083007812px, -547.1807861328125px);transform: translate(810.5335083007812px, 547.1807861328125px) rotate(0deg) translate(-810.5335083007812px, -547.1807861328125px);}75%{-webkit-transform: translate(810.5335083007812px, 547.1807861328125px) rotate(5deg) translate(-810.5335083007812px, -547.1807861328125px);transform: translate(810.5335083007812px, 547.1807861328125px) rotate(5deg) translate(-810.5335083007812px, -547.1807861328125px);}100%{-webkit-transform: translate(810.5335083007812px, 547.1807861328125px) rotate(0deg) translate(-810.5335083007812px, -547.1807861328125px);transform: translate(810.5335083007812px, 547.1807861328125px) rotate(0deg) translate(-810.5335083007812px, -547.1807861328125px);}}@-webkit-keyframes kf_el_UCTHWM7UTl_an_Ua3hZD1YC{0%{-webkit-transform: translate(951.9505462646484px, 550.5252227783203px) rotate(0deg) translate(-951.9505462646484px, -550.5252227783203px);transform: translate(951.9505462646484px, 550.5252227783203px) rotate(0deg) translate(-951.9505462646484px, -550.5252227783203px);}20%{-webkit-transform: translate(951.9505462646484px, 550.5252227783203px) rotate(10deg) translate(-951.9505462646484px, -550.5252227783203px);transform: translate(951.9505462646484px, 550.5252227783203px) rotate(10deg) translate(-951.9505462646484px, -550.5252227783203px);}46.67%{-webkit-transform: translate(951.9505462646484px, 550.5252227783203px) rotate(0deg) translate(-951.9505462646484px, -550.5252227783203px);transform: translate(951.9505462646484px, 550.5252227783203px) rotate(0deg) translate(-951.9505462646484px, -550.5252227783203px);}76.67%{-webkit-transform: translate(951.9505462646484px, 550.5252227783203px) rotate(10deg) translate(-951.9505462646484px, -550.5252227783203px);transform: translate(951.9505462646484px, 550.5252227783203px) rotate(10deg) translate(-951.9505462646484px, -550.5252227783203px);}100%{-webkit-transform: translate(951.9505462646484px, 550.5252227783203px) rotate(0deg) translate(-951.9505462646484px, -550.5252227783203px);transform: translate(951.9505462646484px, 550.5252227783203px) rotate(0deg) translate(-951.9505462646484px, -550.5252227783203px);}}@keyframes kf_el_UCTHWM7UTl_an_Ua3hZD1YC{0%{-webkit-transform: translate(951.9505462646484px, 550.5252227783203px) rotate(0deg) translate(-951.9505462646484px, -550.5252227783203px);transform: translate(951.9505462646484px, 550.5252227783203px) rotate(0deg) translate(-951.9505462646484px, -550.5252227783203px);}20%{-webkit-transform: translate(951.9505462646484px, 550.5252227783203px) rotate(10deg) translate(-951.9505462646484px, -550.5252227783203px);transform: translate(951.9505462646484px, 550.5252227783203px) rotate(10deg) translate(-951.9505462646484px, -550.5252227783203px);}46.67%{-webkit-transform: translate(951.9505462646484px, 550.5252227783203px) rotate(0deg) translate(-951.9505462646484px, -550.5252227783203px);transform: translate(951.9505462646484px, 550.5252227783203px) rotate(0deg) translate(-951.9505462646484px, -550.5252227783203px);}76.67%{-webkit-transform: translate(951.9505462646484px, 550.5252227783203px) rotate(10deg) translate(-951.9505462646484px, -550.5252227783203px);transform: translate(951.9505462646484px, 550.5252227783203px) rotate(10deg) translate(-951.9505462646484px, -550.5252227783203px);}100%{-webkit-transform: translate(951.9505462646484px, 550.5252227783203px) rotate(0deg) translate(-951.9505462646484px, -550.5252227783203px);transform: translate(951.9505462646484px, 550.5252227783203px) rotate(0deg) translate(-951.9505462646484px, -550.5252227783203px);}}@-webkit-keyframes kf_el_Wj_W6Wq-qS_an_fo_aN-7of{0%{-webkit-transform: translate(773.9071655273438px, 744.326416015625px) rotate(5deg) translate(-773.9071655273438px, -744.326416015625px);transform: translate(773.9071655273438px, 744.326416015625px) rotate(5deg) translate(-773.9071655273438px, -744.326416015625px);}25%{-webkit-transform: translate(773.9071655273438px, 744.326416015625px) rotate(0deg) translate(-773.9071655273438px, -744.326416015625px);transform: translate(773.9071655273438px, 744.326416015625px) rotate(0deg) translate(-773.9071655273438px, -744.326416015625px);}50%{-webkit-transform: translate(773.9071655273438px, 744.326416015625px) rotate(5deg) translate(-773.9071655273438px, -744.326416015625px);transform: translate(773.9071655273438px, 744.326416015625px) rotate(5deg) translate(-773.9071655273438px, -744.326416015625px);}75%{-webkit-transform: translate(773.9071655273438px, 744.326416015625px) rotate(0deg) translate(-773.9071655273438px, -744.326416015625px);transform: translate(773.9071655273438px, 744.326416015625px) rotate(0deg) translate(-773.9071655273438px, -744.326416015625px);}100%{-webkit-transform: translate(773.9071655273438px, 744.326416015625px) rotate(5deg) translate(-773.9071655273438px, -744.326416015625px);transform: translate(773.9071655273438px, 744.326416015625px) rotate(5deg) translate(-773.9071655273438px, -744.326416015625px);}}@keyframes kf_el_Wj_W6Wq-qS_an_fo_aN-7of{0%{-webkit-transform: translate(773.9071655273438px, 744.326416015625px) rotate(5deg) translate(-773.9071655273438px, -744.326416015625px);transform: translate(773.9071655273438px, 744.326416015625px) rotate(5deg) translate(-773.9071655273438px, -744.326416015625px);}25%{-webkit-transform: translate(773.9071655273438px, 744.326416015625px) rotate(0deg) translate(-773.9071655273438px, -744.326416015625px);transform: translate(773.9071655273438px, 744.326416015625px) rotate(0deg) translate(-773.9071655273438px, -744.326416015625px);}50%{-webkit-transform: translate(773.9071655273438px, 744.326416015625px) rotate(5deg) translate(-773.9071655273438px, -744.326416015625px);transform: translate(773.9071655273438px, 744.326416015625px) rotate(5deg) translate(-773.9071655273438px, -744.326416015625px);}75%{-webkit-transform: translate(773.9071655273438px, 744.326416015625px) rotate(0deg) translate(-773.9071655273438px, -744.326416015625px);transform: translate(773.9071655273438px, 744.326416015625px) rotate(0deg) translate(-773.9071655273438px, -744.326416015625px);}100%{-webkit-transform: translate(773.9071655273438px, 744.326416015625px) rotate(5deg) translate(-773.9071655273438px, -744.326416015625px);transform: translate(773.9071655273438px, 744.326416015625px) rotate(5deg) translate(-773.9071655273438px, -744.326416015625px);}}@-webkit-keyframes kf_el_5tO9w_-1PT_an__Ze2Ws_25{0%{-webkit-transform: translate(800.4570922851562px, 811.9639282226562px) rotate(20deg) translate(-800.4570922851562px, -811.9639282226562px);transform: translate(800.4570922851562px, 811.9639282226562px) rotate(20deg) translate(-800.4570922851562px, -811.9639282226562px);}25%{-webkit-transform: translate(800.4570922851562px, 811.9639282226562px) rotate(0deg) translate(-800.4570922851562px, -811.9639282226562px);transform: translate(800.4570922851562px, 811.9639282226562px) rotate(0deg) translate(-800.4570922851562px, -811.9639282226562px);}50%{-webkit-transform: translate(800.4570922851562px, 811.9639282226562px) rotate(20deg) translate(-800.4570922851562px, -811.9639282226562px);transform: translate(800.4570922851562px, 811.9639282226562px) rotate(20deg) translate(-800.4570922851562px, -811.9639282226562px);}75%{-webkit-transform: translate(800.4570922851562px, 811.9639282226562px) rotate(0deg) translate(-800.4570922851562px, -811.9639282226562px);transform: translate(800.4570922851562px, 811.9639282226562px) rotate(0deg) translate(-800.4570922851562px, -811.9639282226562px);}100%{-webkit-transform: translate(800.4570922851562px, 811.9639282226562px) rotate(20deg) translate(-800.4570922851562px, -811.9639282226562px);transform: translate(800.4570922851562px, 811.9639282226562px) rotate(20deg) translate(-800.4570922851562px, -811.9639282226562px);}}@keyframes kf_el_5tO9w_-1PT_an__Ze2Ws_25{0%{-webkit-transform: translate(800.4570922851562px, 811.9639282226562px) rotate(20deg) translate(-800.4570922851562px, -811.9639282226562px);transform: translate(800.4570922851562px, 811.9639282226562px) rotate(20deg) translate(-800.4570922851562px, -811.9639282226562px);}25%{-webkit-transform: translate(800.4570922851562px, 811.9639282226562px) rotate(0deg) translate(-800.4570922851562px, -811.9639282226562px);transform: translate(800.4570922851562px, 811.9639282226562px) rotate(0deg) translate(-800.4570922851562px, -811.9639282226562px);}50%{-webkit-transform: translate(800.4570922851562px, 811.9639282226562px) rotate(20deg) translate(-800.4570922851562px, -811.9639282226562px);transform: translate(800.4570922851562px, 811.9639282226562px) rotate(20deg) translate(-800.4570922851562px, -811.9639282226562px);}75%{-webkit-transform: translate(800.4570922851562px, 811.9639282226562px) rotate(0deg) translate(-800.4570922851562px, -811.9639282226562px);transform: translate(800.4570922851562px, 811.9639282226562px) rotate(0deg) translate(-800.4570922851562px, -811.9639282226562px);}100%{-webkit-transform: translate(800.4570922851562px, 811.9639282226562px) rotate(20deg) translate(-800.4570922851562px, -811.9639282226562px);transform: translate(800.4570922851562px, 811.9639282226562px) rotate(20deg) translate(-800.4570922851562px, -811.9639282226562px);}}@-webkit-keyframes kf_el_sm10YMpze-_an_oo9uWTHD6{0%{-webkit-transform: translate(731.4290161132812px, 594.9713745117188px) rotate(3deg) translate(-731.4290161132812px, -594.9713745117188px);transform: translate(731.4290161132812px, 594.9713745117188px) rotate(3deg) translate(-731.4290161132812px, -594.9713745117188px);}25%{-webkit-transform: translate(731.4290161132812px, 594.9713745117188px) rotate(0deg) translate(-731.4290161132812px, -594.9713745117188px);transform: translate(731.4290161132812px, 594.9713745117188px) rotate(0deg) translate(-731.4290161132812px, -594.9713745117188px);}50%{-webkit-transform: translate(731.4290161132812px, 594.9713745117188px) rotate(3deg) translate(-731.4290161132812px, -594.9713745117188px);transform: translate(731.4290161132812px, 594.9713745117188px) rotate(3deg) translate(-731.4290161132812px, -594.9713745117188px);}75%{-webkit-transform: translate(731.4290161132812px, 594.9713745117188px) rotate(0deg) translate(-731.4290161132812px, -594.9713745117188px);transform: translate(731.4290161132812px, 594.9713745117188px) rotate(0deg) translate(-731.4290161132812px, -594.9713745117188px);}100%{-webkit-transform: translate(731.4290161132812px, 594.9713745117188px) rotate(3deg) translate(-731.4290161132812px, -594.9713745117188px);transform: translate(731.4290161132812px, 594.9713745117188px) rotate(3deg) translate(-731.4290161132812px, -594.9713745117188px);}}@keyframes kf_el_sm10YMpze-_an_oo9uWTHD6{0%{-webkit-transform: translate(731.4290161132812px, 594.9713745117188px) rotate(3deg) translate(-731.4290161132812px, -594.9713745117188px);transform: translate(731.4290161132812px, 594.9713745117188px) rotate(3deg) translate(-731.4290161132812px, -594.9713745117188px);}25%{-webkit-transform: translate(731.4290161132812px, 594.9713745117188px) rotate(0deg) translate(-731.4290161132812px, -594.9713745117188px);transform: translate(731.4290161132812px, 594.9713745117188px) rotate(0deg) translate(-731.4290161132812px, -594.9713745117188px);}50%{-webkit-transform: translate(731.4290161132812px, 594.9713745117188px) rotate(3deg) translate(-731.4290161132812px, -594.9713745117188px);transform: translate(731.4290161132812px, 594.9713745117188px) rotate(3deg) translate(-731.4290161132812px, -594.9713745117188px);}75%{-webkit-transform: translate(731.4290161132812px, 594.9713745117188px) rotate(0deg) translate(-731.4290161132812px, -594.9713745117188px);transform: translate(731.4290161132812px, 594.9713745117188px) rotate(0deg) translate(-731.4290161132812px, -594.9713745117188px);}100%{-webkit-transform: translate(731.4290161132812px, 594.9713745117188px) rotate(3deg) translate(-731.4290161132812px, -594.9713745117188px);transform: translate(731.4290161132812px, 594.9713745117188px) rotate(3deg) translate(-731.4290161132812px, -594.9713745117188px);}}#el_DVI1BmBbl *{-webkit-animation-duration: 2s;animation-duration: 2s;-webkit-animation-iteration-count: 1;animation-iteration-count: 1;-webkit-animation-timing-function: cubic-bezier(0, 0, 1, 1);animation-timing-function: cubic-bezier(0, 0, 1, 1);}#el_sm10YMpze-{fill: #866c53;}#el_5tO9w_-1PT{fill: #866c53;}#el_Wj_W6Wq-qS{fill: #866c53;}#el_Dt3Y6tnYjB{fill: #866c53;}#el_UVAbzkK04o{fill: #c1a48f;}#el_wUjYQfKHLM{fill: #dbdad0;}#el_RQl3W_5HBX{fill: #dbdad0;}#el_qUemcSBOSc{fill: #b58582;}#el_YIixrq7Gzn{fill: #be9e82;}#el_XDGBkeN8uc{fill: #c5965a;}#el_HXvalveVXS{fill: none;stroke: #000;stroke-miterlimit: 10;stroke-width: 0.5px;}#el_46H5ya8pdQ{fill: none;stroke: #000;stroke-miterlimit: 10;stroke-width: 0.5px;}#el_Os08HcIfA0{fill: none;stroke: #000;stroke-miterlimit: 10;stroke-width: 0.5px;}#el_wXAWTY6Qkmz{fill: none;stroke: #000;stroke-miterlimit: 10;stroke-width: 0.5px;}#el_SWJiDY_s2dC{fill: none;stroke: #000;stroke-miterlimit: 10;stroke-width: 0.5px;}#el_6zoOKrnj4y-{fill: none;stroke: #000;stroke-miterlimit: 10;stroke-width: 0.5px;}#el_ueTnQq2It-z{fill: none;stroke: #000;stroke-miterlimit: 10;stroke-width: 0.5px;}#el_ypdtsqrUe8s{fill: none;stroke: #000;stroke-miterlimit: 10;stroke-width: 0.5px;}#el_XW73oyh5bcl{fill: none;stroke: #000;stroke-miterlimit: 10;stroke-width: 0.5px;}#el_tGCcl2osdtW{fill: none;stroke: #000;stroke-miterlimit: 10;stroke-width: 0.5px;}#el_sV6NRb6MTy_{fill: none;stroke: #000;stroke-miterlimit: 10;stroke-width: 0.5px;}#el_2jV1id_Bewy{fill: none;stroke: #000;stroke-miterlimit: 10;stroke-width: 0.5px;}#el_UwrOHp_Os1b{fill: none;stroke: #000;stroke-miterlimit: 10;stroke-width: 0.5px;}#el_9ND_okQ-Fyc{fill: none;stroke: #000;stroke-miterlimit: 10;stroke-width: 0.5px;}#el_Qt1TCZFjkLD{fill: none;stroke: #000;stroke-miterlimit: 10;stroke-width: 0.5px;}#el_J8oCG3w_9Wi{fill: none;stroke: #000;stroke-miterlimit: 10;stroke-width: 0.5px;}#el_IMRZmfCvIwI{fill: none;stroke: #000;stroke-miterlimit: 10;stroke-width: 0.5px;}#el_LiGBJ3iYMuX{fill: none;stroke: #000;stroke-miterlimit: 10;stroke-width: 0.5px;}#el_22UQHsRBgtI{fill: none;stroke: #000;stroke-miterlimit: 10;stroke-width: 0.5px;}#el_hI7OKanvroY{fill: none;stroke: #000;stroke-miterlimit: 10;stroke-width: 0.5px;}#el_DACb6UeZe8T{fill: none;stroke: #000;stroke-miterlimit: 10;stroke-width: 0.5px;}#el_UdOHluF92yb{fill: none;stroke: #000;stroke-miterlimit: 10;stroke-width: 0.5px;}#el_tE5iAoAvPQM{fill: none;stroke: #000;stroke-miterlimit: 10;stroke-width: 0.5px;}#el_lTRz7fijKPA{fill: none;stroke: #000;stroke-miterlimit: 10;stroke-width: 0.5px;}#el_3KvXZLoVwZa{fill: none;stroke: #000;stroke-miterlimit: 10;stroke-width: 0.5px;}#el_1HNcGHlfmVk{fill: none;stroke: #000;stroke-miterlimit: 10;stroke-width: 0.5px;}#el_caUGDzb0KhN{fill: none;stroke: #000;stroke-miterlimit: 10;stroke-width: 0.5px;}#el_tMtBYz1X6Qu{fill: none;stroke: #000;stroke-miterlimit: 10;stroke-width: 0.5px;}#el_tzKNNwyQMw6{fill: none;stroke: #000;stroke-miterlimit: 10;stroke-width: 0.5px;}#el_LW5wpHFSsDl{fill: none;stroke: #000;stroke-miterlimit: 10;stroke-width: 0.5px;}#el_SbTiTq33w_W{fill: none;stroke: #000;stroke-miterlimit: 10;stroke-width: 0.5px;}#el_jg4jDz6pWyp{fill: none;stroke: #000;stroke-miterlimit: 10;stroke-width: 0.5px;}#el_e_jAGOuKMS6{fill: none;stroke: #000;stroke-miterlimit: 10;stroke-width: 0.5px;}#el_Tw-nwZsYH4h{fill: none;stroke: #000;stroke-miterlimit: 10;stroke-width: 0.5px;}#el_uvFBpudrCun{fill: none;stroke: #000;stroke-miterlimit: 10;stroke-width: 0.5px;}#el_5AFaftlPGqL{fill: none;stroke: #000;stroke-miterlimit: 10;stroke-width: 0.5px;}#el_RitSTrEQRdt{fill: none;stroke: #000;stroke-miterlimit: 10;stroke-width: 0.5px;}#el_CZ6gtbQUrDI{fill: none;stroke: #000;stroke-miterlimit: 10;stroke-width: 0.5px;}#el_o2XJjpa019K{fill: none;stroke: #000;stroke-miterlimit: 10;stroke-width: 0.5px;}#el_HCuflL0Vic3{fill: none;stroke: #000;stroke-miterlimit: 10;stroke-width: 0.5px;}#el_lknO5TRhMnY{fill: none;stroke: #000;stroke-miterlimit: 10;stroke-width: 0.5px;}#el_Tsdwg3FyMQC{fill: none;stroke: #000;stroke-miterlimit: 10;stroke-width: 0.5px;}#el_H8pentLl558{fill: none;stroke: #000;stroke-miterlimit: 10;stroke-width: 0.5px;}#el_NIRz-L-ppaB{fill: none;stroke: #000;stroke-miterlimit: 10;stroke-width: 0.5px;}#el_o3KnK3iFSCF{fill: none;stroke: #000;stroke-miterlimit: 10;stroke-width: 0.5px;}#el_o7QRBY5LiI3{fill: none;stroke: #000;stroke-miterlimit: 10;stroke-width: 0.5px;}#el_jwtuibI-FvW{fill: none;stroke: #000;stroke-miterlimit: 10;stroke-width: 0.5px;}#el_CEkZzOpSKsf{fill: #9f7a60;}#el_6TDg1lN1xHn{fill: #92735e;}#el_Zryc8wuuvCu{fill: #dccc72;}#el_mbrSl0AwOEn{fill: #38372c;}#el_hh2X85i1Bvl{fill: #f5efdb;}#el_Wh1drdcOv91{fill: #c1a48f;}#el_kBDHOdV-ibe{fill: #c1a48f;}#el_sm10YMpze-_an_oo9uWTHD6{-webkit-animation-fill-mode: backwards;animation-fill-mode: backwards;-webkit-transform: translate(731.4290161132812px, 594.9713745117188px) rotate(3deg) translate(-731.4290161132812px, -594.9713745117188px);transform: translate(731.4290161132812px, 594.9713745117188px) rotate(3deg) translate(-731.4290161132812px, -594.9713745117188px);-webkit-animation-name: kf_el_sm10YMpze-_an_oo9uWTHD6;animation-name: kf_el_sm10YMpze-_an_oo9uWTHD6;-webkit-animation-timing-function: cubic-bezier(0.42, 0, 0.58, 1);animation-timing-function: cubic-bezier(0.42, 0, 0.58, 1);}#el_5tO9w_-1PT_an__Ze2Ws_25{-webkit-animation-fill-mode: backwards;animation-fill-mode: backwards;-webkit-transform: translate(800.4570922851562px, 811.9639282226562px) rotate(20deg) translate(-800.4570922851562px, -811.9639282226562px);transform: translate(800.4570922851562px, 811.9639282226562px) rotate(20deg) translate(-800.4570922851562px, -811.9639282226562px);-webkit-animation-name: kf_el_5tO9w_-1PT_an__Ze2Ws_25;animation-name: kf_el_5tO9w_-1PT_an__Ze2Ws_25;-webkit-animation-timing-function: cubic-bezier(0.42, 0, 0.58, 1);animation-timing-function: cubic-bezier(0.42, 0, 0.58, 1);}#el_Wj_W6Wq-qS_an_fo_aN-7of{-webkit-animation-fill-mode: backwards;animation-fill-mode: backwards;-webkit-transform: translate(773.9071655273438px, 744.326416015625px) rotate(5deg) translate(-773.9071655273438px, -744.326416015625px);transform: translate(773.9071655273438px, 744.326416015625px) rotate(5deg) translate(-773.9071655273438px, -744.326416015625px);-webkit-animation-name: kf_el_Wj_W6Wq-qS_an_fo_aN-7of;animation-name: kf_el_Wj_W6Wq-qS_an_fo_aN-7of;-webkit-animation-timing-function: cubic-bezier(0.42, 0, 0.58, 1);animation-timing-function: cubic-bezier(0.42, 0, 0.58, 1);}#el_UCTHWM7UTl_an_Ua3hZD1YC{-webkit-animation-fill-mode: backwards;animation-fill-mode: backwards;-webkit-transform: translate(951.9505462646484px, 550.5252227783203px) rotate(0deg) translate(-951.9505462646484px, -550.5252227783203px);transform: translate(951.9505462646484px, 550.5252227783203px) rotate(0deg) translate(-951.9505462646484px, -550.5252227783203px);-webkit-animation-name: kf_el_UCTHWM7UTl_an_Ua3hZD1YC;animation-name: kf_el_UCTHWM7UTl_an_Ua3hZD1YC;-webkit-animation-timing-function: cubic-bezier(0.42, 0, 0.58, 1);animation-timing-function: cubic-bezier(0.42, 0, 0.58, 1);}#el_Wh1drdcOv91_an_0wT0IbYNd{-webkit-animation-fill-mode: backwards;animation-fill-mode: backwards;-webkit-transform: translate(810.5335083007812px, 547.1807861328125px) rotate(0deg) translate(-810.5335083007812px, -547.1807861328125px);transform: translate(810.5335083007812px, 547.1807861328125px) rotate(0deg) translate(-810.5335083007812px, -547.1807861328125px);-webkit-animation-name: kf_el_Wh1drdcOv91_an_0wT0IbYNd;animation-name: kf_el_Wh1drdcOv91_an_0wT0IbYNd;-webkit-animation-timing-function: cubic-bezier(0.42, 0, 0.58, 1);animation-timing-function: cubic-bezier(0.42, 0, 0.58, 1);}#el_kBDHOdV-ibe_an_OY7kMKEUr{-webkit-animation-fill-mode: backwards;animation-fill-mode: backwards;-webkit-transform: translate(847.7813110351562px, 682.157470703125px) rotate(0deg) translate(-847.7813110351562px, -682.157470703125px);transform: translate(847.7813110351562px, 682.157470703125px) rotate(0deg) translate(-847.7813110351562px, -682.157470703125px);-webkit-animation-name: kf_el_kBDHOdV-ibe_an_OY7kMKEUr;animation-name: kf_el_kBDHOdV-ibe_an_OY7kMKEUr;-webkit-animation-timing-function: cubic-bezier(0, 0, 1, 1);animation-timing-function: cubic-bezier(0, 0, 1, 1);}</style><defs/><title>Spinosaurus</title><g id="el_Txs6QnQyTQ"><g id="el_sm10YMpze-_an_oo9uWTHD6" data-animator-group="true" data-animator-type="1"><path d="M875.3,738.6c-1.8-3-3.8-5.7-5.6-8.6s-4.6-8.8-7.1-13c-8.7-14.9,29.5-44.7,16.4-53-2.6-1.7,13.8-18,11-19-5.1-1.8-9.8-20.1-15-21s-23.3-21.2-30-22c-9.2-1.1-33.8-5.9-43-7-3.6-.4-41.5,3.5-45,5s-22.5,11.3-25,12,4,62.9,4.3,64.4c3.4,13.3,12,23.4,21,31.6a141.2,141.2,0,0,0,40.2,26.2c6.1,2.7,12.5,4.8,18.3,8.3,2.3,1.4,4.6,2.9,6.8,4.5,2.5,10,5.2,20.5,13.5,26.6,4.1,2.9,9,4.4,13.9,5.5a104.3,104.3,0,0,0,24.9,2.6c1.8,0,3.9-.1,5.3-1.4a7.5,7.5,0,0,0,1.9-3.5,35.9,35.9,0,0,0-3.2-28.3C877,745.3,877.3,741.8,875.3,738.6Z" id="el_sm10YMpze-"/></g><g id="el_5tO9w_-1PT_an__Ze2Ws_25" data-animator-group="true" data-animator-type="1"><path d="M771,840.7c.9-8.4,4.8-16.2,9.3-23.3,1.7-2.8,4.1-5.8,7.3-5.4s4.5,3.2,5.8,5.7c2.6,5.3,5.4,10.6,6.7,16.4s-1.3,10-2.2,15.8-7.4,11.4-8.5,18.4c-.3,1.9-.3,4-1,5.8a8.7,8.7,0,0,1-3.5,3.6c-2.7,1.9-5.8,4-6.4,7.9s1.4,6.5,1.6,9.9a3.1,3.1,0,0,1-.7,2.4,1.8,1.8,0,0,1-2.4-.1c-4-2.6-5.9-8.5-6-14.1s1.3-10.9,2.8-16.2c-4.7,3.4-7.6,9.7-10.3,15.6a7,7,0,0,1-1.7,2.9,18.8,18.8,0,0,1-1.8,1.2c-2.4,1.5-4,4.6-4.8,7.8a47.1,47.1,0,0,0-.8,10c-4.2-3.7-6.3-10.7-5.1-16.9.5-2.9,1.7-5.5,1.8-8.4.1-1.1,0-2.2.1-3.2a13.3,13.3,0,0,1,2.6-5.8c3.5-5.1,7.7-9.7,10.1-15.8a46,46,0,0,1,1.9-5.2,23.6,23.6,0,0,1,1.2-2.8l1.4-1.6a12.2,12.2,0,0,0,1.8-3.6A2.5,2.5,0,0,1,771,840.7Z" id="el_5tO9w_-1PT"/></g><g id="el_Wj_W6Wq-qS_an_fo_aN-7of" data-animator-group="true" data-animator-type="1"><path d="M803.3,832.7c9.9-10.1,20.8-19.9,33.4-22.1a20.6,20.6,0,0,0-2.4,11.6A118.2,118.2,0,0,0,848,808.5c3.3-3.8,6.8-8.1,11.3-8.3s9.3-2.3,13.7-4.6a25.7,25.7,0,0,0,7.6-5.7c2.2-2.6,4.4-5.6,4-9s-2.1-6.4-3.7-9.4l-8-15.2c-1.9-3.5-3.8-7.1-7.1-9.4a15.9,15.9,0,0,0-12.1-2.2,29,29,0,0,0-11.5,5.1,29.4,29.4,0,0,0-8.9,8.3c-4,6.2-4.5,14.4-4.6,21.8a98.8,98.8,0,0,1-15.4,9.6c-5.7,2.8-11.8,4.6-17.6,7.3s-11.5,6.3-15.7,12.1a18.2,18.2,0,0,0-1.6,3.1,32.3,32.3,0,0,0-.6,3.3c-.6,5.4-3.2,9.9-3.8,15.4a21.8,21.8,0,0,0,5.6,16.7c3.7,4.1,9.9,6.7,14.8,4.2a12.8,12.8,0,0,0,5.1-5.2A21.5,21.5,0,0,0,803.3,832.7Z" id="el_Wj_W6Wq-qS"/></g></g><g id="el_UCTHWM7UTl_an_Ua3hZD1YC" data-animator-group="true" data-animator-type="1"><g id="el_UCTHWM7UTl"><path d="M602.6,639.1c2.8,13.8,5.5,27.8,4.4,41.9-.2,2.9-.6,5.8-.7,8.7-.3,4.9.1,10.2-2.7,14.3v-.8c.3,11.2.2,23.5.5,34.7a22.2,22.2,0,0,0,.6,5.1,28.3,28.3,0,0,0,1.6,3.6l3.7,6.7c.2.5.7,1.1,1.2,1,1.5,4.1,2.9,8.2,5.9,11.4s7.9,5.1,12,3.3a1.6,1.6,0,0,0,1.2-1.4c0-.5-.4-.9-.9-1.3a13.5,13.5,0,0,0-4.7-2.2,2.6,2.6,0,0,1-1.9-.9c-.4-.8.1-1.8.2-2.6.7-3.1-2.3-5.6-4-8.3s-2-9.2-1.4-13.8c4.2,4,4.3,10.7,6.6,16,.9,2,2.5,4,4.5,3.8l1.6-.2c1.5-.1,2.7,1.3,4,2.3s3.5,1.2,4-.4a2.6,2.6,0,0,0-.7-2.3,41.4,41.4,0,0,0-3.7-4.6,15.7,15.7,0,0,1-2-2.5,11.5,11.5,0,0,1-1.1-3.6,72.1,72.1,0,0,1-1.3-10.4c1.7,1.5,3.5,3,4.4,5.1s.8,4.2,1.5,6.3a9.7,9.7,0,0,0,10.2,6.3l1.1-.4a1.8,1.8,0,0,0,.3-2.2,14.8,14.8,0,0,0-1.3-2.1c-.9-1.6-.6-3.6-1.1-5.4s-2.3-4-3.4-6-2-6.9-2.2-10.5c-.3-5.9-3.6-11.3-6.7-16.4-1-1.6-2-3.1-2.8-4.7-2.5-5.6-1.5-12-.4-18,2.6-15.1,4.8-30.7,8.7-45.5a5.9,5.9,0,0,0,.2-1.3,3.1,3.1,0,0,0-.7-1.8c-2.6-3.9-8.1-4.6-12.8-4.4A82.2,82.2,0,0,0,602.6,639.1Z" id="el_Dt3Y6tnYjB"/><path d="M536,550.3a37.7,37.7,0,0,0-1.9,10A68.9,68.9,0,0,0,545,601.7c2.9,4.5,6.7,8.8,11.7,10.6a31.1,31.1,0,0,0,3.4,11.1A226.6,226.6,0,0,0,579.3,656v-1.5c-14.1,14.2-28.6,30.6-43.4,43.9l-7,6.3-3.3,2.9c.4,13.8.3,27.9.7,41.7.2,6.1.4,12.3,2.7,17.9,1.6,3.8,4.2,7.3,5.3,11.4.6,2,.7,4.1,1.7,6s3.1,3.4,5.1,2.7c1.2,5.3,6.3,9.4,11.8,8.9.6-3.5-4.8-5.4-5.2-8.9a15.1,15.1,0,0,1,.6-3.7c1-6.4-6.2-11.4-6.7-17.8a69.5,69.5,0,0,0,6.3,10.5,9,9,0,0,0,2.8,2.7,3.2,3.2,0,0,0,3.6-.2,20.8,20.8,0,0,0,5.8,1.9,6,6,0,0,0,5.4-2.3l-4.8-1.7-1.3-.7a4,4,0,0,1-.7-1.3,31,31,0,0,0-7-10.2,4,4,0,0,1-1.3-1.8c-.3-1.2.6-2.3,1.1-3.4,2.4-5.5-3.9-11.4-3.1-17.4.3-2.6,2-4.8,2.6-7.3,1.1-4.2-.6-8.5-2.2-12.4a643.7,643.7,0,0,1,57.8-50.4c2.1-1.6,2.6-4,3.2-6.6,2.6-10.2-.5-21.1-6-30.1-2.4-4-3.4-10.1-4.5-14.7a51.7,51.7,0,0,0-2.1-7c-1.4-3.6-3.6-6.9-4.6-10.6a35.4,35.4,0,0,1-.6-9.2l.4-11.9c0-.1-.8-.7-.8-.8a35.8,35.8,0,0,0,10.2-20.6,10.2,10.2,0,0,0-.3-4.9c-.9-2.5-3.3-4-5.6-5.4-5.9-3.5-11.7-7-18.1-9.3s-13.5-3.3-20.1-1.7a53.1,53.1,0,0,0-10,3.9C543.3,545,537.8,545.8,536,550.3Z" id="el_UVAbzkK04o"/><path d="M288.6,500a7.6,7.6,0,0,0-2.7,3.4,7.9,7.9,0,0,0-3.1-2.3l-1.3,3.5a7.1,7.1,0,0,1-4.1-2.1,8.9,8.9,0,0,0-1.8,3.8l-3.4-2.1.4,3.6h-4.1a13.1,13.1,0,0,1-.6,2.7l-2.8-1.4-1.2,4.5a6.1,6.1,0,0,1-3.3-1.9c.4,2.2-2.7,4.1-4.5,2.7l-.3,2.8-3.5-.9v3.8a11.5,11.5,0,0,1-3.6-.7l-.5,2.3-3.7-.7-.3,3.8-4.4-.5-.3,3.7a5.4,5.4,0,0,0-3.9-1l.9,6.3a8.5,8.5,0,0,0-5.8-3.2,18.8,18.8,0,0,1,.7,6.3l-4.7-1.7a1.6,1.6,0,0,0-2.5,1.9,7.7,7.7,0,0,0,1.2,2.8,13.4,13.4,0,0,1,1.3,10,24.7,24.7,0,0,1-7.7-12.7c-1-.3-1.4,1.1-1.4,2.1l.3,8.5a6.7,6.7,0,0,1-4.4-4.1,18.4,18.4,0,0,1-1.1-6.2,3.5,3.5,0,0,0-4.7,2.6,3.2,3.2,0,0,1-2-4,2.2,2.2,0,0,0-2.3,1.1,5.6,5.6,0,0,0-.7,2.6l-2.2-1.1a2.5,2.5,0,0,0-.4,1.7l-2.2-.4v2.2l-1.4-.5-.8,2.9-5.1-1-.6,2.5a5,5,0,0,1,5.6,2.2,11.5,11.5,0,0,0-4.9.1c-1.6.6-2.9,2.2-2.6,3.8,3.2.5,7.1,1.5,7.8,4.7a21.9,21.9,0,0,1-9-2.4,12.5,12.5,0,0,0,8.6,5.7c-4.1,2.2-10-.3-11.2-4.9-.7-2.5,1.2-6,2.1-8.5a36.5,36.5,0,0,1,3.4-7.2,23.2,23.2,0,0,1,24.2-9.8c2.2.5,4.5,1.4,6.7,1.1s5.7-3.5,8.2-5.8c4.9-4.8,11.2-7.7,17.1-11.3s12.5-8.8,19.3-12.2,14.7-5.5,22-3.3A1.8,1.8,0,0,1,288.6,500Z" id="el_wUjYQfKHLM"/><path d="M219.7,587.4a37.3,37.3,0,0,1,8.2.4c-1.2-2.7-5.7-3-6.3-5.9-.1-.4-.1-.9.3-1.1h.6a14.9,14.9,0,0,1,6.9,3.1c.4-1.1-.5-2.2-1.3-3.1a18.7,18.7,0,0,1-4.1-9.2,17.8,17.8,0,0,1,9.1,7.1,16.4,16.4,0,0,1-1.3-4.3l2.9,1.1a29.7,29.7,0,0,1,.9-8.4c2.8,2.2,2.3,7.5,5.7,8.7l-1-5.2c0-.3-.1-.6.1-.8s1.1-.5,1.6-.1.9,1,1.6,1.2a2.5,2.5,0,0,1,4.3-2.4l1.4-3.7,3.5,1.8a4.2,4.2,0,0,0,1.9.6c.7-.1,1.3-.8,1.1-1.4a4.9,4.9,0,0,1-2.6-3.2,10.5,10.5,0,0,1,4,.7,23.7,23.7,0,0,1-.9-3.6,7.2,7.2,0,0,0,4.7,1.1,13.6,13.6,0,0,0-1.2-4.8,10.7,10.7,0,0,1,3.6,1,17.2,17.2,0,0,1-1.9-4.9,17.5,17.5,0,0,0,6.8,2.8,13.5,13.5,0,0,0-1.5-5.2,8,8,0,0,1,4,.8,9.8,9.8,0,0,1-.6-4.2,15.4,15.4,0,0,1,4.4,1.9l-.2-4.8a12.1,12.1,0,0,1,4.2.5,17.7,17.7,0,0,1-.7-4.6,13.1,13.1,0,0,0,3.7,1.5,6,6,0,0,1-1.1-3.9,8.3,8.3,0,0,1,4.9.6c.8,2.2-.7,4.5-2.2,6.4l-6.8,8.6a126.6,126.6,0,0,1-10.1,11.7,63.5,63.5,0,0,1-15.9,11.4c-3.1,1.5-6.3,2.8-9.1,4.9s-7,7.8-10.9,11.4S220.8,592.1,219.7,587.4Z" id="el_RQl3W_5HBX"/><path d="M290.4,528a16.6,16.6,0,0,0-2.5,5.6,6.5,6.5,0,0,0,1.6,5.7c4.4-5.6,8.6-11.4,12.5-17.4a26,26,0,0,0,4.1-7.7c.7-2.3-.2-3.7-2.4-2.8s-3.8,3.2-5,4.5A63.3,63.3,0,0,0,290.4,528Z" id="el_qUemcSBOSc"/><path d="M231.9,526.4c-3,2.5-5.9,5.3-9.3,7.2s-7.6,2.9-11.3,1.7c-1.6-.5-3.1-1.4-4.7-1.6a9.7,9.7,0,0,0-4.1.8,24.6,24.6,0,0,0-15.1,18.8c-1.8.2-4,1.3-5.9,1.4a6.6,6.6,0,0,1-2.8-.1,7,7,0,0,1-2.9-2.2,26,26,0,0,1-3.6-4.6,8.8,8.8,0,0,1-1.5-5.6,8.9,8.9,0,0,1,3.3-11.4c1.3-.7,2.9-1.1,4.3-1.7a39.5,39.5,0,0,0,4.6-2.3,747.2,747.2,0,0,0,78.4-52.3,5.5,5.5,0,0,0,2.2-2.6l10.9-9.4a11.8,11.8,0,0,0,2.4-2.6c1.7-3.1-.4-7.2.7-10.6a3.2,3.2,0,0,1,1-1.7,2.1,2.1,0,0,1,1.3-.3,130.2,130.2,0,0,0,16.5-.8c2-.2,4.1-.5,5.6-1.7s2-2.5,3.1-3.8a13.5,13.5,0,0,1,8.8-3.9,54.7,54.7,0,0,1,9.9.4,74.3,74.3,0,0,0,19.4-1.3c7.9-1.6,15.9-4.7,24-3.5,16.7,2.3,32.6,9.7,47.1,18.4,7.7,4.6,14.9,9.9,22.6,14.5s15.9,8.6,24.1,12.6,16.2,7.7,24.9,6.9,15.2.1,22.6-.8a123.8,123.8,0,0,0,13.6-2c4.9-1.1,9.6-2.6,14.5-3.9,17.5-4.8,35.8-5.9,53.9-7,8.6-.5,17.2-2.1,25.9-3s18.1-.7,27.1-.6c19.1,0,38.2-.9,57.2-2.7s35-1.2,52.6-1.2a389.2,389.2,0,0,1,57,4c4.1.6,8.4-1.1,12.6-1,19,.7,37.6,5,56.1,9.3l29.8,6.8c15.9,3.7,29.7,13.7,43.2,23,3.6,2.5,7.1,5.2,10.6,7.9,1.7,1.4,3.5,2.8,5.1,4.3s3.9,4.6,6.3,6.3a28.3,28.3,0,0,0,7.5,3.4c14.9,4.9,26,18.4,40.8,23.5s29.2,6.6,43.7,10.6c11.2,3.2,22.5,8,34.2,7,15.4-1.2,29.5,10.1,44.9,10.8,3.8.2,7.5,0,11.3,0,18.8.1,37.3,5.7,56.2,5.6,6.6,0,13.1,2,19.7,2h45.9c11.8,0,23.5,0,35.3.9,10,.8,19.6-3.6,29.7-3.8,19.9-.3,39.1.5,59,1,13,.3,25.5-.2,38.5-.5,4.5-.1,9.1-.6,13.6-1a223.3,223.3,0,0,1,45.5,1c23.3,2.8,47.1.3,70.6,1.4,13.3.6,26.5,1.6,39.7,3.2l12.9,1.6c13.5,1.8,27.1,4.1,39.7,9.3,21.4,9,46,10.9,66.6,21.5,2.5,1.3,5.4,3.5,4.8,6.2-1.3.8-2.9.5-4.4.2-28.5-5.4-55.9-17.7-84.9-18.4-.4,0-.3-1-.5-.6a245,245,0,0,0-36.3-2.3c-14.5-.7-29-1.1-43.5-1.8-5.8-.2-53-.7-70.6,1.7-5.9.8-26.8,1-31.2,1.2s-9.7.5-14.6,1.1c-6.6.9-44.5,6.2-49.1,6.5-11.5.7-23,1.9-34.5,3l-26.6,2.6c-6.7.7-13.4,1.3-20,2.5a114,114,0,0,0-11.6,2.5c-20.1,5.2-40.9,6-61.4,9.3-12,2-23,4.5-35.1,6.2l-26,3.7c-20.5,3-73.4,3.6-78.4,4.1a246.2,246.2,0,0,1-51.5.6c-15.9-1.5-32.1-.6-48.1-.1s-28.2,6.7-42.2,11.1a84.7,84.7,0,0,0-31,17.6c-4.9,4.4-12.4,4.5-18.7,6.1a119.1,119.1,0,0,1-13.5,2.5,516.6,516.6,0,0,1-62.2,5.2c-6.2.2-12.8.1-18.3-2.9s-14.5-3.2-21.6-4.4l-11.1-2L777,681.6l-29.4-5.5c-10.2-1.8-20.3-3.7-30.4-6.2-.9-.2-2-1.2-1.2-1.7-2.8-1.5-4.4-2.5-7.5-3.2s-5.3-.9-7.8-1.5-7.7-2.9-11.6-4.3a82.9,82.9,0,0,0-10-3.1L658,650.2c-7.7-2.1-15.3-5.1-22.9-7.4a84.2,84.2,0,0,0-8.6-2.4c-5.5-1.2-14.8,2.4-20.1.6-4.5-7.2-8.3-16.2-14.6-21.7-12.6-10.9-22.7-25.1-37.5-32.8-4.5-2.3-9.4-4-13.5-6.9-5.8-4-9.9-10.2-16-13.9-8.5-5.1-19-5.8-28.9-7.4a81.9,81.9,0,0,1-9.5-1.6c-3.8-1-7.5-2.5-11.5-3.1-2.5-.3-5-.2-7.5-.5a50.9,50.9,0,0,1-10.2-2.6c-5.8-2-11.7-4-16.4-7.9-14.2-11.7-31.4-21.4-49.3-25.6-6.3-1.5-12.8-1.7-19.2-2-.6,0-26.5,5.7-36.6,13.8a104.6,104.6,0,0,1-8.4,6.5,72.6,72.6,0,0,1-6.7,3.8c-11.9,6.6-22.5,15.3-33,23.9l-9.7,8c-7.4,6.1-14.6,13.3-21.7,19.9A49.8,49.8,0,0,1,246,599c-3.9,2.1-8.4,3.2-12.7,2a5.2,5.2,0,0,1-2-.9,6.7,6.7,0,0,1-1.5-2.9,21.6,21.6,0,0,1,3.5-17.6,23.1,23.1,0,0,1,15.6-8.9,10.3,10.3,0,0,0,3.4-.7,7.9,7.9,0,0,0,2.5-1.9l23.3-22.8a167.7,167.7,0,0,0,25-31.3,11.1,11.1,0,0,0,1.9-4.3,8.2,8.2,0,0,0-1.4-4.8c-2.4-3.8-7-5.9-11.6-6.2s-9,1-13.4,2.4a150.2,150.2,0,0,0-24.5,11.2" id="el_YIixrq7Gzn"/><path d="M1328.4,587s-7.5-2.1-12.5-2.1a42.2,42.2,0,0,0-14,2.4,23,23,0,0,0-18.5-1.7,5.8,5.8,0,0,1-1.9.4,5,5,0,0,1-2.3-.9,22.9,22.9,0,0,0-23.3.5c-5.2-5.6-15.2-6-20.9-.9a9.6,9.6,0,0,0-7.7-4.8,9.7,9.7,0,0,0-8.3,4,18.5,18.5,0,0,0-21.1-3,18.7,18.7,0,0,0-20.8-2.2,14,14,0,0,0-17.2-2.6c-.5.3-.9.6-1.4.5a3.4,3.4,0,0,1-1.4-.5,35.1,35.1,0,0,0-23.4-5.9,6.5,6.5,0,0,1-2.4,0,7.9,7.9,0,0,1-2.6-1.3,28.5,28.5,0,0,0-22.1-3,16.7,16.7,0,0,0-18.9-3.9c-4.7-3.2-10-6.6-15.6-5.9a4.6,4.6,0,0,1-2,.1,3.6,3.6,0,0,1-1.4-1,17.9,17.9,0,0,0-17.9-3c-2.6-1.2-4-4.2-6.1-6.2a10.9,10.9,0,0,0-12.8-1.2,3.1,3.1,0,0,1-2.1.7c-.9-.1-1.4-1.1-1.8-1.9a14.7,14.7,0,0,0-15.6-7.2,7.4,7.4,0,0,1-2.9.3,6.4,6.4,0,0,1-2.6-1.8c-3.1-3.1-7.6-5.5-11.6-3.9-1.1-3.6-2.7-7.2-5.6-9.7s-7.1-3.7-10.5-2l-3.4-5.6a22.8,22.8,0,0,0-4.2-5.6,8.3,8.3,0,0,0-6.5-2.1,2.3,2.3,0,0,1-1.8.1c-.5-.2-.7-.7-1-1.1a68.6,68.6,0,0,0-5.5-8.5,16.3,16.3,0,0,0-4.3-4c-1.8-.9-4-1.6-5.8-.6-1.1-6.6-2.9-14-8.7-17.3-1.7-1-3.7-1.5-5.2-2.7s-3.2-4.7-3.6-7.4-.4-5.6-1.1-8.3a14.7,14.7,0,0,0-8-9.1,3.2,3.2,0,0,1-2.7-3.3c-.6-4.8-.7-9.8-2.1-14.5s-4-9.9-8.6-11.4c-.1-4.3-.3-8.5-.8-12.8s-1.1-8-3.7-11a19.4,19.4,0,0,0-4.5-3.5,9.5,9.5,0,0,0-4.7-2.1c-.8-.1-1.8,0-2.4-.5a3,3,0,0,1-.8-1.8,72.5,72.5,0,0,0-6-17.5c-1.2-2.7-3.1-5.7-6-5.5s-4,1.8-5.6.7a4.5,4.5,0,0,1-1.3-1.7,110.2,110.2,0,0,0-9-14.6c-2.3-3.2-5.3-6.5-9.2-6.7s-5.8,1.6-8.2,1.1a77,77,0,0,0-14-17.2,7.6,7.6,0,0,0-2.3-1.7,9.7,9.7,0,0,0-3.8-.5h-7.8a12.9,12.9,0,0,1-4.8-.6,11.6,11.6,0,0,1-3.1-2.2c-2.9-2.6-5.6-5.3-8.2-8.1a9.1,9.1,0,0,0-2.3-2.1c-1.9-1-4.2-.4-6.3.1-4.7,1.4-9.5,2.3-14.3,3.6-5.4-8-17.2-10.9-25.8-6.3-2.6,1.3-4.9,3.3-7.8,3.8a17.5,17.5,0,0,1-6-.6L725.1,307a22.2,22.2,0,0,0-7.8,6.8c-1.1,1.6-2.1,3.4-3.9,3.9a5.7,5.7,0,0,1-2.9,0c-5-.8-10.4-2.4-14.8,0s-6.3,7.9-10.9,10-10-.3-14.9.5a13,13,0,0,0-9.8,8.7c-.2.2.4.3.4,0a.7.7,0,0,0-.7-.4c-5.5-.8-11.5-1.5-16.4,1.2s-7,7.5-9.3,12.2a9,9,0,0,0-8,.3,22.1,22.1,0,0,0-6.3,5.5,62,62,0,0,0-6.6,9.5c-2.5-1.1-5.4-.7-7.9.2-4.6,1.8-8.1,5.6-10.5,9.8s-3.2,8.7-4.3,13.4a6.3,6.3,0,0,0-5.8.4,12.4,12.4,0,0,0-4.2,4.3,43,43,0,0,0-3.7,8.2l-5.4,14.3a15.2,15.2,0,0,0-12.3,4.3c-3.2,3.1-4.6,8.2-4.5,12.7s0,8.9-3.1,11.7-6,2.5-8.4,4.6a14.7,14.7,0,0,0-3.3,6.3c-1.4,4.3-2.7,8.6-4,12.9a50.3,50.3,0,0,0-10.8,2.1,16.1,16.1,0,0,0-5.9,2.8c-1.7,1.5-3,3.3-2.9,5.5-3.4-1.6-6.8-3.4-10.5-3.9s-7.9.3-10.4,3c-2.4-3.7-8.5-4.4-11.7-1.3-.3.3-.6.7-1,.7a1.7,1.7,0,0,1-1.3-.5,9.7,9.7,0,0,0-8.6-.8,5.8,5.8,0,0,0-8.4-3.1,7.2,7.2,0,0,0-4.7-4.6,18.7,18.7,0,0,0-6.7-.9,6.8,6.8,0,0,0-4.4-5.4,20.6,20.6,0,0,0-7.4-.9,4.8,4.8,0,0,0-2.8-4.3,15.7,15.7,0,0,0-5.3-1.1,2.7,2.7,0,0,1-2.5-1.2c-.2-.5,0-1,0-1.6a5,5,0,0,0-3.2-4.2,13.2,13.2,0,0,0-5.6-.8,3.6,3.6,0,0,1-2.3-.5c-.8-.5-.9-1.5-1.3-2.4a6.9,6.9,0,0,0-4.5-4.3c-2.6-.7-6-.2-7.6-2.4a24,24,0,0,1-1.1-2.3c-1.5-2.9-5.3-3.3-8.5-3.3-1.7,0-3.6.1-4.9-1s-1.4-2-2.3-2.8-4-1.7-6.2-1.4-4.3.9-6.5.4-3.5-1.6-5.2-2.6-3.9-1.5-5.6-.6-1.4,1-2.2,1.4-1.4,0-1.9-.7-4.9-1.6-7.5-.8a53.1,53.1,0,0,0-10.5,5c-.9-1.8-3.4-2.2-5.3-1.5s-3.4,1.9-5.2,2.9-3.9,1.7-5.7.9-2.1-1.8-3.4-2.2-4.3,1-5.8,2.7-2.8,3.8-4.9,4.4a12.7,12.7,0,0,1-2.6.4c-.8.2-.6,1.4-.1,1.9a34.6,34.6,0,0,0,22.4,9.2,13.8,13.8,0,0,0,8.5-2.5c4.7-2.8,9.1-6.3,14.3-8.1s13.5-2.1,20.1-.3,12.7,4.8,18.6,8.1c9.2,5,18.2,10.5,26.9,16.4S442,472.4,452,478.2a122.2,122.2,0,0,0,15.2,8c15,6.2,31.9,6.5,48,4.6s32-6.1,48.1-8.4c4.2-.6,8.6-1.1,12.5.5s10.9.3,16-.3,12.4-.3,18.5.1c9.4.6,18.9.8,28.3.7,2.8-.1,5.6-.2,8.3-.5s5.6-1.2,8.4-1.8c10-2.3,20.3-3.2,30.5-4.1,16-1.5,32.2.9,48.2,1.2,5.2.1,10.4.4,15.7.7l40.1,2.2c9.8.5,20.1,1.6,29.9,2.1,17.1.8,34.2,1.6,51.1,4.2a93.2,93.2,0,0,1,10.5,2.2c10.4,2.8,19.9,8.1,29.2,13.3,11,6.2,22.9,10.6,33.8,16.8,18.9,10.5,38.1,20.6,57.6,30s39.3,13.2,59.4,18.4c12.2,3.2,24.6,5.2,37,7.1l26,4.2c8.1,1.3,16.8.9,24.9,2.1,5.5.8,10.9,2.1,16.4,3a276,276,0,0,0,28.8,3.4c18.6,1.5,37.4,2.3,56.1,2.5,5.9,0,12.2-1.2,18.1-1.3s12.4.5,18.6.3l4.2-.2a19.9,19.9,0,0,1,2.6,0,50.4,50.4,0,0,1,7.5.8C1307.8,591.1,1328.4,587,1328.4,587Z" id="el_XDGBkeN8uc"/><path d="M388.7,442.2a26.4,26.4,0,0,0,2.1-9.6" id="el_HXvalveVXS"/><path d="M402.9,448.9a22.3,22.3,0,0,1,2.8-9.3" id="el_46H5ya8pdQ"/><path d="M413.6,455.6l3.7-7.2" id="el_Os08HcIfA0"/><path d="M426.4,464a23.7,23.7,0,0,0,4.4-8.1" id="el_wXAWTY6Qkmz"/><path d="M437.7,469.1c2-1.9,2.1-5,3.8-7.1" id="el_SWJiDY_s2dC"/><path d="M448.7,475.4l3.1-6.8" id="el_6zoOKrnj4y-"/><path d="M460.7,481.5a18.8,18.8,0,0,0,1.9-7.4" id="el_ueTnQq2It-z"/><path d="M468.6,485.1a12.5,12.5,0,0,0,3.5-6.7" id="el_ypdtsqrUe8s"/><path d="M482.8,489a46.9,46.9,0,0,0-.2-8.4" id="el_XW73oyh5bcl"/><path d="M495.1,490.2a30.3,30.3,0,0,0-.2-10.4" id="el_tGCcl2osdtW"/><path d="M519.2,489.7a23.9,23.9,0,0,0-2.7-9.8" id="el_sV6NRb6MTy_"/><path d="M541,484.7a26.2,26.2,0,0,0-.1-7.4,10.6,10.6,0,0,0-3.4-6.5" id="el_2jV1id_Bewy"/><path d="M558.4,481.8a14.7,14.7,0,0,0,1.7-6.2,46.5,46.5,0,0,0-6.3-28.2" id="el_UwrOHp_Os1b"/><path d="M576.8,481.3c.8-13.8,1.6-27.7,1.7-41.5,0-8.3-.3-17.1-4.9-24.1" id="el_9ND_okQ-Fyc"/><path d="M594.8,481.2l1.6-60.3c.3-11.2.6-22.6-2.9-33.2" id="el_Qt1TCZFjkLD"/><path d="M614.7,366.1l1.2,10.6c.4,3.3.8,6.7,1,10,1.5,22.8-4.9,45.7-2.1,68.3,1.1,8.7,3.5,17.4,1.9,26l.5-3.9" id="el_J8oCG3w_9Wi"/><path d="M637.2,348.3a51.6,51.6,0,0,1,5,26.8c-.3,3.4-1,6.7-1.3,10.1s-.3,8.3-.3,12.4q.4,42.1-3.3,84.2" id="el_IMRZmfCvIwI"/><path d="M660.1,338.1c3.7,6.7,3.8,14.7,3.9,22.3.2,26,.4,52.1-.9,78-.7,14-1.8,27.9-1.4,41.9" id="el_LiGBJ3iYMuX"/><path d="M680.4,477.8l1.6-20.2c1.3-17,2.7-34.2,5.3-51.1.6-3.9,1.3-7.8,1.7-11.8,1.6-14.6-.8-29.4-.5-44.2.1-2.6.9-5.7,1.2-8.3a34.9,34.9,0,0,0,.4-7.9,18.2,18.2,0,0,0-2.1-7.2" id="el_22UQHsRBgtI"/><path d="M701.8,473.6a131,131,0,0,1,1.7-19.7l7.1-49.2a80.3,80.3,0,0,1,1.7-9.8c.8-3.1,1.9-6.2,2.5-9.4a60.1,60.1,0,0,0,1-8.4l.9-12.7a60.8,60.8,0,0,0,0-12.8c-1.7-10.9-.5-21.8-1.3-32.8" id="el_hI7OKanvroY"/><path d="M720.3,471.9c.4-10.4,5.8-20.1,7.3-30.4.4-3.4.5-6.9.8-10.4,1.1-11.4,5.7-22.1,7.6-33.4,1.6-9.2,1.3-18.6,3.3-27.7.7-3.2,1.8-6.5,2.8-9.7l3-9.7c3.6-11.2,2-24.3,1.2-36.1" id="el_DACb6UeZe8T"/><path d="M743,471.6c2.6-18.8,7.5-37.1,12.5-55.5L762,392l5.3-20c2-7.4,5.9-13.7,7.5-21.3.9-4,1.5-8,2.4-12l3.7-18.5,1-4.7" id="el_UdOHluF92yb"/><path d="M763.2,471.8c4.5-9.9,5.2-21.1,8.7-31.3s10.5-20.7,13.6-31.9c1-3.6,1.5-7.3,2.6-10.9a109,109,0,0,1,3.9-10.9l10.1-24.6c1.4-3.2,2.1-6.2,3.4-9.4s2.2-5.3,3.1-8.1a61.7,61.7,0,0,0,3.3-20" id="el_tE5iAoAvPQM"/><path d="M789.7,470.9c3.7-12.8,10-24.7,16.3-36.5,1.3-2.5,2.6-4.9,3.6-7.4s1.7-5,2.6-7.5c2.6-7,6.8-13.3,9.8-20.2,3.8-8.9,5.5-18.8,10.8-26.9,1.5-2.2,3.1-4.8,4.4-7.2a35.5,35.5,0,0,0,2.1-4.4c2.2-5.8,1.6-12.8,5.5-17.7" id="el_lTRz7fijKPA"/><path d="M813.8,472.9c8-21.1,18.5-41.2,28.9-61.2a84.5,84.5,0,0,1,6.9-11.6c2-2.7,4.3-5.1,6.4-7.8a44.8,44.8,0,0,0,8-17.1c1-4.3,3.6-8.4,5.4-12.4" id="el_3KvXZLoVwZa"/><path d="M834.9,475.7c3.4-5,5-10.9,7.4-16.4s7.2-13,11.5-19.1l13.9-20.1c6.2-8.9,12.3-17.8,19.8-25.6,1.5-1.5,2.7-4,4.1-5.5" id="el_1HNcGHlfmVk"/><path d="M859.6,483.4c5.9-12.2,14.3-22.9,22.7-33.5l12-15.1c1.5-1.9,3-3.8,4.6-5.6a85,85,0,0,1,7.4-7.3" id="el_caUGDzb0KhN"/><path d="M884.6,488.8q16.5-20.1,31.3-41.3" id="el_tMtBYz1X6Qu"/><path d="M912.7,494.4a43.2,43.2,0,0,1,5-6.3,88.4,88.4,0,0,0,10.9-16.2" id="el_tzKNNwyQMw6"/><path d="M935.4,508.7a16.1,16.1,0,0,1,3.1-5,74,74,0,0,0,7.6-12.3" id="el_LW5wpHFSsDl"/><path d="M953.3,520.4l4-5.2c2.1-2.7,4.2-5.4,5-8.7" id="el_SbTiTq33w_W"/><path d="M971.8,533a64.2,64.2,0,0,0,5.6-13.9" id="el_jg4jDz6pWyp"/><path d="M988.8,542.3a63.9,63.9,0,0,1,4.7-9.9" id="el_e_jAGOuKMS6"/><path d="M1005.4,548.8l2.9-9.2" id="el_Tw-nwZsYH4h"/><path d="M1027,556.4l1.6-6.1c.4-1.5.7-3.3-.3-4.5" id="el_uvFBpudrCun"/><path d="M1048.4,561.8a32.4,32.4,0,0,0,0-8.8" id="el_5AFaftlPGqL"/><path d="M1068.9,566.3l1-7.2" id="el_RitSTrEQRdt"/><path d="M1085.3,570l1.8-7.1" id="el_CZ6gtbQUrDI"/><path d="M1107,575.4c.8-2.4,1.5-5.4-.2-7.3" id="el_o2XJjpa019K"/><path d="M1127.7,578.9a11.8,11.8,0,0,0,.8-6.7" id="el_HCuflL0Vic3"/><path d="M1157.9,582.9a13.7,13.7,0,0,0,0-5.7" id="el_lknO5TRhMnY"/><path d="M1177.9,585.6l.5-5.7" id="el_Tsdwg3FyMQC"/><path d="M1198.6,586.8l.4-5.7" id="el_H8pentLl558"/><path d="M1218.9,588.8l.2-3.7" id="el_NIRz-L-ppaB"/><path d="M1234.2,591l.8-5.6" id="el_o3KnK3iFSCF"/><path d="M1257.4,589.8a5.6,5.6,0,0,0-.7-4" id="el_o7QRBY5LiI3"/><path d="M1278,588.8a4.2,4.2,0,0,1,.2-2.2v2.2l1.9-1.9" id="el_jwtuibI-FvW"/><path d="M303.6,456.6a16,16,0,0,0-2.8,7.2,6.5,6.5,0,0,0,.1,2.4,6.3,6.3,0,0,0,3.2,3.8,16.7,16.7,0,0,0,4.8,1.5,11.5,11.5,0,0,0,3.7.2,7.7,7.7,0,0,0,3.7-2.4,13.3,13.3,0,0,0,3.8-8.7,9.2,9.2,0,0,0-4.4-8.1,7.6,7.6,0,0,0-5.7-.8A10.8,10.8,0,0,0,303.6,456.6Z" id="el_CEkZzOpSKsf"/><path d="M304.6,461.2c-.6,2,.7,4.3,2.5,5.5a4.9,4.9,0,0,0,3.7.8,5.4,5.4,0,0,0,1.8-1.1,9.3,9.3,0,0,0,3.6-6.1c.1-2.4-1.5-5-3.9-5.4a6.1,6.1,0,0,0-4.8,1.9A12.5,12.5,0,0,0,304.6,461.2Z" id="el_6TDg1lN1xHn"/><path d="M307.2,460.2a4.6,4.6,0,0,0-.6,3.4,2.9,2.9,0,0,0,2.5,2.2,3.1,3.1,0,0,0,2.5-1,8.9,8.9,0,0,0,1.6-2.2c.6-1,1.3-2.4.7-3.5a4.3,4.3,0,0,0-.9-1C310.9,456.3,308.5,458.3,307.2,460.2Z" id="el_Zryc8wuuvCu"/><path d="M310.7,459.8a.8.8,0,0,0-.8.2,1.5,1.5,0,0,0-.3,1.6,2,2,0,0,0,1.1,1.1.6.6,0,0,0,.7.2h.4a1.5,1.5,0,0,0,.6-1.4,1.8,1.8,0,0,0-.8-1.3,1.8,1.8,0,0,0-.9-.4.9.9,0,0,0-.9.5" id="el_mbrSl0AwOEn"/><path d="M308.8,460.5a1.2,1.2,0,0,0-.2,1.6c.1.1.1.2.2.2h.3a1.1,1.1,0,0,0,1-1.5.9.9,0,0,0-.5-.8C309.4,460,308.9,460.3,308.8,460.5Z" id="el_hh2X85i1Bvl"/></g></g><g id="el_XZ3fkC1gZhx"><g id="el_Wh1drdcOv91_an_0wT0IbYNd" data-animator-group="true" data-animator-type="1"><path d="M919,703.4a13.6,13.6,0,0,1-2.1-3.7,13.9,13.9,0,0,1-.2-9c1.3-3.3,3.9-5.7,6.5-8a259.6,259.6,0,0,0,20.6-21.4c4.4-5.2,8.7-10.5,14.1-14.6A66,66,0,0,1,967,641l21.8-12.2c-10.8-16.7-20.3-32.9-34.3-47.1-4.4-4.5-8.9-9.1-14.2-12.6-7.3-5-15.8-7.7-24.1-10.4-18.3-6-36.9-11.9-56.1-11.5s-47.9,7.1-49.2,26.2a162.1,162.1,0,0,0,4.2,49.1c2.1,8.7,4.9,17.1,7.7,25.6l16.1,48.3c4.1,12.4,10.6,24.3,22.4,29.9,4.2,2,8.9,2.6,13.5,3.2,7.7.9,15.7,1.8,23.2-.3s13.3-6.3,19.4-10.7a10.5,10.5,0,0,0,3.2-3.1C922.9,711.5,921.8,706.9,919,703.4Z" id="el_Wh1drdcOv91"/></g><g id="el_kBDHOdV-ibe_an_OY7kMKEUr" data-animator-group="true" data-animator-type="1"><path d="M937.1,721.1a16.6,16.6,0,0,1,4.2,4.9l12.2,19c2,3.2,3.1,7.1,4.1,10.7l8,30.1c.5,2,1.1,3.6,1.5,5.5a46.7,46.7,0,0,0,11,20.4c2.5,2.7,4.8,5.3,6.3,8.6a19.9,19.9,0,0,1,.6,14.4,54.9,54.9,0,0,1-2.1,5.1c-1.6,4.1-.6,8.5-1.9,12.7s1.6,8.3,2.5,12.5a13.6,13.6,0,0,1-1,9.1,29,29,0,0,1-5.9-7.1c2.4,7.2-.6,15.6,1.5,22.9,1,3.8-.9,7.9-3.8,10.6s-6.7,4.2-10.4,5.6l-15.7,6.2a18.8,18.8,0,0,1-7,1.6c-1.8,1.2-4.5.1-6.6.8a14.2,14.2,0,0,0-2.3,1.4,10.8,10.8,0,0,1-6.2,2.1,7.8,7.8,0,0,1-5.9-2.5c-.7-.8-1.2-1.8-2.2-2.2a4.5,4.5,0,0,0-2.3.1l-4.4.8a11.7,11.7,0,0,0-4.1,1.4,12.8,12.8,0,0,0-3.7,4.3,9.5,9.5,0,0,1-1.2-6.6,3.7,3.7,0,0,1-3.9-1.9c-3.7-.4-7.6-.6-10.7,1.3s-3.2,2.6-5.1,2a11.7,11.7,0,0,1,4.9-10,19.2,19.2,0,0,1,11-3.3c.9-.6.3-2.1,1-2.9a2,2,0,0,1,1.3-.6,27.2,27.2,0,0,1,7-.3c2.6.3,5.2,1.1,7.7.3s3.3-1.8,4.9-2.7c4.3-2.6,9.5-3.8,14.2-2.3,11.8-9,17.8-24.3,17.8-39.1s-3.2-29.4-12.7-40.8q-4.4-5.2-9-10.2c-6.2-6.9-12.9-13.4-19.5-20-9.1-9-17.5-19-27.1-27.5l-18.2-16.1c-6.5-5.7-12.3-12.8-15.6-20.8a31.3,31.3,0,0,1-2.5-10c-.5-11.6,9.1-21.9,20.3-25.1s23.3-.3,33.7,4.7C916.9,695.4,923.3,711.5,937.1,721.1Z" id="el_kBDHOdV-ibe"/></g></g></svg>