<svg xmlns="http://www.w3.org/2000/svg" viewBox="0 0 1234 821" id="el_HIsZoHQ82"><style>@-webkit-keyframes kf_el_Bi5o-Qcm3lP_an_7brKSxrzR{0%{-webkit-transform: translate(489.162841796875px, 349.608642578125px) rotate(5deg) translate(-489.162841796875px, -349.608642578125px);transform: translate(489.162841796875px, 349.608642578125px) rotate(5deg) translate(-489.162841796875px, -349.608642578125px);}25%{-webkit-transform: translate(489.162841796875px, 349.608642578125px) rotate(0deg) translate(-489.162841796875px, -349.608642578125px);transform: translate(489.162841796875px, 349.608642578125px) rotate(0deg) translate(-489.162841796875px, -349.608642578125px);}50%{-webkit-transform: translate(489.162841796875px, 349.608642578125px) rotate(5deg) translate(-489.162841796875px, -349.608642578125px);transform: translate(489.162841796875px, 349.608642578125px) rotate(5deg) translate(-489.162841796875px, -349.608642578125px);}75%{-webkit-transform: translate(489.162841796875px, 349.608642578125px) rotate(0deg) translate(-489.162841796875px, -349.608642578125px);transform: translate(489.162841796875px, 349.608642578125px) rotate(0deg) translate(-489.162841796875px, -349.608642578125px);}100%{-webkit-transform: translate(489.162841796875px, 349.608642578125px) rotate(5deg) translate(-489.162841796875px, -349.608642578125px);transform: translate(489.162841796875px, 349.608642578125px) rotate(5deg) translate(-489.162841796875px, -349.608642578125px);}}@keyframes kf_el_Bi5o-Qcm3lP_an_7brKSxrzR{0%{-webkit-transform: translate(489.162841796875px, 349.608642578125px) rotate(5deg) translate(-489.162841796875px, -349.608642578125px);transform: translate(489.162841796875px, 349.608642578125px) rotate(5deg) translate(-489.162841796875px, -349.608642578125px);}25%{-webkit-transform: translate(489.162841796875px, 349.608642578125px) rotate(0deg) translate(-489.162841796875px, -349.608642578125px);transform: translate(489.162841796875px, 349.608642578125px) rotate(0deg) translate(-489.162841796875px, -349.608642578125px);}50%{-webkit-transform: translate(489.162841796875px, 349.608642578125px) rotate(5deg) translate(-489.162841796875px, -349.608642578125px);transform: translate(489.162841796875px, 349.608642578125px) rotate(5deg) translate(-489.162841796875px, -349.608642578125px);}75%{-webkit-transform: translate(489.162841796875px, 349.608642578125px) rotate(0deg) translate(-489.162841796875px, -349.608642578125px);transform: translate(489.162841796875px, 349.608642578125px) rotate(0deg) translate(-489.162841796875px, -349.608642578125px);}100%{-webkit-transform: translate(489.162841796875px, 349.608642578125px) rotate(5deg) translate(-489.162841796875px, -349.608642578125px);transform: translate(489.162841796875px, 349.608642578125px) rotate(5deg) translate(-489.162841796875px, -349.608642578125px);}}@-webkit-keyframes kf_el_VAwl2tV9VIa_an_iaUMfvEuX{0%{-webkit-transform: translate(494.17987060546875px, 469.9490661621094px) rotate(7deg) translate(-494.17987060546875px, -469.9490661621094px);transform: translate(494.17987060546875px, 469.9490661621094px) rotate(7deg) translate(-494.17987060546875px, -469.9490661621094px);}25%{-webkit-transform: translate(494.17987060546875px, 469.9490661621094px) rotate(0deg) translate(-494.17987060546875px, -469.9490661621094px);transform: translate(494.17987060546875px, 469.9490661621094px) rotate(0deg) translate(-494.17987060546875px, -469.9490661621094px);}50%{-webkit-transform: translate(494.17987060546875px, 469.9490661621094px) rotate(7deg) translate(-494.17987060546875px, -469.9490661621094px);transform: translate(494.17987060546875px, 469.9490661621094px) rotate(7deg) translate(-494.17987060546875px, -469.9490661621094px);}75%{-webkit-transform: translate(494.17987060546875px, 469.9490661621094px) rotate(0deg) translate(-494.17987060546875px, -469.9490661621094px);transform: translate(494.17987060546875px, 469.9490661621094px) rotate(0deg) translate(-494.17987060546875px, -469.9490661621094px);}100%{-webkit-transform: translate(494.17987060546875px, 469.9490661621094px) rotate(7deg) translate(-494.17987060546875px, -469.9490661621094px);transform: translate(494.17987060546875px, 469.9490661621094px) rotate(7deg) translate(-494.17987060546875px, -469.9490661621094px);}}@keyframes kf_el_VAwl2tV9VIa_an_iaUMfvEuX{0%{-webkit-transform: translate(494.17987060546875px, 469.9490661621094px) rotate(7deg) translate(-494.17987060546875px, -469.9490661621094px);transform: translate(494.17987060546875px, 469.9490661621094px) rotate(7deg) translate(-494.17987060546875px, -469.9490661621094px);}25%{-webkit-transform: translate(494.17987060546875px, 469.9490661621094px) rotate(0deg) translate(-494.17987060546875px, -469.9490661621094px);transform: translate(494.17987060546875px, 469.9490661621094px) rotate(0deg) translate(-494.17987060546875px, -469.9490661621094px);}50%{-webkit-transform: translate(494.17987060546875px, 469.9490661621094px) rotate(7deg) translate(-494.17987060546875px, -469.9490661621094px);transform: translate(494.17987060546875px, 469.9490661621094px) rotate(7deg) translate(-494.17987060546875px, -469.9490661621094px);}75%{-webkit-transform: translate(494.17987060546875px, 469.9490661621094px) rotate(0deg) translate(-494.17987060546875px, -469.9490661621094px);transform: translate(494.17987060546875px, 469.9490661621094px) rotate(0deg) translate(-494.17987060546875px, -469.9490661621094px);}100%{-webkit-transform: translate(494.17987060546875px, 469.9490661621094px) rotate(7deg) translate(-494.17987060546875px, -469.9490661621094px);transform: translate(494.17987060546875px, 469.9490661621094px) rotate(7deg) translate(-494.17987060546875px, -469.9490661621094px);}}@-webkit-keyframes kf_el_BWTh2X4kiuk_an_ay3NMvDmm{0%{-webkit-transform: translate(477.1802673339844px, 535.180908203125px) rotate(10deg) translate(-477.1802673339844px, -535.180908203125px);transform: translate(477.1802673339844px, 535.180908203125px) rotate(10deg) translate(-477.1802673339844px, -535.180908203125px);}25%{-webkit-transform: translate(477.1802673339844px, 535.180908203125px) rotate(0deg) translate(-477.1802673339844px, -535.180908203125px);transform: translate(477.1802673339844px, 535.180908203125px) rotate(0deg) translate(-477.1802673339844px, -535.180908203125px);}50%{-webkit-transform: translate(477.1802673339844px, 535.180908203125px) rotate(10deg) translate(-477.1802673339844px, -535.180908203125px);transform: translate(477.1802673339844px, 535.180908203125px) rotate(10deg) translate(-477.1802673339844px, -535.180908203125px);}75%{-webkit-transform: translate(477.1802673339844px, 535.180908203125px) rotate(0deg) translate(-477.1802673339844px, -535.180908203125px);transform: translate(477.1802673339844px, 535.180908203125px) rotate(0deg) translate(-477.1802673339844px, -535.180908203125px);}100%{-webkit-transform: translate(477.1802673339844px, 535.180908203125px) rotate(10deg) translate(-477.1802673339844px, -535.180908203125px);transform: translate(477.1802673339844px, 535.180908203125px) rotate(10deg) translate(-477.1802673339844px, -535.180908203125px);}}@keyframes kf_el_BWTh2X4kiuk_an_ay3NMvDmm{0%{-webkit-transform: translate(477.1802673339844px, 535.180908203125px) rotate(10deg) translate(-477.1802673339844px, -535.180908203125px);transform: translate(477.1802673339844px, 535.180908203125px) rotate(10deg) translate(-477.1802673339844px, -535.180908203125px);}25%{-webkit-transform: translate(477.1802673339844px, 535.180908203125px) rotate(0deg) translate(-477.1802673339844px, -535.180908203125px);transform: translate(477.1802673339844px, 535.180908203125px) rotate(0deg) translate(-477.1802673339844px, -535.180908203125px);}50%{-webkit-transform: translate(477.1802673339844px, 535.180908203125px) rotate(10deg) translate(-477.1802673339844px, -535.180908203125px);transform: translate(477.1802673339844px, 535.180908203125px) rotate(10deg) translate(-477.1802673339844px, -535.180908203125px);}75%{-webkit-transform: translate(477.1802673339844px, 535.180908203125px) rotate(0deg) translate(-477.1802673339844px, -535.180908203125px);transform: translate(477.1802673339844px, 535.180908203125px) rotate(0deg) translate(-477.1802673339844px, -535.180908203125px);}100%{-webkit-transform: translate(477.1802673339844px, 535.180908203125px) rotate(10deg) translate(-477.1802673339844px, -535.180908203125px);transform: translate(477.1802673339844px, 535.180908203125px) rotate(10deg) translate(-477.1802673339844px, -535.180908203125px);}}@-webkit-keyframes kf_el_tVB0TrQOxN_an_aFppUWvg1{0%{-webkit-transform: translate(659.473876953125px, 414.33953857421875px) rotate(0deg) translate(-659.473876953125px, -414.33953857421875px);transform: translate(659.473876953125px, 414.33953857421875px) rotate(0deg) translate(-659.473876953125px, -414.33953857421875px);}25%{-webkit-transform: translate(659.473876953125px, 414.33953857421875px) rotate(5deg) translate(-659.473876953125px, -414.33953857421875px);transform: translate(659.473876953125px, 414.33953857421875px) rotate(5deg) translate(-659.473876953125px, -414.33953857421875px);}50%{-webkit-transform: translate(659.473876953125px, 414.33953857421875px) rotate(0deg) translate(-659.473876953125px, -414.33953857421875px);transform: translate(659.473876953125px, 414.33953857421875px) rotate(0deg) translate(-659.473876953125px, -414.33953857421875px);}75%{-webkit-transform: translate(659.473876953125px, 414.33953857421875px) rotate(5deg) translate(-659.473876953125px, -414.33953857421875px);transform: translate(659.473876953125px, 414.33953857421875px) rotate(5deg) translate(-659.473876953125px, -414.33953857421875px);}100%{-webkit-transform: translate(659.473876953125px, 414.33953857421875px) rotate(0deg) translate(-659.473876953125px, -414.33953857421875px);transform: translate(659.473876953125px, 414.33953857421875px) rotate(0deg) translate(-659.473876953125px, -414.33953857421875px);}}@keyframes kf_el_tVB0TrQOxN_an_aFppUWvg1{0%{-webkit-transform: translate(659.473876953125px, 414.33953857421875px) rotate(0deg) translate(-659.473876953125px, -414.33953857421875px);transform: translate(659.473876953125px, 414.33953857421875px) rotate(0deg) translate(-659.473876953125px, -414.33953857421875px);}25%{-webkit-transform: translate(659.473876953125px, 414.33953857421875px) rotate(5deg) translate(-659.473876953125px, -414.33953857421875px);transform: translate(659.473876953125px, 414.33953857421875px) rotate(5deg) translate(-659.473876953125px, -414.33953857421875px);}50%{-webkit-transform: translate(659.473876953125px, 414.33953857421875px) rotate(0deg) translate(-659.473876953125px, -414.33953857421875px);transform: translate(659.473876953125px, 414.33953857421875px) rotate(0deg) translate(-659.473876953125px, -414.33953857421875px);}75%{-webkit-transform: translate(659.473876953125px, 414.33953857421875px) rotate(5deg) translate(-659.473876953125px, -414.33953857421875px);transform: translate(659.473876953125px, 414.33953857421875px) rotate(5deg) translate(-659.473876953125px, -414.33953857421875px);}100%{-webkit-transform: translate(659.473876953125px, 414.33953857421875px) rotate(0deg) translate(-659.473876953125px, -414.33953857421875px);transform: translate(659.473876953125px, 414.33953857421875px) rotate(0deg) translate(-659.473876953125px, -414.33953857421875px);}}@-webkit-keyframes kf_el_OoNEdnggXw_an_mKYpwi7LY{0%{-webkit-transform: translate(769.4305419921875px, 495.19122314453125px) rotate(0deg) translate(-769.4305419921875px, -495.19122314453125px);transform: translate(769.4305419921875px, 495.19122314453125px) rotate(0deg) translate(-769.4305419921875px, -495.19122314453125px);}25%{-webkit-transform: translate(769.4305419921875px, 495.19122314453125px) rotate(10deg) translate(-769.4305419921875px, -495.19122314453125px);transform: translate(769.4305419921875px, 495.19122314453125px) rotate(10deg) translate(-769.4305419921875px, -495.19122314453125px);}50%{-webkit-transform: translate(769.4305419921875px, 495.19122314453125px) rotate(0deg) translate(-769.4305419921875px, -495.19122314453125px);transform: translate(769.4305419921875px, 495.19122314453125px) rotate(0deg) translate(-769.4305419921875px, -495.19122314453125px);}75%{-webkit-transform: translate(769.4305419921875px, 495.19122314453125px) rotate(10deg) translate(-769.4305419921875px, -495.19122314453125px);transform: translate(769.4305419921875px, 495.19122314453125px) rotate(10deg) translate(-769.4305419921875px, -495.19122314453125px);}100%{-webkit-transform: translate(769.4305419921875px, 495.19122314453125px) rotate(0deg) translate(-769.4305419921875px, -495.19122314453125px);transform: translate(769.4305419921875px, 495.19122314453125px) rotate(0deg) translate(-769.4305419921875px, -495.19122314453125px);}}@keyframes kf_el_OoNEdnggXw_an_mKYpwi7LY{0%{-webkit-transform: translate(769.4305419921875px, 495.19122314453125px) rotate(0deg) translate(-769.4305419921875px, -495.19122314453125px);transform: translate(769.4305419921875px, 495.19122314453125px) rotate(0deg) translate(-769.4305419921875px, -495.19122314453125px);}25%{-webkit-transform: translate(769.4305419921875px, 495.19122314453125px) rotate(10deg) translate(-769.4305419921875px, -495.19122314453125px);transform: translate(769.4305419921875px, 495.19122314453125px) rotate(10deg) translate(-769.4305419921875px, -495.19122314453125px);}50%{-webkit-transform: translate(769.4305419921875px, 495.19122314453125px) rotate(0deg) translate(-769.4305419921875px, -495.19122314453125px);transform: translate(769.4305419921875px, 495.19122314453125px) rotate(0deg) translate(-769.4305419921875px, -495.19122314453125px);}75%{-webkit-transform: translate(769.4305419921875px, 495.19122314453125px) rotate(10deg) translate(-769.4305419921875px, -495.19122314453125px);transform: translate(769.4305419921875px, 495.19122314453125px) rotate(10deg) translate(-769.4305419921875px, -495.19122314453125px);}100%{-webkit-transform: translate(769.4305419921875px, 495.19122314453125px) rotate(0deg) translate(-769.4305419921875px, -495.19122314453125px);transform: translate(769.4305419921875px, 495.19122314453125px) rotate(0deg) translate(-769.4305419921875px, -495.19122314453125px);}}@-webkit-keyframes kf_el_NAzM4MxKo-_an_FKb3YCVoY{0%{-webkit-transform: translate(760.4258422851562px, 532.5332641601562px) rotate(0deg) translate(-760.4258422851562px, -532.5332641601562px);transform: translate(760.4258422851562px, 532.5332641601562px) rotate(0deg) translate(-760.4258422851562px, -532.5332641601562px);}25%{-webkit-transform: translate(760.4258422851562px, 532.5332641601562px) rotate(20deg) translate(-760.4258422851562px, -532.5332641601562px);transform: translate(760.4258422851562px, 532.5332641601562px) rotate(20deg) translate(-760.4258422851562px, -532.5332641601562px);}50%{-webkit-transform: translate(760.4258422851562px, 532.5332641601562px) rotate(0deg) translate(-760.4258422851562px, -532.5332641601562px);transform: translate(760.4258422851562px, 532.5332641601562px) rotate(0deg) translate(-760.4258422851562px, -532.5332641601562px);}100%{-webkit-transform: translate(760.4258422851562px, 532.5332641601562px) rotate(0deg) translate(-760.4258422851562px, -532.5332641601562px);transform: translate(760.4258422851562px, 532.5332641601562px) rotate(0deg) translate(-760.4258422851562px, -532.5332641601562px);}}@keyframes kf_el_NAzM4MxKo-_an_FKb3YCVoY{0%{-webkit-transform: translate(760.4258422851562px, 532.5332641601562px) rotate(0deg) translate(-760.4258422851562px, -532.5332641601562px);transform: translate(760.4258422851562px, 532.5332641601562px) rotate(0deg) translate(-760.4258422851562px, -532.5332641601562px);}25%{-webkit-transform: translate(760.4258422851562px, 532.5332641601562px) rotate(20deg) translate(-760.4258422851562px, -532.5332641601562px);transform: translate(760.4258422851562px, 532.5332641601562px) rotate(20deg) translate(-760.4258422851562px, -532.5332641601562px);}50%{-webkit-transform: translate(760.4258422851562px, 532.5332641601562px) rotate(0deg) translate(-760.4258422851562px, -532.5332641601562px);transform: translate(760.4258422851562px, 532.5332641601562px) rotate(0deg) translate(-760.4258422851562px, -532.5332641601562px);}100%{-webkit-transform: translate(760.4258422851562px, 532.5332641601562px) rotate(0deg) translate(-760.4258422851562px, -532.5332641601562px);transform: translate(760.4258422851562px, 532.5332641601562px) rotate(0deg) translate(-760.4258422851562px, -532.5332641601562px);}}#el_HIsZoHQ82 *{-webkit-animation-duration: 2s;animation-duration: 2s;-webkit-animation-iteration-count: 1;animation-iteration-count: 1;-webkit-animation-timing-function: cubic-bezier(0, 0, 1, 1);animation-timing-function: cubic-bezier(0, 0, 1, 1);}#el_9mryV7GB0I{fill: #4c3f39;}#el_E2j2JDADl6{fill: #0f1726;}#el_8KlqktYBTZ{fill: #0f1726;}#el_tohuCaOTuM{fill: #4c3f39;}#el_cUQP6LZzm8{fill: #4c3f39;}#el_lr5Fg11HCM{fill: #4c3f39;}#el_7jIT3Ywwo8{fill: #0f1726;}#el_ellnLRz5-y{fill: #0f1726;}#el_6we0sX_iHi{fill: #0f1726;}#el_REW0UusF8P{fill: #977e71;}#el_dZ5pqpMgRre{fill: none;stroke: #aa85aa;stroke-miterlimit: 10;stroke-width: 3px;}#el_09bi4ssnDx4{fill: #725e56;}#el_IWFtV0PreTv{fill: #ffff72;}#el_AaEWwURcFVC{fill: #130000;}#el_Txsil3JPtcQ{fill: #66544c;}#el_OAAld51WQZV{fill: #0f1726;}#el_n_YoiMtBW3T{fill: #0f1726;}#el_-gEuk23Tj2N{fill: #0f1726;}#el_tAm85ViM9VQ{fill: #66544c;}#el_47vWqu-Aex3{fill: #66544c;}#el_PU_1XAycGZ1{fill: #66544c;}#el_Oo5iJasKaL5{fill: #0f1726;}#el_hCi6QPUqoPc{fill: #0f1726;}#el_nJqIj9WyPNd{fill: #0f1726;}#el_NAzM4MxKo-_an_FKb3YCVoY{-webkit-animation-fill-mode: backwards;animation-fill-mode: backwards;-webkit-transform: translate(760.4258422851562px, 532.5332641601562px) rotate(0deg) translate(-760.4258422851562px, -532.5332641601562px);transform: translate(760.4258422851562px, 532.5332641601562px) rotate(0deg) translate(-760.4258422851562px, -532.5332641601562px);-webkit-animation-name: kf_el_NAzM4MxKo-_an_FKb3YCVoY;animation-name: kf_el_NAzM4MxKo-_an_FKb3YCVoY;-webkit-animation-timing-function: cubic-bezier(0, 0, 1, 1);animation-timing-function: cubic-bezier(0, 0, 1, 1);}#el_OoNEdnggXw_an_mKYpwi7LY{-webkit-animation-fill-mode: backwards;animation-fill-mode: backwards;-webkit-transform: translate(769.4305419921875px, 495.19122314453125px) rotate(0deg) translate(-769.4305419921875px, -495.19122314453125px);transform: translate(769.4305419921875px, 495.19122314453125px) rotate(0deg) translate(-769.4305419921875px, -495.19122314453125px);-webkit-animation-name: kf_el_OoNEdnggXw_an_mKYpwi7LY;animation-name: kf_el_OoNEdnggXw_an_mKYpwi7LY;-webkit-animation-timing-function: cubic-bezier(0, 0, 1, 1);animation-timing-function: cubic-bezier(0, 0, 1, 1);}#el_tVB0TrQOxN_an_aFppUWvg1{-webkit-animation-fill-mode: backwards;animation-fill-mode: backwards;-webkit-transform: translate(659.473876953125px, 414.33953857421875px) rotate(0deg) translate(-659.473876953125px, -414.33953857421875px);transform: translate(659.473876953125px, 414.33953857421875px) rotate(0deg) translate(-659.473876953125px, -414.33953857421875px);-webkit-animation-name: kf_el_tVB0TrQOxN_an_aFppUWvg1;animation-name: kf_el_tVB0TrQOxN_an_aFppUWvg1;-webkit-animation-timing-function: cubic-bezier(0, 0, 1, 1);animation-timing-function: cubic-bezier(0, 0, 1, 1);}#el_BWTh2X4kiuk_an_ay3NMvDmm{-webkit-animation-fill-mode: backwards;animation-fill-mode: backwards;-webkit-transform: translate(477.1802673339844px, 535.180908203125px) rotate(10deg) translate(-477.1802673339844px, -535.180908203125px);transform: translate(477.1802673339844px, 535.180908203125px) rotate(10deg) translate(-477.1802673339844px, -535.180908203125px);-webkit-animation-name: kf_el_BWTh2X4kiuk_an_ay3NMvDmm;animation-name: kf_el_BWTh2X4kiuk_an_ay3NMvDmm;-webkit-animation-timing-function: cubic-bezier(0, 0, 1, 1);animation-timing-function: cubic-bezier(0, 0, 1, 1);}#el_VAwl2tV9VIa_an_iaUMfvEuX{-webkit-animation-fill-mode: backwards;animation-fill-mode: backwards;-webkit-transform: translate(494.17987060546875px, 469.9490661621094px) rotate(7deg) translate(-494.17987060546875px, -469.9490661621094px);transform: translate(494.17987060546875px, 469.9490661621094px) rotate(7deg) translate(-494.17987060546875px, -469.9490661621094px);-webkit-animation-name: kf_el_VAwl2tV9VIa_an_iaUMfvEuX;animation-name: kf_el_VAwl2tV9VIa_an_iaUMfvEuX;-webkit-animation-timing-function: cubic-bezier(0, 0, 1, 1);animation-timing-function: cubic-bezier(0, 0, 1, 1);}#el_Bi5o-Qcm3lP_an_7brKSxrzR{-webkit-animation-fill-mode: backwards;animation-fill-mode: backwards;-webkit-transform: translate(489.162841796875px, 349.608642578125px) rotate(5deg) translate(-489.162841796875px, -349.608642578125px);transform: translate(489.162841796875px, 349.608642578125px) rotate(5deg) translate(-489.162841796875px, -349.608642578125px);-webkit-animation-name: kf_el_Bi5o-Qcm3lP_an_7brKSxrzR;animation-name: kf_el_Bi5o-Qcm3lP_an_7brKSxrzR;-webkit-animation-timing-function: cubic-bezier(0, 0, 1, 1);animation-timing-function: cubic-bezier(0, 0, 1, 1);}</style><defs/><title></title><g id="el_NAzM4MxKo-_an_FKb3YCVoY" data-animator-group="true" data-animator-type="1"><g id="el_NAzM4MxKo-"><path d="M762.7,563.1c-9.1-5.4-12.7-16.8-20.7-23.7a10.5,10.5,0,0,0-3.5-2.1c-3.7-1-7.5,1.7-9.2,5.1s-1.8,10.1.2,14.8,5,8.8,8.2,12.8c5.3,6.8,10.8,13.7,18.1,18.3a12.9,12.9,0,0,0-8.3,3.2l9.8,14a11.1,11.1,0,0,0,2.9,3.2c1.6,1,3.6,1,5.5,1.1,9.5.2,19.3.4,28.3-2.5s17.6-9.5,20.1-18.8-1.5-18.4-9.1-22.9-13.7-1.5-21.1,1.2S769.2,567,762.7,563.1Z" id="el_9mryV7GB0I"/><path d="M730,532.7c-4.3-.7-8.7.9-12.5,3s-7.1,4.6-9.3,8.1-3,8.2-1.2,11.9c4-1.9,3.8-9.1,8.1-9.7,1.5-.2,2.9.6,4.2,1.3l8.9,5a7.2,7.2,0,0,0,3.7,1.3,5.2,5.2,0,0,0,3.3-1.4C742.5,546.5,739,534.2,730,532.7Z" id="el_E2j2JDADl6"/><path d="M753.2,591.9c-1.8-2.4-5.7-2.5-8.2-.8s-4,4.5-4.8,7.4a14.5,14.5,0,0,0-.2,8,7.2,7.2,0,0,0,5.6,5.2c-.7-2.4.9-5,3.2-6.2a13,13,0,0,1,7.3-1.1,3.4,3.4,0,0,0,2-.2c1-.6,1-2.1.8-3.3a20.8,20.8,0,0,0-5.4-10.1" id="el_8KlqktYBTZ"/></g></g><g id="el_OoNEdnggXw_an_mKYpwi7LY" data-animator-group="true" data-animator-type="1"><g id="el_OoNEdnggXw"><path d="M777.9,540.4l.7-.4c-2.5-6.9-4.3-13.9-6.8-20.8-1.3-3.8-2.7-7.6-2.3-11.6a13.8,13.8,0,0,1,9.3-11.8,13.6,13.6,0,0,1,14.4,4.2c2.3,2.9,3.3,6.7,4.3,10.3a213.6,213.6,0,0,0,22.4,52.5c3,4.9,6.2,9.8,7.8,15.3a26.1,26.1,0,0,1-3.3,21.6c-4.3,6.1-12,10-19.4,9.1s-13.3-5.5-18.6-10.4-7.6-7.5-9.9-12.3-2.8-10.6-.3-15.3,6.5-6.9,7.5-11.4C785.3,552.7,776.3,547.2,777.9,540.4Z" id="el_tohuCaOTuM"/></g></g><g id="el_tVB0TrQOxN_an_aFppUWvg1" data-animator-group="true" data-animator-type="1"><g id="el_tVB0TrQOxN"><path d="M697,477.8c14.4,5.6,28.6,11.5,42.7,17.9a62.2,62.2,0,0,1,12.9,7.1c7.6,6,12.1,15.2,18.8,22.3,4.1,4.5,9.9,8.4,16,7.4s10.6-7.1,11.8-13.3-.4-12.6-1.8-18.7c-.8-3.3-1.6-6.7-3.8-9.2-5.1-6-14.7-4.7-21.6-8.4s-11-14.5-14.7-23.1c-10.5-24.8-35.3-42.9-62.1-45.3-15.4-1.4-37.6,6.3-35.6,25.5C661.7,460.9,679.7,471,697,477.8Z" id="el_cUQP6LZzm8"/></g></g><g id="el_YEevZ_jbfm"><path d="M436.4,385.4c-14.1.9-26.4,10-35.6,20.6a21,21,0,0,0-3.2,4.6,16.7,16.7,0,0,0-1.2,7,75.1,75.1,0,0,0,1.9,15c2.2,10.7,4.7,21.6,10.4,30.9a51.3,51.3,0,0,0,25.9,20.9,4.4,4.4,0,0,0-1.7-5.7c1.7.1,2.9-2,2.5-3.7s-1.5-3-2.7-4.3l-5.8-5.9a28.4,28.4,0,0,0,4.9,1.7,3.2,3.2,0,0,0,1.7.2,2.9,2.9,0,0,0,1.9-2.1c1-3.3-1.5-6.7-4.4-8.5s-6.4-2.6-9.2-4.5c-5.7-3.9-7.8-11.3-8-18.1s1-13.8.1-20.6a10.4,10.4,0,0,1,.1-4.3c.7-1.9,2.7-2.9,4.6-3.7,11.1-4.9,23.3-8.1,35.4-6.9,7.9.8,16.1,3.5,23.6.8a3.5,3.5,0,0,0,1.8-1,4.7,4.7,0,0,0,1.1-3.4c-.1-8.5-5.8-15.9-11.6-22.1-4.3-4.7-8.7-9.2-13.4-13.5s-21.7-16.2-25.3-4.7c-1.3,3.9.4,9.8,1.1,13.7C431.6,369.5,434.9,385.5,436.4,385.4Z" id="el_lr5Fg11HCM"/><path d="M441.7,485.8a4.5,4.5,0,0,0,1.6-.3,5.2,5.2,0,0,0,1.1-1c1.2-1.6,2.5-3.4,2.3-5.5-1.4.6-2.6,1.7-4.1,2.2s-4,.4-6.1.2-4.5,1.5-2.3,3.4S439.9,485.7,441.7,485.8Z" id="el_7jIT3Ywwo8"/><path d="M437.8,480.2a6.2,6.2,0,0,0,2.9-.9,8.7,8.7,0,0,0,3.4-2.2,3.8,3.8,0,0,0,.7-3.8,5.1,5.1,0,0,1-4.8,2.4,23.1,23.1,0,0,1-2.8-1,3.1,3.1,0,0,0-2.8-.1C431.6,476.2,435.8,480.2,437.8,480.2Z" id="el_ellnLRz5-y"/><path d="M438.3,469.7a6,6,0,0,0,2.2-.6,10.5,10.5,0,0,0,5.2-4.3,7,7,0,0,0,.2-6.6c-.5,1.3-1.4,2.8-2.8,2.8a6.4,6.4,0,0,1-1.9-.8,6.4,6.4,0,0,0-6-.2C430.3,462.5,433,470.2,438.3,469.7Z" id="el_6we0sX_iHi"/></g><g id="el_ndyra_uKUc"><path d="M368,169.6a101.7,101.7,0,0,0-63.8-13.5c-5.5.7-11.3,1.8-16.6,0-2.8-1-5.3-2.8-8.1-3.9a19.4,19.4,0,0,0-15.5.5c-5.2,2.5-9,7.3-14,10.4-10.5,6.5-24.6,4.7-35.1,11.3-3.1,1.9-5.7,4.4-8.6,6.5a36.4,36.4,0,0,1-20.3,6.9c-4.7.1-8.3,5.1-10.1,9.4-2.8,6.9-3.1,15-.1,21.8a22.9,22.9,0,0,0,16.8,13.5,37.5,37.5,0,0,0,8.2.1c12.1-.7,24.2-2.5,36.2-.5s21,6.8,32,7.8c17,1.4,34.4-6.9,50.9-2.5l3.2,1c5.4,1.7,9.9,5.8,14.9,8.3,2.8,1.5,5.7,2.9,7.8,5.3,4.5,4.8,4.8,12.3,8.4,17.8s7.2,7,11.2,10a93.4,93.4,0,0,1,24.2,26.3c-1.2,11.8-2.6,24,2.3,34.8a34.2,34.2,0,0,0,14,15.4c4.4,2.5,7,8.1,10.5,11.8a51.6,51.6,0,0,0,8,7.5,62,62,0,0,0,10.1,5.6,417.4,417.4,0,0,1,42.1,22.9,56.6,56.6,0,0,0,9.3,5.2,57.4,57.4,0,0,0,10.8,2.9,118.3,118.3,0,0,0,15.8,2.6c16.5,1.2,30.2,13.8,44.2,22.6,8.7,5.5,17.2,12.2,21.1,21.7,1.4,3.4,2.2,7,3.8,10.3s4.3,6.3,7.8,7.1,6.6-.7,9.2-2.5,4.9-4.4,7.4-6.5c7-5.7,16.1-8.4,25.1-9.1s18,.5,27,1.7a16,16,0,0,0,9.8-2c2.8-1.4,5.3-3.2,8.2-4.3s7-1.2,10.5-1.2h51.9c4.7,0,9.5,0,14.3.4s12.2,1.7,18.4,2c8.7.4,17.4-1,26.1-.2s17.1,3.6,25.7,5.1a85.7,85.7,0,0,0,23.2,1c17-1.5,34.6,5.7,51.3,9,5.1,1,10.2,2,15.4,2.8s10.2,1.1,15.3,1.6c25.3,2.5,50.2,7.2,75.1,11.8a187.1,187.1,0,0,1,53.3,18.8c16.6,9,31.6,21.3,42.2,36.9,16.2,23.7,21.7,53,34.8,78.5,1.1,2.3,3.1,4.9,5.6,4.1s2.6-3.2,2.8-5.3c1.4-17.5-1.9-35.2-8-51.7s-15.1-31.8-25.1-46.3c-4.4-6.5-8.9-13.4-14.3-19.1-10.1-10.8-24-17.2-36.4-25.3l-10.7-7.1c-22.6-14.6-49.1-21.7-75.1-28.6s-51.1-15.6-76.3-23.7c-22.2-7.2-42.9-12.2-65.3-18.7l-29.7-8.6c-6.1-1.8-12.4-4.6-18.6-6.4-8-2.4-16-4.8-23.9-7.6-26.1-9.3-50.3-23-76.1-33-4.7-1.9-9.6-3.6-13.6-6.7-2.1-1.5-4-2.6-6.2-4-18.6-11.3-37.3-22.8-57.8-29.8-10.8-3.7-21.9-6.1-32.4-10.3s-18.9-9.9-29-13.8l-12.1-4.8c-5-1.9-10-3.8-15.1-5.5-21.4-6.9-44.2-8.4-66.7-7.4-4.1.2-8.2.4-12-.9s-6.7-5-9.2-8.5c-10.5-15.3-15-34.2-25.2-49.7-2.1-3.3-4.4-6.3-6.8-9.4C388.4,182,379.1,176.2,368,169.6Z" id="el_REW0UusF8P"/><path d="M175.8,219.3c4.7-3.4,10.9-3.9,16.7-3.5s11.5,1.9,17.3,2a60.1,60.1,0,0,0,14.6-1.7,160.7,160.7,0,0,0,20.3-5.6c4-1.4,8.1-3,12.4-3.6a59.9,59.9,0,0,1,11.2-.3c8.6.4,17.2.7,25.7-.4s16.9-3.8,23.9-8.7" id="el_dZ5pqpMgRre"/><path d="M255.4,174.4c-.8,4.9-.1,10.4,3.2,14.1s12,5.4,18.3,3.6a19.1,19.1,0,0,0,5.8-2.7,15,15,0,0,0,5.6-13.9,20.5,20.5,0,0,0-7.7-13.3c-2.2-1.9-5-3.5-8-3.4s-4.8,1.1-7.1,2.2C260.6,163.4,256.2,168.8,255.4,174.4Z" id="el_09bi4ssnDx4"/><path d="M263.5,173.7a3.7,3.7,0,0,0-.7,1.2c-.3,1.3.6,2.5,1.7,3.3a10.5,10.5,0,0,0,9.4,1.6,4.6,4.6,0,0,0,3.1-2.5,3.6,3.6,0,0,0-.9-3.4C272.9,170.1,266.7,169.8,263.5,173.7Z" id="el_IWFtV0PreTv"/><path d="M269.9,173.8a1.3,1.3,0,1,0-1.7,1.9,3.1,3.1,0,0,0,1.8.9c1.1.2,2.6-.5,2.5-1.6a2.4,2.4,0,0,0-.9-1.3,2.8,2.8,0,0,0-1.5-.8c-.6,0-1.3.3-1.4.9" id="el_AaEWwURcFVC"/></g><g id="el_BWTh2X4kiuk_an_ay3NMvDmm" data-animator-group="true" data-animator-type="1"><g id="el_BWTh2X4kiuk"><path d="M580.1,598.9a36,36,0,0,1-12.6,3.2c-5.8.6-12.1.3-17.1-2.8s-8.9-10.3-10.7-16.9-2.6-13.5-5.4-19.8c-4.5,7.6-15,10.9-23,7.1-3.2,5.3-2.4,12.4.7,17.7s8.1,9.4,13.4,12.6c-2.7-1.9-5.4-3.7-8.6-4.5s-6.8-.2-8.9,2.2a14.1,14.1,0,0,0-2.2,4,98.3,98.3,0,0,0-4.9,19h10a3.5,3.5,0,0,0,.3-3.3c1.8,3.5-1.7,7.2-2.7,11-1.7,6.6,4.8,12.9,11.5,14.3s13.6,0,20.4.4c8.8.6,17,4.3,25.8,4.9s18.1-1.9,26.9-4.5l21.8-6.4c3.3-1,6.8-2.1,8.7-4.9s.9-9.7.4-14.7c-.7-7.2,1.9-14.3,4.5-21.1l12-32.3c2.1-5.7,4.1-12.5.4-17.2s-7.8-4.4-12.3-4c-11.6,1.2-28.4,12.7-31.9,24.4-1.8,5.9-.6,12.1-3.7,18.3A28.7,28.7,0,0,1,580.1,598.9Z" id="el_Txsil3JPtcQ"/><path d="M500.9,544.2c2,.8,4.2,1.2,6,2.6s3.6,6.2,4,9.9l1.1,9.8c.4,2.7.8,5.6,2.5,7.6a8.4,8.4,0,0,0,5.7,2.6c5.5.4,10.7-3.7,12.5-8.9s.4-11.1-2.5-15.8-7.3-8.2-12-11-12-6.1-18.6-5.8C490.9,535.6,496,542.3,500.9,544.2Z" id="el_OAAld51WQZV"/><path d="M484.6,600.9c-4.5,2.5-8.4,7.4-7.2,12.3.3,1.4,1.3,2.8,2.7,2.8s2-1.1,2.9-2c3.8-3.6,10.1-2.7,14.8-.2,1.8.9,3.6,2,5.6,1.9a6.4,6.4,0,0,0,5-4.1C515.2,595.9,493.7,595.8,484.6,600.9Z" id="el_n_YoiMtBW3T"/><path d="M486,635.5a39.6,39.6,0,0,1,19.1-18.8,10.5,10.5,0,0,1,4.9-1.3c3.8.1,7,4,6.8,7.9C515.8,638.6,493.1,625.3,486,635.5Z" id="el_-gEuk23Tj2N"/></g></g><g id="el_VAwl2tV9VIa_an_iaUMfvEuX" data-animator-group="true" data-animator-type="1"><g id="el_VAwl2tV9VIa"><path d="M509.5,514.2c9.9,8,22.2,12.3,34,17s21.5,9.3,32,14.6,21.7,12.8,23.2,24.4c.8,5.6-.9,11.8,1.9,16.7s9.5,6.8,15,5.4,10.1-5.4,13.9-9.7a74.2,74.2,0,0,0,13.3-20.9c3.2-7.3,4.8-16.6-.6-22.4s-11.3-5.1-16.7-8.1c-7.2-3.9-11-11.7-15.5-18.5-17.5-27-49.7-43.8-81.8-42.7a79.3,79.3,0,0,0-23.7,4.2C484.2,481.3,498.2,505.2,509.5,514.2Z" id="el_tAm85ViM9VQ"/></g></g><g id="el_Bi5o-Qcm3lP_an_7brKSxrzR" data-animator-group="true" data-animator-type="1"><g id="el_Bi5o-Qcm3lP"><path d="M532.9,388.4c-10.6,14.7-24.4,27.4-32.2,43.8-4.1,8.7-6.5,18-8.8,27.3-1.7,7-3.5,14.3-2.4,21.4,1.3,8.8,6.8,16.3,13.1,22.5s16.4,13.5,26.5,16.4,21.3,2.5,30.7-2.3a26.9,26.9,0,0,0,12.1-11.7c4.2-8.7,1.3-20.3-6.4-26.1-1.5-1.1-3.4-2.6-2.7-4.4a4.2,4.2,0,0,1,1.9-1.8l69.5-40.3c6.5-3.8,13.3-7.9,17.4-14.2s5.2-16.5,2.7-24.7-7.7-15.3-13.7-21.4c-12.3-12.5-28.7-21.3-46.2-23a60.5,60.5,0,0,0-36.5,8C545.4,365.3,541.2,377,532.9,388.4Z" id="el_47vWqu-Aex3"/></g></g><g id="el_nsUS_pCzPaD"><path d="M397.7,322a15.9,15.9,0,0,1,24.8-19.1c2.9,2.7,4.7,6.4,6.2,10,5.9,14.7,8,30.6,12,45.9s10.3,31.7,13.2,48.1c.8,4.9.9,10.9-3.3,13.6a12.6,12.6,0,0,1-4.5,1.5c-16.7,3.5-33.6,6.9-50.5,5.6-4.8-.4-9.6-1.2-14.4-1,1.5,8.1.3,15.4,3.4,22.9s8.2,14.5,15.3,18.6c2.8,1.6,5.9,2.8,8.4,4.9s3.9,5.9,2.3,8.8-5.3,3.5-8.3,2.6-5.4-3.2-7.7-5.3l-18.2-17.4,6.1,10.5a30.3,30.3,0,0,0,4.8,6.5c4.8,4.4,13,6.2,14.2,12.6a8.6,8.6,0,0,0-4.1,5.7,12.3,12.3,0,0,0-3.8-3.4c-1.6-.6-3.7-.3-4.5,1.2s-.5,2.3-1.1,3.3-5.1,1.2-7.4-.4a69.4,69.4,0,0,1-23-27.9,40,40,0,0,1-3.6-11.6,56.7,56.7,0,0,1,.1-10.9c.7-10.5,1.4-21.1,5.1-31a10.8,10.8,0,0,1,3.2-4.9c1.4-1.1,3.3-1.4,5.1-1.7,13.4-2.3,26.7-4.5,40.1-6.4,3.8-.6,7.8-1.3,10.4-4,4.1-4.3,2.7-11.4-.3-16.5s-7.4-9.5-9-15.2.4-13.3-1.8-19.5c-1.7-4.6-5.4-8-8.1-12S394.7,325.8,397.7,322Z" id="el_PU_1XAycGZ1"/><path d="M415.3,482.7c2.5,3,5.8,5.5,9.6,5.8a12,12,0,0,1,3.3.2,2.5,2.5,0,0,1,2,2.4,2.9,2.9,0,0,1-1.8,2.1,12.9,12.9,0,0,1-10.2.9,34.9,34.9,0,0,1-3.4-1.5l-6.6-3.4a11.2,11.2,0,0,1-2.9-1.9,5.9,5.9,0,0,1-1-6.7c.9-1.7,3.7-4.1,5.8-3.6S414.1,481.2,415.3,482.7Z" id="el_Oo5iJasKaL5"/><path d="M405.6,505.2a7,7,0,0,0,3.2.6,13,13,0,0,0,5.3-1.6,3.2,3.2,0,0,0,1.3-1,1.1,1.1,0,0,0-.1-1.4c-.2-.2-.5-.2-.8-.3-3-.3-6.3-.5-8.4-2.6s-2.3-4.5-4-6.4a5,5,0,0,0-2.5-1.5c-4-.4-2,5.5-1.2,7.3A13.2,13.2,0,0,0,405.6,505.2Z" id="el_hCi6QPUqoPc"/><path d="M391.4,503.8a14.3,14.3,0,0,0,8.5,3.5,8.4,8.4,0,0,0,7.8-4.3,19.5,19.5,0,0,1-6.7-1.7,9,9,0,0,1-4.8-4.8,24.9,24.9,0,0,0-1.1-2.9,5.1,5.1,0,0,0-5.8-2.6C381.5,493.4,388.2,501.1,391.4,503.8Z" id="el_nJqIj9WyPNd"/></g></svg>