<svg xmlns="http://www.w3.org/2000/svg" viewBox="0 0 1215 1250" id="el_QtWbzcDub"><style>@-webkit-keyframes kf_el_j8bo00LQ9h_an_Cshkz9Cqy{0%{-webkit-transform: translate(327.8000183105469px, 625.0711059570312px) rotate(-2deg) translate(-327.8000183105469px, -625.0711059570312px);transform: translate(327.8000183105469px, 625.0711059570312px) rotate(-2deg) translate(-327.8000183105469px, -625.0711059570312px);}13.33%{-webkit-transform: translate(327.8000183105469px, 625.0711059570312px) rotate(-8deg) translate(-327.8000183105469px, -625.0711059570312px);transform: translate(327.8000183105469px, 625.0711059570312px) rotate(-8deg) translate(-327.8000183105469px, -625.0711059570312px);}36.67%{-webkit-transform: translate(327.8000183105469px, 625.0711059570312px) rotate(-2deg) translate(-327.8000183105469px, -625.0711059570312px);transform: translate(327.8000183105469px, 625.0711059570312px) rotate(-2deg) translate(-327.8000183105469px, -625.0711059570312px);}58.89%{-webkit-transform: translate(327.8000183105469px, 625.0711059570312px) rotate(-8deg) translate(-327.8000183105469px, -625.0711059570312px);transform: translate(327.8000183105469px, 625.0711059570312px) rotate(-8deg) translate(-327.8000183105469px, -625.0711059570312px);}82.22%{-webkit-transform: translate(327.8000183105469px, 625.0711059570312px) rotate(-2deg) translate(-327.8000183105469px, -625.0711059570312px);transform: translate(327.8000183105469px, 625.0711059570312px) rotate(-2deg) translate(-327.8000183105469px, -625.0711059570312px);}100%{-webkit-transform: translate(327.8000183105469px, 625.0711059570312px) rotate(-2deg) translate(-327.8000183105469px, -625.0711059570312px);transform: translate(327.8000183105469px, 625.0711059570312px) rotate(-2deg) translate(-327.8000183105469px, -625.0711059570312px);}}@keyframes kf_el_j8bo00LQ9h_an_Cshkz9Cqy{0%{-webkit-transform: translate(327.8000183105469px, 625.0711059570312px) rotate(-2deg) translate(-327.8000183105469px, -625.0711059570312px);transform: translate(327.8000183105469px, 625.0711059570312px) rotate(-2deg) translate(-327.8000183105469px, -625.0711059570312px);}13.33%{-webkit-transform: translate(327.8000183105469px, 625.0711059570312px) rotate(-8deg) translate(-327.8000183105469px, -625.0711059570312px);transform: translate(327.8000183105469px, 625.0711059570312px) rotate(-8deg) translate(-327.8000183105469px, -625.0711059570312px);}36.67%{-webkit-transform: translate(327.8000183105469px, 625.0711059570312px) rotate(-2deg) translate(-327.8000183105469px, -625.0711059570312px);transform: translate(327.8000183105469px, 625.0711059570312px) rotate(-2deg) translate(-327.8000183105469px, -625.0711059570312px);}58.89%{-webkit-transform: translate(327.8000183105469px, 625.0711059570312px) rotate(-8deg) translate(-327.8000183105469px, -625.0711059570312px);transform: translate(327.8000183105469px, 625.0711059570312px) rotate(-8deg) translate(-327.8000183105469px, -625.0711059570312px);}82.22%{-webkit-transform: translate(327.8000183105469px, 625.0711059570312px) rotate(-2deg) translate(-327.8000183105469px, -625.0711059570312px);transform: translate(327.8000183105469px, 625.0711059570312px) rotate(-2deg) translate(-327.8000183105469px, -625.0711059570312px);}100%{-webkit-transform: translate(327.8000183105469px, 625.0711059570312px) rotate(-2deg) translate(-327.8000183105469px, -625.0711059570312px);transform: translate(327.8000183105469px, 625.0711059570312px) rotate(-2deg) translate(-327.8000183105469px, -625.0711059570312px);}}@-webkit-keyframes kf_el__VlL9DwAcg_an_DTB1ahudi{0%{-webkit-transform: translate(773.8500671386719px, 589.7000141143799px) translate(-773.8500671386719px, -589.7000141143799px) translate(0px, 40px);transform: translate(773.8500671386719px, 589.7000141143799px) translate(-773.8500671386719px, -589.7000141143799px) translate(0px, 40px);}100%{-webkit-transform: translate(773.8500671386719px, 589.7000141143799px) translate(-773.8500671386719px, -589.7000141143799px) translate(0px, 40px);transform: translate(773.8500671386719px, 589.7000141143799px) translate(-773.8500671386719px, -589.7000141143799px) translate(0px, 40px);}}@keyframes kf_el__VlL9DwAcg_an_DTB1ahudi{0%{-webkit-transform: translate(773.8500671386719px, 589.7000141143799px) translate(-773.8500671386719px, -589.7000141143799px) translate(0px, 40px);transform: translate(773.8500671386719px, 589.7000141143799px) translate(-773.8500671386719px, -589.7000141143799px) translate(0px, 40px);}100%{-webkit-transform: translate(773.8500671386719px, 589.7000141143799px) translate(-773.8500671386719px, -589.7000141143799px) translate(0px, 40px);transform: translate(773.8500671386719px, 589.7000141143799px) translate(-773.8500671386719px, -589.7000141143799px) translate(0px, 40px);}}@-webkit-keyframes kf_el__VlL9DwAcg_an_PmrGEAAz_{0%{-webkit-transform: translate(773.8500671386719px, 589.7000141143799px) rotate(2deg) translate(-773.8500671386719px, -589.7000141143799px);transform: translate(773.8500671386719px, 589.7000141143799px) rotate(2deg) translate(-773.8500671386719px, -589.7000141143799px);}13.33%{-webkit-transform: translate(773.8500671386719px, 589.7000141143799px) rotate(8deg) translate(-773.8500671386719px, -589.7000141143799px);transform: translate(773.8500671386719px, 589.7000141143799px) rotate(8deg) translate(-773.8500671386719px, -589.7000141143799px);}36.67%{-webkit-transform: translate(773.8500671386719px, 589.7000141143799px) rotate(2deg) translate(-773.8500671386719px, -589.7000141143799px);transform: translate(773.8500671386719px, 589.7000141143799px) rotate(2deg) translate(-773.8500671386719px, -589.7000141143799px);}58.89%{-webkit-transform: translate(773.8500671386719px, 589.7000141143799px) rotate(8deg) translate(-773.8500671386719px, -589.7000141143799px);transform: translate(773.8500671386719px, 589.7000141143799px) rotate(8deg) translate(-773.8500671386719px, -589.7000141143799px);}82.22%{-webkit-transform: translate(773.8500671386719px, 589.7000141143799px) rotate(2deg) translate(-773.8500671386719px, -589.7000141143799px);transform: translate(773.8500671386719px, 589.7000141143799px) rotate(2deg) translate(-773.8500671386719px, -589.7000141143799px);}100%{-webkit-transform: translate(773.8500671386719px, 589.7000141143799px) rotate(2deg) translate(-773.8500671386719px, -589.7000141143799px);transform: translate(773.8500671386719px, 589.7000141143799px) rotate(2deg) translate(-773.8500671386719px, -589.7000141143799px);}}@keyframes kf_el__VlL9DwAcg_an_PmrGEAAz_{0%{-webkit-transform: translate(773.8500671386719px, 589.7000141143799px) rotate(2deg) translate(-773.8500671386719px, -589.7000141143799px);transform: translate(773.8500671386719px, 589.7000141143799px) rotate(2deg) translate(-773.8500671386719px, -589.7000141143799px);}13.33%{-webkit-transform: translate(773.8500671386719px, 589.7000141143799px) rotate(8deg) translate(-773.8500671386719px, -589.7000141143799px);transform: translate(773.8500671386719px, 589.7000141143799px) rotate(8deg) translate(-773.8500671386719px, -589.7000141143799px);}36.67%{-webkit-transform: translate(773.8500671386719px, 589.7000141143799px) rotate(2deg) translate(-773.8500671386719px, -589.7000141143799px);transform: translate(773.8500671386719px, 589.7000141143799px) rotate(2deg) translate(-773.8500671386719px, -589.7000141143799px);}58.89%{-webkit-transform: translate(773.8500671386719px, 589.7000141143799px) rotate(8deg) translate(-773.8500671386719px, -589.7000141143799px);transform: translate(773.8500671386719px, 589.7000141143799px) rotate(8deg) translate(-773.8500671386719px, -589.7000141143799px);}82.22%{-webkit-transform: translate(773.8500671386719px, 589.7000141143799px) rotate(2deg) translate(-773.8500671386719px, -589.7000141143799px);transform: translate(773.8500671386719px, 589.7000141143799px) rotate(2deg) translate(-773.8500671386719px, -589.7000141143799px);}100%{-webkit-transform: translate(773.8500671386719px, 589.7000141143799px) rotate(2deg) translate(-773.8500671386719px, -589.7000141143799px);transform: translate(773.8500671386719px, 589.7000141143799px) rotate(2deg) translate(-773.8500671386719px, -589.7000141143799px);}}#el_QtWbzcDub *{-webkit-animation-duration: 3s;animation-duration: 3s;-webkit-animation-iteration-count: 1;animation-iteration-count: 1;-webkit-animation-timing-function: cubic-bezier(0, 0, 1, 1);animation-timing-function: cubic-bezier(0, 0, 1, 1);}#el_NEeXdravAj{fill: #c5b177;}#el_f26Oyn-pyc{fill: #a3a082;}#el_6Ze796n2_X{fill: #c5b177;}#el_sjKaKa5AU9{fill: #a3a082;}#el_rs2YzsRN8_{fill: #a3a082;}#el_SMpddDcnNk{fill: #8e7965;}#el_HSdiYzEOQP{fill: #0e0700;}#el_plusn8iqVm{fill: #c2ac98;}#el_h8azhw4-dy{fill: #0e0700;}#el__VlL9DwAcg_an_PmrGEAAz_{-webkit-animation-fill-mode: backwards;animation-fill-mode: backwards;-webkit-transform: translate(773.8500671386719px, 589.7000141143799px) rotate(2deg) translate(-773.8500671386719px, -589.7000141143799px);transform: translate(773.8500671386719px, 589.7000141143799px) rotate(2deg) translate(-773.8500671386719px, -589.7000141143799px);-webkit-animation-name: kf_el__VlL9DwAcg_an_PmrGEAAz_;animation-name: kf_el__VlL9DwAcg_an_PmrGEAAz_;-webkit-animation-timing-function: cubic-bezier(0, 0, 1, 1);animation-timing-function: cubic-bezier(0, 0, 1, 1);}#el__VlL9DwAcg_an_DTB1ahudi{-webkit-animation-fill-mode: backwards;animation-fill-mode: backwards;-webkit-transform: translate(773.8500671386719px, 589.7000141143799px) translate(-773.8500671386719px, -589.7000141143799px) translate(0px, 40px);transform: translate(773.8500671386719px, 589.7000141143799px) translate(-773.8500671386719px, -589.7000141143799px) translate(0px, 40px);-webkit-animation-name: kf_el__VlL9DwAcg_an_DTB1ahudi;animation-name: kf_el__VlL9DwAcg_an_DTB1ahudi;-webkit-animation-timing-function: cubic-bezier(0, 0, 1, 1);animation-timing-function: cubic-bezier(0, 0, 1, 1);}#el_j8bo00LQ9h_an_Cshkz9Cqy{-webkit-animation-fill-mode: backwards;animation-fill-mode: backwards;-webkit-transform: translate(327.8000183105469px, 625.0711059570312px) rotate(-2deg) translate(-327.8000183105469px, -625.0711059570312px);transform: translate(327.8000183105469px, 625.0711059570312px) rotate(-2deg) translate(-327.8000183105469px, -625.0711059570312px);-webkit-animation-name: kf_el_j8bo00LQ9h_an_Cshkz9Cqy;animation-name: kf_el_j8bo00LQ9h_an_Cshkz9Cqy;-webkit-animation-timing-function: cubic-bezier(0, 0, 1, 1);animation-timing-function: cubic-bezier(0, 0, 1, 1);}</style><defs/><title>Artboard 1</title><g id="el_j8bo00LQ9h_an_Cshkz9Cqy" data-animator-group="true" data-animator-type="1"><g id="el_j8bo00LQ9h"><path d="M418.3,639c-20.7,2.4-43.5,6-56.6,22.2a13.7,13.7,0,0,0-3.5,7c-.5,4.1,2.1,7.9,5,10.7,6.5,6.3,15,9.9,23.3,13.4l18.1,7.6c9,3.7,18.2,7.5,27.8,9.3a10.5,10.5,0,0,0,3.5.2,11.3,11.3,0,0,0,4.5-2.3c20.7-15.3,42.2-29.5,64.3-42.8a161.4,161.4,0,0,1-27.7-11,58.1,58.1,0,0,1-14.7-9.8c-3-2.8-.3-8.6-4.3-10C449.1,630.5,427.6,637.9,418.3,639Z" id="el_NEeXdravAj"/><path d="M408.4,630.1a16.2,16.2,0,0,0-5.8.1,17.4,17.4,0,0,0-5,2.7c-17,11.4-39.2,12.7-56.7,23.3a60.8,60.8,0,0,0-13.1,10.7c3.4-1.5,6.9-2.8,10.4-4-3,2.4-6.2,6.4-4.1,9.6A52,52,0,0,1,363,653.9c-4.2,2.6-8.4,5.3-11.3,9.3s-4,9.6-1.6,13.9,5.2,5,8.5,6.7A321.4,321.4,0,0,0,434.7,711c1.8.4,4.3.3,4.6-1.5s-2.1-2.8-4-3a150,150,0,0,1-60.8-21.3c-5.6-3.5-11.7-8.6-11-15.2s5.5-9.4,10.3-12.1c25.5-15,55.5-19.9,84.7-24.5-7.8-6.4-10.7-10.3-20.7-7.3S418.6,631,408.4,630.1Z" id="el_f26Oyn-pyc"/></g></g><g id="el__VlL9DwAcg_an_DTB1ahudi" data-animator-group="true" data-animator-type="0"><g id="el__VlL9DwAcg_an_PmrGEAAz_" data-animator-group="true" data-animator-type="1"><g id="el__VlL9DwAcg"><path d="M758.6,589.7c-17.3-14.6-45.3-12.3-60.8-28.9S687,518.4,695,497.6c2.9-7.6,6.2-15.1,10.8-21.8,6.4-9.3,15-16.6,23.5-24,159.3-137.7,292.7-305.1,463-428.9C1018.2,59.2,875.4,180.8,711.8,250.4c-15.2,6.4-30.6,12.5-45.1,20.4-26,14.2-48.5,34.3-74.9,47.6s-56.1,19.7-81.6,34.8c-28.2,16.8-49.3,43.3-67.1,70.9s-31.9,60.8-20.1,92.4c7.5,20.1,39.3,27.5,56,41-8.4,7-33.7,23.3-42.1,30.3,43.3.3,86.6-.8,130-.5l143.8.8C726.1,588.2,743.6,586.1,758.6,589.7Z" id="el_6Ze796n2_X"/><path d="M439.6,585.5h1.8c19.4,0,37.7-9,55.4-16.7L439,539.3c-4.9-2.4-10.1-5.2-12.8-10-3.7-6.8-2.3-17.2-9.3-20.5-4.9-2.3-10.5.7-14.5,4.3s-7.6,8.1-12.8,9.4a27.6,27.6,0,0,1,2.7-13,115.5,115.5,0,0,1-44.1,18.1,185.8,185.8,0,0,1,16.7-16.5c5.5-4.7,11.6-9.2,18.7-10.5,11.4-2,25.1,4,33.7-3.7-2.5-8.1-.2-16.6,3-24.4l13.2-31.7c6.7-16.2,13.5-32.5,24.1-46.5,6.2-8.1,13.6-15.2,21.3-21.9a341.4,341.4,0,0,1,59.5-41.9c37.2-20.5,70.5-45.9,106.7-68s71.7-42.7,111.8-53.4c58.6-15.5,110.8-53.5,163.2-83.9,10.3-6,20.5-12.1,31.1-17.5,15.8-8.1,32.4-14.6,48.9-21.1l104.1-41c24.7-9.7,51.6-19,76.4-28.7,6.1-2.4,13.2-4.7,18.9-1.4-3.5,7.2-11.4,10.9-18.8,14.1L1052.2,85.2c-12.9,5.6-25.8,11.2-37.8,18.5-18.9,11.5-35.5,27.3-56.3,34.7-15.1,5.4-32.8,6.7-43.7,18.4-28.6,6.3-52.5,24.9-78.3,38.6-31.9,16.9-67.5,26.5-97.5,46.5-48.7,32.6-101.5,64.2-156.4,84.6-27,10-47,28.9-69.3,47.2s-42.2,40-55,65.7c-9.7,19.6-24.5,37.1-21.3,58.7,2.7,18.3,16.8,33.4,33.2,42s35,12.1,53.2,15.5c12.1,2.3,25,5.1,33.1,14.3-20,10.8-42.6,16.4-65.2,18.2A205.1,205.1,0,0,1,439.6,585.5Z" id="el_sjKaKa5AU9"/></g></g></g><g id="el_GoM_PhniWZ"><path d="M423.4,395.6c-3.9,0-6.3,7.1-9,12s-7.5,10.3-27,22c-23.3,14-32.7,16.7-47,25s-24.9,17.7-45,36-21.8,22.8-49,49c-13,12.5-23.4,22.6-36,33-7.8,6.5-19.8,15.8-66,44-63.5,38.7-95.2,58-106,60-2,.4-38,18-38,18s-1,2.9,0,4c2.6,3.1,15-3.8,21-7,15.8-8.3,33.4-13,50-20,43.1-18.1,35.7-13,52-21,10.7-5.3,29.8-15.3,58-28,5.8-2.6,13.4-5.9,14-5s-3.8,4.3-25,19c-17.8,12.3-31,21-31,21-51.1,33.7-41.1,26.5-52,34-2.9,2-19.9,13.7-35,22-7.3,4-10.9,6-14,7a129.5,129.5,0,0,0-15,6s0,3,1,4c3.7,3.9,15.4-1.9,24-6,13.7-6.5,28.3-11.1,42-18,18.3-9.2,13.2-4.9,58-24,50.1-21.3,69-30,69-30,9.8-4.5,20.9-9.6,37-14,11.9-3.2,13.5-2.4,27-6,21.2-5.6,24.1-9.3,39-13,10.3-2.5,20.8-2.6,42-3,22.7-.3,35-.4,51,4,9.8,2.8,17.2,4.9,25,11,10.9,8.7,9.2,14.7,20,23,6.9,5.4,14.6,7.6,30,12a143.5,143.5,0,0,0,29,6c3.8.4,17.4,1.7,37-1,15.8-2.1,27.1-5.7,49-13,27.8-9.1,41.7-13.7,50-19,11.9-7.5,22.4-17,39-18,1.9-.1,5.3,0,12,0,14.1.2,24.2.8,29,1,18.3,1,17.3-.4,44,0,31,.6,42,1,42,1a123.9,123.9,0,0,0,24-1,78.9,78.9,0,0,0,17-4c5.4-1.9,12.3-5,12-6s-7.6.3-12,1c-6.5,1.1-10.9,2.4-11,2s5.9-2.4,14-7a17.6,17.6,0,0,0,7-6c1.5-2.4,2.6-5.5,2-6s-3.1,2.7-8,6c-3.2,2.2-4.4,2.3-10,5-9.4,4.5-8.5,5.4-13,7-8,2.9-16.7,2.5-17,1s4.1-3.2,6-4c3.8-1.5,4.7-.8,8-2a21.3,21.3,0,0,0,10-8c1.6-2.2,3.8-6.1,3-7s-1.4-.1-8,4-7.3,4.8-10,6-9.5,3.2-10,2,2.9-3,8-8a72.9,72.9,0,0,0,12-15c3.7-6.5,5.8-13.6,5-14s-3.8,6.4-11,15-8.6,6.8-19,18c-4.7,5.1-7,8.2-12,10a23.3,23.3,0,0,1-11,1c-10.4-.9-23-2-32-2-3.8,0-22.7.2-27-3a11.7,11.7,0,0,1-3-3c-1.4-1.9-1.1-2.9-2-4s-7-.7-7-1,6.8-2.8,18-4,16.1,0,30,1c20.2,1.5,38.8,1.1,45,1,7.7-.1,12.1-.4,20,0s10.4,1.2,22,2c14.4,1.1,12.7,0,22,1s12.6,2.3,19,1,12.2-4.1,12-6-3.5-2.1-6-2-3.5,1.4-7,2-6,.4-6,0,6.1-.8,14-4c.9-.3,8.8-3.6,13-10,.6-.9,1.4-2.4,1-3s-1.9.4-5,1-3.6.2-5,1-1.6,1.8-3,3-4,1-8,2c-1.7.4-.9.4-7,3a39.1,39.1,0,0,1-9,3c-2.1.4-4.6.9-5,0s1.4-2.8,3-4,5.6-2.4,8-3,5.9-2.5,11-6a69.9,69.9,0,0,0,13-12c1.4-1.6,6.9-7.8,6-9s-1.9.1-5,1l-3,1c-2.4,1.4-2.6,3.6-4,6s-3.4,3.1-8,6c-2.7,1.7-4.8,2.8-9,5a46.9,46.9,0,0,1-9,4c-1.5.5-4.8,1.6-5,1s1.9-1.7,6-5a74.7,74.7,0,0,0,7-6,76.6,76.6,0,0,0,6-7,61.4,61.4,0,0,0,5-7c1.5-2.7,1.2-3.2,3-6s2.1-2.9,3-5c.1-.3,1.8-4.4,1-5s-1.8,1.4-5,3-3.2,1-4,2-.7,3.1-1,5-3,4.3-7,8-4.2,5.7-9,10-4.8,2.6-10,7-6.8,7.5-12,10a26.5,26.5,0,0,1-6,2c-12.5,2.8-29-.1-34-1a203.4,203.4,0,0,0-30-3c-17.8-.2-24.7,2.9-38-1a55.7,55.7,0,0,1-14-6c-31.9-17.6-191-60.5-256-26a170.8,170.8,0,0,1-30,13c-4,1.3-22.3,7-48,8-27.7,1.1-47-3.9-51-5-10.5-2.8-15.7-5.5-26-11s-14.6-9.2-16-14c-.8-2.5-1-5.9,1-12,3.9-11.9,11.3-19.2,19-27,21-21.3,15.3-17.1,25-26,12.5-11.6,14.7-11.8,33-28,0,0,8.8-7.8,21-20,16.3-16.4,16.4-22.9,19-28S425.9,395.6,423.4,395.6Z" id="el_rs2YzsRN8_"/><path d="M269.4,531.6c14.2-4.7,27.1,4.7,29,6s9.8,7.2,12,16c2.9,11.9-4.7,22.1-9,28s-11.7,15.9-26,18c-3.1.5-14.9,2.3-23-5-13.6-12-4.2-37.1-3-40C251.8,548.3,256.7,535.9,269.4,531.6Z" id="el_SMpddDcnNk"/><path d="M242.3,567.6c-.4-.5-2.3.3-4.8,1.3s-4.2,1.8-4.1,2.8,1.1,1.2,2,1.4C239,573.7,242.9,568.4,242.3,567.6Z" id="el_HSdiYzEOQP"/><path d="M258.4,537.6c-1.5.9-10.4,6.2-10,14a10.9,10.9,0,0,0,3,7c4.7,5.4,12.4,4.3,14,4,7.3-1,11.5-6.2,13-8s8.6-10.8,5-17S266.5,532.8,258.4,537.6Z" id="el_plusn8iqVm"/><path d="M258.4,549.6c-.5-2.2,2.8-5.1,6-6a9.2,9.2,0,0,1,7,1c.7.5,3.1,2,3,4s-4.3,3.8-5,4C264.9,553.9,258.9,552.4,258.4,549.6Z" id="el_h8azhw4-dy"/></g></svg>