<svg xmlns="http://www.w3.org/2000/svg" viewBox="0 0 1920 1080" id="el_9qw7YG5ol"><style>@-webkit-keyframes kf_el_VtywmJcXe3_an_3-47p-hT_{0%{-webkit-transform: translate(500px, 749.3999633789062px) rotate(15deg) translate(-500px, -749.3999633789062px);transform: translate(500px, 749.3999633789062px) rotate(15deg) translate(-500px, -749.3999633789062px);}22.22%{-webkit-transform: translate(500px, 749.3999633789062px) rotate(0deg) translate(-500px, -749.3999633789062px);transform: translate(500px, 749.3999633789062px) rotate(0deg) translate(-500px, -749.3999633789062px);}38.89%{-webkit-transform: translate(500px, 749.3999633789062px) rotate(15deg) translate(-500px, -749.3999633789062px);transform: translate(500px, 749.3999633789062px) rotate(15deg) translate(-500px, -749.3999633789062px);}100%{-webkit-transform: translate(500px, 749.3999633789062px) rotate(15deg) translate(-500px, -749.3999633789062px);transform: translate(500px, 749.3999633789062px) rotate(15deg) translate(-500px, -749.3999633789062px);}}@keyframes kf_el_VtywmJcXe3_an_3-47p-hT_{0%{-webkit-transform: translate(500px, 749.3999633789062px) rotate(15deg) translate(-500px, -749.3999633789062px);transform: translate(500px, 749.3999633789062px) rotate(15deg) translate(-500px, -749.3999633789062px);}22.22%{-webkit-transform: translate(500px, 749.3999633789062px) rotate(0deg) translate(-500px, -749.3999633789062px);transform: translate(500px, 749.3999633789062px) rotate(0deg) translate(-500px, -749.3999633789062px);}38.89%{-webkit-transform: translate(500px, 749.3999633789062px) rotate(15deg) translate(-500px, -749.3999633789062px);transform: translate(500px, 749.3999633789062px) rotate(15deg) translate(-500px, -749.3999633789062px);}100%{-webkit-transform: translate(500px, 749.3999633789062px) rotate(15deg) translate(-500px, -749.3999633789062px);transform: translate(500px, 749.3999633789062px) rotate(15deg) translate(-500px, -749.3999633789062px);}}@-webkit-keyframes kf_el_MuYdPeEPQw_an_qMWjZ-VLC{0%{-webkit-transform: translate(521.2278442382812px, 713.5765991210938px) rotate(5deg) translate(-521.2278442382812px, -713.5765991210938px);transform: translate(521.2278442382812px, 713.5765991210938px) rotate(5deg) translate(-521.2278442382812px, -713.5765991210938px);}22.22%{-webkit-transform: translate(521.2278442382812px, 713.5765991210938px) rotate(0deg) translate(-521.2278442382812px, -713.5765991210938px);transform: translate(521.2278442382812px, 713.5765991210938px) rotate(0deg) translate(-521.2278442382812px, -713.5765991210938px);}38.89%{-webkit-transform: translate(521.2278442382812px, 713.5765991210938px) rotate(5deg) translate(-521.2278442382812px, -713.5765991210938px);transform: translate(521.2278442382812px, 713.5765991210938px) rotate(5deg) translate(-521.2278442382812px, -713.5765991210938px);}100%{-webkit-transform: translate(521.2278442382812px, 713.5765991210938px) rotate(5deg) translate(-521.2278442382812px, -713.5765991210938px);transform: translate(521.2278442382812px, 713.5765991210938px) rotate(5deg) translate(-521.2278442382812px, -713.5765991210938px);}}@keyframes kf_el_MuYdPeEPQw_an_qMWjZ-VLC{0%{-webkit-transform: translate(521.2278442382812px, 713.5765991210938px) rotate(5deg) translate(-521.2278442382812px, -713.5765991210938px);transform: translate(521.2278442382812px, 713.5765991210938px) rotate(5deg) translate(-521.2278442382812px, -713.5765991210938px);}22.22%{-webkit-transform: translate(521.2278442382812px, 713.5765991210938px) rotate(0deg) translate(-521.2278442382812px, -713.5765991210938px);transform: translate(521.2278442382812px, 713.5765991210938px) rotate(0deg) translate(-521.2278442382812px, -713.5765991210938px);}38.89%{-webkit-transform: translate(521.2278442382812px, 713.5765991210938px) rotate(5deg) translate(-521.2278442382812px, -713.5765991210938px);transform: translate(521.2278442382812px, 713.5765991210938px) rotate(5deg) translate(-521.2278442382812px, -713.5765991210938px);}100%{-webkit-transform: translate(521.2278442382812px, 713.5765991210938px) rotate(5deg) translate(-521.2278442382812px, -713.5765991210938px);transform: translate(521.2278442382812px, 713.5765991210938px) rotate(5deg) translate(-521.2278442382812px, -713.5765991210938px);}}@-webkit-keyframes kf_el_2nB6GWqBtKY_an_VAn9murkL{0%{-webkit-transform: translate(533.300048828125px, 656.7000122070312px) rotate(0deg) translate(-533.300048828125px, -656.7000122070312px);transform: translate(533.300048828125px, 656.7000122070312px) rotate(0deg) translate(-533.300048828125px, -656.7000122070312px);}22.22%{-webkit-transform: translate(533.300048828125px, 656.7000122070312px) rotate(5deg) translate(-533.300048828125px, -656.7000122070312px);transform: translate(533.300048828125px, 656.7000122070312px) rotate(5deg) translate(-533.300048828125px, -656.7000122070312px);}38.89%{-webkit-transform: translate(533.300048828125px, 656.7000122070312px) rotate(0deg) translate(-533.300048828125px, -656.7000122070312px);transform: translate(533.300048828125px, 656.7000122070312px) rotate(0deg) translate(-533.300048828125px, -656.7000122070312px);}100%{-webkit-transform: translate(533.300048828125px, 656.7000122070312px) rotate(0deg) translate(-533.300048828125px, -656.7000122070312px);transform: translate(533.300048828125px, 656.7000122070312px) rotate(0deg) translate(-533.300048828125px, -656.7000122070312px);}}@keyframes kf_el_2nB6GWqBtKY_an_VAn9murkL{0%{-webkit-transform: translate(533.300048828125px, 656.7000122070312px) rotate(0deg) translate(-533.300048828125px, -656.7000122070312px);transform: translate(533.300048828125px, 656.7000122070312px) rotate(0deg) translate(-533.300048828125px, -656.7000122070312px);}22.22%{-webkit-transform: translate(533.300048828125px, 656.7000122070312px) rotate(5deg) translate(-533.300048828125px, -656.7000122070312px);transform: translate(533.300048828125px, 656.7000122070312px) rotate(5deg) translate(-533.300048828125px, -656.7000122070312px);}38.89%{-webkit-transform: translate(533.300048828125px, 656.7000122070312px) rotate(0deg) translate(-533.300048828125px, -656.7000122070312px);transform: translate(533.300048828125px, 656.7000122070312px) rotate(0deg) translate(-533.300048828125px, -656.7000122070312px);}100%{-webkit-transform: translate(533.300048828125px, 656.7000122070312px) rotate(0deg) translate(-533.300048828125px, -656.7000122070312px);transform: translate(533.300048828125px, 656.7000122070312px) rotate(0deg) translate(-533.300048828125px, -656.7000122070312px);}}@-webkit-keyframes kf_el_G7EcfPb0pd-_an_5C6R7aQTs{0%{-webkit-transform: translate(599.0447387695312px, 729.7340698242188px) rotate(0deg) translate(-599.0447387695312px, -729.7340698242188px);transform: translate(599.0447387695312px, 729.7340698242188px) rotate(0deg) translate(-599.0447387695312px, -729.7340698242188px);}22.22%{-webkit-transform: translate(599.0447387695312px, 729.7340698242188px) rotate(25deg) translate(-599.0447387695312px, -729.7340698242188px);transform: translate(599.0447387695312px, 729.7340698242188px) rotate(25deg) translate(-599.0447387695312px, -729.7340698242188px);}38.89%{-webkit-transform: translate(599.0447387695312px, 729.7340698242188px) rotate(0deg) translate(-599.0447387695312px, -729.7340698242188px);transform: translate(599.0447387695312px, 729.7340698242188px) rotate(0deg) translate(-599.0447387695312px, -729.7340698242188px);}100%{-webkit-transform: translate(599.0447387695312px, 729.7340698242188px) rotate(0deg) translate(-599.0447387695312px, -729.7340698242188px);transform: translate(599.0447387695312px, 729.7340698242188px) rotate(0deg) translate(-599.0447387695312px, -729.7340698242188px);}}@keyframes kf_el_G7EcfPb0pd-_an_5C6R7aQTs{0%{-webkit-transform: translate(599.0447387695312px, 729.7340698242188px) rotate(0deg) translate(-599.0447387695312px, -729.7340698242188px);transform: translate(599.0447387695312px, 729.7340698242188px) rotate(0deg) translate(-599.0447387695312px, -729.7340698242188px);}22.22%{-webkit-transform: translate(599.0447387695312px, 729.7340698242188px) rotate(25deg) translate(-599.0447387695312px, -729.7340698242188px);transform: translate(599.0447387695312px, 729.7340698242188px) rotate(25deg) translate(-599.0447387695312px, -729.7340698242188px);}38.89%{-webkit-transform: translate(599.0447387695312px, 729.7340698242188px) rotate(0deg) translate(-599.0447387695312px, -729.7340698242188px);transform: translate(599.0447387695312px, 729.7340698242188px) rotate(0deg) translate(-599.0447387695312px, -729.7340698242188px);}100%{-webkit-transform: translate(599.0447387695312px, 729.7340698242188px) rotate(0deg) translate(-599.0447387695312px, -729.7340698242188px);transform: translate(599.0447387695312px, 729.7340698242188px) rotate(0deg) translate(-599.0447387695312px, -729.7340698242188px);}}@-webkit-keyframes kf_el_pqJs-04E0j_an_Lq35cr1aL{0%{-webkit-transform: translate(816.42333984375px, 741.9852905273438px) rotate(25deg) translate(-816.42333984375px, -741.9852905273438px);transform: translate(816.42333984375px, 741.9852905273438px) rotate(25deg) translate(-816.42333984375px, -741.9852905273438px);}22.22%{-webkit-transform: translate(816.42333984375px, 741.9852905273438px) rotate(0deg) translate(-816.42333984375px, -741.9852905273438px);transform: translate(816.42333984375px, 741.9852905273438px) rotate(0deg) translate(-816.42333984375px, -741.9852905273438px);}38.89%{-webkit-transform: translate(816.42333984375px, 741.9852905273438px) rotate(25deg) translate(-816.42333984375px, -741.9852905273438px);transform: translate(816.42333984375px, 741.9852905273438px) rotate(25deg) translate(-816.42333984375px, -741.9852905273438px);}100%{-webkit-transform: translate(816.42333984375px, 741.9852905273438px) rotate(25deg) translate(-816.42333984375px, -741.9852905273438px);transform: translate(816.42333984375px, 741.9852905273438px) rotate(25deg) translate(-816.42333984375px, -741.9852905273438px);}}@keyframes kf_el_pqJs-04E0j_an_Lq35cr1aL{0%{-webkit-transform: translate(816.42333984375px, 741.9852905273438px) rotate(25deg) translate(-816.42333984375px, -741.9852905273438px);transform: translate(816.42333984375px, 741.9852905273438px) rotate(25deg) translate(-816.42333984375px, -741.9852905273438px);}22.22%{-webkit-transform: translate(816.42333984375px, 741.9852905273438px) rotate(0deg) translate(-816.42333984375px, -741.9852905273438px);transform: translate(816.42333984375px, 741.9852905273438px) rotate(0deg) translate(-816.42333984375px, -741.9852905273438px);}38.89%{-webkit-transform: translate(816.42333984375px, 741.9852905273438px) rotate(25deg) translate(-816.42333984375px, -741.9852905273438px);transform: translate(816.42333984375px, 741.9852905273438px) rotate(25deg) translate(-816.42333984375px, -741.9852905273438px);}100%{-webkit-transform: translate(816.42333984375px, 741.9852905273438px) rotate(25deg) translate(-816.42333984375px, -741.9852905273438px);transform: translate(816.42333984375px, 741.9852905273438px) rotate(25deg) translate(-816.42333984375px, -741.9852905273438px);}}@-webkit-keyframes kf_el_fV9KFoISQK_an_g3pCDF4MK{0%{-webkit-transform: translate(794px, 646px) rotate(5deg) translate(-794px, -646px);transform: translate(794px, 646px) rotate(5deg) translate(-794px, -646px);}22.22%{-webkit-transform: translate(794px, 646px) rotate(0deg) translate(-794px, -646px);transform: translate(794px, 646px) rotate(0deg) translate(-794px, -646px);}38.89%{-webkit-transform: translate(794px, 646px) rotate(5deg) translate(-794px, -646px);transform: translate(794px, 646px) rotate(5deg) translate(-794px, -646px);}100%{-webkit-transform: translate(794px, 646px) rotate(5deg) translate(-794px, -646px);transform: translate(794px, 646px) rotate(5deg) translate(-794px, -646px);}}@keyframes kf_el_fV9KFoISQK_an_g3pCDF4MK{0%{-webkit-transform: translate(794px, 646px) rotate(5deg) translate(-794px, -646px);transform: translate(794px, 646px) rotate(5deg) translate(-794px, -646px);}22.22%{-webkit-transform: translate(794px, 646px) rotate(0deg) translate(-794px, -646px);transform: translate(794px, 646px) rotate(0deg) translate(-794px, -646px);}38.89%{-webkit-transform: translate(794px, 646px) rotate(5deg) translate(-794px, -646px);transform: translate(794px, 646px) rotate(5deg) translate(-794px, -646px);}100%{-webkit-transform: translate(794px, 646px) rotate(5deg) translate(-794px, -646px);transform: translate(794px, 646px) rotate(5deg) translate(-794px, -646px);}}@-webkit-keyframes kf_el_mwOnO9GDRj_an_Eqn9YfPbP{0%{-webkit-transform: translate(899.51123046875px, 697.7210693359375px) rotate(0deg) translate(-899.51123046875px, -697.7210693359375px);transform: translate(899.51123046875px, 697.7210693359375px) rotate(0deg) translate(-899.51123046875px, -697.7210693359375px);}22.22%{-webkit-transform: translate(899.51123046875px, 697.7210693359375px) rotate(25deg) translate(-899.51123046875px, -697.7210693359375px);transform: translate(899.51123046875px, 697.7210693359375px) rotate(25deg) translate(-899.51123046875px, -697.7210693359375px);}38.89%{-webkit-transform: translate(899.51123046875px, 697.7210693359375px) rotate(0deg) translate(-899.51123046875px, -697.7210693359375px);transform: translate(899.51123046875px, 697.7210693359375px) rotate(0deg) translate(-899.51123046875px, -697.7210693359375px);}100%{-webkit-transform: translate(899.51123046875px, 697.7210693359375px) rotate(0deg) translate(-899.51123046875px, -697.7210693359375px);transform: translate(899.51123046875px, 697.7210693359375px) rotate(0deg) translate(-899.51123046875px, -697.7210693359375px);}}@keyframes kf_el_mwOnO9GDRj_an_Eqn9YfPbP{0%{-webkit-transform: translate(899.51123046875px, 697.7210693359375px) rotate(0deg) translate(-899.51123046875px, -697.7210693359375px);transform: translate(899.51123046875px, 697.7210693359375px) rotate(0deg) translate(-899.51123046875px, -697.7210693359375px);}22.22%{-webkit-transform: translate(899.51123046875px, 697.7210693359375px) rotate(25deg) translate(-899.51123046875px, -697.7210693359375px);transform: translate(899.51123046875px, 697.7210693359375px) rotate(25deg) translate(-899.51123046875px, -697.7210693359375px);}38.89%{-webkit-transform: translate(899.51123046875px, 697.7210693359375px) rotate(0deg) translate(-899.51123046875px, -697.7210693359375px);transform: translate(899.51123046875px, 697.7210693359375px) rotate(0deg) translate(-899.51123046875px, -697.7210693359375px);}100%{-webkit-transform: translate(899.51123046875px, 697.7210693359375px) rotate(0deg) translate(-899.51123046875px, -697.7210693359375px);transform: translate(899.51123046875px, 697.7210693359375px) rotate(0deg) translate(-899.51123046875px, -697.7210693359375px);}}@-webkit-keyframes kf_el_HxRHm8xEs3_an_wbVrtDceu{0%{-webkit-transform: translate(826.7942504882812px, 437.46002197265625px) rotate(0deg) translate(-826.7942504882812px, -437.46002197265625px);transform: translate(826.7942504882812px, 437.46002197265625px) rotate(0deg) translate(-826.7942504882812px, -437.46002197265625px);}22.22%{-webkit-transform: translate(826.7942504882812px, 437.46002197265625px) rotate(5deg) translate(-826.7942504882812px, -437.46002197265625px);transform: translate(826.7942504882812px, 437.46002197265625px) rotate(5deg) translate(-826.7942504882812px, -437.46002197265625px);}38.89%{-webkit-transform: translate(826.7942504882812px, 437.46002197265625px) rotate(0deg) translate(-826.7942504882812px, -437.46002197265625px);transform: translate(826.7942504882812px, 437.46002197265625px) rotate(0deg) translate(-826.7942504882812px, -437.46002197265625px);}100%{-webkit-transform: translate(826.7942504882812px, 437.46002197265625px) rotate(0deg) translate(-826.7942504882812px, -437.46002197265625px);transform: translate(826.7942504882812px, 437.46002197265625px) rotate(0deg) translate(-826.7942504882812px, -437.46002197265625px);}}@keyframes kf_el_HxRHm8xEs3_an_wbVrtDceu{0%{-webkit-transform: translate(826.7942504882812px, 437.46002197265625px) rotate(0deg) translate(-826.7942504882812px, -437.46002197265625px);transform: translate(826.7942504882812px, 437.46002197265625px) rotate(0deg) translate(-826.7942504882812px, -437.46002197265625px);}22.22%{-webkit-transform: translate(826.7942504882812px, 437.46002197265625px) rotate(5deg) translate(-826.7942504882812px, -437.46002197265625px);transform: translate(826.7942504882812px, 437.46002197265625px) rotate(5deg) translate(-826.7942504882812px, -437.46002197265625px);}38.89%{-webkit-transform: translate(826.7942504882812px, 437.46002197265625px) rotate(0deg) translate(-826.7942504882812px, -437.46002197265625px);transform: translate(826.7942504882812px, 437.46002197265625px) rotate(0deg) translate(-826.7942504882812px, -437.46002197265625px);}100%{-webkit-transform: translate(826.7942504882812px, 437.46002197265625px) rotate(0deg) translate(-826.7942504882812px, -437.46002197265625px);transform: translate(826.7942504882812px, 437.46002197265625px) rotate(0deg) translate(-826.7942504882812px, -437.46002197265625px);}}#el_9qw7YG5ol *{-webkit-animation-duration: 3s;animation-duration: 3s;-webkit-animation-iteration-count: 1;animation-iteration-count: 1;-webkit-animation-timing-function: cubic-bezier(0, 0, 1, 1);animation-timing-function: cubic-bezier(0, 0, 1, 1);}#el_VtywmJcXe3{fill: #32371f;}#el_MuYdPeEPQw{fill: #32371f;}#el_fV9KFoISQK{fill: #32371f;}#el_pqJs-04E0j{fill: #32371f;}#el_hhEq7BcQO9{fill: #474f30;}#el_M8-YGB5BzR{fill: #d9cfab;}#el_XaCZ5e0iyO{fill: #494235;}#el_4tbQNAD4c2{fill: #d9cfab;}#el_KQK-Aqpq2n{fill: #494235;}#el_mwOnO9GDRj{fill: #4d4e37;}#el_HxRHm8xEs3{fill: #4d4e37;}#el_G7EcfPb0pd-{fill: #4d4e37;}#el_2nB6GWqBtKY{fill: #4d4e37;}#el_JJX1oMTmLmB{fill: #323a1d;}#el_YpbGfRdXKzU{fill: #323a1d;}#el_POCMupKo2SA{fill: #130303;}#el_i1l5ICDg9XJ{fill: #130303;}#el_bU4b6GFBjZ5{fill: #130303;}#el_LFbkWOTHXEM{fill: #130303;}#el_Hh-02HCsu6r{fill: #130303;}#el_nw9fSgVRWQF{fill: #130303;}#el_2Tn-J7mJNyP{fill: #130303;}#el_sKSPip3gn9O{fill: #130303;}#el_KBS_R-dqwn2{fill: #4e1c02;}#el_VJbs7lZIefO{fill: #4e1c02;}#el_uc56-IZRTrY{fill: #4e1c02;}#el_Cv9cDiM3agY{fill: #4e1c02;}#el_7u8DTPQdwbD{fill: #4e1c02;}#el_HxRHm8xEs3_an_wbVrtDceu{-webkit-animation-fill-mode: backwards;animation-fill-mode: backwards;-webkit-transform: translate(826.7942504882812px, 437.46002197265625px) rotate(0deg) translate(-826.7942504882812px, -437.46002197265625px);transform: translate(826.7942504882812px, 437.46002197265625px) rotate(0deg) translate(-826.7942504882812px, -437.46002197265625px);-webkit-animation-name: kf_el_HxRHm8xEs3_an_wbVrtDceu;animation-name: kf_el_HxRHm8xEs3_an_wbVrtDceu;-webkit-animation-timing-function: cubic-bezier(0, 0, 1, 1);animation-timing-function: cubic-bezier(0, 0, 1, 1);}#el_mwOnO9GDRj_an_Eqn9YfPbP{-webkit-animation-fill-mode: backwards;animation-fill-mode: backwards;-webkit-transform: translate(899.51123046875px, 697.7210693359375px) rotate(0deg) translate(-899.51123046875px, -697.7210693359375px);transform: translate(899.51123046875px, 697.7210693359375px) rotate(0deg) translate(-899.51123046875px, -697.7210693359375px);-webkit-animation-name: kf_el_mwOnO9GDRj_an_Eqn9YfPbP;animation-name: kf_el_mwOnO9GDRj_an_Eqn9YfPbP;-webkit-animation-timing-function: cubic-bezier(0, 0, 1, 1);animation-timing-function: cubic-bezier(0, 0, 1, 1);}#el_fV9KFoISQK_an_g3pCDF4MK{-webkit-animation-fill-mode: backwards;animation-fill-mode: backwards;-webkit-transform: translate(794px, 646px) rotate(5deg) translate(-794px, -646px);transform: translate(794px, 646px) rotate(5deg) translate(-794px, -646px);-webkit-animation-name: kf_el_fV9KFoISQK_an_g3pCDF4MK;animation-name: kf_el_fV9KFoISQK_an_g3pCDF4MK;-webkit-animation-timing-function: cubic-bezier(0, 0, 1, 1);animation-timing-function: cubic-bezier(0, 0, 1, 1);}#el_pqJs-04E0j_an_Lq35cr1aL{-webkit-animation-fill-mode: backwards;animation-fill-mode: backwards;-webkit-transform: translate(816.42333984375px, 741.9852905273438px) rotate(25deg) translate(-816.42333984375px, -741.9852905273438px);transform: translate(816.42333984375px, 741.9852905273438px) rotate(25deg) translate(-816.42333984375px, -741.9852905273438px);-webkit-animation-name: kf_el_pqJs-04E0j_an_Lq35cr1aL;animation-name: kf_el_pqJs-04E0j_an_Lq35cr1aL;-webkit-animation-timing-function: cubic-bezier(0, 0, 1, 1);animation-timing-function: cubic-bezier(0, 0, 1, 1);}#el_G7EcfPb0pd-_an_5C6R7aQTs{-webkit-animation-fill-mode: backwards;animation-fill-mode: backwards;-webkit-transform: translate(599.0447387695312px, 729.7340698242188px) rotate(0deg) translate(-599.0447387695312px, -729.7340698242188px);transform: translate(599.0447387695312px, 729.7340698242188px) rotate(0deg) translate(-599.0447387695312px, -729.7340698242188px);-webkit-animation-name: kf_el_G7EcfPb0pd-_an_5C6R7aQTs;animation-name: kf_el_G7EcfPb0pd-_an_5C6R7aQTs;-webkit-animation-timing-function: cubic-bezier(0, 0, 1, 1);animation-timing-function: cubic-bezier(0, 0, 1, 1);}#el_2nB6GWqBtKY_an_VAn9murkL{-webkit-animation-fill-mode: backwards;animation-fill-mode: backwards;-webkit-transform: translate(533.300048828125px, 656.7000122070312px) rotate(0deg) translate(-533.300048828125px, -656.7000122070312px);transform: translate(533.300048828125px, 656.7000122070312px) rotate(0deg) translate(-533.300048828125px, -656.7000122070312px);-webkit-animation-name: kf_el_2nB6GWqBtKY_an_VAn9murkL;animation-name: kf_el_2nB6GWqBtKY_an_VAn9murkL;-webkit-animation-timing-function: cubic-bezier(0, 0, 1, 1);animation-timing-function: cubic-bezier(0, 0, 1, 1);}#el_MuYdPeEPQw_an_qMWjZ-VLC{-webkit-animation-fill-mode: backwards;animation-fill-mode: backwards;-webkit-transform: translate(521.2278442382812px, 713.5765991210938px) rotate(5deg) translate(-521.2278442382812px, -713.5765991210938px);transform: translate(521.2278442382812px, 713.5765991210938px) rotate(5deg) translate(-521.2278442382812px, -713.5765991210938px);-webkit-animation-name: kf_el_MuYdPeEPQw_an_qMWjZ-VLC;animation-name: kf_el_MuYdPeEPQw_an_qMWjZ-VLC;-webkit-animation-timing-function: cubic-bezier(0, 0, 1, 1);animation-timing-function: cubic-bezier(0, 0, 1, 1);}#el_VtywmJcXe3_an_3-47p-hT_{-webkit-animation-fill-mode: backwards;animation-fill-mode: backwards;-webkit-transform: translate(500px, 749.3999633789062px) rotate(15deg) translate(-500px, -749.3999633789062px);transform: translate(500px, 749.3999633789062px) rotate(15deg) translate(-500px, -749.3999633789062px);-webkit-animation-name: kf_el_VtywmJcXe3_an_3-47p-hT_;animation-name: kf_el_VtywmJcXe3_an_3-47p-hT_;-webkit-animation-timing-function: cubic-bezier(0, 0, 1, 1);animation-timing-function: cubic-bezier(0, 0, 1, 1);}#el_LFbkWOTHXEM_an_6GuzodwcE{-webkit-transform: translate(705.4745483398438px, 207.79685974121094px) rotate(0deg) translate(-705.4745483398438px, -207.79685974121094px);transform: translate(705.4745483398438px, 207.79685974121094px) rotate(0deg) translate(-705.4745483398438px, -207.79685974121094px);}</style><defs/><title>Artboard 1</title><g id="el_mh8RuUUNBB"><g id="el_VtywmJcXe3_an_3-47p-hT_" data-animator-group="true" data-animator-type="1"><path d="M608.5,794.3c-7.1,10.2-16.2,14.3-23,24.8-1.9,2.9-3.3,6.1-5.5,8.8-3.9,4.5-9.6,6.9-14.8,9.7s-10.4,6.8-11.8,12.5,1.7,12.4.3,18.5L534,870.5c-11.3,1.2-22.7,2.3-34,.8,2.9-6.5,11.6-8.1,15.9-13.8,3.2-4.1,3.5-9.7,4.5-14.9,2.5-12.4,9.9-23.2,18-32.9s17-18.8,23.6-29.6c-1.5-3.8-3.2-7.4-4-11.4s-1.4-10.2,1.5-14.2,8.2-5.1,13-5.1,9.8,1.1,14.7,2.1a24.7,24.7,0,0,1,7.4,2.4c2.5,1.4,4.4,3.6,6.3,5.8,5.3,6.1,10.8,12.8,11,20.9C611.9,785.1,607.7,789.8,608.5,794.3Z" id="el_VtywmJcXe3"/></g><g id="el_MuYdPeEPQw_an_qMWjZ-VLC" data-animator-group="true" data-animator-type="1"><path d="M537,745.8c-4-2.9-8.3-5.5-11.3-9.3s-5.9-10.1-3.7-14.4,7.4-4.8,11.6-5.7c8.1-1.6,16.2-3.3,24.4-2.7s16,3.4,23.7,6.2c5.3,1.9,10.7,3.9,15.2,7.2a44,44,0,0,1,6.7,6.2c2.7,3.1,5.2,6.5,5.9,10.6s0,6.1-.7,9.1a79.8,79.8,0,0,1-8.8,21.6,15.7,15.7,0,0,1-2,3c-3.2,3.5-8.5,4.3-13.1,3.3s-8.7-3.4-13-5.4-7.4-3.3-10.9-5.2C550.4,764.6,546.7,752.8,537,745.8Z" id="el_MuYdPeEPQw"/></g></g><g id="el__zN8gjCysf"><g id="el_fV9KFoISQK_an_g3pCDF4MK" data-animator-group="true" data-animator-type="1"><path d="M812.9,747.2c-5.9-9.2-17-56.5-18.9-67.2,22.9-10.5,54.1-23.5,77-34,4.2,29.6,7.3,96.4-2.3,124.7-2,5.6-5,11.7-10.7,13.5a18.3,18.3,0,0,1-6.6.4c-9.6-1-18.5-5.9-25.3-12.8S818,755.4,812.9,747.2Z" id="el_fV9KFoISQK"/></g><g id="el_pqJs-04E0j_an_Lq35cr1aL" data-animator-group="true" data-animator-type="1"><path d="M870.6,768.9c4.4,9.5,12.1,17.2,17.5,26.2a63.4,63.4,0,0,1,8.4,40.4c-1.6,11.6-5.8,25,2.1,33.7L871.5,872c-7.6.8-15.3,1.6-22.8.2s-18.7-5.3-24.6.9c-3.2-3.9-1.8-10.7,2.7-13,1.6-.8,3.4-1.1,4.7-2.3s1.6-5.7,2.7-8.5c2.1-5.3,9.7-7.7,10.2-13.4.2-2.5-1.2-4.8-2.2-7.1-5.7-12.2-10.1-25.2-15.9-37.3-2.3-4.7-5.2-9.1-7.3-13.9s-3.3-10.2-2.1-15.3a22.8,22.8,0,0,1,5.3-9.6c5.9-6.7,14.6-11,23.4-10.7s17.6,5.7,21,13.9C868.7,760.8,868.4,764.1,870.6,768.9Z" id="el_pqJs-04E0j"/></g></g><g id="el_lRI5BWxioJ"><path d="M179.8,642c-.5-5.7.9-12.1,5.3-15.9a26.1,26.1,0,0,0,3.1-2.7,19.6,19.6,0,0,0,1.9-2.8c3.5-5,9.9-6.8,15.6-8.9A88.5,88.5,0,0,0,228,599.8c2.7-2,4.4-4.6,6.6-7.1a15.7,15.7,0,0,1,9.3-4.7,24.5,24.5,0,0,1,10.4,1,7.9,7.9,0,0,0,2.2.5,6.1,6.1,0,0,0,1.8-.5l7.5-2.7a57.3,57.3,0,0,1,5.6-1.4c10.2-2.8,21.1-.1,31.7-1.1a65.9,65.9,0,0,1,7.7,0,25.7,25.7,0,0,1,4.8,0,33.3,33.3,0,0,1,8.7,2.5l11.3,4.2c3.7,1.4,7.7,1.7,11.2,3.5s6.7,4.4,10.6,5a3.7,3.7,0,0,1,1.5.4c.8.4,1.2,1.3,1.9,1.8s3.1,0,4.6.2,3.4,1.8,5.1,2.7,5.5,1.4,7.4,3.4,1.3,2.2,2.2,3,2.9,1.5,4.3,2.4,2.4,2.1,3.9,3,6.4.9,9.2,2.4l-.9.3c0,.1.8-.7.8-.6s3.3,1.4,5.2,1.8l6.3,1.1a32.2,32.2,0,0,0,8.2.8,31.2,31.2,0,0,0,10.2-2.9,162.3,162.3,0,0,0,15.1-7.4,48,48,0,0,0,8.7-6c1.2-1.2,2.2-2.4,3.4-3.5s3-2.3,4.5-3.5c5-4.1,8.6-9.6,12.1-15l-2.1.9c5.1-11.1,14.9-23.5,23.4-32.3,5.5-5.7,11.7-10.9,16.1-17.6,2.4-3.7,4.2-7.8,6.6-11.4,6.1-9.2,15.9-15.5,21.7-24.8,2.9-4.8,4.9-10.4,9.4-13.7s9.3-3.6,13.6-6.1c6-3.6,9-10.5,13.3-16s10.2-9.6,16-13.7c29.8-21.1,61.6-42.9,98-46,17.1-1.4,35.3-7.3,52.4-8.3l19.8-.7,64.3-1.5c3.6-.1,7.3-.1,10.5,1.4,9.5,4.7,20.8,1.6,31.1-.8,30.1-7.3,61.1-9.4,92-11.4h.6c32-2.1,64.8,1.8,96.8,4.2,13.3.9,26.5,3.4,39.7,5.8,22.3,4.2,44.7,8.4,65.8,16.7,14.6,5.8,28.3,13.5,42.3,20.5,32.9,16.2,67.6,28.3,102.1,40.4,18.6,6.4,37.1,12.9,56.4,16.6a200.8,200.8,0,0,0,58.9,2.7c30.5-3.1,61.7-.7,92.3-.6a103.3,103.3,0,0,0,15.7-.8c6-.9,11.8-2.7,17.7-3.5s14.5-.1,21.7-.8a101.1,101.1,0,0,0,14.4-2.6c26.1-5.7,53-10,79.6-6.5-20.5,9.1-41.1,18.2-63,23.3-7.9,1.8-15.9,3-23.7,5.3-13.9,4-26.8,11.3-40.9,14.6-16.6,4-34,2.4-50.9,5.1-10.4,1.7-20.6,4.9-31,6.8-6.6,1.2-13.2,1.8-19.9,2.4-12.7,1.2-25.3,2.4-38.1,3.1-31.3,1.6-62.8,0-94.1,2.3-8.9.6-19.9.9-28.8,1-52.4.4-105.1.9-156.7,9.9-5.3.9-10.8,2-15.5,4.7s-7.8,5.9-12.3,7.7c-2.7,1.1-5.7,1.4-8.5,2.2-10.7,2.7-19.3,10.6-26.5,19.1s-13.2,17.8-21.5,25.2c-1,.8-18.4,19.7-30.4,24.8s-25,7.9-37,13-20.4,10.7-30.8,15.8c-13.8,6.8-28.5,11.5-42.9,17.1s-28.1,12.3-41.9,18.9l-57,27.3c-4.6,2.2-9.2,4.4-14.2,5.6s-11.3,1.4-17,1.5l-85.7.7c-20.5.1-42,2.6-62.4,1-7.6-.6-15.2-1.6-22.8-1.3-10.8.5-21.4,3.8-32.3,3.7-18.5-.2-36.2-10.7-47.3-25.6-4.7-6.4-8.5-13.7-14.5-19-13.4-12-33.4-11-51.3-12.1-42.6-2.4-82.9-19.5-121.1-38.6a30.6,30.6,0,0,0-8.7-3.3c-4.7-.7-9.3.7-13.8,2.1a496.1,496.1,0,0,1-55.3,13.7l-31.3,6a37.9,37.9,0,0,1-8.9.9,21,21,0,0,1-12.2-4.7,12.2,12.2,0,0,1,12.4-6.8l-.4-6c-.1-1.2-.3-2.5-1.3-3.2a4.5,4.5,0,0,0-2.8-.3" id="el_hhEq7BcQO9"/><path d="M1514.7,479.5c17.2-21.3,34.6-42.4,52.5-63.1,3.7-4.5,7.6-8.9,10.7-13.8s4-7.1,6.2-10.4a96.9,96.9,0,0,1,8.7-10.5l19.3-21.1c-9.7,26.7-27.4,49.8-37.7,76.4-1.1,3-2.2,6-3.6,8.9-5.2,10.1-14.7,17.2-24,23.7-7.8,5.5-15.8,11-24.9,13.8-1.6.5-7.9,2.9-9.3,1.9S1513.4,481.1,1514.7,479.5Z" id="el_M8-YGB5BzR"/><path d="M1516.4,494.8c-1.7,1.2-4.1-1-3.8-3.1s2-3.5,3.7-4.7l26.3-20.4c10.8-8.4,21.6-16.8,32.1-25.6s19.2-16.6,28.7-25.1l28.2-25.1c.9,1.5-.2,3.4-1.2,4.8l-29.7,38.6c-8,10.3-15.9,20.7-25.2,29.9s-18.3,16.7-20.3,28.4a7.3,7.3,0,0,1-.7,1.9,4,4,0,0,1-2.2,1.2l-10.2,3c-5.4,1.5-10.8,3.1-16.4,2.7s-11.2-3.3-13.5-8.3c-.2-.6-.6-1.2-1.2-1.2s-.2,1.3.2.8" id="el_XaCZ5e0iyO"/><path d="M1648.7,435.4c5.3-3.2,15.6-6.3,21-9.5,15.5-9.2,31.1-18.4,48-24.6a110.5,110.5,0,0,1-25.7,20.5c-3.3,1.9-6.6,3.6-9.7,5.5-7.6,4.6-14.4,10.5-21.3,16.1a432.1,432.1,0,0,1-39.6,29,50.7,50.7,0,0,1-10.5,5.7,51.3,51.3,0,0,1-21.3,2.6c-1.8-.2-5.3-.8-4.8-3.6s6-4.4,7.8-5.5l39.4-23.3C1639.2,444,1641.5,439.7,1648.7,435.4Z" id="el_4tbQNAD4c2"/><path d="M1608,471.3c6.6-1.3,12.7-4.2,19.2-5.9s15.4-2.4,22.6-5.3c4.7-1.9,9-4.8,13.6-7,6.2-3.2,13-5.2,19.7-7.2,19.3-5.7,38.5-11.5,57.6-17.8-17.2,10-35.6,18.1-53.8,26l-37,16.2c-13.6,5.9-27.3,11.9-41.8,15.4-6.2,1.4-14.8,4-21.2,2.2s-4.9-7.7-.4-11.1C1593.5,471.5,1597.3,473.5,1608,471.3Z" id="el_KQK-Aqpq2n"/></g><g id="el_unI4PvvH74"><g id="el_mwOnO9GDRj_an_Eqn9YfPbP" data-animator-group="true" data-animator-type="1"><path d="M979.5,773.7a16.4,16.4,0,0,0,5.5,5.9c2.5,1.6,5.5,2.1,8.3,3.2,14.6,5.5,19.7,23.7,20.2,39.3s-1.2,32.6,7.3,45.7c-17.2,7.4-36.6,7.5-55.3,7.4.3-4.3-6.2-5.7-10.1-3.9s-7.7,5.2-12,4.6c-2.8-3.9-1-9.5,2.1-13.2s7.3-6.3,10.2-10.1c6.5-8.8,4.3-21.4,0-31.5-9.3-22.2-27.2-40.2-39.5-60.9-3.4-5.9-14.6-18.5-16.2-25.2s.9-13.5,5-19,11.1-17.3,17-18,16.5-.1,22,2c3.8,1.4,3.2,2,6,5s7.4,23.3,8.9,26.5C966.3,746.7,970.4,759.3,979.5,773.7Z" id="el_mwOnO9GDRj"/></g><g id="el_HxRHm8xEs3_an_wbVrtDceu" data-animator-group="true" data-animator-type="1"><path d="M956.6,677.5c-1-4.5.7-9.1,2.2-13.5,18.8-54.1,13.4-113.8,28.7-168.9-13.3-25.2-38.1-46.5-65.5-54.4-11.9-3.3-24.6-4.6-36.4-1.4-17.4,4.7-31.3,18.5-40,34.3s-13,33.6-17.2,51.1c-1.3,5.7-2.7,14.1-.3,19.5,2.3,1.6,4.9,2.9,7.2,4.5,12.7,9.1,15.3,26.5,18.2,41.9,7.4,39.8,23.4,77.4,39.3,114.6,5.6,13,11.9,25.8,23.2,34.3a39.7,39.7,0,0,0,16.5,7.7,23.2,23.2,0,0,0,17.6-3.2c4.1-2.8,7-7.1,9.1-11.7a40.7,40.7,0,0,0,3.6-14.5c.4-5.9-.9-11.8-2.1-17.7C959,692.1,958.4,685.5,956.6,677.5Z" id="el_HxRHm8xEs3"/></g></g><g id="el_R1kUHQS9Ach"><g id="el_G7EcfPb0pd-_an_5C6R7aQTs" data-animator-group="true" data-animator-type="1"><path d="M665.7,757.4a229,229,0,0,1-7,70.9c-2,7.6-4.3,15.5-2.7,23.1s5.8,12.6,5.8,19.3a123.4,123.4,0,0,1-62.7-.3c-.9-8.7,9.4-13.6,15.9-19.5s2-16.7,3.1-18.9c3.4-7.1-1.2-15.2-3-22.9-2.5-11-3.5-23.4-7.4-33.9-2.3-5.9-5.2-12-4.7-18.3.4-4.3,2.4-8.4,4.8-12a27.4,27.4,0,0,1,5.3-6.4,31.8,31.8,0,0,1,8-4.7,38.3,38.3,0,0,1,14.4-4,19.7,19.7,0,0,1,14.1,4.4c2.7,2.3,4.4,5.4,6.1,8.5C659.3,749,665.3,750.1,665.7,757.4Z" id="el_G7EcfPb0pd-"/></g><g id="el_2nB6GWqBtKY_an_VAn9murkL" data-animator-group="true" data-animator-type="1"><path d="M608.7,748.8c-16.8-9.3-32.7-20-48.6-30.8-5.5-3.7-11.4-7.8-14.4-13.8s-2.9-12.3-3.6-18.6a84.3,84.3,0,0,0-8.8-28.9c21.2,7.9,43.1,11.5,65.6,12.4,19,.8,20.9,15.7,36,25,4.1,2.5,8.7,4.6,11,8.8,1.1,2,1.6,4.3,2.5,6.4,7.8,4.2,10.9,13.3,13.9,21.6,1.3,3.8,2.7,7.5,3,11.5a30.8,30.8,0,0,1-2.9,13.9c-3,6.8-7.7,13.2-14.5,16.5a14.5,14.5,0,0,1-8.4,1.5,26.2,26.2,0,0,1-4.9-1.9C624,767,612.1,760.3,608.7,748.8Z" id="el_2nB6GWqBtKY"/></g><path d="M248.5,603.6a3.4,3.4,0,0,0-3.2,3,4.5,4.5,0,0,0,2,4.1,4.9,4.9,0,0,0,5.9-.2,4.5,4.5,0,0,0,1-5.7,4.2,4.2,0,0,0-5.6-1.3" id="el_SbCxTouItFG"/></g><g id="el_CkehfMDiGKq"><path d="M287,567.2a46.7,46.7,0,0,1,2.6-5.6c1.5-3.1,2.4-6.5,3.7-9.7s3.3-6.3,6.2-8.2a53.8,53.8,0,0,1,3.4,9.5l2.7,9.1a26.2,26.2,0,0,1,1.4,7.2c.1,4.7-2.3,8.9-4.6,12.9a2.9,2.9,0,0,1-1,1.2,2.1,2.1,0,0,1-1.5.5c-3.8.6-10,1.8-12.3-2S285.6,571.1,287,567.2Z" id="el_JJX1oMTmLmB"/><path d="M336.3,544.9a15.1,15.1,0,0,1,1.3,4.1c3,14.4.2,30.7-10.4,40.8-.1.1-11.3-4.7-12.2-5.9-2.5-3.6.9-9.3,2.4-12.7A79.6,79.6,0,0,1,336.3,544.9Z" id="el_YpbGfRdXKzU"/><path d="M409.5,608.4c-1.4-5.5-1-11.3-1.2-17.1s-.7-10.6.7-15.6,4.6-10,4.3-15.3-5.2-11.4-4.5-17.3c3.8-.3,8.1-.4,10.7,2.3a38.8,38.8,0,0,1,2.3,3.3c4.7,6.7,14.5,7.2,21.2,11.8,2.8,1.8,4.9,4.4,7.5,6.5s5.5,4,7.7,6.7,4.4,9.6,5.2,14.8a11.4,11.4,0,0,1,0,4.5,10.8,10.8,0,0,1-2.4,3.6,100.2,100.2,0,0,1-22,18C428.1,621.3,413.7,623.7,409.5,608.4Z" id="el_POCMupKo2SA"/><path d="M461.2,573.3c-4.1-1.3-7.4-4.3-10.3-7.5-8.6-9.2-14.9-20.2-21.1-31.1-2.2-3.8-4.4-7.6-5.6-11.8-1.8-6.2-1.6-12.7-2.7-19-.6-3.5-1.7-7-1.7-10.5s1.2-7.9,1.8-11.8c.8-5.5.4-11.1,1.5-16.5,1.6-7.7,6.1-14.6,7-22.4,2.7,1.8,12.4,11,15.6,14.6l21.5,24c3.8,4.3,7.6,8.6,12.1,12.1,8.2,6.6,19.2,11.4,22.8,21.3,1.2,3.2,1.5,6.7,2.3,10.1s2.5,6.7,5.4,8.5c-3.8,3.6-5.6,8.4-9.3,12.3-7.8,8.1-17.3,15.6-22.5,25.6-1.1,2-5.7,12.7-8,10.2-.9-.9-.1-3.8-.9-5S463.8,574.1,461.2,573.3Z" id="el_i1l5ICDg9XJ"/><path d="M500.2,512.8c-4.7-10.7-15.9-16.7-25.9-22.7a15.8,15.8,0,0,1-3.9-2.9c-3.7-3.8-3.5-10.1-7-14.1a30,30,0,0,1-3-3.2c-2.2-3.1-1.4-7.3-.9-11a57.9,57.9,0,0,0-.1-16.1c-.6-3.9-1.6-7.8-1.4-11.8a38.2,38.2,0,0,1,1.5-8.2l4.7-18c4.3-16.7,8.9-33.9,19.4-47.6,3.5,1.5,6.4,4,9.2,6.6,13.6,12.8,23.3,29.3,32.1,45.9q11.7,22.1,21.9,44.8a44.7,44.7,0,0,1,3.8,10.6c1.2,6.6-.4,13.6-3.3,19.7s-7.2,11.5-11.5,16.7c-6.1,7.4-12.3,14.9-19.4,21.3C507.2,531.2,503.6,520.5,500.2,512.8Z" id="el_bU4b6GFBjZ5"/><path d="M705.7,362.8c-2.1-27.5,10.8-53.8,25-77.6a635.1,635.1,0,0,1,52.1-75,6.5,6.5,0,0,1,2.5-2.2,6.2,6.2,0,0,1,2.7-.1l10.8,1.1c4.4,20.3,9.1,40.5,14.3,60.5s10.4,39.4,12,59.6a241.9,241.9,0,0,1,.1,30.7c-.6,11.4-2.4,24.2-11.4,31.2-5.2,4-11.9,5.4-17.7,8.3-3.8,1.9-7.2,4.5-11.1,6.2s-10.9,2.9-16.5,3.3c-14.9,1-30.8.2-44.4-6.7S706.8,376.4,705.7,362.8Z" id="el_LFbkWOTHXEM"/><path d="M809.3,360.6c.4-11.4.7-23,3.8-34,6.2-22.3,22.5-40.1,38.7-56.6,4.5-4.6,9.1-9.3,14.6-12.8s9.5-4.7,14.1-7.3,11.2-7.8,16.7-12a320.5,320.5,0,0,1,45-29.6c3.4-1.9,7.1-3.8,11-4.3s8.3.8,10.6,4.1,2,6,2,9.1c.3,13.7-.4,27.4-1,41.1l-1.2,23.3c-.7,14.8-1.4,29.6-2.5,44.4-.7,9.1-1.6,18.3-4.4,27s-7.4,17-14.6,22.5-18.8,8.6-29,10.7l-21.4,4.3c-16.2,3.3-32.8,6.5-49.4,5.8-9.9-.4-23.8-.7-29.1-10.6C809.1,377.9,809,369.2,809.3,360.6Z" id="el_Hh-02HCsu6r"/><path d="M1211.1,419.7c7.6-12.5,19.7-21.9,32.9-28.5s27.3-10.6,41.4-14.7l87.6-25.1,6.1,15.2a25.1,25.1,0,0,1,1.8,5.9,23.7,23.7,0,0,1-.8,7.5c-5.7,23.7-16.1,46-28.8,66.7-3.4,5.5-7.3,11.2-13.3,13.6-2.9,1.2-6.2,1.4-9.3,2s-6.4,1.8-8.4,4.3-2.2,6.6.3,8.6c-35.6-9-69.5-23.8-103.2-38.5-2.4-1.1-11.4-3.7-12.3-6.2S1209.8,421.9,1211.1,419.7Z" id="el_nw9fSgVRWQF"/><path d="M1375.5,436.4a65.8,65.8,0,0,0,7-4.7c2.2-1.6,4-3.6,6.2-5.2,7.7-5.6,17.9-6.4,26.6-10.3,5.1-2.2,9.9-5.5,15.4-6.4,3.5-.6,7.2-.2,10.4-1.8s4.8-4.2,7.9-4.7c2.6,4.2,1.5,9.7-.8,14.1s-5.6,8.2-7.5,12.7a64.4,64.4,0,0,0-3.1,10.6c-4,14.2-13.3,26.7-15.1,41.3-.3,2.4-.6,5.1-2.6,6.5a8.2,8.2,0,0,1-3,1l-13.9,2.4a78.9,78.9,0,0,1-13.7,1.7c-7.2.1-14.2-1.6-20.9-4-4.5-1.7-13.9-4.1-16.5-8.5-5.2-8.6,3.5-24.6,8.7-31.2A59.9,59.9,0,0,1,1375.5,436.4Z" id="el_2Tn-J7mJNyP"/><path d="M1493.7,442.5c2-1,4.3-2,6.5-1.2.8,12-5.2,23.3-11,33.8-2.5,4.5-5,9.1-8.6,12.9s-8.2,6.7-13.3,7.1a30.4,30.4,0,0,1-8.5-1c-8.8-1.7-19.4-2.3-27.7-5.7,2.3-4.9,9.3-9.6,13.4-13.2s10.2-8.5,15.6-12.4A229.1,229.1,0,0,1,1493.7,442.5Z" id="el_sKSPip3gn9O"/></g><g id="el_WN9L9cChgTT"><path d="M344.3,574.6c2.6-5.1,6.4-9.6,9.7-14.3s7.5-11.4,13.6-14.1a16.7,16.7,0,0,1,1.6,7.4,83.3,83.3,0,0,1-1.3,24.4c-1.8,8-5.5,15.7-11.4,21.3-4-2-13.2-3.3-15.1-7.4S342.2,578.6,344.3,574.6Z" id="el_KBS_R-dqwn2"/><path d="M367.7,585.2c1-4.1,3-7.8,5-11.5l15.4-28.1a59.8,59.8,0,0,1,1.6,28.8c-.9,4.4-2.3,8.6-3.6,12.9l-6.8,21.5c-.1.4-12.3-5.3-13.1-7.2S366.9,588.8,367.7,585.2Z" id="el_VJbs7lZIefO"/><path d="M396.2,569.1c2.9-8.1,3.2-17.3,8.2-24.3,3.3.1,4.8,4.1,5.5,7.3l2.2,10.4a9.3,9.3,0,0,1,.3,3.3c-.2,1.2.6,1.7.1,2.8-5.4,11-2.9,24.6-3.1,36.8a9.9,9.9,0,0,1-.5,3,10.6,10.6,0,0,1-1.9,2.3c-2.5,2.9-3,6.3-3,9.9-4.1-.6-10.9-1.6-13.5-5.4s-1.9-7.7-2.6-11.2c-1.2-6.4-1.6-11.5.7-17.7S394.1,575,396.2,569.1Z" id="el_uc56-IZRTrY"/><path d="M630.7,422.1c-4.3-1.9-3.5-8-2.8-12.6,3.9-25.4-16.2-49.2-15.7-74.9a104.1,104.1,0,0,1,2.6-17.5c2.3-11,4.6-22,8-32.7,6.9-22,18.3-42.3,29.7-62.4,2.1-3.8,5.6-8.2,9.9-7.3,2.3.6,4,2.7,5.4,4.7,6.8,9.3,13.7,18.7,18.2,29.3,2.4,5.7,4,11.6,6.3,17.3s6.5,13.3,9.9,19.9,8,15.8,11.4,24a20.3,20.3,0,0,1,1.4,4.8c.3,2.9-.9,5.7-2,8.5a90.6,90.6,0,0,0-.7,61.4c1.4,3.9,3.1,8.4,1.3,12.1s-3.9,4.2-6.5,5.4a79.6,79.6,0,0,1-11.5,4.3c-16,5.3-31.9,10.5-48,15.3-6.9,2.1-11.1,1.4-17.8.2s-6.4,5.2-9.6,9.3a19.5,19.5,0,0,1-4.1,3.4l-37.9,26.6c-3.9,2.7-8.5,7.5-13.3,8.2s-11.5-3.2-15.1-7.5c-8.7-10.4-11.4-24.4-13.6-37.8-5.2-30.4-9.6-61.2-6.6-91.9,1.9-18.6,6.5-36.8,11-54.9.9-3.2,1.8-6.7,4.5-8.7a16.3,16.3,0,0,1,5.7-2.1c2.7-.6,5.5-1.1,8.1-.2s4.3,3.4,5.9,5.6l42.7,59.4c4,5.6,8,11.2,11,17.4a85.7,85.7,0,0,1,5.5,15.4,209.8,209.8,0,0,1,6.1,30.4c.8,5.8,1.3,11.7-.3,17.3a39.6,39.6,0,0,1-4.4,9.6" id="el_Cv9cDiM3agY"/><path d="M1085.4,388.9a33.9,33.9,0,0,1-3.8-12.7,42.3,42.3,0,0,1,1.7-15.8c4.8-16.9,17-30.9,31.3-41s30.9-16.7,47.4-22.7a949.8,949.8,0,0,1,117-34.2c3.2-.7,6.8-1.3,9.6.3,4.7,2.8,4.3,9.7,3.2,15-1.7,8.6-3.4,17.1-5.9,25.5a261.2,261.2,0,0,1-9.6,25.5l-22.9,54.9c-2.7,6.5-5.5,13-9.8,18.4-8.3,10.2-21.4,15.1-34,18.9-3.4,1-7.6,5-8.1,8.6-19.8-9.6-40.3-20.1-61.3-26.6-10.5-3.2-21.2-6.1-31.9-8.5q-8.1-1.8-16.2-3.3c-5.4-.9-9.8-3.2-13.7,1-5.4,5.7-11.7,11-19.1,13.5s-16,2.1-23.9,1a176.8,176.8,0,0,1-26.2-5.6c-8.6-2.6-17-5.8-25.3-9L962.7,384c-5.4-2-11.2-4.4-14.2-9.4-.2.5-.2-.4-.3,0a215.5,215.5,0,0,1-2.9-35.9c0-6.8.4-13.7,2.4-20.2,3.1-10.3,10-19.1,16.9-27.5s15.6-18.9,25.4-26.2c7.5-5.7,15.9-9.9,24.4-14,24.9-12.2,50.4-23.3,76.2-33.4,5.5-2.1,11.1-4.2,17-4.2s12.1,2.7,14.7,7.9,1.7,8.6,1.3,13c-2.3,26.8-5.9,53.5-10,80.2-.8,5.2-1.6,10.5-2.7,15.7-4.6,24.4-13.8,49.3-32.9,65" id="el_7u8DTPQdwbD"/></g></svg>