<svg xmlns="http://www.w3.org/2000/svg" viewBox="0 0 1352 540" id="el_lKFJy92un"><style>@-webkit-keyframes kf_el__9KeMdTz9Ts_an_cOdF5UW6Q{0%{-webkit-transform: translate(621.2222290039062px, 82.79312133789062px) translate(-621.2222290039062px, -82.79312133789062px) translate(0px, 0px);transform: translate(621.2222290039062px, 82.79312133789062px) translate(-621.2222290039062px, -82.79312133789062px) translate(0px, 0px);}25%{-webkit-transform: translate(621.2222290039062px, 82.79312133789062px) translate(-621.2222290039062px, -82.79312133789062px) translate(-30px, 110px);transform: translate(621.2222290039062px, 82.79312133789062px) translate(-621.2222290039062px, -82.79312133789062px) translate(-30px, 110px);}50%{-webkit-transform: translate(621.2222290039062px, 82.79312133789062px) translate(-621.2222290039062px, -82.79312133789062px) translate(-30px, 180px);transform: translate(621.2222290039062px, 82.79312133789062px) translate(-621.2222290039062px, -82.79312133789062px) translate(-30px, 180px);}75%{-webkit-transform: translate(621.2222290039062px, 82.79312133789062px) translate(-621.2222290039062px, -82.79312133789062px) translate(-30px, 110px);transform: translate(621.2222290039062px, 82.79312133789062px) translate(-621.2222290039062px, -82.79312133789062px) translate(-30px, 110px);}100%{-webkit-transform: translate(621.2222290039062px, 82.79312133789062px) translate(-621.2222290039062px, -82.79312133789062px) translate(0px, 0px);transform: translate(621.2222290039062px, 82.79312133789062px) translate(-621.2222290039062px, -82.79312133789062px) translate(0px, 0px);}}@keyframes kf_el__9KeMdTz9Ts_an_cOdF5UW6Q{0%{-webkit-transform: translate(621.2222290039062px, 82.79312133789062px) translate(-621.2222290039062px, -82.79312133789062px) translate(0px, 0px);transform: translate(621.2222290039062px, 82.79312133789062px) translate(-621.2222290039062px, -82.79312133789062px) translate(0px, 0px);}25%{-webkit-transform: translate(621.2222290039062px, 82.79312133789062px) translate(-621.2222290039062px, -82.79312133789062px) translate(-30px, 110px);transform: translate(621.2222290039062px, 82.79312133789062px) translate(-621.2222290039062px, -82.79312133789062px) translate(-30px, 110px);}50%{-webkit-transform: translate(621.2222290039062px, 82.79312133789062px) translate(-621.2222290039062px, -82.79312133789062px) translate(-30px, 180px);transform: translate(621.2222290039062px, 82.79312133789062px) translate(-621.2222290039062px, -82.79312133789062px) translate(-30px, 180px);}75%{-webkit-transform: translate(621.2222290039062px, 82.79312133789062px) translate(-621.2222290039062px, -82.79312133789062px) translate(-30px, 110px);transform: translate(621.2222290039062px, 82.79312133789062px) translate(-621.2222290039062px, -82.79312133789062px) translate(-30px, 110px);}100%{-webkit-transform: translate(621.2222290039062px, 82.79312133789062px) translate(-621.2222290039062px, -82.79312133789062px) translate(0px, 0px);transform: translate(621.2222290039062px, 82.79312133789062px) translate(-621.2222290039062px, -82.79312133789062px) translate(0px, 0px);}}@-webkit-keyframes kf_el__9KeMdTz9Ts_an_qQwXcldoY{0%{-webkit-transform: translate(621.2222290039062px, 82.79312133789062px) rotate(0deg) translate(-621.2222290039062px, -82.79312133789062px);transform: translate(621.2222290039062px, 82.79312133789062px) rotate(0deg) translate(-621.2222290039062px, -82.79312133789062px);}25%{-webkit-transform: translate(621.2222290039062px, 82.79312133789062px) rotate(-45deg) translate(-621.2222290039062px, -82.79312133789062px);transform: translate(621.2222290039062px, 82.79312133789062px) rotate(-45deg) translate(-621.2222290039062px, -82.79312133789062px);}50%{-webkit-transform: translate(621.2222290039062px, 82.79312133789062px) rotate(-70deg) translate(-621.2222290039062px, -82.79312133789062px);transform: translate(621.2222290039062px, 82.79312133789062px) rotate(-70deg) translate(-621.2222290039062px, -82.79312133789062px);}75%{-webkit-transform: translate(621.2222290039062px, 82.79312133789062px) rotate(-45deg) translate(-621.2222290039062px, -82.79312133789062px);transform: translate(621.2222290039062px, 82.79312133789062px) rotate(-45deg) translate(-621.2222290039062px, -82.79312133789062px);}100%{-webkit-transform: translate(621.2222290039062px, 82.79312133789062px) rotate(0deg) translate(-621.2222290039062px, -82.79312133789062px);transform: translate(621.2222290039062px, 82.79312133789062px) rotate(0deg) translate(-621.2222290039062px, -82.79312133789062px);}}@keyframes kf_el__9KeMdTz9Ts_an_qQwXcldoY{0%{-webkit-transform: translate(621.2222290039062px, 82.79312133789062px) rotate(0deg) translate(-621.2222290039062px, -82.79312133789062px);transform: translate(621.2222290039062px, 82.79312133789062px) rotate(0deg) translate(-621.2222290039062px, -82.79312133789062px);}25%{-webkit-transform: translate(621.2222290039062px, 82.79312133789062px) rotate(-45deg) translate(-621.2222290039062px, -82.79312133789062px);transform: translate(621.2222290039062px, 82.79312133789062px) rotate(-45deg) translate(-621.2222290039062px, -82.79312133789062px);}50%{-webkit-transform: translate(621.2222290039062px, 82.79312133789062px) rotate(-70deg) translate(-621.2222290039062px, -82.79312133789062px);transform: translate(621.2222290039062px, 82.79312133789062px) rotate(-70deg) translate(-621.2222290039062px, -82.79312133789062px);}75%{-webkit-transform: translate(621.2222290039062px, 82.79312133789062px) rotate(-45deg) translate(-621.2222290039062px, -82.79312133789062px);transform: translate(621.2222290039062px, 82.79312133789062px) rotate(-45deg) translate(-621.2222290039062px, -82.79312133789062px);}100%{-webkit-transform: translate(621.2222290039062px, 82.79312133789062px) rotate(0deg) translate(-621.2222290039062px, -82.79312133789062px);transform: translate(621.2222290039062px, 82.79312133789062px) rotate(0deg) translate(-621.2222290039062px, -82.79312133789062px);}}@-webkit-keyframes kf_el_4ZUqcfAOEQD_an_e2kRnPqF0{0%{-webkit-transform: translate(477px, 377px) scale(1, 1) translate(-477px, -377px);transform: translate(477px, 377px) scale(1, 1) translate(-477px, -377px);}50%{-webkit-transform: translate(477px, 377px) scale(0.9, 0.9) translate(-477px, -377px);transform: translate(477px, 377px) scale(0.9, 0.9) translate(-477px, -377px);}75%{-webkit-transform: translate(477px, 377px) scale(1, 1) translate(-477px, -377px);transform: translate(477px, 377px) scale(1, 1) translate(-477px, -377px);}100%{-webkit-transform: translate(477px, 377px) scale(1, 1) translate(-477px, -377px);transform: translate(477px, 377px) scale(1, 1) translate(-477px, -377px);}}@keyframes kf_el_4ZUqcfAOEQD_an_e2kRnPqF0{0%{-webkit-transform: translate(477px, 377px) scale(1, 1) translate(-477px, -377px);transform: translate(477px, 377px) scale(1, 1) translate(-477px, -377px);}50%{-webkit-transform: translate(477px, 377px) scale(0.9, 0.9) translate(-477px, -377px);transform: translate(477px, 377px) scale(0.9, 0.9) translate(-477px, -377px);}75%{-webkit-transform: translate(477px, 377px) scale(1, 1) translate(-477px, -377px);transform: translate(477px, 377px) scale(1, 1) translate(-477px, -377px);}100%{-webkit-transform: translate(477px, 377px) scale(1, 1) translate(-477px, -377px);transform: translate(477px, 377px) scale(1, 1) translate(-477px, -377px);}}@-webkit-keyframes kf_el_4ZUqcfAOEQD_an_dyjCqnC8m{0%{-webkit-transform: translate(477px, 377px) rotate(0deg) translate(-477px, -377px);transform: translate(477px, 377px) rotate(0deg) translate(-477px, -377px);}25%{-webkit-transform: translate(477px, 377px) rotate(-10deg) translate(-477px, -377px);transform: translate(477px, 377px) rotate(-10deg) translate(-477px, -377px);}50%{-webkit-transform: translate(477px, 377px) rotate(-40deg) translate(-477px, -377px);transform: translate(477px, 377px) rotate(-40deg) translate(-477px, -377px);}75%{-webkit-transform: translate(477px, 377px) rotate(-10deg) translate(-477px, -377px);transform: translate(477px, 377px) rotate(-10deg) translate(-477px, -377px);}100%{-webkit-transform: translate(477px, 377px) rotate(0deg) translate(-477px, -377px);transform: translate(477px, 377px) rotate(0deg) translate(-477px, -377px);}}@keyframes kf_el_4ZUqcfAOEQD_an_dyjCqnC8m{0%{-webkit-transform: translate(477px, 377px) rotate(0deg) translate(-477px, -377px);transform: translate(477px, 377px) rotate(0deg) translate(-477px, -377px);}25%{-webkit-transform: translate(477px, 377px) rotate(-10deg) translate(-477px, -377px);transform: translate(477px, 377px) rotate(-10deg) translate(-477px, -377px);}50%{-webkit-transform: translate(477px, 377px) rotate(-40deg) translate(-477px, -377px);transform: translate(477px, 377px) rotate(-40deg) translate(-477px, -377px);}75%{-webkit-transform: translate(477px, 377px) rotate(-10deg) translate(-477px, -377px);transform: translate(477px, 377px) rotate(-10deg) translate(-477px, -377px);}100%{-webkit-transform: translate(477px, 377px) rotate(0deg) translate(-477px, -377px);transform: translate(477px, 377px) rotate(0deg) translate(-477px, -377px);}}@-webkit-keyframes kf_el_4ZUqcfAOEQD_an_bA3CDp-qM{0%{-webkit-transform: translate(477px, 377px) translate(-477px, -377px) translate(0px, 0px);transform: translate(477px, 377px) translate(-477px, -377px) translate(0px, 0px);}25%{-webkit-transform: translate(477px, 377px) translate(-477px, -377px) translate(175px, 0px);transform: translate(477px, 377px) translate(-477px, -377px) translate(175px, 0px);}50%{-webkit-transform: translate(477px, 377px) translate(-477px, -377px) translate(280px, 35px);transform: translate(477px, 377px) translate(-477px, -377px) translate(280px, 35px);}75%{-webkit-transform: translate(477px, 377px) translate(-477px, -377px) translate(175px, 0px);transform: translate(477px, 377px) translate(-477px, -377px) translate(175px, 0px);}100%{-webkit-transform: translate(477px, 377px) translate(-477px, -377px) translate(0px, 0px);transform: translate(477px, 377px) translate(-477px, -377px) translate(0px, 0px);}}@keyframes kf_el_4ZUqcfAOEQD_an_bA3CDp-qM{0%{-webkit-transform: translate(477px, 377px) translate(-477px, -377px) translate(0px, 0px);transform: translate(477px, 377px) translate(-477px, -377px) translate(0px, 0px);}25%{-webkit-transform: translate(477px, 377px) translate(-477px, -377px) translate(175px, 0px);transform: translate(477px, 377px) translate(-477px, -377px) translate(175px, 0px);}50%{-webkit-transform: translate(477px, 377px) translate(-477px, -377px) translate(280px, 35px);transform: translate(477px, 377px) translate(-477px, -377px) translate(280px, 35px);}75%{-webkit-transform: translate(477px, 377px) translate(-477px, -377px) translate(175px, 0px);transform: translate(477px, 377px) translate(-477px, -377px) translate(175px, 0px);}100%{-webkit-transform: translate(477px, 377px) translate(-477px, -377px) translate(0px, 0px);transform: translate(477px, 377px) translate(-477px, -377px) translate(0px, 0px);}}@-webkit-keyframes kf_el_YaXXS4J0bJ_an_bq4YC7I6C{0%{-webkit-transform: translate(689px, 218.37156677246094px) translate(-689px, -218.37156677246094px) translate(0px, 0px);transform: translate(689px, 218.37156677246094px) translate(-689px, -218.37156677246094px) translate(0px, 0px);}25%{-webkit-transform: translate(689px, 218.37156677246094px) translate(-689px, -218.37156677246094px) translate(0px, -60px);transform: translate(689px, 218.37156677246094px) translate(-689px, -218.37156677246094px) translate(0px, -60px);}50%{-webkit-transform: translate(689px, 218.37156677246094px) translate(-689px, -218.37156677246094px) translate(0px, -85px);transform: translate(689px, 218.37156677246094px) translate(-689px, -218.37156677246094px) translate(0px, -85px);}75%{-webkit-transform: translate(689px, 218.37156677246094px) translate(-689px, -218.37156677246094px) translate(0px, -60px);transform: translate(689px, 218.37156677246094px) translate(-689px, -218.37156677246094px) translate(0px, -60px);}100%{-webkit-transform: translate(689px, 218.37156677246094px) translate(-689px, -218.37156677246094px) translate(0px, 0px);transform: translate(689px, 218.37156677246094px) translate(-689px, -218.37156677246094px) translate(0px, 0px);}}@keyframes kf_el_YaXXS4J0bJ_an_bq4YC7I6C{0%{-webkit-transform: translate(689px, 218.37156677246094px) translate(-689px, -218.37156677246094px) translate(0px, 0px);transform: translate(689px, 218.37156677246094px) translate(-689px, -218.37156677246094px) translate(0px, 0px);}25%{-webkit-transform: translate(689px, 218.37156677246094px) translate(-689px, -218.37156677246094px) translate(0px, -60px);transform: translate(689px, 218.37156677246094px) translate(-689px, -218.37156677246094px) translate(0px, -60px);}50%{-webkit-transform: translate(689px, 218.37156677246094px) translate(-689px, -218.37156677246094px) translate(0px, -85px);transform: translate(689px, 218.37156677246094px) translate(-689px, -218.37156677246094px) translate(0px, -85px);}75%{-webkit-transform: translate(689px, 218.37156677246094px) translate(-689px, -218.37156677246094px) translate(0px, -60px);transform: translate(689px, 218.37156677246094px) translate(-689px, -218.37156677246094px) translate(0px, -60px);}100%{-webkit-transform: translate(689px, 218.37156677246094px) translate(-689px, -218.37156677246094px) translate(0px, 0px);transform: translate(689px, 218.37156677246094px) translate(-689px, -218.37156677246094px) translate(0px, 0px);}}@-webkit-keyframes kf_el_YaXXS4J0bJ_an_Ty0Fttb8y{0%{-webkit-transform: translate(689px, 218.37156677246094px) rotate(0deg) translate(-689px, -218.37156677246094px);transform: translate(689px, 218.37156677246094px) rotate(0deg) translate(-689px, -218.37156677246094px);}25%{-webkit-transform: translate(689px, 218.37156677246094px) rotate(30deg) translate(-689px, -218.37156677246094px);transform: translate(689px, 218.37156677246094px) rotate(30deg) translate(-689px, -218.37156677246094px);}50%{-webkit-transform: translate(689px, 218.37156677246094px) rotate(57deg) translate(-689px, -218.37156677246094px);transform: translate(689px, 218.37156677246094px) rotate(57deg) translate(-689px, -218.37156677246094px);}75%{-webkit-transform: translate(689px, 218.37156677246094px) rotate(30deg) translate(-689px, -218.37156677246094px);transform: translate(689px, 218.37156677246094px) rotate(30deg) translate(-689px, -218.37156677246094px);}100%{-webkit-transform: translate(689px, 218.37156677246094px) rotate(0deg) translate(-689px, -218.37156677246094px);transform: translate(689px, 218.37156677246094px) rotate(0deg) translate(-689px, -218.37156677246094px);}}@keyframes kf_el_YaXXS4J0bJ_an_Ty0Fttb8y{0%{-webkit-transform: translate(689px, 218.37156677246094px) rotate(0deg) translate(-689px, -218.37156677246094px);transform: translate(689px, 218.37156677246094px) rotate(0deg) translate(-689px, -218.37156677246094px);}25%{-webkit-transform: translate(689px, 218.37156677246094px) rotate(30deg) translate(-689px, -218.37156677246094px);transform: translate(689px, 218.37156677246094px) rotate(30deg) translate(-689px, -218.37156677246094px);}50%{-webkit-transform: translate(689px, 218.37156677246094px) rotate(57deg) translate(-689px, -218.37156677246094px);transform: translate(689px, 218.37156677246094px) rotate(57deg) translate(-689px, -218.37156677246094px);}75%{-webkit-transform: translate(689px, 218.37156677246094px) rotate(30deg) translate(-689px, -218.37156677246094px);transform: translate(689px, 218.37156677246094px) rotate(30deg) translate(-689px, -218.37156677246094px);}100%{-webkit-transform: translate(689px, 218.37156677246094px) rotate(0deg) translate(-689px, -218.37156677246094px);transform: translate(689px, 218.37156677246094px) rotate(0deg) translate(-689px, -218.37156677246094px);}}@-webkit-keyframes kf_el_RE4mn6K6iZ_an_Nl0Ws5to-{0%{-webkit-transform: translate(787px, 390.8466491699219px) rotate(0deg) translate(-787px, -390.8466491699219px);transform: translate(787px, 390.8466491699219px) rotate(0deg) translate(-787px, -390.8466491699219px);}50%{-webkit-transform: translate(787px, 390.8466491699219px) rotate(10deg) translate(-787px, -390.8466491699219px);transform: translate(787px, 390.8466491699219px) rotate(10deg) translate(-787px, -390.8466491699219px);}75%{-webkit-transform: translate(787px, 390.8466491699219px) rotate(0deg) translate(-787px, -390.8466491699219px);transform: translate(787px, 390.8466491699219px) rotate(0deg) translate(-787px, -390.8466491699219px);}100%{-webkit-transform: translate(787px, 390.8466491699219px) rotate(0deg) translate(-787px, -390.8466491699219px);transform: translate(787px, 390.8466491699219px) rotate(0deg) translate(-787px, -390.8466491699219px);}}@keyframes kf_el_RE4mn6K6iZ_an_Nl0Ws5to-{0%{-webkit-transform: translate(787px, 390.8466491699219px) rotate(0deg) translate(-787px, -390.8466491699219px);transform: translate(787px, 390.8466491699219px) rotate(0deg) translate(-787px, -390.8466491699219px);}50%{-webkit-transform: translate(787px, 390.8466491699219px) rotate(10deg) translate(-787px, -390.8466491699219px);transform: translate(787px, 390.8466491699219px) rotate(10deg) translate(-787px, -390.8466491699219px);}75%{-webkit-transform: translate(787px, 390.8466491699219px) rotate(0deg) translate(-787px, -390.8466491699219px);transform: translate(787px, 390.8466491699219px) rotate(0deg) translate(-787px, -390.8466491699219px);}100%{-webkit-transform: translate(787px, 390.8466491699219px) rotate(0deg) translate(-787px, -390.8466491699219px);transform: translate(787px, 390.8466491699219px) rotate(0deg) translate(-787px, -390.8466491699219px);}}@-webkit-keyframes kf_el_RE4mn6K6iZ_an_5gX_-9GYK{0%{-webkit-transform: translate(787px, 390.8466491699219px) translate(-787px, -390.8466491699219px) translate(0px, 0px);transform: translate(787px, 390.8466491699219px) translate(-787px, -390.8466491699219px) translate(0px, 0px);}25%{-webkit-transform: translate(787px, 390.8466491699219px) translate(-787px, -390.8466491699219px) translate(-115px, -5px);transform: translate(787px, 390.8466491699219px) translate(-787px, -390.8466491699219px) translate(-115px, -5px);}50%{-webkit-transform: translate(787px, 390.8466491699219px) translate(-787px, -390.8466491699219px) translate(-230px, -40px);transform: translate(787px, 390.8466491699219px) translate(-787px, -390.8466491699219px) translate(-230px, -40px);}75%{-webkit-transform: translate(787px, 390.8466491699219px) translate(-787px, -390.8466491699219px) translate(-117px, -15px);transform: translate(787px, 390.8466491699219px) translate(-787px, -390.8466491699219px) translate(-117px, -15px);}100%{-webkit-transform: translate(787px, 390.8466491699219px) translate(-787px, -390.8466491699219px) translate(0px, 0px);transform: translate(787px, 390.8466491699219px) translate(-787px, -390.8466491699219px) translate(0px, 0px);}}@keyframes kf_el_RE4mn6K6iZ_an_5gX_-9GYK{0%{-webkit-transform: translate(787px, 390.8466491699219px) translate(-787px, -390.8466491699219px) translate(0px, 0px);transform: translate(787px, 390.8466491699219px) translate(-787px, -390.8466491699219px) translate(0px, 0px);}25%{-webkit-transform: translate(787px, 390.8466491699219px) translate(-787px, -390.8466491699219px) translate(-115px, -5px);transform: translate(787px, 390.8466491699219px) translate(-787px, -390.8466491699219px) translate(-115px, -5px);}50%{-webkit-transform: translate(787px, 390.8466491699219px) translate(-787px, -390.8466491699219px) translate(-230px, -40px);transform: translate(787px, 390.8466491699219px) translate(-787px, -390.8466491699219px) translate(-230px, -40px);}75%{-webkit-transform: translate(787px, 390.8466491699219px) translate(-787px, -390.8466491699219px) translate(-117px, -15px);transform: translate(787px, 390.8466491699219px) translate(-787px, -390.8466491699219px) translate(-117px, -15px);}100%{-webkit-transform: translate(787px, 390.8466491699219px) translate(-787px, -390.8466491699219px) translate(0px, 0px);transform: translate(787px, 390.8466491699219px) translate(-787px, -390.8466491699219px) translate(0px, 0px);}}#el_lKFJy92un *{-webkit-animation-duration: 2s;animation-duration: 2s;-webkit-animation-iteration-count: infinite;animation-iteration-count: infinite;-webkit-animation-timing-function: cubic-bezier(0, 0, 1, 1);animation-timing-function: cubic-bezier(0, 0, 1, 1);}#el_kvxr8N8yrc{fill: #9b9a8e;}#el_f7hCK2Raz0{fill: #9b9a8e;}#el_TMyFbCdhyr{fill: #678469;}#el_CzUxP1Gmrt{fill: #678469;}#el_k4GMYp_Ry3{fill: #9b9a8e;stroke: #5e5c49;stroke-miterlimit: 10;stroke-width: 0.25px;}#el_Fxpj0Ry2kq{fill: #9b9a8e;stroke: #5e5c49;stroke-miterlimit: 10;stroke-width: 0.25px;}#el_Xa_JeGUynt{fill: #9b9a8e;stroke: #5e5c49;stroke-miterlimit: 10;stroke-width: 0.25px;}#el_YaXXS4J0bJ{fill: #678469;}#el_sFkJneSgQS{fill: #89766a;}#el_EzlSp6zY6c{fill: #c4c1ad;stroke: #6b695f;stroke-miterlimit: 10;stroke-width: 0.25px;}#el_2z1sAAn20gc{fill: #c4c1ad;stroke: #6b695f;stroke-miterlimit: 10;stroke-width: 0.25px;}#el_Vu_gQkcu4lX{fill: #c4c1ad;stroke: #6b695f;stroke-miterlimit: 10;stroke-width: 0.25px;}#el_WtEiS4ujnIY{fill: #c4c1ad;stroke: #6b695f;stroke-miterlimit: 10;stroke-width: 0.25px;}#el_PsZA-piST7i{fill: #c4c1ad;stroke: #6b695f;stroke-miterlimit: 10;stroke-width: 0.25px;}#el_WghGmJUujXL{fill: #c4c1ad;stroke: #6b695f;stroke-miterlimit: 10;stroke-width: 0.25px;}#el_Os4fH44JXCH{fill: #c4c1ad;stroke: #6b695f;stroke-miterlimit: 10;stroke-width: 0.25px;}#el_VAKmvEMjny1{fill: #c4c1ad;stroke: #6b695f;stroke-miterlimit: 10;stroke-width: 0.25px;}#el_gTAy9Tcs9f0{fill: #c4c1ad;stroke: #6b695f;stroke-miterlimit: 10;stroke-width: 0.25px;}#el_PYQbWwG3kEg{fill: #c4c1ad;stroke: #6b695f;stroke-miterlimit: 10;stroke-width: 0.25px;}#el_qZcdD3IA4pC{fill: #c4c1ad;stroke: #6b695f;stroke-miterlimit: 10;stroke-width: 0.5px;}#el_B7A6tWyM7KX{fill: #c4c1ad;stroke: #6b695f;stroke-miterlimit: 10;stroke-width: 0.25px;}#el_0TIifVoNxlr{fill: #6b8c6e;}#el_kZClJ7r0gJE{fill: #998408;}#el_yL6hRbQl8Rc{fill: #678469;}#el_h5TLJS9S8D2{fill: #9b9a8e;stroke: #5e5c49;stroke-miterlimit: 10;stroke-width: 0.25px;}#el_EMiKqjAN0Qw{fill: #9b9a8e;stroke: #5e5c49;stroke-miterlimit: 10;stroke-width: 0.25px;}#el_dWRSM_dSQ5j{fill: #678469;}#el_6VJ3zgFx66T{fill: #9b9a8e;}#el_w0tLqTudCIC{fill: #9b9a8e;}#el_8yVBldFlgrA{fill: #678469;}#el_RE4mn6K6iZ_an_5gX_-9GYK{-webkit-animation-fill-mode: backwards;animation-fill-mode: backwards;-webkit-transform: translate(787px, 390.8466491699219px) translate(-787px, -390.8466491699219px) translate(0px, 0px);transform: translate(787px, 390.8466491699219px) translate(-787px, -390.8466491699219px) translate(0px, 0px);-webkit-animation-name: kf_el_RE4mn6K6iZ_an_5gX_-9GYK;animation-name: kf_el_RE4mn6K6iZ_an_5gX_-9GYK;-webkit-animation-timing-function: cubic-bezier(0, 0, 1, 1);animation-timing-function: cubic-bezier(0, 0, 1, 1);}#el_RE4mn6K6iZ_an_Nl0Ws5to-{-webkit-animation-fill-mode: backwards;animation-fill-mode: backwards;-webkit-transform: translate(787px, 390.8466491699219px) rotate(0deg) translate(-787px, -390.8466491699219px);transform: translate(787px, 390.8466491699219px) rotate(0deg) translate(-787px, -390.8466491699219px);-webkit-animation-name: kf_el_RE4mn6K6iZ_an_Nl0Ws5to-;animation-name: kf_el_RE4mn6K6iZ_an_Nl0Ws5to-;-webkit-animation-timing-function: cubic-bezier(0, 0, 1, 1);animation-timing-function: cubic-bezier(0, 0, 1, 1);}#el_YaXXS4J0bJ_an_Ty0Fttb8y{-webkit-animation-fill-mode: backwards;animation-fill-mode: backwards;-webkit-transform: translate(689px, 218.37156677246094px) rotate(0deg) translate(-689px, -218.37156677246094px);transform: translate(689px, 218.37156677246094px) rotate(0deg) translate(-689px, -218.37156677246094px);-webkit-animation-name: kf_el_YaXXS4J0bJ_an_Ty0Fttb8y;animation-name: kf_el_YaXXS4J0bJ_an_Ty0Fttb8y;-webkit-animation-timing-function: cubic-bezier(0, 0, 1, 1);animation-timing-function: cubic-bezier(0, 0, 1, 1);}#el_YaXXS4J0bJ_an_bq4YC7I6C{-webkit-animation-fill-mode: backwards;animation-fill-mode: backwards;-webkit-transform: translate(689px, 218.37156677246094px) translate(-689px, -218.37156677246094px) translate(0px, 0px);transform: translate(689px, 218.37156677246094px) translate(-689px, -218.37156677246094px) translate(0px, 0px);-webkit-animation-name: kf_el_YaXXS4J0bJ_an_bq4YC7I6C;animation-name: kf_el_YaXXS4J0bJ_an_bq4YC7I6C;-webkit-animation-timing-function: cubic-bezier(0, 0, 1, 1);animation-timing-function: cubic-bezier(0, 0, 1, 1);}#el_4ZUqcfAOEQD_an_bA3CDp-qM{-webkit-animation-fill-mode: backwards;animation-fill-mode: backwards;-webkit-transform: translate(477px, 377px) translate(-477px, -377px) translate(0px, 0px);transform: translate(477px, 377px) translate(-477px, -377px) translate(0px, 0px);-webkit-animation-name: kf_el_4ZUqcfAOEQD_an_bA3CDp-qM;animation-name: kf_el_4ZUqcfAOEQD_an_bA3CDp-qM;-webkit-animation-timing-function: cubic-bezier(0, 0, 1, 1);animation-timing-function: cubic-bezier(0, 0, 1, 1);}#el_4ZUqcfAOEQD_an_dyjCqnC8m{-webkit-animation-fill-mode: backwards;animation-fill-mode: backwards;-webkit-transform: translate(477px, 377px) rotate(0deg) translate(-477px, -377px);transform: translate(477px, 377px) rotate(0deg) translate(-477px, -377px);-webkit-animation-name: kf_el_4ZUqcfAOEQD_an_dyjCqnC8m;animation-name: kf_el_4ZUqcfAOEQD_an_dyjCqnC8m;-webkit-animation-timing-function: cubic-bezier(0, 0, 1, 1);animation-timing-function: cubic-bezier(0, 0, 1, 1);}#el_4ZUqcfAOEQD_an_e2kRnPqF0{-webkit-animation-fill-mode: backwards;animation-fill-mode: backwards;-webkit-transform: translate(477px, 377px) scale(1, 1) translate(-477px, -377px);transform: translate(477px, 377px) scale(1, 1) translate(-477px, -377px);-webkit-animation-name: kf_el_4ZUqcfAOEQD_an_e2kRnPqF0;animation-name: kf_el_4ZUqcfAOEQD_an_e2kRnPqF0;-webkit-animation-timing-function: cubic-bezier(0, 0, 1, 1);animation-timing-function: cubic-bezier(0, 0, 1, 1);}#el__9KeMdTz9Ts_an_qQwXcldoY{-webkit-animation-fill-mode: backwards;animation-fill-mode: backwards;-webkit-transform: translate(621.2222290039062px, 82.79312133789062px) rotate(0deg) translate(-621.2222290039062px, -82.79312133789062px);transform: translate(621.2222290039062px, 82.79312133789062px) rotate(0deg) translate(-621.2222290039062px, -82.79312133789062px);-webkit-animation-name: kf_el__9KeMdTz9Ts_an_qQwXcldoY;animation-name: kf_el__9KeMdTz9Ts_an_qQwXcldoY;-webkit-animation-timing-function: cubic-bezier(0, 0, 1, 1);animation-timing-function: cubic-bezier(0, 0, 1, 1);}#el__9KeMdTz9Ts_an_cOdF5UW6Q{-webkit-animation-fill-mode: backwards;animation-fill-mode: backwards;-webkit-transform: translate(621.2222290039062px, 82.79312133789062px) translate(-621.2222290039062px, -82.79312133789062px) translate(0px, 0px);transform: translate(621.2222290039062px, 82.79312133789062px) translate(-621.2222290039062px, -82.79312133789062px) translate(0px, 0px);-webkit-animation-name: kf_el__9KeMdTz9Ts_an_cOdF5UW6Q;animation-name: kf_el__9KeMdTz9Ts_an_cOdF5UW6Q;-webkit-animation-timing-function: cubic-bezier(0, 0, 1, 1);animation-timing-function: cubic-bezier(0, 0, 1, 1);}</style>
  <title>trex</title>
  <g id="el_IwVZ_Xyoha">
    <path d="M495.7427,326.975c.585.5254,4.6924-2.8423,5.4186-4.862.6768-1.8821-5.612-2.3465-5.612-2.3465Z" id="el_kvxr8N8yrc"/>
    <path d="M511,316c.6348.5608,5.84-2.5579,6.5252-4.5991.6386-1.9021-5.9862-2.62-5.9862-2.62Z" id="el_f7hCK2Raz0"/>
    <path d="M475,273s1,9,2,11,1,12,1,12,2,2,2,3,2,16,6,17c0,0,3,4,3,5s2,7,3,7,6-1,6-3a12.2084,12.2084,0,0,0,.5-3.5c0-2-4-3-4-3s-2-5-1-7,7,2,7,2,4,4,5,4,6,1,8-4-2-5-2-5-5,0-6,1c0,0-5-2-5-4s-5-9-6-9c0,0-1-3-3-3s0-13,0-13l2-12s-7-12-18-3C475.5,265.5,473.5,267.5,475,273Z" id="el_TMyFbCdhyr"/>
  </g>
  <g id="el_6GNWBQzw9m">
    <g id="el_RE4mn6K6iZ_an_5gX_-9GYK" data-animator-group="true" data-animator-type="0"><g id="el_RE4mn6K6iZ_an_Nl0Ws5to-" data-animator-group="true" data-animator-type="1"><g id="el_RE4mn6K6iZ">
      <path d="M856,404s4,56-1,61-19,19-24,21-23,6-25,11c0,0,7,5,5,13,0,0,24,1,24,0,0,0,6-14,12-15s8,17,8,17,34,2,35-4,5-7,0-27-1-31-1-31,10,15,17,18c0,0,0-8,3-6s-10-13-10-13-5-14-6-46C893,403,893,375,856,404Z" id="el_CzUxP1Gmrt"/>
      <path d="M903,466c.4133-.0146,8.3187,6.0825,10,6,2.48-.1218-3.7106-11.3254-5-11C908,461,901,459,903,466Z" id="el_k4GMYp_Ry3"/>
      <path d="M810,496s-15,2-23,15c0,0,22-1,24-1C812.4142,510,815,496,810,496Z" id="el_Fxpj0Ry2kq"/>
      <path d="M834.5445,511.9111a10.0817,10.0817,0,0,0,.6843-1.754c.94-3.3122,4.7434-15.296,10.7712-16.1571,5.8863-.8409,8.237,11.7532,8.836,15.782a1.1669,1.1669,0,0,1-1.0477,1.3334L834.6314,512.94a.3516.3516,0,0,1-.3478-.5072Z" id="el_Xa_JeGUynt"/>
    </g></g></g>
  </g>
  <g id="el_1FvxTAydBR">
    <g id="el_YaXXS4J0bJ_an_bq4YC7I6C" data-animator-group="true" data-animator-type="0"><g id="el_YaXXS4J0bJ_an_Ty0Fttb8y" data-animator-group="true" data-animator-type="1"><path d="M708,328s15,28,34,27c0,0,30,24,67,23,0,0,35,6,37,14,0,0,7,10,9,11s37-4,37-4-4-16-17-24-30-28-30-28-16-30-19-33c0,0-7-44-10-55s-25-37-37-37-51-14-75,13-12,66-12,66S700,325,708,328Z" id="el_YaXXS4J0bJ"/></g></g>
  </g>
  <g id="el_hW5BzzQ9ki">
    <path d="M174,185s-36,0-42,6c0,0-46,5-58,0,0,0-30-5-31-9s47,0,66-9,57-11,57-11S181,180,174,185Z" id="el_sFkJneSgQS"/>
    <path d="M98.7111,189.5081c1.4875,3.0844,4.98,9.9529,7.2889,11.4919a69.6056,69.6056,0,0,0-1-10c-1-4-2.24-3.13-5.3177-2.946A1.0329,1.0329,0,0,0,98.7111,189.5081Z" id="el_EzlSp6zY6c"/>
    <path d="M133.3194,189.024c1.7019,2.6515,5.7136,8.567,8.487,9.9842,0,0-.0047-5.7726-.8222-8.3671-1.0659-3.3829-2.6245-2.7343-6.4127-2.7667C133.6184,187.8662,132.9338,188.4233,133.3194,189.024Z" id="el_2z1sAAn20gc"/>
    <path d="M168.9679,180.5779c.1948,1.9475.53,6.3575-.2239,7.9651a30.5648,30.5648,0,0,1-2.7095-4.7621c-.7577-2.1484.2-2.2726,1.9324-3.4421C168.4028,180.0445,168.9237,180.1367,168.9679,180.5779Z" id="el_Vu_gQkcu4lX"/>
    <path d="M156.8687,183.7558c1.2665,1.9564,4.2328,6.3084,6.1313,7.2442a36.3182,36.3182,0,0,0-1.0152-6.4417c-.8912-2.5612-1.8759-1.9663-4.3608-1.768C156.9987,182.84,156.5817,183.3126,156.8687,183.7558Z" id="el_WtEiS4ujnIY"/>
    <path d="M87.8758,192.0082C89.1445,194.4335,92.1139,199.83,94,201a55.5323,55.5323,0,0,0-1.055-7.961c-.9021-3.169-1.8718-2.4422-4.3293-2.217A.8256.8256,0,0,0,87.8758,192.0082Z" id="el_PsZA-piST7i"/>
    <path d="M146.1113,185.4969c.8676,2.1837,2.9306,7.06,4.5018,8.2669,0,0-.0716-4.6476-.0347-6.7938.0581-3.3771-1.2322-2.4872-3.6606-2.3775C146.3517,184.6181,145.9148,185.0022,146.1113,185.4969Z" id="el_WghGmJUujXL"/>
    <path d="M113.1271,190.2372c.7486,1.7852,2.5277,5.772,3.8729,6.7628,0,0-.0792-3.7924-.056-5.5435.0365-2.7552-1.0609-2.0341-3.1324-1.954C113.3288,189.5211,112.9575,189.8328,113.1271,190.2372Z" id="el_Os4fH44JXCH"/>
    <path d="M75.9914,190.4c.2548,1.5086.9188,4.915,1.8861,6.0743,0,0,.8014-2.6817,1.2246-3.8992.6658-1.9157-.4749-1.7911-2.3336-2.4523C76.3352,189.9682,75.9337,190.0578,75.9914,190.4Z" id="el_VAKmvEMjny1"/>
    <path d="M68.3381,189.0566c.7564,1.6809,2.5576,5.44,3.9473,6.4117,0,0-.03-3.5073.018-5.1242.076-2.544-1.0788-1.9241-3.241-1.9374C68.5584,188.4035,68.1667,188.6758,68.3381,189.0566Z" id="el_gTAy9Tcs9f0"/>
    <path d="M124.1281,191.3752c.9475,2.0093,3.1962,6.4983,4.8719,7.6248,0,0-.1438-4.25-.1363-6.2124.0118-3.0869-1.3368-2.2922-3.8978-2.2275C124.3689,190.5751,123.9135,190.92,124.1281,191.3752Z" id="el_PYQbWwG3kEg"/>
    <path id="el_qZcdD3IA4pC" d="M48.5,181.5l3.8054,8.8792A.3619.3619,0,0,0,53,190.2367V183c0-1,2.0617-.6866,2.0617-.6866S56,192,58,193l1,1s3-9,2-11,0-2,0-2h3s2,16,5,17c0,0,1-17,3-20s3,2,3,2,4,14,7,13c0,0-2-13,0-16s4,0,4,0,3,15,7,16,3,0,3,0-3-12-4-18,6,1,6,1,3,11,6,11,2-1,2-1-4-9-3-13,10,17,14,16-6-22-6-22l4,3s6,19,15,19c0,0-10-22-7-26s5,4,5,4,4,16,12,16c0,0-6-11-6-20s5,2,5,2,5,12,11,13c0,0-5-12-6-17s4-2,4-2,1,15,9,17c0,0-5-15-4-18s4,5,4,5,2,7,6,7c0,0-6-11-4-13"/>
    <path id="el_B7A6tWyM7KX" data-name="teeth" d="M97.6033,274.967l-2.3-6.69a.2788.2788,0,0,1,.4664-.282l3.5965,3.8119c.498.5279,1.4921-.7227,1.4921-.7227s-4.3012-5.6075-3.6835-7.1881l.06-1.0543s6.1563,3.1722,6.5946,4.7543.9961,1.0558.9961,1.0558l1.6737-1.579s-6.8534-9.4992-5.6779-11.6062c0,0,9.0251,8.4481,11.6351,8.9791s.6775-2.6348.6775-2.6348-4.7415-9.4961-2.57-10.5473c0,0,5.6384,7.1575,7.9692,8.4465,3.8762,2.1438,2.9914-1.1374,2.2315-2.1053,0,0-5.7974-9.4977-4.064-12.131s1.6736-1.5791,1.6736-1.5791,4.41,7.8457,6.7338,11.6078c3.4055,5.5139,4.2321-1.1044,2.8492-3.686,0,0-3.8051-7.3861-2.1315-8.9651s1.6138-.5248,1.6138-.5248,4.51,9.5884,7.06,11.1737-5.1471-16.97-2.4175-18.5472,7.61,14.772,7.61,14.772L142.5,247.5s-6.3375-8.8991-4.22-14.2037a1.07,1.07,0,0,1,1.9656.0246c1.5718,3.7012,5.3113,11.7894,8.1335,12.1994,3.6659.5326.7971-4.7434.7971-4.7434s-5.7376-10.5519-1.2746-14.7627c0,0,2.1315,8.9651,6.6142,13.7162s1.7932-3.6875,1.7932-3.6875S149.6508,224.186,152.5,220.5c0,0,6.6587,11.8569,8.5912,15.0228s3.2277-1.05,3.2277-1.05S152.0331,219.7666,155.5,214.5c0,0,10.0543,16.812,12.1064,17.8694s-.2589-4.745-.2589-4.745-8.079-20.019-5.8475-22.1244c0,0,7.84,24.236,9.9517,24.2392"/>
    <path d="M265.4876,80.2562l3.4157-1.7079a2.6334,2.6334,0,0,1,2.06-.1039A9.8822,9.8822,0,0,0,278,78c5-2,39-13,79-10,39.9873,2.999,55.99,28.9835,138.9208-3.9685.0493-.02.0924-.0381.1405-.06,1.8518-.8619,46.0407-20.4861,188.62-.0168a2.6062,2.6062,0,0,0,.6339.0135C688.4684,63.6469,714.3068,61.0614,719,62c5,1,31,10,43,19,11.4623,8.5967,35.6979,9.8943,37.847,9.9933a2.4822,2.4822,0,0,1,.32.0355C801.996,91.3492,818.283,94.34,823,100c5,6,104,11,122,9,17.9358-1.9929,197.71-13.9145,221.7477-5.0956a2.46,2.46,0,0,0,.5226.1314c3.149.43,33.27,4.8651,61.6353,20.9108.0624.0353.1229.0662.1882.0957,3.1957,1.4426,86.9825,39.53,90.9062,68.9577,0,0,3.4768,5.4636-35.1136-22.2227a2.6248,2.6248,0,0,0-.8331-.4c-4.5477-1.248-42.43-11.7066-49.196-15.6559a2.5306,2.5306,0,0,0-.8893-.3056c-5.0141-.7855-43.9215-6.7866-50.468-4.9162-7,2-14-2-61,16s-117,34-133,41-49,17-70,19c-19.9472,1.9-72.3751,58.8363-77.5819,64.5406a2.5905,2.5905,0,0,0-.576,1.018c-.9274,3.16-5.9669,18.7482-15.8421,21.4414a77.1609,77.1609,0,0,1-30.699,6.9993,2.7436,2.7436,0,0,1-.5958-.0631c-2.04-.4443-14.2225-3.1369-22.4524-5.8524a2.4678,2.4678,0,0,0-.5193-.1125c-3.7544-.4031-46.0009-4.8822-51.7335-2.9713-5.94,1.98-65.7912,10.8215-84.45,9.0565a2.57,2.57,0,0,1-1.0363-.3343L620.63,312.5743a2.6146,2.6146,0,0,0-.2676-.1333l-6.6144-2.8347a2.6154,2.6154,0,0,0-.5113-.1595c-6.2678-1.2688-122.4635-24.8855-136.46-34.7431a2.62,2.62,0,0,0-.5967-.3224c-4.6755-1.7487-59.1927-22.5372-65.5573-43.4544a2.5193,2.5193,0,0,0-.4005-.8C409.12,228.6779,404.94,223.5,401.5,223.5c-3.9286,0-50.3,18.3275-62.3758,18.982a2.672,2.672,0,0,0-1.1781.36c-1.9205,1.0928-8.8729,4.3346-21.4461,2.6582,0,0-9.6965-.97-15.722.91a2.3986,2.3986,0,0,1-.5793.1095c-1.9846.119-13.3266.6171-20.612-2.9768a1.8261,1.8261,0,0,0-.1858-.08C278.339,243.076,268.92,239.9644,259.5,247.5c-10,8-45,15-54,15-8.6568,0-65.4235,26.83-69.74,28.8767a2.499,2.499,0,0,1-.55.1878c-1.9561.4258-13.3271,2.7591-19.71.9355-6.0907-1.74-18.9949-11.051-22.9035-16.0756a2.595,2.595,0,0,1,.8441-3.8944l.0594-.03c2-1,46-22,47-25s23-32,23-34c0-1.7,3.6125-17.85,8.381-23.885a10.5,10.5,0,0,0,2.0281-8.0344C172.8142,174.0367,170,163,161.5,163.5c-6.446,1.1624-32.5,4.5-52.7231,11.8773a3.49,3.49,0,0,1-.5718.1761c-3.2724.5918-32.7871,5.9014-38.6319,5.9463-.0521,0-.0911.0017-.143.0058-1.4482.114-24.961,1.9329-25.93-.0055-.9958-1.9916-7.9415-13.9,9.7753-37.6993a2.6744,2.6744,0,0,1,.5151-.5239C55.726,141.79,66.7659,133.3227,69.5,131.5c3-2,12-12,25-16s45-4,48-6,9-10,12-17c2.0416-4.7638,6.8621-4.8962,9.7336-4.4947a2.6084,2.6084,0,0,0,2.8709-1.8162c.9211-3.0175,2.9432-7.9986,6.3955-8.6891,5-1,3-3,29-1,0,0,4.9824.9965,29.8677-3.9736a2.5245,2.5245,0,0,1,.2681-.0393c1.6655-.1489,18.2985-1.3813,30.1394,7.5386A2.5882,2.5882,0,0,0,265.4876,80.2562Z" id="el_0TIifVoNxlr"/>
  </g>
  <g id="el_trrWY4Y3nFo">
    <path d="M176,113s11-3.3759,12-3.3759S179,94.9955,176,113Z" id="el_kZClJ7r0gJE"/>
    <path d="M181.5318,107.4938c.44,2.118.4208,3.6418-1.0489,3.6727-.8949.0188-1.1279-1.3662-1.4486-3.3843-.3693-2.3245-.3418-3.3342.8281-3.7862C180.6955,103.6741,181.074,105.2882,181.5318,107.4938Z" id="el_oTvO89YBRla"/>
  </g>
  <g id="el_4ZUqcfAOEQD_an_bA3CDp-qM" data-animator-group="true" data-animator-type="0"><g id="el_4ZUqcfAOEQD_an_dyjCqnC8m" data-animator-group="true" data-animator-type="1"><g id="el_4ZUqcfAOEQD_an_e2kRnPqF0" data-animator-group="true" data-animator-type="2"><g id="el_4ZUqcfAOEQD">
    <g id="el_ahueOlywsjI">
      <path d="M651,377s-3,30-18,38-89,68-89,68-51,13-56,29l-1,2s65,2,67,0v2l26-2s43,2,45-2,4-7,3-17c0,0,11-7,11-23,0,0,57-48,57-52,0,0,2-7.7639,2-10C698,403,698,381,651,377Z" id="el_yL6hRbQl8Rc"/>
      <path d="M569.8235,499.05C566.3077,502.2407,549.1722,515.8612,550,520c0,0,22.4749-6.3212,28.2422-5.5188a2.0585,2.0585,0,0,0,2.3148-1.5794c.9948-4.4807,2.1237-14.6054-7.88-14.9338A4.0728,4.0728,0,0,0,569.8235,499.05Z" id="el_h5TLJS9S8D2"/>
      <path d="M515,513s2.1589-14.35-1-17c-4.59-3.85-31.1466,6.2917-37,21C477,517,513,516,515,513Z" id="el_EMiKqjAN0Qw"/>
    </g>
  </g></g></g></g>
  <g id="el__9KeMdTz9Ts_an_cOdF5UW6Q" data-animator-group="true" data-animator-type="0"><g id="el__9KeMdTz9Ts_an_qQwXcldoY" data-animator-group="true" data-animator-type="1"><g id="el__9KeMdTz9Ts">
    <path d="M621.7769,217.5036a29.4349,29.4349,0,0,1,.0272,4.3156,19.02,19.02,0,0,0,.138,4.1794,29.618,29.618,0,0,1,.3262,7.6893,22.7058,22.7058,0,0,0-.0517,4.7913,30.9914,30.9914,0,0,1-.1593,8.0829c-.7956,5.6477-1.5334,14.2421.348,19.1654.4276,1.1188.862,2.2263,1.19,3.3782,2.3242,8.1567,10.9555,37.8746,17.0375,51.123a30.0931,30.0931,0,0,1,2.1008,6.2239c1.5,6.9729,4.9693,22.6567,7.2662,29.5474.8333,2.5.8179,7.3148.3609,12.9655a29.3259,29.3259,0,0,0,22.8074,31.0908A37.374,37.374,0,0,1,677,401c12.6341,4.2114,17.6672,4.8032,19.6723,4.6064a1.463,1.463,0,0,0,1.31-1.5007c-.0874-3.6949-.5441-17.668-2.4818-19.6057-2.5-2.5.7155-38.1128,9.0281-55.142a27.4024,27.4024,0,0,1,1.7367-3.0165C710.1483,320.4273,727.5,293.6048,727.5,286.5c0-8,53-25,71-35S827,208,831,180c2.4864-17.4048-1.5958-35.5823-9.4844-52.0108A72.1471,72.1471,0,0,0,780.4,91.33C759.6479,83.9913,733.6165,79.3459,707,86,699,88,615.1283,133.5251,621.7769,217.5036Z" id="el_dWRSM_dSQ5j"/>
  </g></g></g>
  <g id="el_uwV0FaqRtGD">
    <path d="M356,245s7,6,9,6,0-7.5717,0-7.5717Z" id="el_6VJ3zgFx66T"/>
    <path d="M371,259c.558,5.1056,7.5008,9.9163,9,7,.9144-1.7787,1-7,1-7Z" id="el_w0tLqTudCIC"/>
    <path d="M470,199s-13,33-20,34-52-5-52-5-2,8-9,10c0,0-8,9-10,10s2,11,2,11,0,4-3,4a21.7986,21.7986,0,0,1-6-1s-4-7-3-14c0,0,7-10,7-12s-5-1-6,0-5,4-5,4,1,5-2,6-7,0-7-1a13.8343,13.8343,0,0,1-2-7s2-4,4-5,11-8,11-8a3.0971,3.0971,0,0,1,1-2c1-1,18-9,19-9s2-2,2-2a2.19,2.19,0,0,1,1.5-.5,105.0382,105.0382,0,0,0,13-2c4-1,11-3,11-3a89.6,89.6,0,0,1,16-2s2-1,3,0c0,0-1-2,0-6s-1-6,3-15,17-4,17-4S470.5,184.5,470,199Z" id="el_8yVBldFlgrA"/>
  </g>
</svg>