<svg xmlns="http://www.w3.org/2000/svg" viewBox="0 0 955 786" id="el_YvppAu-u-"><style>@-webkit-keyframes kf_el_g3_VdbnZqO_an_eK-PyZIh3{0%{-webkit-transform: translate(728.1013793945312px, 501.2060852050781px) rotate(5deg) translate(-728.1013793945312px, -501.2060852050781px);transform: translate(728.1013793945312px, 501.2060852050781px) rotate(5deg) translate(-728.1013793945312px, -501.2060852050781px);}21.11%{-webkit-transform: translate(728.1013793945312px, 501.2060852050781px) rotate(0deg) translate(-728.1013793945312px, -501.2060852050781px);transform: translate(728.1013793945312px, 501.2060852050781px) rotate(0deg) translate(-728.1013793945312px, -501.2060852050781px);}41.11%{-webkit-transform: translate(728.1013793945312px, 501.2060852050781px) rotate(5deg) translate(-728.1013793945312px, -501.2060852050781px);transform: translate(728.1013793945312px, 501.2060852050781px) rotate(5deg) translate(-728.1013793945312px, -501.2060852050781px);}100%{-webkit-transform: translate(728.1013793945312px, 501.2060852050781px) rotate(5deg) translate(-728.1013793945312px, -501.2060852050781px);transform: translate(728.1013793945312px, 501.2060852050781px) rotate(5deg) translate(-728.1013793945312px, -501.2060852050781px);}}@keyframes kf_el_g3_VdbnZqO_an_eK-PyZIh3{0%{-webkit-transform: translate(728.1013793945312px, 501.2060852050781px) rotate(5deg) translate(-728.1013793945312px, -501.2060852050781px);transform: translate(728.1013793945312px, 501.2060852050781px) rotate(5deg) translate(-728.1013793945312px, -501.2060852050781px);}21.11%{-webkit-transform: translate(728.1013793945312px, 501.2060852050781px) rotate(0deg) translate(-728.1013793945312px, -501.2060852050781px);transform: translate(728.1013793945312px, 501.2060852050781px) rotate(0deg) translate(-728.1013793945312px, -501.2060852050781px);}41.11%{-webkit-transform: translate(728.1013793945312px, 501.2060852050781px) rotate(5deg) translate(-728.1013793945312px, -501.2060852050781px);transform: translate(728.1013793945312px, 501.2060852050781px) rotate(5deg) translate(-728.1013793945312px, -501.2060852050781px);}100%{-webkit-transform: translate(728.1013793945312px, 501.2060852050781px) rotate(5deg) translate(-728.1013793945312px, -501.2060852050781px);transform: translate(728.1013793945312px, 501.2060852050781px) rotate(5deg) translate(-728.1013793945312px, -501.2060852050781px);}}@-webkit-keyframes kf_el_s7d7hKcdMo_an_Wk0JO4ml5{0%{-webkit-transform: translate(741.169921875px, 583.2798461914062px) rotate(20deg) translate(-741.169921875px, -583.2798461914062px);transform: translate(741.169921875px, 583.2798461914062px) rotate(20deg) translate(-741.169921875px, -583.2798461914062px);}21.11%{-webkit-transform: translate(741.169921875px, 583.2798461914062px) rotate(0deg) translate(-741.169921875px, -583.2798461914062px);transform: translate(741.169921875px, 583.2798461914062px) rotate(0deg) translate(-741.169921875px, -583.2798461914062px);}41.11%{-webkit-transform: translate(741.169921875px, 583.2798461914062px) rotate(20deg) translate(-741.169921875px, -583.2798461914062px);transform: translate(741.169921875px, 583.2798461914062px) rotate(20deg) translate(-741.169921875px, -583.2798461914062px);}100%{-webkit-transform: translate(741.169921875px, 583.2798461914062px) rotate(20deg) translate(-741.169921875px, -583.2798461914062px);transform: translate(741.169921875px, 583.2798461914062px) rotate(20deg) translate(-741.169921875px, -583.2798461914062px);}}@keyframes kf_el_s7d7hKcdMo_an_Wk0JO4ml5{0%{-webkit-transform: translate(741.169921875px, 583.2798461914062px) rotate(20deg) translate(-741.169921875px, -583.2798461914062px);transform: translate(741.169921875px, 583.2798461914062px) rotate(20deg) translate(-741.169921875px, -583.2798461914062px);}21.11%{-webkit-transform: translate(741.169921875px, 583.2798461914062px) rotate(0deg) translate(-741.169921875px, -583.2798461914062px);transform: translate(741.169921875px, 583.2798461914062px) rotate(0deg) translate(-741.169921875px, -583.2798461914062px);}41.11%{-webkit-transform: translate(741.169921875px, 583.2798461914062px) rotate(20deg) translate(-741.169921875px, -583.2798461914062px);transform: translate(741.169921875px, 583.2798461914062px) rotate(20deg) translate(-741.169921875px, -583.2798461914062px);}100%{-webkit-transform: translate(741.169921875px, 583.2798461914062px) rotate(20deg) translate(-741.169921875px, -583.2798461914062px);transform: translate(741.169921875px, 583.2798461914062px) rotate(20deg) translate(-741.169921875px, -583.2798461914062px);}}@-webkit-keyframes kf_el_ps_MIl1B1P_an_KN-fNnR4h{0%{-webkit-transform: translate(376.0559997558594px, 486.998046875px) rotate(5deg) translate(-376.0559997558594px, -486.998046875px);transform: translate(376.0559997558594px, 486.998046875px) rotate(5deg) translate(-376.0559997558594px, -486.998046875px);}21.11%{-webkit-transform: translate(376.0559997558594px, 486.998046875px) rotate(0deg) translate(-376.0559997558594px, -486.998046875px);transform: translate(376.0559997558594px, 486.998046875px) rotate(0deg) translate(-376.0559997558594px, -486.998046875px);}41.11%{-webkit-transform: translate(376.0559997558594px, 486.998046875px) rotate(5deg) translate(-376.0559997558594px, -486.998046875px);transform: translate(376.0559997558594px, 486.998046875px) rotate(5deg) translate(-376.0559997558594px, -486.998046875px);}100%{-webkit-transform: translate(376.0559997558594px, 486.998046875px) rotate(5deg) translate(-376.0559997558594px, -486.998046875px);transform: translate(376.0559997558594px, 486.998046875px) rotate(5deg) translate(-376.0559997558594px, -486.998046875px);}}@keyframes kf_el_ps_MIl1B1P_an_KN-fNnR4h{0%{-webkit-transform: translate(376.0559997558594px, 486.998046875px) rotate(5deg) translate(-376.0559997558594px, -486.998046875px);transform: translate(376.0559997558594px, 486.998046875px) rotate(5deg) translate(-376.0559997558594px, -486.998046875px);}21.11%{-webkit-transform: translate(376.0559997558594px, 486.998046875px) rotate(0deg) translate(-376.0559997558594px, -486.998046875px);transform: translate(376.0559997558594px, 486.998046875px) rotate(0deg) translate(-376.0559997558594px, -486.998046875px);}41.11%{-webkit-transform: translate(376.0559997558594px, 486.998046875px) rotate(5deg) translate(-376.0559997558594px, -486.998046875px);transform: translate(376.0559997558594px, 486.998046875px) rotate(5deg) translate(-376.0559997558594px, -486.998046875px);}100%{-webkit-transform: translate(376.0559997558594px, 486.998046875px) rotate(5deg) translate(-376.0559997558594px, -486.998046875px);transform: translate(376.0559997558594px, 486.998046875px) rotate(5deg) translate(-376.0559997558594px, -486.998046875px);}}@-webkit-keyframes kf_el_3DWHXVH882_an_CHiK1jD4A{0%{-webkit-transform: translate(339.3910217285156px, 584.400146484375px) rotate(20deg) translate(-339.3910217285156px, -584.400146484375px);transform: translate(339.3910217285156px, 584.400146484375px) rotate(20deg) translate(-339.3910217285156px, -584.400146484375px);}21.11%{-webkit-transform: translate(339.3910217285156px, 584.400146484375px) rotate(0deg) translate(-339.3910217285156px, -584.400146484375px);transform: translate(339.3910217285156px, 584.400146484375px) rotate(0deg) translate(-339.3910217285156px, -584.400146484375px);}41.11%{-webkit-transform: translate(339.3910217285156px, 584.400146484375px) rotate(20deg) translate(-339.3910217285156px, -584.400146484375px);transform: translate(339.3910217285156px, 584.400146484375px) rotate(20deg) translate(-339.3910217285156px, -584.400146484375px);}100%{-webkit-transform: translate(339.3910217285156px, 584.400146484375px) rotate(20deg) translate(-339.3910217285156px, -584.400146484375px);transform: translate(339.3910217285156px, 584.400146484375px) rotate(20deg) translate(-339.3910217285156px, -584.400146484375px);}}@keyframes kf_el_3DWHXVH882_an_CHiK1jD4A{0%{-webkit-transform: translate(339.3910217285156px, 584.400146484375px) rotate(20deg) translate(-339.3910217285156px, -584.400146484375px);transform: translate(339.3910217285156px, 584.400146484375px) rotate(20deg) translate(-339.3910217285156px, -584.400146484375px);}21.11%{-webkit-transform: translate(339.3910217285156px, 584.400146484375px) rotate(0deg) translate(-339.3910217285156px, -584.400146484375px);transform: translate(339.3910217285156px, 584.400146484375px) rotate(0deg) translate(-339.3910217285156px, -584.400146484375px);}41.11%{-webkit-transform: translate(339.3910217285156px, 584.400146484375px) rotate(20deg) translate(-339.3910217285156px, -584.400146484375px);transform: translate(339.3910217285156px, 584.400146484375px) rotate(20deg) translate(-339.3910217285156px, -584.400146484375px);}100%{-webkit-transform: translate(339.3910217285156px, 584.400146484375px) rotate(20deg) translate(-339.3910217285156px, -584.400146484375px);transform: translate(339.3910217285156px, 584.400146484375px) rotate(20deg) translate(-339.3910217285156px, -584.400146484375px);}}@-webkit-keyframes kf_el_cqRVHpdDpv_an_rujSw6Ea9{0%{-webkit-transform: translate(674px, 506.9999694824219px) rotate(0deg) translate(-674px, -506.9999694824219px);transform: translate(674px, 506.9999694824219px) rotate(0deg) translate(-674px, -506.9999694824219px);}21.11%{-webkit-transform: translate(674px, 506.9999694824219px) rotate(5deg) translate(-674px, -506.9999694824219px);transform: translate(674px, 506.9999694824219px) rotate(5deg) translate(-674px, -506.9999694824219px);}41.11%{-webkit-transform: translate(674px, 506.9999694824219px) rotate(0deg) translate(-674px, -506.9999694824219px);transform: translate(674px, 506.9999694824219px) rotate(0deg) translate(-674px, -506.9999694824219px);}100%{-webkit-transform: translate(674px, 506.9999694824219px) rotate(0deg) translate(-674px, -506.9999694824219px);transform: translate(674px, 506.9999694824219px) rotate(0deg) translate(-674px, -506.9999694824219px);}}@keyframes kf_el_cqRVHpdDpv_an_rujSw6Ea9{0%{-webkit-transform: translate(674px, 506.9999694824219px) rotate(0deg) translate(-674px, -506.9999694824219px);transform: translate(674px, 506.9999694824219px) rotate(0deg) translate(-674px, -506.9999694824219px);}21.11%{-webkit-transform: translate(674px, 506.9999694824219px) rotate(5deg) translate(-674px, -506.9999694824219px);transform: translate(674px, 506.9999694824219px) rotate(5deg) translate(-674px, -506.9999694824219px);}41.11%{-webkit-transform: translate(674px, 506.9999694824219px) rotate(0deg) translate(-674px, -506.9999694824219px);transform: translate(674px, 506.9999694824219px) rotate(0deg) translate(-674px, -506.9999694824219px);}100%{-webkit-transform: translate(674px, 506.9999694824219px) rotate(0deg) translate(-674px, -506.9999694824219px);transform: translate(674px, 506.9999694824219px) rotate(0deg) translate(-674px, -506.9999694824219px);}}@-webkit-keyframes kf_el_nK1P7XKGAv_an_RVYJNTH3L{0%{-webkit-transform: translate(682.3609619140625px, 565.9998168945312px) rotate(0deg) translate(-682.3609619140625px, -565.9998168945312px);transform: translate(682.3609619140625px, 565.9998168945312px) rotate(0deg) translate(-682.3609619140625px, -565.9998168945312px);}21.11%{-webkit-transform: translate(682.3609619140625px, 565.9998168945312px) rotate(20deg) translate(-682.3609619140625px, -565.9998168945312px);transform: translate(682.3609619140625px, 565.9998168945312px) rotate(20deg) translate(-682.3609619140625px, -565.9998168945312px);}41.11%{-webkit-transform: translate(682.3609619140625px, 565.9998168945312px) rotate(0deg) translate(-682.3609619140625px, -565.9998168945312px);transform: translate(682.3609619140625px, 565.9998168945312px) rotate(0deg) translate(-682.3609619140625px, -565.9998168945312px);}100%{-webkit-transform: translate(682.3609619140625px, 565.9998168945312px) rotate(0deg) translate(-682.3609619140625px, -565.9998168945312px);transform: translate(682.3609619140625px, 565.9998168945312px) rotate(0deg) translate(-682.3609619140625px, -565.9998168945312px);}}@keyframes kf_el_nK1P7XKGAv_an_RVYJNTH3L{0%{-webkit-transform: translate(682.3609619140625px, 565.9998168945312px) rotate(0deg) translate(-682.3609619140625px, -565.9998168945312px);transform: translate(682.3609619140625px, 565.9998168945312px) rotate(0deg) translate(-682.3609619140625px, -565.9998168945312px);}21.11%{-webkit-transform: translate(682.3609619140625px, 565.9998168945312px) rotate(20deg) translate(-682.3609619140625px, -565.9998168945312px);transform: translate(682.3609619140625px, 565.9998168945312px) rotate(20deg) translate(-682.3609619140625px, -565.9998168945312px);}41.11%{-webkit-transform: translate(682.3609619140625px, 565.9998168945312px) rotate(0deg) translate(-682.3609619140625px, -565.9998168945312px);transform: translate(682.3609619140625px, 565.9998168945312px) rotate(0deg) translate(-682.3609619140625px, -565.9998168945312px);}100%{-webkit-transform: translate(682.3609619140625px, 565.9998168945312px) rotate(0deg) translate(-682.3609619140625px, -565.9998168945312px);transform: translate(682.3609619140625px, 565.9998168945312px) rotate(0deg) translate(-682.3609619140625px, -565.9998168945312px);}}@-webkit-keyframes kf_el_esl0L8LDs5_an_4k5h7Nd1l{0%{-webkit-transform: translate(552.1235961914062px, 527.9990844726562px) rotate(0deg) translate(-552.1235961914062px, -527.9990844726562px);transform: translate(552.1235961914062px, 527.9990844726562px) rotate(0deg) translate(-552.1235961914062px, -527.9990844726562px);}21.11%{-webkit-transform: translate(552.1235961914062px, 527.9990844726562px) rotate(5deg) translate(-552.1235961914062px, -527.9990844726562px);transform: translate(552.1235961914062px, 527.9990844726562px) rotate(5deg) translate(-552.1235961914062px, -527.9990844726562px);}41.11%{-webkit-transform: translate(552.1235961914062px, 527.9990844726562px) rotate(0deg) translate(-552.1235961914062px, -527.9990844726562px);transform: translate(552.1235961914062px, 527.9990844726562px) rotate(0deg) translate(-552.1235961914062px, -527.9990844726562px);}100%{-webkit-transform: translate(552.1235961914062px, 527.9990844726562px) rotate(0deg) translate(-552.1235961914062px, -527.9990844726562px);transform: translate(552.1235961914062px, 527.9990844726562px) rotate(0deg) translate(-552.1235961914062px, -527.9990844726562px);}}@keyframes kf_el_esl0L8LDs5_an_4k5h7Nd1l{0%{-webkit-transform: translate(552.1235961914062px, 527.9990844726562px) rotate(0deg) translate(-552.1235961914062px, -527.9990844726562px);transform: translate(552.1235961914062px, 527.9990844726562px) rotate(0deg) translate(-552.1235961914062px, -527.9990844726562px);}21.11%{-webkit-transform: translate(552.1235961914062px, 527.9990844726562px) rotate(5deg) translate(-552.1235961914062px, -527.9990844726562px);transform: translate(552.1235961914062px, 527.9990844726562px) rotate(5deg) translate(-552.1235961914062px, -527.9990844726562px);}41.11%{-webkit-transform: translate(552.1235961914062px, 527.9990844726562px) rotate(0deg) translate(-552.1235961914062px, -527.9990844726562px);transform: translate(552.1235961914062px, 527.9990844726562px) rotate(0deg) translate(-552.1235961914062px, -527.9990844726562px);}100%{-webkit-transform: translate(552.1235961914062px, 527.9990844726562px) rotate(0deg) translate(-552.1235961914062px, -527.9990844726562px);transform: translate(552.1235961914062px, 527.9990844726562px) rotate(0deg) translate(-552.1235961914062px, -527.9990844726562px);}}@-webkit-keyframes kf_el_Ul60Vbt3tM_an_ibn4_-bSN{0%{-webkit-transform: translate(590.7622680664062px, 611.1111450195312px) rotate(0deg) translate(-590.7622680664062px, -611.1111450195312px);transform: translate(590.7622680664062px, 611.1111450195312px) rotate(0deg) translate(-590.7622680664062px, -611.1111450195312px);}21.11%{-webkit-transform: translate(590.7622680664062px, 611.1111450195312px) rotate(20deg) translate(-590.7622680664062px, -611.1111450195312px);transform: translate(590.7622680664062px, 611.1111450195312px) rotate(20deg) translate(-590.7622680664062px, -611.1111450195312px);}41.11%{-webkit-transform: translate(590.7622680664062px, 611.1111450195312px) rotate(0deg) translate(-590.7622680664062px, -611.1111450195312px);transform: translate(590.7622680664062px, 611.1111450195312px) rotate(0deg) translate(-590.7622680664062px, -611.1111450195312px);}100%{-webkit-transform: translate(590.7622680664062px, 611.1111450195312px) rotate(0deg) translate(-590.7622680664062px, -611.1111450195312px);transform: translate(590.7622680664062px, 611.1111450195312px) rotate(0deg) translate(-590.7622680664062px, -611.1111450195312px);}}@keyframes kf_el_Ul60Vbt3tM_an_ibn4_-bSN{0%{-webkit-transform: translate(590.7622680664062px, 611.1111450195312px) rotate(0deg) translate(-590.7622680664062px, -611.1111450195312px);transform: translate(590.7622680664062px, 611.1111450195312px) rotate(0deg) translate(-590.7622680664062px, -611.1111450195312px);}21.11%{-webkit-transform: translate(590.7622680664062px, 611.1111450195312px) rotate(20deg) translate(-590.7622680664062px, -611.1111450195312px);transform: translate(590.7622680664062px, 611.1111450195312px) rotate(20deg) translate(-590.7622680664062px, -611.1111450195312px);}41.11%{-webkit-transform: translate(590.7622680664062px, 611.1111450195312px) rotate(0deg) translate(-590.7622680664062px, -611.1111450195312px);transform: translate(590.7622680664062px, 611.1111450195312px) rotate(0deg) translate(-590.7622680664062px, -611.1111450195312px);}100%{-webkit-transform: translate(590.7622680664062px, 611.1111450195312px) rotate(0deg) translate(-590.7622680664062px, -611.1111450195312px);transform: translate(590.7622680664062px, 611.1111450195312px) rotate(0deg) translate(-590.7622680664062px, -611.1111450195312px);}}#el_YvppAu-u- *{-webkit-animation-duration: 3s;animation-duration: 3s;-webkit-animation-iteration-count: 1;animation-iteration-count: 1;-webkit-animation-timing-function: cubic-bezier(0, 0, 1, 1);animation-timing-function: cubic-bezier(0, 0, 1, 1);}#el_cqRVHpdDpv{fill: #7a7979;}#el_nK1P7XKGAv{fill: #7a7979;}#el_esl0L8LDs5{fill: #8e8d8d;}#el_Ul60Vbt3tM{fill: #8e8d8d;}#el_ps_MIl1B1P{fill: #8e8d8d;}#el_3DWHXVH882{fill: #8e8d8d;}#el_s7d7hKcdMo{fill: #8e8d8d;}#el_g3_VdbnZqO{fill: #8e8d8d;}#el_MrYaLR1cQt{fill: #a0a0a0;}#el_M8_1IuJJrt{fill: #8e8e8e;}#el_rCGWJAaROQv{fill: #a3a3a3;}#el_RK34nG4RxSL{fill: #c1bfbf;}#el_xqx4qvK418a{fill: #727070;}#el_eB4AckT8I8p{fill: #9da018;}#el_Ul60Vbt3tM_an_ibn4_-bSN{-webkit-animation-fill-mode: backwards;animation-fill-mode: backwards;-webkit-transform: translate(590.7622680664062px, 611.1111450195312px) rotate(0deg) translate(-590.7622680664062px, -611.1111450195312px);transform: translate(590.7622680664062px, 611.1111450195312px) rotate(0deg) translate(-590.7622680664062px, -611.1111450195312px);-webkit-animation-name: kf_el_Ul60Vbt3tM_an_ibn4_-bSN;animation-name: kf_el_Ul60Vbt3tM_an_ibn4_-bSN;-webkit-animation-timing-function: cubic-bezier(0, 0, 1, 1);animation-timing-function: cubic-bezier(0, 0, 1, 1);}#el_esl0L8LDs5_an_4k5h7Nd1l{-webkit-animation-fill-mode: backwards;animation-fill-mode: backwards;-webkit-transform: translate(552.1235961914062px, 527.9990844726562px) rotate(0deg) translate(-552.1235961914062px, -527.9990844726562px);transform: translate(552.1235961914062px, 527.9990844726562px) rotate(0deg) translate(-552.1235961914062px, -527.9990844726562px);-webkit-animation-name: kf_el_esl0L8LDs5_an_4k5h7Nd1l;animation-name: kf_el_esl0L8LDs5_an_4k5h7Nd1l;-webkit-animation-timing-function: cubic-bezier(0, 0, 1, 1);animation-timing-function: cubic-bezier(0, 0, 1, 1);}#el_s7d7hKcdMo_an_0_TOyR51j{-webkit-transform: translate(741.169921875px, 583.2798461914062px) rotate(0deg) translate(-741.169921875px, -583.2798461914062px);transform: translate(741.169921875px, 583.2798461914062px) rotate(0deg) translate(-741.169921875px, -583.2798461914062px);}#el_g3_VdbnZqO_an_ODsMZLgyz{-webkit-transform: translate(728.1013793945312px, 501.2060852050781px) rotate(0deg) translate(-728.1013793945312px, -501.2060852050781px);transform: translate(728.1013793945312px, 501.2060852050781px) rotate(0deg) translate(-728.1013793945312px, -501.2060852050781px);}#el_nK1P7XKGAv_an_RVYJNTH3L{-webkit-animation-fill-mode: backwards;animation-fill-mode: backwards;-webkit-transform: translate(682.3609619140625px, 565.9998168945312px) rotate(0deg) translate(-682.3609619140625px, -565.9998168945312px);transform: translate(682.3609619140625px, 565.9998168945312px) rotate(0deg) translate(-682.3609619140625px, -565.9998168945312px);-webkit-animation-name: kf_el_nK1P7XKGAv_an_RVYJNTH3L;animation-name: kf_el_nK1P7XKGAv_an_RVYJNTH3L;-webkit-animation-timing-function: cubic-bezier(0, 0, 1, 1);animation-timing-function: cubic-bezier(0, 0, 1, 1);}#el_cqRVHpdDpv_an_rujSw6Ea9{-webkit-animation-fill-mode: backwards;animation-fill-mode: backwards;-webkit-transform: translate(674px, 506.9999694824219px) rotate(0deg) translate(-674px, -506.9999694824219px);transform: translate(674px, 506.9999694824219px) rotate(0deg) translate(-674px, -506.9999694824219px);-webkit-animation-name: kf_el_cqRVHpdDpv_an_rujSw6Ea9;animation-name: kf_el_cqRVHpdDpv_an_rujSw6Ea9;-webkit-animation-timing-function: cubic-bezier(0, 0, 1, 1);animation-timing-function: cubic-bezier(0, 0, 1, 1);}#el_3DWHXVH882_an_CHiK1jD4A{-webkit-animation-fill-mode: backwards;animation-fill-mode: backwards;-webkit-transform: translate(339.3910217285156px, 584.400146484375px) rotate(20deg) translate(-339.3910217285156px, -584.400146484375px);transform: translate(339.3910217285156px, 584.400146484375px) rotate(20deg) translate(-339.3910217285156px, -584.400146484375px);-webkit-animation-name: kf_el_3DWHXVH882_an_CHiK1jD4A;animation-name: kf_el_3DWHXVH882_an_CHiK1jD4A;-webkit-animation-timing-function: cubic-bezier(0, 0, 1, 1);animation-timing-function: cubic-bezier(0, 0, 1, 1);}#el_ps_MIl1B1P_an_KN-fNnR4h{-webkit-animation-fill-mode: backwards;animation-fill-mode: backwards;-webkit-transform: translate(376.0559997558594px, 486.998046875px) rotate(5deg) translate(-376.0559997558594px, -486.998046875px);transform: translate(376.0559997558594px, 486.998046875px) rotate(5deg) translate(-376.0559997558594px, -486.998046875px);-webkit-animation-name: kf_el_ps_MIl1B1P_an_KN-fNnR4h;animation-name: kf_el_ps_MIl1B1P_an_KN-fNnR4h;-webkit-animation-timing-function: cubic-bezier(0, 0, 1, 1);animation-timing-function: cubic-bezier(0, 0, 1, 1);}#el_s7d7hKcdMo_an_Wk0JO4ml5{-webkit-animation-fill-mode: backwards;animation-fill-mode: backwards;-webkit-transform: translate(741.169921875px, 583.2798461914062px) rotate(20deg) translate(-741.169921875px, -583.2798461914062px);transform: translate(741.169921875px, 583.2798461914062px) rotate(20deg) translate(-741.169921875px, -583.2798461914062px);-webkit-animation-name: kf_el_s7d7hKcdMo_an_Wk0JO4ml5;animation-name: kf_el_s7d7hKcdMo_an_Wk0JO4ml5;-webkit-animation-timing-function: cubic-bezier(0, 0, 1, 1);animation-timing-function: cubic-bezier(0, 0, 1, 1);}#el_g3_VdbnZqO_an_eK-PyZIh3{-webkit-animation-fill-mode: backwards;animation-fill-mode: backwards;-webkit-transform: translate(728.1013793945312px, 501.2060852050781px) rotate(5deg) translate(-728.1013793945312px, -501.2060852050781px);transform: translate(728.1013793945312px, 501.2060852050781px) rotate(5deg) translate(-728.1013793945312px, -501.2060852050781px);-webkit-animation-name: kf_el_g3_VdbnZqO_an_eK-PyZIh3;animation-name: kf_el_g3_VdbnZqO_an_eK-PyZIh3;-webkit-animation-timing-function: cubic-bezier(0, 0, 1, 1);animation-timing-function: cubic-bezier(0, 0, 1, 1);}</style><defs/><title>Artboard 1</title><g id="el_9hLfbRcGZ1"><g id="el_cqRVHpdDpv_an_rujSw6Ea9" data-animator-group="true" data-animator-type="1"><path d="M732.6,556.1c-.9-8.8-3.6-40.2-4.6-49.1-15.7,7.7-37.1,21.6-54,26a22.7,22.7,0,0,1,.6,2.5c2.1,4.7,3,7.9,5.1,12.6,3.5,7.9,7,14.9,9.2,23.3,1,4.2,2,8.7,5.2,11.7a14.1,14.1,0,0,0,5.4,3.2,26.3,26.3,0,0,0,19.7.2c6.3-2.6,11.3-8.3,12.4-14.9.5-3.1.1-6.3.4-9.5S732.9,558.5,732.6,556.1Z" id="el_cqRVHpdDpv"/></g><g id="el_nK1P7XKGAv_an_RVYJNTH3L" data-animator-group="true" data-animator-type="1"><path d="M747.8,635.9c.3,2.9.4,6.2-1.4,8.5a10.7,10.7,0,0,1-5.4,3.3c-16.3,5.5-34.2,0-50.4-6.2-2.2-.9-4.7-2.2-5.2-4.5s.4-3.4-.1-5-3.3-3.4-2.9-5.6,2.4-2.3,4.1-2.9c4.6-1.9,7.3-6.7,9.6-11.2s3.8-7.4,4.1-11.5-3.9-8.9-5.3-13.5-2-7.7-.3-11.1,3.9-4,6.4-5.3a59.8,59.8,0,0,1,9.1-3.7,18.4,18.4,0,0,1,6.6-1.2,21,21,0,0,1,6,1.4,22.4,22.4,0,0,1,9.2,5.9c3.6,4.4,4.4,10.4,5.1,16C739.2,605.4,746.1,619.8,747.8,635.9Z" id="el_nK1P7XKGAv"/></g></g><g id="el_LrvADmT8eV"><g id="el_esl0L8LDs5_an_4k5h7Nd1l" data-animator-group="true" data-animator-type="1"><path d="M561,564c2.3,8.5,8.8,24.2,12.3,32.2l20.4,45.1c1.2,2.6,2.4,5.3,4.3,7.3s5.7,3.4,8.8,4.3c8.5,2.6,17,5.2,25.7,6.4s17.7.8,26-2.3a30.5,30.5,0,0,0,9.2-5.4c8-7.1,10.6-19.2,12-30.4s3.3-26.8,1.6-39.4a87.3,87.3,0,0,0-4.1-17.5c-.5-1.5-14.4-36.5-15.2-36.3-34.8,10.7-61.2,24.6-97,30-1.4.2-2.1,2.2-2.8,3.4l-1.4,2.5a4.6,4.6,0,0,1-8.1-4.5,5,5,0,0,1,6.3-1.9A5.3,5.3,0,0,1,561,564Z" id="el_esl0L8LDs5"/></g><g id="el_Ul60Vbt3tM_an_ibn4_-bSN" data-animator-group="true" data-animator-type="1"><path d="M666.7,675.7c-2.3,11.6-3.7,24.6,3,34.3,2.1,3,5.1,6.2,4.5,9.8a10.1,10.1,0,0,1-2,4c-7.5,10.1-19.7,16.3-32.3,17.4s-25.2-2.4-35.9-9c-5-3.2-9.9-7.2-11.9-12.7-1.4-3.8-1.4-7.8-1.3-11.8,0-7.8.2-15.9,3.8-22.9,1.6-3,3.8-5.8,5-9s1.4-8.7,1.1-13.1c-.4-7.5-2.5-14.7-4.3-22-.8-3.5-1.6-7.4-.2-10.7a16.8,16.8,0,0,1,4.8-5.5c17.8-14,43.4-17.4,64.2-8.4,4,1.7,8,3.9,10.5,7.4s3.9,10.9,3.7,16.6c-.2,8.5-1.7,17.3-6.4,24.4C669.7,669.4,667.8,669.9,666.7,675.7Z" id="el_Ul60Vbt3tM"/></g></g><g id="el_3XUO76ikDE"><g id="el_ps_MIl1B1P_an_KN-fNnR4h" data-animator-group="true" data-animator-type="1"><path d="M382.5,522.2c.2.8-1.6.1-1.1-.6S398.2,486.7,399,487c27,10.7,27.2,19.3,56,23,1.2.2,7.8,52.2,8.3,53.2a3.1,3.1,0,0,1,.2,1.9c-.6,8.9-1.3,18-4.3,26.4a99.1,99.1,0,0,1-6.6,13.5c-4.8,8.8-9,17.2-15.7,24.7a15.6,15.6,0,0,1-4.1,3.6,14.3,14.3,0,0,1-5.8,1.6c-11.5,1.1-22.9-3.3-33-8.9-6.8-3.6-13.6-8.3-16.3-15.5-1.5-4-1.6-8.4-1.6-12.6-.1-16.6-.3-33.3,2.9-49.5C380.9,539,385.1,531.3,382.5,522.2Z" id="el_ps_MIl1B1P"/></g><g id="el_3DWHXVH882_an_CHiK1jD4A" data-animator-group="true" data-animator-type="1"><path d="M433.4,638.9c-5.1,8-11.4,16.7-9.4,25.9.8,4,3.2,7.6,4.6,11.4s2,8.6-.7,11.7-5.6,3.4-8.8,4.1l-33,7c-11.9,2.6-24.2,5.1-35.9,1.9-5.9-1.6-12.3-6.7-10.5-12.5s8.4-7,9.9-12c.8-2.8-.3-5.7-.8-8.6-1.6-8.6,2.5-17.2,7.3-24.5s10.5-14.2,13-22.6c3.4-11.1,3.7-24.2,13-31.1,5-3.8,11.4-5.2,17.7-5.2s12.4,1.4,18.5,3,11.1,3.1,15.1,7,6.2,11,6.5,17.4C440.2,621.3,438.6,630.9,433.4,638.9Z" id="el_3DWHXVH882"/></g></g><g id="el_JucwZiBjA-"><g id="el_s7d7hKcdMo_an_Wk0JO4ml5" data-animator-group="true" data-animator-type="1"><path d="M820.9,662.7c-.9,6.9-4.2,14.2-1.4,20.5s11.9,9.5,15.2,16.2c-4.4,3.5-5.8,10.3-10.9,12.7a14.8,14.8,0,0,1-5.9,1.2l-22,1.8c-5.2.4-10.4.9-15.6-.1s-11.5-4.3-17.4-5.9c-3.9-1-7.9-1.4-11.4-3.2-6.6-3.4-10-11-10.3-18.3s1.7-14.6,3.6-21.7c2.4-9.2,4.6-18.6,4.6-28.1,0-14.1-10.1-28.3-4.3-41.1,4.8-10.3,18.1-13.2,29.5-13.4A64.4,64.4,0,0,1,791,585a39.8,39.8,0,0,1,27.9,29.6A141.4,141.4,0,0,1,820.9,662.7Z" id="el_s7d7hKcdMo"/></g><g id="el_g3_VdbnZqO_an_eK-PyZIh3" data-animator-group="true" data-animator-type="1"><path d="M810.3,549.3c.8-4,1.9-8,4.4-11.2,3.7-4.9,10.8-8.4,10.4-14.6-.2-2.5-.7-5-1.1-7.5-27-7.6-51.2-20.5-78-12-4,1.3-14.7,9.5-17,13s.4,24.6,1.6,29.7c2.7,11.9,6.3,23.7,9.6,35.5s6.4,22.6,13.2,32,18.1,16.4,29.6,15c6.8-.9,13-4.6,18.4-8.8s9.1-8.1,11.1-13.8c1.4-3.8,1.5-7.9,1.6-11.9C814.3,578.6,807.2,565.1,810.3,549.3Z" id="el_g3_VdbnZqO"/></g></g><g id="el_q-Cn7crEaR"><path d="M73.1,336c4.3-6.9,5.6-21.1,6.5-29.2a102.9,102.9,0,0,1,9-32.5c1.2-2.6,2.7-5.4,5.3-6.6s6.2-.3,9,.9c12.7,5,23.9,13.2,35.5,20.3s28,16.7,41.7,17.1c-13.6,12.2-32.2,10.8-48,20-12.9,7.5-35.9,6.3-52,9" id="el_MrYaLR1cQt"/><path d="M229.1,290c-40.7-24.8-84.1-54.3-130.2-66-6.1-1.5-12.7-3.1-16.7-8,1.3-2,4.2-2.2,6.6-2.1a370.9,370.9,0,0,1,54.6,6.1c16,3,31.9,7.1,46.6,14,23.8,11.1,43.6,29.1,62.3,47.5" id="el_M8_1IuJJrt"/><path d="M333,270.4l-28.3-7.1c-14.4-3.7-28.9-7.4-42-14.4-9.8-5.2-18.5-12.2-27.7-18.4-34.8-23.5-75.5-36.3-115.8-47.9-13.8-4-28.2-7.8-42.1-4.8a5.8,5.8,0,0,0-3.4,1.7c-1.2,1.5-.6,3.9.8,5.3a12.2,12.2,0,0,0,5.2,2.6A520.7,520.7,0,0,1,200,241.6a159.2,159.2,0,0,1,18.5,12.7c8.5,7,15.7,15.5,24.4,22.2,2.8,2.2,5.8,4.2,9.3,5s6.9.4,10.4-.1a497.2,497.2,0,0,0,63.8-12.9" id="el_rCGWJAaROQv"/></g><g id="el_N5jFiwTJeIS"><path d="M560.9,284.8c94.2-40.6,211.4-20.8,287,48.6,15,13.8,29.3,31.2,29.8,51.7.4,14.4-6.2,28.1-8.5,42.3-7.9,49.1,34.3,90.5,52.3,136.9a398.3,398.3,0,0,1-85.6-52.1c-8,13.2-27.1,11.4-42.6,10.6-28.4-1.5-60.6,14-88.2,21.2-45.3,11.8-55.7,19.2-101,31-7.7,2-40.2-1.7-36,5-56,3-113.3-12.5-158.3-40.6-23.2-14.5-44.8-32.1-70-42.7-22.2-9.3-46.4-12.7-70.2-15.9-20.4-2.7-41.2-5.3-61.6-2.5-22,3.1-42.6,12.5-64.5,16.2s-47.2.6-61.2-16.6a220,220,0,0,0,64.9-39.4c4.4-3.9,8.8-10.6,4.9-14.9-1.7-1.8-4.4-2.3-6.9-2.7l-51.8-7.6c-6.4-1-13.9-1.5-18,3.5-2.5,3-2.9,7.2-4.9,10.5-7.1,12.2-28.2,2.8-30.5-11.1s6.1-27,12.9-39.4,11.9-28.5,3.6-40c93.7-8.5,178.6-67.3,272.6-67.5,23.1-.1,46.5,3.4,69-1.4,61-13.2,103.6-84.3,165.8-79.4,13.1,1,28.2,8.5,29,21.7.3,6-2.5,11.7-5.3,17q-14,27.3-28,54.6" id="el_RK34nG4RxSL"/><path d="M367.9,271.2c18.4-.5,36.8-3.9,53.8-11.1,23.4-9.9,43.2-26.5,63.8-41.4s43.3-28.5,68.6-31c8.2-.8,16.6-.4,24.1,2.9s13.9,10,15.2,18.1c2,11.3-5.6,21.8-11.8,31.5-12.6,19.6-20.7,41.7-31.2,62.5-18.7,37.2-46.7,71.6-85,87.8-11.8,5-24.3,8.2-36.8,11.2-24.1,5.9-48.3,11.6-72.6,16.9-5.7,1.3-12.5,2.4-16.9-1.6s-4.1-12-2.8-18.5q13.3-64.8,32.7-128.3" id="el_xqx4qvK418a"/></g><g id="el_GN3hxqFEpUg"><path d="M243.4,331.3a20.5,20.5,0,0,1,6.5-6.9,11,11,0,0,1,9.2-1.1,16.1,16.1,0,0,1,3.3,2l7.5,5c-3.6,3.9-8.3,6.9-13.5,7.5s-10.9-1.4-13.8-5.8" id="el_eB4AckT8I8p"/><path d="M244.7,332c2.4-3.8,6-7.7,10.9-7.8,2.6,0,4.6,1.4,6.6,2.8l6.9,4.6-.3-2.3c-3.4,3.6-8,6.7-13.1,7.1s-9.2-1.4-11.8-5.2c-1.1-1.5-3.7,0-2.6,1.6a16,16,0,0,0,14,6.6c6.1-.3,11.6-3.7,15.6-8a1.5,1.5,0,0,0-.3-2.4l-7.8-5.3a12,12,0,0,0-8-2.4c-5.7.5-9.8,4.6-12.7,9.2a1.5,1.5,0,0,0,2.6,1.5Z" id="el_VkpvTZ_3LEH"/><path d="M275.2,323.3c-2.3-3-4.7-6-7.8-8.1a14.3,14.3,0,0,0-11.2-2c-6.9,1.3-14.4,5.3-16.6,12.3-.5,1.8,2.4,2.6,2.9.8,1.8-5.9,8.4-9,14-10.1a11.8,11.8,0,0,1,9.5,1.7,28.8,28.8,0,0,1,6.6,6.9c1.1,1.5,3.7,0,2.6-1.5Z" id="el_GkPJZsjnZwB"/><path d="M254,329.4h-.3l.8.2h-.3l.7.4-.3-.2a.9.9,0,0,1,.6.6l-.2-.3a1.6,1.6,0,0,1,.4.7v-.4c0,.2.1.3.1.4l.2-1.1h-.1l.2-.3-.4.4.3-.3-.5.3h.4l-.7.2h.1l-.6-.2h.3l-.4-.2.3.2a.8.8,0,0,1-.4-.4l.3.3a.5.5,0,0,1-.3-.5v.4c-.1-.2-.1-.4-.2-.6v.1a6.4,6.4,0,0,1,.2-.7l-.2.4.3-.5-.2.3c0-.1.1-.1.2-.2a2.1,2.1,0,0,0,.4-1.1,1.3,1.3,0,0,0-.4-1,1.4,1.4,0,0,0-2.1,0,3.4,3.4,0,0,0-1,1.6,4.1,4.1,0,0,0-.1,1.9c.1.2.1.4.2.6a2,2,0,0,0,.4.8,3.9,3.9,0,0,0,1.4,1.2,3.1,3.1,0,0,0,1.9.4,4.1,4.1,0,0,0,1.8-.5,3,3,0,0,0,1.3-1.2,2,2,0,0,0-.1-2l-.3-.6a5.2,5.2,0,0,0-1.6-1.4,5.8,5.8,0,0,0-2.1-.7,1.6,1.6,0,0,0-1.1.5,1.8,1.8,0,0,0-.4,1,1.4,1.4,0,0,0,1.5,1.5Z" id="el_MpZayzjTZ3a"/></g></svg>